<?xml version="1.0" encoding="utf-8"?>
<!-- Generator: Adobe Illustrator 22.0.0, SVG Export Plug-In . SVG Version: 6.00 Build 0)  -->
<svg version="1.1" id="Слой_1" xmlns="http://www.w3.org/2000/svg" xmlns:xlink="http://www.w3.org/1999/xlink" x="0px" y="0px"
	 viewBox="0 0 1200 800" style="enable-background:new 0 0 1200 800;" xml:space="preserve">
<style type="text/css">
	.st0{fill:#E30A17;}
	.st1{fill:#FFFFFF;}
	.st2{fill:#FEFEFE;}
	.st3{fill-rule:evenodd;clip-rule:evenodd;fill:#FFFFFF;}
	.st4{fill:none;stroke:#FFFFFF;stroke-width:10;stroke-miterlimit:10;}
</style>
<rect x="0" class="st0" width="1200" height="800"/>
<g>
	<circle class="st1" cx="547.8" cy="280" r="150"/>
	<circle class="st0" cx="585.3" cy="280" r="120"/>
	<polygon class="st1" points="666.5,280 802.2,324.1 718.4,208.7 718.4,351.3 802.2,235.9 	"/>
</g>
<path class="st2" d="M404.8,555.5c0.5-2.8,3.3-4.7,6.1-4.1c38.9,8.3,90.9,17.9,152.7,24.6c26.9,2.9,115,12.6,195.9,8.7
	c49.5-2.4,129.1-4.7,223.8-37.8c37.3-13.1,74.3-36.6,116.7-58.3c-5.4,13.8-14.8,33.4-30.9,53.5c-21.4,26.7-43.9,40.6-59.9,50.3
	c-28.4,17.3-54.7,26.6-83.6,34.7c-27.3,7.6-101.5,26.5-204.8,28c-45.7,0.6-87.1-2.3-114.1-4.2c-38.2-2.7-66.6-6-74.7-7
	c-19.2-2.3-58.5-7.4-108.2-17c-10.1-2-18.9-3.8-25.8-5.2c-2.7-0.6-4.5-3.3-4-6.1c1.1-6.1,2.2-12.3,3.3-18.4c0.6-3.5,20-6.9,20-6.9
	c0,0,0,0,0,0c0,0-16.8-10.7-16.2-14.1C402.4,569.2,403.6,562.4,404.8,555.5z"/>
<path class="st0" d="M428.1,600.3c49.4,8.7,88.4,13.3,107.5,15.4c8,0.9,36.3,3.9,74.3,6.3c26.9,1.7,68,4.4,113.4,3.8
	c102.7-1.3,176.4-18.4,203.5-25.3c28.8-7.3,63.5-21.2,83.1-31.4c11.6-6,44.5-26.5,44.5-26.5s-58.2,27.5-79,33.7
	c-53.6,16.2-173.2,32-222.4,34.2c-80.4,3.6-168-5.2-194.7-7.8c-64.1-6.4-117-15.4-156.2-23.2l-2.8,15.4L428.1,600.3z"/>
<path class="st1" d="M332.4,460c13.9,84.7-1.7,149.2-41.5,196.8c22.2-4.3,43.6-16.4,64.1-36.2c6.2-33,12.4-65.9,18.6-98.9
	C365.8,482.9,350.2,468.1,332.4,460L332.4,460z"/>
<path class="st1" d="M310.4,543.1c-5,13.7-12.8,21.6-24.2,37.4c-10.4,11.3-24.1,15.2-30.9,6.7c-6.9-8.7-3.1-11.1,2.3-18.5
	c11.1-15.1,17.7-28.8,21.1-41.3c9.4-9,19.6-8.7,27-2.5C313.3,531.2,313.5,534.6,310.4,543.1z"/>
<path class="st1" d="M271.6,540.3c-5,13.7-12.8,21.6-24.2,37.4c-10.4,11.3-24.1,15.2-30.9,6.7c-6.9-8.7-3.1-11.1,2.3-18.5
	c11.1-15.1,17.7-28.8,21.1-41.3c9.4-9,19.6-8.7,27-2.5C274.5,528.4,274.7,531.8,271.6,540.3L271.6,540.3z"/>
<path class="st1" d="M199,524.9c-6.4,14.2-14.2,26.1-25.4,41.9c-10.2,10.9-22.8,9.2-27.9,1.7c-6.2-9.2-1.3-13.7,4.1-21.1
	c11.1-15.1,15.9-26.1,19.3-38.7c9.4-9,19.6-8.7,27-2.5C203.7,512.4,202.7,516.6,199,524.9z"/>
<path class="st1" d="M234.9,531.5c-5,13.7-13.2,28.5-24.6,44.4c-10.4,11.3-23.6,8.3-30.4-0.2c-6.9-8.7-3.1-11.1,2.3-18.5
	c11.1-15.1,17.7-28.8,21.1-41.3c9.4-9,19.6-8.7,27-2.5C237.9,519.6,238.1,523,234.9,531.5L234.9,531.5z"/>
<g>
	<path class="st1" d="M321.2,585.3c-5.8,9.3-18.4,7-23.7,0.4c-6.9-8.7-3.1-11.1,2.3-18.5c11.1-15.1,14.5-30.2,21.1-41.3
		c0.2-0.4,0.7-1.1,1-0.9C335.5,530.7,331.3,569.1,321.2,585.3z"/>
</g>
<path class="st1" d="M164.5,518.7c-6.4,14.2-14.2,26.1-25.4,41.9c-10.2,10.9-22.8,9.2-27.9,1.7c-6.2-9.2-1.3-13.7,4.1-21.1
	c11.1-15.1,15.9-26.1,19.3-38.7c9.4-9,19.6-8.7,27-2.5C169.2,506.2,168.2,510.4,164.5,518.7z"/>
<path class="st3" d="M131,509.3c-0.6-0.2-2.5-0.5-2.5-0.5l-2.5-0.2l-2.3-0.2l-2.4,0.1l-2.1,0.1l-2.1,0.3l-2,0.4l-1.9,0.6l-1.8,0.6
	l-1.7,0.9l-1.6,1l-1.5,1.2l-1.3,1.2l-1.3,1.5l-1.2,1.5l-1.1,1.9l-0.6,1.4l-0.6,1.4l-0.3,1.4l-0.1,0.7l0,0.4l0,0.2l-0.1,0.3l0,1.4
	l0.2,1.4l0.4,1.4l0.5,1.4l0.8,1.2l0.9,1.4l0.4,0.3l0.3,0.3l0.5,0.7l1.2,1.4l1.5,1.2l1.5,1.4l1.9,1.2c0,0,1.3,1.2,1.9,1.4
	C112.9,541.8,132,509.6,131,509.3z"/>
<path class="st1" d="M325.6,574l-4.4-0.5L325.6,574z"/>
<polygon id="_48712048_3_" class="st1" points="397.2,517.6 394.6,523.2 392.1,528.9 389.8,534.7 387.7,540.7 385.7,546.7 
	383.9,552.8 382.3,559.1 380.8,565.4 379.5,571.9 378.4,578.4 377.4,585.1 376.6,591.9 376,598.8 375.5,605.7 375.2,612.8 
	375.1,620 375.1,627.3 375.3,634.7 375.7,642.3 376.3,649.9 377,657.6 377.3,660 376.2,658.9 375,657.5 373.9,656.1 372.7,654.7 
	371.6,653.1 370.5,651.4 369.4,649.7 368.3,647.8 367.3,645.9 366.3,643.8 365.3,641.6 364.3,639.3 363.4,636.9 362.4,634.4 
	361.5,631.7 360.7,628.9 359.9,625.9 359.1,622.9 358.3,619.6 358,618.1 358.2,617 359.9,607.7 360.5,604.6 362.3,595.3 
	362.8,592.3 364.6,583 365.1,579.9 366.3,573.7 366.9,570.6 367.4,567.5 369.2,558.3 369.7,555.2 371.5,545.9 372.1,542.8 
	375.5,524.3 376.9,523 378.8,521.3 380.6,519.7 382.4,518.1 384.3,516.6 386.1,515.1 388,513.7 389.8,512.3 391.6,511 393.5,509.7 
	395.3,508.4 397.2,507.2 399,506 400.9,504.9 402.7,503.9 404.6,502.8 405.4,502.4 402.9,506.7 400,512.1 "/>
<path class="st1" d="M365.2,580.2c3,7.3-0.9,13.1,1.7,19.2c15.9-3.5,31.3-6.9,45.4-10c-12-8.2-25.1-17.2-38.6-26.5
	C369,567.7,370.5,574.6,365.2,580.2z"/>
<path class="st4" d="M159.5,563.4c1,36.7,74.1,69.5,163.1,66.8"/>
<path class="st4" d="M195.1,578.1c21.5,26.2,108.9,54,133.4,24.6"/>
</svg>
