<?xml version="1.0" encoding="UTF-8" standalone="no"?>
<!-- Created with Inkscape (http://www.inkscape.org/) -->

<svg
   version="1.1"
   id="svg2"
   width="1152"
   height="792"
   viewBox="0 0 1152 792"
   xmlns="http://www.w3.org/2000/svg"
   xmlns:svg="http://www.w3.org/2000/svg">
  <defs
     id="defs6">
    <rect
       x="179.98262"
       y="-157.67073"
       width="1161.706"
       height="475.9871"
       id="rect4400" />
    <rect
       x="179.98262"
       y="-157.67073"
       width="1161.7061"
       height="475.98709"
       id="rect4400-7" />
    <clipPath
       clipPathUnits="userSpaceOnUse"
       id="clipPath24180">
      <circle
         style="fill:#000000;stroke:#000000;stroke-width:5;stroke-linecap:round;stroke-linejoin:round;stroke-miterlimit:4;stroke-dasharray:none"
         id="circle24182"
         cx="-685.10608"
         cy="326.21603"
         r="177.75467" />
    </clipPath>
  </defs>
  <g
     id="g8">
    <rect
       style="opacity:1;fill:#f20203;stroke:none;stroke-width:5;stroke-linecap:round;stroke-linejoin:round;stroke-miterlimit:4;stroke-dasharray:none;fill-opacity:1"
       id="rect1127"
       width="1152"
       height="792"
       x="0"
       y="0" />
    <path
       style="opacity:1;fill:#ffffff;fill-opacity:1;stroke:#ffffff;stroke-width:1.115592;stroke-linecap:round;stroke-linejoin:round;stroke-miterlimit:4;stroke-dasharray:none;stroke-opacity:1"
       d="m 554.93179,542.26861 -2.49372,-1.94888 -0.0164,-2.42982 -0.0164,-2.42983 1.96398,-1.93959 c 1.75617,-1.73435 2.13357,-1.93959 3.56658,-1.93959 1.2777,0 2.04806,0.31248 3.79992,1.54134 l 2.19733,1.54134 v 3.27398 3.27398 l -1.24446,0.9492 c -0.99681,0.7603 -4.18939,2.0532 -5.07724,2.05614 -0.10226,3.3e-4 -1.30811,-0.87639 -2.67966,-1.94827 z"
       id="path25595" />
    <path
       style="opacity:1;fill:#ffffff;fill-opacity:1;stroke:#ffffff;stroke-width:1.115592;stroke-linecap:round;stroke-linejoin:round;stroke-miterlimit:4;stroke-dasharray:none;stroke-opacity:1"
       d="m 527.5098,532.31803 c -4.61112,-2.70932 -5.44571,-3.38131 -10.71111,-8.62423 -5.52409,-5.50052 -5.80026,-5.8497 -8.4676,-10.70614 -2.61141,-4.75462 -2.71281,-5.02601 -1.91676,-5.13037 0.46228,-0.0606 4.47672,1.23627 8.92099,2.88195 l 8.08047,2.99215 h 4.34738 4.34738 l 1.5945,-1.56489 1.5945,-1.56488 -0.005,-2.99046 -0.005,-2.99046 -3.83032,-3.58764 c -3.2357,-3.0307 -4.47614,-3.91153 -7.99049,-5.67405 -4.73598,-2.37518 -5.19195,-3.07407 -2.66519,-4.08507 1.15394,-0.46172 2.78696,-0.5938 7.1584,-0.57898 l 5.66341,0.0192 3.47032,1.74717 3.47031,1.74716 2.71659,5.02018 c 2.45877,4.54374 2.82462,5.502 3.85499,10.09712 l 1.1384,5.07694 -0.64098,2.27308 c -0.54849,1.94507 -1.24271,2.99477 -4.81078,7.27429 -3.39743,4.07484 -4.40611,5.57193 -5.44558,8.08237 l -1.27579,3.08116 -1.79654,0.0713 c -1.6316,0.0648 -2.25564,-0.19842 -6.7973,-2.86693 z"
       id="path25671" />
    <path
       style="opacity:1;fill:#ffffff;fill-opacity:1;stroke:#ffffff;stroke-width:1.115592;stroke-linecap:round;stroke-linejoin:round;stroke-miterlimit:4;stroke-dasharray:none;stroke-opacity:1"
       d="m 556.80652,559.90131 c -2.81202,-1.07645 -4.36935,-1.98086 -7.1581,-4.15697 l -3.56418,-2.7812 -2.78929,-5.24698 -2.78929,-5.24697 v -5.0294 -5.02939 l 3.17193,-3.48263 c 2.42162,-2.65884 3.7407,-4.547 5.57646,-7.98226 l 2.40453,-4.49963 -0.59897,-5.50787 c -0.59712,-5.49076 -0.6052,-5.51961 -2.60154,-9.2915 -1.10141,-2.08099 -2.00257,-4.23088 -2.00257,-4.77752 v -0.9939 l 3.63977,1.82653 c 3.44989,1.73123 3.85228,2.06284 7.71316,6.35649 2.24036,2.49148 4.72391,5.51988 5.51901,6.72976 0.7951,1.20988 1.63316,2.1927 1.86237,2.18403 0.2292,-0.009 1.57129,-0.66418 2.98241,-1.45668 2.45368,-1.37801 2.68554,-1.63301 5.31103,-5.84111 1.50994,-2.42011 2.82087,-4.73487 2.91318,-5.14393 0.0923,-0.40905 0.60952,-3.08648 1.14936,-5.94983 l 0.98153,-5.20611 -0.64018,-6.50764 c -0.3521,-3.5792 -1.46731,-10.85846 -2.47823,-16.17612 -2.11802,-11.14122 -5.89778,-36.21308 -5.89778,-39.12108 v -1.97 h 1.67339 c 1.34325,0 1.67471,0.12839 1.68007,0.65077 0.004,0.35792 0.33047,3.5792 0.72622,7.1584 0.50244,4.54404 1.90298,12.26314 4.64163,25.58227 l 3.92209,19.07465 v 9.18678 9.18679 l -2.06879,6.207 -2.06879,6.207 -3.16281,3.87084 -3.16281,3.87084 -4.93687,2.28698 c -3.82221,1.77061 -5.32915,2.28697 -6.67427,2.28697 -1.36233,0 -2.61206,0.43866 -5.78902,2.03196 -3.99866,2.00541 -4.08789,2.0789 -6.82685,5.62289 l -2.77523,3.59093 -0.4692,4.60183 -0.4692,4.60183 2.56097,3.88825 2.56096,3.88824 4.09052,1.8836 4.09051,1.8836 6.27143,-0.006 6.27142,-0.006 6.55791,-3.01874 6.55792,-3.01875 5.12881,-5.1977 5.12881,-5.19771 3.12247,-6.23678 3.12247,-6.23678 1.25894,-7.2447 1.25895,-7.2447 -1.20427,-10.80226 c -1.73357,-15.55005 -3.26253,-22.50887 -8.88665,-40.44618 -2.87037,-9.15463 -5.11724,-17.1126 -6.08958,-21.56816 l -1.54088,-7.06079 0.67641,-1.77699 0.67642,-1.777 0.80385,1.777 c 0.44211,0.97734 1.38266,4.3078 2.09009,7.40102 0.70743,3.09322 3.87733,14.63963 7.04422,25.65868 4.83725,16.83103 6.06026,21.61041 7.64842,29.88907 l 1.89046,9.85442 -10e-4,8.90446 -10e-4,8.90447 -1.47374,5.61102 c -1.17888,4.4884 -2.1473,7.0593 -4.84024,12.84964 l -3.36649,7.2386 -5.85088,5.68824 c -5.68647,5.52838 -5.98252,5.75494 -10.53535,8.06225 l -4.68448,2.37403 -6.36413,0.39767 c -3.50028,0.21872 -6.57978,0.38574 -6.84334,0.37116 -0.26357,-0.0146 -2.09647,-0.64561 -4.07313,-1.40228 z"
       id="path25710" />
    <path
       style="opacity:1;fill:#ffffff;fill-opacity:1;stroke:#ffffff;stroke-width:1.115592;stroke-linecap:round;stroke-linejoin:round;stroke-miterlimit:4;stroke-dasharray:none;stroke-opacity:1"
       d="m 611.81076,515.69542 -3.62568,-2.44958 v -2.73215 -2.73214 h 1.4027 c 1.26268,0 1.70814,0.30703 4.46238,3.07565 3.03312,3.04896 3.05968,3.09219 3.05968,4.98039 0,1.39383 -0.15778,1.96529 -0.58821,2.13046 -0.87198,0.33461 -0.8015,0.36861 -4.71087,-2.27263 z"
       id="path25749" />
    <path
       style="opacity:1;fill:#ffffff;fill-opacity:1;stroke:#ffffff;stroke-width:1.115592;stroke-linecap:round;stroke-linejoin:round;stroke-miterlimit:4;stroke-dasharray:none;stroke-opacity:1"
       d="m 612.73504,526.59463 c -2.21345,-2.53792 -4.34844,-5.21599 -4.74441,-5.95127 l -0.71995,-1.33686 1.35259,-1.3526 1.3526,-1.3526 1.80062,1.09006 c 2.65928,1.60987 6.12504,6.86122 6.74083,10.21377 0.60745,3.3072 0.6081,3.30391 -0.65298,3.30391 -0.94962,0 -1.67019,-0.64824 -5.1293,-4.61441 z"
       id="path25788" />
    <path
       style="opacity:1;fill:#ffffff;fill-opacity:1;stroke:#ffffff;stroke-width:1.115592;stroke-linecap:round;stroke-linejoin:round;stroke-miterlimit:4;stroke-dasharray:none;stroke-opacity:1"
       d="m 605.48968,547.27913 c -3.77819,-5.52399 -3.99696,-5.94633 -3.99755,-7.71711 -5.8e-4,-1.74947 0.11906,-1.99119 1.80993,-3.65663 l 1.81056,-1.78333 0.65959,-4.8033 0.65958,-4.80329 h 1.02493 c 0.8524,0 1.64158,0.7348 4.68826,4.36518 l 3.66333,4.36517 1.19143,4.46662 1.19143,4.46661 -0.7906,2.48154 -0.7906,2.48154 -3.86617,-5.36349 c -3.19178,-4.42792 -4.0274,-5.36349 -4.79048,-5.36349 -0.91104,0 -0.89465,0.0553 1.14118,3.85071 l 2.0655,3.85071 v 4.51625 c 0,4.43948 -0.0142,4.51603 -0.8367,4.50318 -0.65718,-0.0103 -1.69426,-1.26688 -4.83362,-5.85687 z"
       id="path25827" />
    <path
       style="opacity:1;fill:#ffffff;fill-opacity:1;stroke:#ffffff;stroke-width:1.115592;stroke-linecap:round;stroke-linejoin:round;stroke-miterlimit:4;stroke-dasharray:none;stroke-opacity:1"
       d="m 601.12973,562.72459 c 0.006,-0.25566 -0.61195,-3.10975 -1.37221,-6.34243 -1.26492,-5.37848 -1.47104,-5.93002 -2.42721,-6.49485 -0.90898,-0.53695 -1.04491,-0.84407 -1.04491,-2.36089 0,-1.72511 0.0217,-1.75589 2.03962,-2.89475 1.1218,-0.6331 2.13131,-1.15109 2.24337,-1.15109 0.11206,0 0.95129,1.61063 1.86496,3.57919 l 1.66121,3.57918 v 4.59097 c 0,4.56298 -0.007,4.60125 -1.18717,6.27524 -1.18406,1.67984 -1.79677,2.10014 -1.77766,1.21943 z"
       id="path25866" />
    <path
       style="opacity:1;fill:#ffffff;fill-opacity:1;stroke:#ffffff;stroke-width:1.115592;stroke-linecap:round;stroke-linejoin:round;stroke-miterlimit:4;stroke-dasharray:none;stroke-opacity:1"
       d="m 594.42608,563.38082 c 0,-3.82317 -0.03,-3.95958 -1.53954,-7.00333 l -1.53953,-3.10421 1.01707,-1.7355 c 1.5612,-2.66397 2.35697,-2.43877 4.25175,1.20324 1.51547,2.91293 1.52891,2.97416 1.53073,6.97247 10e-4,2.8631 -0.18189,4.54635 -0.63125,5.80009 -0.58167,1.62286 -0.73287,1.76636 -1.86117,1.76636 h -1.22806 z"
       id="path25905" />
    <path
       style="opacity:1;fill:#ffffff;fill-opacity:1;stroke:#ffffff;stroke-width:1.115592;stroke-linecap:round;stroke-linejoin:round;stroke-miterlimit:4;stroke-dasharray:none;stroke-opacity:1"
       d="m 635.51715,482.81562 c -5.47995,-3.75573 -7.63529,-5.79323 -19.54403,-18.47552 -8.40536,-8.95134 -8.52353,-9.09984 -11.54032,-14.50273 -1.67641,-3.00234 -4.84626,-7.88521 -7.04412,-10.85083 -4.06828,-5.48941 -7.05312,-10.75786 -7.05312,-12.44922 0,-0.73008 0.18541,-0.93393 0.8367,-0.91993 0.65215,0.014 2.96569,2.78211 10.48951,12.55044 5.30905,6.89285 14.17803,18.33975 19.70884,25.43756 l 10.05603,12.90511 1.95229,0.0172 1.95229,0.0172 v -1.31588 c 0,-0.99433 -3.02114,-7.23673 -12.36451,-25.54803 -6.80048,-13.32769 -12.54978,-24.74213 -12.77622,-25.36542 -1.04501,-2.87644 -1.04577,-2.85728 0.10314,-2.60068 0.57877,0.12927 1.33076,0.30986 1.67111,0.40132 0.34034,0.0915 1.74663,2.20947 3.12508,4.70671 1.37846,2.49724 3.48458,5.74048 4.68027,7.20722 2.11358,2.59268 2.17399,2.72887 2.17399,4.90087 v 2.23409 l 2.13822,2.04073 c 1.56883,1.4973 2.94826,3.46006 5.18009,7.37067 1.67303,2.93146 3.55928,5.82496 4.19168,6.42999 0.6324,0.60503 1.64815,1.98305 2.25721,3.06225 0.8997,1.59418 1.1074,2.39612 1.1074,4.2758 0,2.15313 0.14742,2.55974 2.12558,5.8625 2.33571,3.89975 2.1716,3.07878 2.43774,12.19477 0.0946,3.24189 0.026,3.80529 -0.45966,3.76933 -0.31402,-0.0232 -2.74636,-1.53322 -5.40519,-3.35548 z"
       id="path25944" />
    <path
       style="opacity:1;fill:#ffffff;fill-opacity:1;stroke:#ffffff;stroke-width:1.115592;stroke-linecap:round;stroke-linejoin:round;stroke-miterlimit:4;stroke-dasharray:none;stroke-opacity:1"
       d="m 497.36933,467.07804 c 0,-1.80019 10.31817,-14.90311 20.27834,-25.75123 l 9.06281,-9.87077 6.95553,-3.85798 c 4.45443,-2.47071 7.35299,-3.85798 8.06085,-3.85798 h 1.10531 l -0.92265,1.20856 c -0.50745,0.66471 -7.84562,7.1491 -16.30703,14.40976 -14.63467,12.55789 -15.44828,13.32261 -16.69563,15.69241 -1.24841,2.37182 -1.28013,2.52258 -0.66197,3.14608 0.61965,0.625 0.7469,0.60707 2.78899,-0.39315 1.17684,-0.57642 12.59841,-7.95133 25.38127,-16.38868 12.78286,-8.43735 24.2784,-15.9077 25.54565,-16.60077 3.04384,-1.66473 3.4177,-1.34917 2.55797,2.15907 l -0.62361,2.54468 -3.42076,1.39579 c -2.62923,1.07282 -3.56561,1.64901 -4.04681,2.49015 -0.39056,0.68272 -2.53865,2.32312 -5.7108,4.36109 -2.7966,1.7967 -6.61034,4.41936 -8.47497,5.82813 -1.86463,1.40878 -6.86397,4.88107 -11.10963,7.7162 -6.929,4.62699 -7.88187,5.1542 -9.30628,5.14903 -1.38222,-0.005 -1.75475,0.18309 -2.88841,1.45841 -0.92662,1.04241 -3.39031,2.58569 -8.5529,5.35762 -6.1123,3.28186 -7.60184,3.93244 -9.48255,4.14165 -1.22716,0.13652 -2.52403,0.33322 -2.88195,0.43711 -0.50101,0.14543 -0.65077,-0.033 -0.65077,-0.77518 z"
       id="path25983" />
    <path
       style="opacity:1;fill:#ffffff;fill-opacity:1;stroke:#ffffff;stroke-width:1.115592;stroke-linecap:round;stroke-linejoin:round;stroke-miterlimit:4;stroke-dasharray:none;stroke-opacity:1"
       d="m 622.62317,302.20998 -3.22549,-0.99939 -2.98161,-3.39139 -2.98161,-3.3914 -1.94082,-6.27709 c -1.06745,-3.45241 -1.94006,-6.44444 -1.93914,-6.64896 9.3e-4,-0.20453 0.37978,-1.40352 0.84189,-2.66442 0.68495,-1.86891 1.6749,-3.23075 5.35726,-7.36977 4.21763,-4.74067 4.59415,-5.29121 5.68034,-8.3056 1.69336,-4.69938 1.84744,-4.68406 9.37109,0.93152 4.67082,3.48627 7.01523,5.58268 11.35842,10.1569 4.65926,4.90711 5.72249,6.25335 7.15262,9.0565 0.92391,1.81092 1.59116,3.38126 1.48279,3.48964 -0.10838,0.10837 -3.59112,-1.3077 -7.73941,-3.14683 -6.94567,-3.07934 -7.88066,-3.39426 -11.8188,-3.98071 l -4.27644,-0.63684 -2.51009,1.12629 -2.51009,1.12628 v 2.61245 c 0,2.26603 0.18339,2.98307 1.38293,5.4073 1.28925,2.60554 1.6104,2.95488 4.74127,5.15751 1.8471,1.29947 5.49193,3.48763 8.09963,4.86259 3.56548,1.87995 4.74128,2.6774 4.74128,3.2156 0,0.68354 -0.33822,0.71464 -7.53026,0.69245 -7.08923,-0.0219 -7.71918,-0.0818 -10.75576,-1.02263 z"
       id="path26022" />
    <path
       style="opacity:1;fill:#ffffff;fill-opacity:1;stroke:#ffffff;stroke-width:1.115592;stroke-linecap:round;stroke-linejoin:round;stroke-miterlimit:4;stroke-dasharray:none;stroke-opacity:1"
       d="m 594.82154,263.14746 c -1.36998,-0.8338 -1.77877,-1.36279 -2.41023,-3.11892 l -0.76045,-2.11481 1.20554,-2.4447 c 1.03519,-2.09925 1.4335,-2.54241 2.8189,-3.13626 1.51603,-0.64985 1.7597,-0.65656 4.03849,-0.11133 2.39149,0.5722 2.43867,0.60789 3.40294,2.57401 0.72239,1.47291 0.97783,2.57085 0.97783,4.20285 v 2.20909 l -2.21078,1.50132 c -2.73593,1.85793 -4.54572,1.97037 -7.06224,0.43875 z"
       id="path26061" />
    <path
       style="opacity:1;fill:#ffffff;fill-opacity:1;stroke:#ffffff;stroke-width:1.115592;stroke-linecap:round;stroke-linejoin:round;stroke-miterlimit:4;stroke-dasharray:none;stroke-opacity:1"
       d="m 568.85876,365.07839 c -0.22647,-1.17603 -1.16607,-6.0707 -2.088,-10.87705 -0.92193,-4.80636 -3.18917,-14.51203 -5.03831,-21.56817 -1.84914,-7.05613 -4.53686,-18.14963 -5.97272,-24.65221 l -2.61066,-11.82287 -0.004,-10.11716 -0.004,-10.11716 2.12417,-6.30447 c 1.89393,-5.62112 2.50899,-6.93655 5.67452,-12.13602 3.48692,-5.72737 3.64668,-5.91977 8.94239,-10.76903 5.07379,-4.64605 5.65587,-5.0621 9.86195,-7.04891 3.72658,-1.76031 5.21074,-2.24304 8.92476,-2.90283 l 4.45485,-0.79138 6.13577,0.85304 c 6.11507,0.85017 6.14907,0.86018 10.07628,2.96592 l 3.9405,2.11287 2.84603,4.53543 2.84603,4.53542 v 4.76807 c 0,4.69155 -0.0205,4.80876 -1.27696,7.30377 -0.96797,1.92212 -2.0796,3.2921 -4.59401,5.66165 -2.96222,2.79156 -3.46209,3.46114 -4.67288,6.25932 -1.32612,3.0647 -1.35583,3.23769 -1.35583,7.89466 0,4.69457 0.0211,4.81427 1.50627,8.54209 1.52046,3.81644 1.64436,5.07673 0.45417,4.62002 -2.0536,-0.78804 -7.96018,-5.1343 -13.02277,-9.58259 l -5.83275,-5.12499 h -2.09484 -2.09484 l -1.98538,2.28264 c -2.80198,3.2215 -4.57808,8.58472 -5.51449,16.65179 l -0.66549,5.73322 1.40392,8.21171 c 0.77215,4.51645 2.33092,13.14822 3.46394,19.18173 1.3134,6.99412 2.48748,14.79943 3.23943,21.53585 l 1.17941,10.56583 -0.84357,0.68308 c -0.97906,0.7928 -2.22568,0.88141 -3.07056,0.21825 -0.4831,-0.37919 -0.70613,-2.23834 -1.21054,-10.091 -0.61357,-9.55208 -0.64213,-9.741 -3.71012,-24.54309 l -3.09179,-14.91691 -0.20282,-12.2655 -0.20283,-12.2655 2.65354,-5.71881 2.65355,-5.71881 2.61723,-1.74743 c 4.69545,-3.13498 5.28785,-3.38925 11.68919,-5.01736 5.97921,-1.52074 6.53442,-1.74007 10.07752,-3.98108 3.56652,-2.25582 3.84888,-2.53084 5.78021,-5.62983 l 2.03052,-3.25815 v -4.11665 -4.11665 l -1.57226,-2.90118 -1.57227,-2.90118 -4.1632,-2.07233 -4.16321,-2.07233 -7.18683,0.51536 -7.18684,0.51537 -5.39204,2.46847 -5.39204,2.46847 -4.75358,4.71616 c -4.12202,4.08958 -5.09916,5.30421 -7.35463,9.14221 -2.44993,4.1689 -2.69425,4.79712 -4.20559,10.81353 l -1.60455,6.38749 0.6524,9.85449 c 0.63276,9.55769 0.73855,10.28481 3.51242,24.14177 1.57301,7.85801 4.51619,21.72664 6.54041,30.81918 2.93025,13.16232 3.6804,17.12259 3.6804,19.42995 v 2.89804 h -1.42182 -1.42183 z"
       id="path26100" />
    <path
       style="opacity:1;fill:#ffffff;fill-opacity:1;stroke:#ffffff;stroke-width:1.115592;stroke-linecap:round;stroke-linejoin:round;stroke-miterlimit:4;stroke-dasharray:none;stroke-opacity:1"
       d="m 563.38449,244.51921 c -0.6767,-1.33539 -1.10672,-3.1762 -1.56509,-6.69975 l -0.63203,-4.85843 1.61107,-1.64156 c 1.54809,-1.5774 1.64536,-1.61909 2.48848,-1.06666 0.84255,0.55206 0.87742,0.75504 0.87742,5.10765 0,4.35369 0.0422,4.59933 1.06904,6.21844 l 1.06905,1.68571 -1.28582,1.54795 c -1.71524,2.06493 -2.4679,2.00414 -3.63212,-0.29335 z"
       id="path26139" />
    <path
       style="opacity:1;fill:#ffffff;fill-opacity:1;stroke:#ffffff;stroke-width:1.115592;stroke-linecap:round;stroke-linejoin:round;stroke-miterlimit:4;stroke-dasharray:none;stroke-opacity:1"
       d="m 557.20012,251.3113 c -1.55254,-3.95342 -1.81986,-5.21004 -1.81986,-8.55472 0,-3.1006 0.13231,-3.79518 1.19258,-6.26088 0.65591,-1.52536 1.33096,-2.635 1.50009,-2.46586 0.16914,0.16914 1.16401,3.68677 2.21082,7.81696 l 1.9033,7.50944 -1.11666,1.38409 c -1.49603,1.85432 -3.26387,2.11512 -3.87027,0.57097 z"
       id="path26178" />
    <path
       style="opacity:1;fill:#ffffff;fill-opacity:1;stroke:#ffffff;stroke-width:1.115592;stroke-linecap:round;stroke-linejoin:round;stroke-miterlimit:4;stroke-dasharray:none;stroke-opacity:1"
       d="m 550.9886,256.98529 -2.67377,-3.87795 v -5.23274 c 0,-5.19712 0.006,-5.23274 0.84679,-5.23274 0.69203,0 1.13439,0.57991 2.4205,3.17314 0.86555,1.74523 2.40889,4.23588 3.42966,5.53478 1.75118,2.22834 1.85594,2.48576 1.85594,4.56056 0,2.05532 -0.0921,2.28883 -1.41017,3.57591 -0.7756,0.75734 -1.4968,1.37699 -1.60268,1.37699 -0.10588,0 -1.3957,-1.74508 -2.86627,-3.87795 z"
       id="path26217" />
    <path
       style="opacity:1;fill:#ffffff;fill-opacity:1;stroke:#ffffff;stroke-width:1.115592;stroke-linecap:round;stroke-linejoin:round;stroke-miterlimit:4;stroke-dasharray:none;stroke-opacity:1"
       d="m 546.72107,277.62278 c -0.56977,-0.36505 -2.20133,-2.38166 -3.62568,-4.48135 -2.5253,-3.72264 -2.58973,-3.87575 -2.58973,-6.15439 v -2.33677 l 1.85251,0.59241 c 1.01887,0.32582 1.94127,0.50363 2.04976,0.39514 0.1085,-0.1085 -0.12854,-0.93432 -0.52674,-1.83516 -1.1302,-2.55681 -2.35441,-10.36658 -1.85125,-11.80995 0.76289,-2.18842 1.55034,-1.57409 5.41213,4.22222 3.28156,4.92544 3.68804,5.39204 4.69724,5.39204 1.06675,0 1.09745,0.048 0.89114,1.3945 -0.11752,0.76697 -0.32893,2.44984 -0.46981,3.73971 -0.14491,1.32685 -0.53526,2.68993 -0.89894,3.13906 l -0.64281,0.79384 -1.84942,-1.18677 c -1.01718,-0.65272 -1.96027,-1.18677 -2.09576,-1.18677 -0.70354,0 -0.0204,1.44943 1.94543,4.1277 l 2.19178,2.98609 -0.57479,1.46328 c -0.5015,1.2767 -0.72171,1.45982 -1.72695,1.4361 -0.63368,-0.0149 -1.61833,-0.32587 -2.18811,-0.69093 z"
       id="path26256" />
    <path
       style="opacity:1;fill:#ffffff;fill-opacity:1;stroke:#ffffff;stroke-width:1.115592;stroke-linecap:round;stroke-linejoin:round;stroke-miterlimit:4;stroke-dasharray:none;stroke-opacity:1"
       d="m 544.45908,283.90007 c -1.5608,-2.46465 -2.83782,-4.61412 -2.83782,-4.77661 0,-0.16249 0.32087,-0.58582 0.71305,-0.94073 0.68461,-0.61957 0.83105,-0.56262 3.67254,1.42847 2.91224,2.04066 2.96878,2.11061 3.54057,4.38055 0.53406,2.12012 0.53131,2.39103 -0.0341,3.34813 -1.17429,1.98792 -1.95238,1.45836 -5.05428,-3.43981 z"
       id="path26295" />
    <path
       style="opacity:1;fill:#ffffff;fill-opacity:1;stroke:#ffffff;stroke-width:4.46237993;stroke-linecap:round;stroke-linejoin:round;stroke-miterlimit:4;stroke-dasharray:none;stroke-opacity:1"
       d="m 570.44079,420.71395 -5.20611,-2.35189 3.84721,-1.11483 c 10.45139,-3.02856 14.75314,-8.61148 17.71822,-22.99516 2.33099,-11.30767 4.23819,-15.42108 7.65245,-16.50473 3.72289,-1.1816 5.27848,0.0301 8.7336,6.80265 11.22744,22.0076 -10.63499,46.15244 -32.74537,36.16396 z"
       id="path26451" />
    <path
       style="opacity:1;fill:#ffffff;fill-opacity:1;stroke:#ffffff;stroke-width:4.46237993;stroke-linecap:round;stroke-linejoin:round;stroke-miterlimit:4;stroke-dasharray:none;stroke-opacity:1"
       d="m 556.91984,408.04539 c -8.45843,-16.57989 4.99137,-38.53203 23.50204,-38.35895 3.10048,0.029 7.14282,0.88898 8.98297,1.9111 l 3.34574,1.85839 -4.51623,2.6678 c -6.07988,3.59148 -11.17201,12.05409 -12.46698,20.71891 -1.18963,7.96 -8.18665,17.41488 -12.88775,17.41488 -1.7778,0 -3.9408,-2.25458 -5.95979,-6.21213 z"
       id="path26490" />
    <path
       style="opacity:1;fill:#ffffff;fill-opacity:1;stroke:#ffffff;stroke-width:1.115592;stroke-linecap:round;stroke-linejoin:round;stroke-miterlimit:4;stroke-dasharray:none;stroke-opacity:1"
       d="m 546.665,376.46533 c -0.55352,-0.4354 -2.83516,-3.52751 -5.07033,-6.87137 l -4.06393,-6.07974 v -2.30947 -2.30947 l -2.65614,-2.43994 c -2.47613,-2.27457 -2.85342,-2.84066 -5.56683,-8.35262 -1.60087,-3.25198 -3.57597,-6.70169 -4.38911,-7.66602 -1.30903,-1.55243 -1.73467,-2.61398 -3.71487,-9.26483 l -2.23644,-7.51151 0.22798,-4.25418 c 0.14096,-2.63019 0.40091,-4.39768 0.68096,-4.6301 0.31933,-0.26502 1.40266,0.0798 3.67188,1.16861 3.49618,1.67758 2.4484,0.64813 16.08489,15.80354 1.8624,2.06985 4.67732,5.63072 6.25538,7.91304 2.65785,3.84401 2.98985,4.18195 4.50712,4.58776 1.52225,0.40714 1.63792,0.52592 1.63792,1.68202 0,1.00525 0.57718,1.94918 3.00802,4.9193 2.92022,3.56806 3.01397,3.7439 3.21142,6.02326 0.17868,2.06257 0.39093,2.57386 1.74652,4.20723 1.58464,1.90934 2.81812,3.70533 2.81812,4.10329 0,1.33351 -3.74852,-2.70286 -18.57423,-20.00052 -15.53863,-18.12946 -17.23476,-19.98774 -18.24367,-19.98774 -0.98825,0 -1.11232,0.12456 -1.11232,1.11672 0,0.72238 4.26781,9.65156 12.08561,25.28569 6.64708,13.29294 12.08561,24.50415 12.08561,24.91383 0,0.99105 -1.10155,0.96952 -2.39356,-0.0468 z"
       id="path26529" />
    <path
       style="opacity:1;fill:#ffffff;fill-opacity:1;stroke:#ffffff;stroke-width:1.115592;stroke-linecap:round;stroke-linejoin:round;stroke-miterlimit:4;stroke-dasharray:none;stroke-opacity:1"
       d="m 612.27559,373.78639 c 0,-1.65868 0.0346,-1.70367 4.36942,-5.6862 7.88555,-7.24465 32.81688,-31.89748 32.53495,-32.17152 -0.15162,-0.14737 -0.70612,-0.37414 -1.23224,-0.50393 -0.79892,-0.19709 -1.56494,0.23978 -4.64831,2.65099 -2.03046,1.58784 -8.2099,5.80404 -13.7321,9.36934 -5.52219,3.56529 -14.63787,9.59793 -20.25705,13.40584 -5.61919,3.80793 -11.28587,7.57166 -12.59264,8.36387 l -2.37594,1.44037 -1.65412,-1.65413 -1.65413,-1.65412 1.34836,-2.2635 c 1.26162,-2.11789 2.08239,-2.80059 12.7593,-10.61286 13.68251,-10.01145 23.14014,-16.19681 28.0474,-18.34319 1.99165,-0.87113 7.43017,-3.97139 12.08561,-6.88946 8.24345,-5.16709 8.5518,-5.32257 11.81122,-5.95569 1.84073,-0.35755 3.47228,-0.65893 3.62568,-0.66974 0.71285,-0.0502 0.10699,1.51642 -1.81491,4.69301 -1.64043,2.71135 -2.59804,3.84403 -4.42243,5.23091 -2.09685,1.594 -2.39532,1.99225 -2.99882,4.00137 -0.55931,1.86202 -1.1391,2.72343 -3.50409,5.20611 -4.36344,4.58061 -9.22466,10.11115 -11.94087,13.58498 -2.38954,3.05604 -2.56403,3.19283 -5.91458,4.6364 l -3.4524,1.48746 -3.06934,4.5955 c -2.97028,4.44718 -3.16345,4.64911 -5.9851,6.25662 -1.60366,0.91361 -3.4596,1.9969 -4.12431,2.4073 l -1.20856,0.74618 z"
       id="path26568" />
    <path
       style="opacity:1;fill:#ffffff;fill-opacity:1;stroke:#ffffff;stroke-width:1.115592;stroke-linecap:round;stroke-linejoin:round;stroke-miterlimit:4;stroke-dasharray:none;stroke-opacity:1"
       d="m 648.53242,437.83827 c -5.93124,-3.46139 -12.47598,-7.22675 -14.54385,-8.36746 l -3.75977,-2.07402 1.6186,-5.45404 c 0.89023,-2.99972 2.22878,-7.58761 2.97455,-10.19532 0.74578,-2.6077 1.45829,-4.73796 1.58337,-4.73392 0.12509,0.004 0.99311,1.46827 1.92896,3.25382 1.48964,2.84219 1.92956,3.37273 3.53271,4.2604 1.52129,0.84235 2.29394,1.01541 4.56552,1.02263 l 2.73434,0.009 2.70762,-2.13822 c 2.54924,-2.01314 2.7863,-2.32971 4.05241,-5.4117 1.19675,-2.91314 1.41403,-3.97304 1.97391,-9.62878 l 0.62913,-6.35532 -1.08803,-4.26133 -1.08803,-4.26133 -2.92163,-3.12271 -2.92163,-3.12271 -3.03435,0.0124 -3.03434,0.0124 -2.53921,2.42912 c -2.13266,2.04021 -2.75178,2.9313 -3.86691,5.56561 -0.73024,1.72506 -1.52632,3.13648 -1.76908,3.13648 -0.66682,0 -4.28228,-14.34492 -4.28228,-16.99066 v -2.16279 l 4.36942,-2.63549 c 2.40317,-1.44952 8.16557,-4.94212 12.80533,-7.76133 6.52529,-3.9649 8.63273,-5.07645 9.30487,-4.90775 0.75851,0.19037 1.30308,1.43688 4.28483,9.80779 3.06974,8.61795 3.62471,10.59951 5.47676,19.55489 l 2.06088,9.9652 v 11.2835 11.28351 l -2.05207,8.45947 c -1.73062,7.13432 -2.4442,9.35301 -4.55534,14.16363 -2.28236,5.20076 -2.58532,5.70216 -3.43294,5.6815 -0.51132,-0.0125 -5.7825,-2.85471 -11.71375,-6.31611 z"
       id="path26607" />
    <path
       style="opacity:1;fill:#ffffff;fill-opacity:1;stroke:#ffffff;stroke-width:1.115592;stroke-linecap:round;stroke-linejoin:round;stroke-miterlimit:4;stroke-dasharray:none;stroke-opacity:1"
       d="m 610.88405,417.43378 c -0.3887,-0.62242 -0.083,-1.64402 2.10209,-7.0254 l 2.55694,-6.29708 -0.4983,-9.05776 c -0.51596,-9.37876 -0.85109,-13.49208 -1.16614,-14.31309 -0.11268,-0.29363 0.22351,-0.56831 0.87323,-0.71349 0.58104,-0.12984 1.31163,-0.30351 1.62353,-0.38594 0.44306,-0.11709 0.92444,1.10323 2.2009,5.57931 l 1.63381,5.72919 -0.45687,7.44459 -0.45688,7.4446 -2.35066,5.86245 c -1.57517,3.92842 -2.5799,5.95255 -3.04555,6.13556 -1.29422,0.50866 -2.55171,0.34066 -3.0161,-0.40294 z"
       id="path26646" />
    <path
       style="opacity:1;fill:#ffffff;fill-opacity:1;stroke:#ffffff;stroke-width:1.115592;stroke-linecap:round;stroke-linejoin:round;stroke-miterlimit:4;stroke-dasharray:none;stroke-opacity:1"
       d="m 544.25638,416.58168 c -0.17676,-0.46019 -1.11065,-2.59376 -2.07531,-4.74128 -1.46452,-3.26033 -1.91985,-4.85562 -2.75958,-9.66849 l -1.00567,-5.7639 0.98107,-5.02018 c 0.61243,-3.13379 1.51813,-6.3127 2.41032,-8.45993 l 1.42924,-3.43975 h 1.4236 c 1.4015,0 1.42359,0.022 1.42359,1.41902 0,0.78046 -0.75747,4.00174 -1.68327,7.1584 l -1.68327,5.73938 0.55518,5.85912 0.55517,5.85912 2.47486,5.39015 c 2.79841,6.09483 2.79289,6.50503 -0.0875,6.50503 -1.35456,0 -1.69252,-0.14438 -1.95845,-0.83669 z"
       id="path26685" />
    <path
       style="opacity:1;fill:#ffffff;fill-opacity:1;stroke:#ffffff;stroke-width:1.115592;stroke-linecap:round;stroke-linejoin:round;stroke-miterlimit:4;stroke-dasharray:none;stroke-opacity:1"
       d="m 526.0516,423.08931 c -0.24639,-0.76697 -1.19483,-4.89495 -2.10765,-9.1733 -1.60444,-7.51998 -1.65967,-7.99477 -1.65967,-14.26884 v -6.49002 l 1.52616,-5.25407 c 0.83939,-2.88974 2.45174,-7.47132 3.58299,-10.18129 l 2.05682,-4.92721 h 1.25126 c 1.77086,0 1.65205,0.85873 -0.65935,4.76564 -1.60807,2.7181 -2.16665,4.20101 -3.52767,9.36523 l -1.61706,6.13577 -0.005,6.95415 c -0.005,6.73201 0.0436,7.18342 1.51689,14.13087 0.83706,3.9472 1.75742,7.74101 2.04525,8.43069 0.73488,1.76087 0.68007,1.90688 -0.71581,1.90688 -1.10433,0 -1.28786,-0.1517 -1.68711,-1.3945 z"
       id="path26724" />
    <path
       style="opacity:1;fill:#ffffff;fill-opacity:1;stroke:#ffffff;stroke-width:1.115592;stroke-linecap:round;stroke-linejoin:round;stroke-miterlimit:4;stroke-dasharray:none;stroke-opacity:1"
       d="m 495.80862,437.00131 c -2.28676,-3.17878 -2.16708,-2.91759 -5.07663,-11.07925 l -2.5675,-7.20216 -1.42544,-11.58221 -1.42544,-11.58221 1.05058,-6.74229 c 2.0575,-13.2044 4.80075,-21.0724 10.02569,-28.75498 l 2.97165,-4.36941 h 1.64224 c 1.44979,0 2.65137,0.60549 10.25282,5.16653 4.73581,2.84159 9.69827,5.6172 11.02769,6.16801 3.35345,1.38942 3.96303,1.84108 4.44149,3.29082 0.38886,1.17826 0.23019,1.6918 -2.32446,7.52361 -1.508,3.44248 -2.9148,6.31671 -3.12624,6.38719 -0.21144,0.0705 -1.75871,-1.78084 -3.43837,-4.11404 l -3.05394,-4.24218 -2.25363,-0.23555 c -5.34286,-0.55844 -6.04596,-0.42256 -8.88295,1.71674 -2.45469,1.85101 -2.71132,2.19344 -4.94674,6.6006 -2.24913,4.43419 -2.3923,4.87957 -3.10805,9.66849 l -0.75031,5.02018 1.17116,5.47429 1.17116,5.47429 3.27991,3.54343 3.27992,3.54343 h 3.45646 3.45647 l 4.5898,-4.87809 c 3.82112,-4.06115 4.63392,-4.76177 4.85326,-4.18348 0.90998,2.39907 3.94769,16.86575 3.78701,18.03512 l -0.18554,1.35031 -12.57098,6.17995 c -6.91404,3.39898 -12.80823,6.17995 -13.09821,6.17995 -0.28997,0 -1.29027,-1.06069 -2.22288,-2.35709 z"
       id="path26763" />
    <path
       style="opacity:1;fill:#ffffff;fill-opacity:1;stroke:#ffffff;stroke-width:0.78884399;stroke-linecap:round;stroke-linejoin:round;stroke-miterlimit:4;stroke-dasharray:none;stroke-opacity:1"
       d="m 504.85673,390.54383 c -0.21435,-0.47002 -0.91013,-2.08935 -1.54617,-3.5985 l -1.15643,-2.7439 1.91264,-2.51506 c 1.89502,-2.49189 1.93067,-2.52135 3.8707,-3.19839 l 1.95807,-0.68334 2.29289,1.15215 c 1.26108,0.63368 2.35662,1.31824 2.43452,1.52125 0.0779,0.203 0.16144,0.91903 0.18564,1.59116 l 0.044,1.22206 -1.80045,0.56951 -1.80045,0.56951 -1.61787,3.47518 -1.61788,3.47517 -1.38474,0.009 c -1.3104,0.008 -1.40565,-0.037 -1.77447,-0.84569 z"
       id="path26802" />
    <path
       style="opacity:1;fill:#ffffff;fill-opacity:1;stroke:#ffffff;stroke-width:0.78884399;stroke-linecap:round;stroke-linejoin:round;stroke-miterlimit:4;stroke-dasharray:none;stroke-opacity:1"
       d="m 513.41946,397.22648 -3.27378,-3.1016 1.54999,-3.72977 1.54999,-3.72977 h 2.31542 c 1.67426,0 2.31685,0.091 2.32061,0.32868 0.003,0.18078 0.17862,2.03347 0.39058,4.11708 0.34713,3.41238 0.34334,4.05833 -0.0382,6.50797 -0.38436,2.46787 -0.47527,2.71909 -0.98221,2.71429 -0.3487,-0.003 -1.78893,-1.17086 -3.83241,-3.10688 z"
       id="path26841" />
    <path
       style="opacity:1;fill:#ffffff;fill-opacity:1;stroke:#ffffff;stroke-width:0.78884399;stroke-linecap:round;stroke-linejoin:round;stroke-miterlimit:4;stroke-dasharray:none;stroke-opacity:1"
       d="m 502.82271,411.46636 c -1.2803,-1.45264 -1.51195,-1.87017 -1.51195,-2.72516 v -1.00968 l 1.79005,-0.57652 1.79004,-0.57652 1.27469,-2.26534 c 0.70107,-1.24593 1.72856,-3.05329 2.28329,-4.01634 l 1.00861,-1.75101 0.95369,0.29269 c 0.76057,0.23343 1.35169,0.81826 2.91933,2.88827 l 1.96565,2.59558 -0.58223,2.41254 c -0.57904,2.39926 -0.59325,2.42376 -2.58213,4.45039 l -1.99989,2.03785 -2.8986,-0.0206 -2.8986,-0.0206 z"
       id="path26880" />
    <path
       style="opacity:1;fill:#ffffff;fill-opacity:1;stroke:#ffffff;stroke-width:0.78884399;stroke-linecap:round;stroke-linejoin:round;stroke-miterlimit:4;stroke-dasharray:none;stroke-opacity:1"
       d="m 499.00996,403.69711 c -0.56791,-0.60609 -0.59163,-0.81977 -0.59163,-5.32962 0,-3.96484 0.0872,-5.02134 0.55856,-6.76828 0.52818,-1.95746 0.5958,-2.06571 1.24309,-1.99002 0.52927,0.0619 1.26734,0.84255 3.25418,3.44192 1.41332,1.84903 2.56967,3.47408 2.56967,3.61123 0,0.33832 -2.62475,6.91842 -2.84704,7.13738 -0.0973,0.0958 -0.94599,0.254 -1.88603,0.3515 -1.58178,0.16407 -1.75326,0.13023 -2.3008,-0.45411 z"
       id="path26919" />
    <path
       style="opacity:1;fill:#ffffff;fill-opacity:1;stroke:#ffffff;stroke-width:0.78884399;stroke-linecap:round;stroke-linejoin:round;stroke-miterlimit:4;stroke-dasharray:none;stroke-opacity:1"
       d="m 487.82474,433.15501 -4.35987,-9.2825 -1.7201,-7.86288 -1.7201,-7.86288 0.52248,-12.51561 0.52247,-12.5156 2.1184,-6.83666 c 2.05839,-6.64299 2.23238,-7.06755 6.14228,-14.98804 2.96981,-6.01609 4.2739,-8.38877 4.97827,-9.05756 l 0.95438,-0.90616 0.92032,0.892 c 0.50617,0.49061 0.92032,0.98656 0.92032,1.10212 0,0.11556 -0.90274,1.46343 -2.00607,2.99527 -1.57715,2.18965 -2.638,4.14405 -4.96153,9.14064 l -2.95546,6.35549 -2.0066,9.89521 -2.0066,9.89521 0.0102,9.03512 0.0101,9.03513 1.39894,6.44223 c 1.37338,6.32451 1.44753,6.55679 4.05817,12.71163 2.2422,5.28622 2.9562,6.68536 4.55296,8.92184 l 1.89373,2.65244 -0.54243,0.93872 c -0.43387,0.75085 -0.72474,0.95459 -1.45341,1.01803 l -0.91098,0.0793 -4.35986,-9.2825 z"
       id="path26958" />
    <path
       style="opacity:1;fill:#ffffff;fill-opacity:1;stroke:#ffffff;stroke-width:0.78884399;stroke-linecap:round;stroke-linejoin:round;stroke-miterlimit:4;stroke-dasharray:none;stroke-opacity:1"
       d="m 467.06332,444.31673 c -2.02969,-6.59075 -3.85377,-13.23975 -5.4283,-19.78685 l -2.3714,-9.86056 -0.54295,-7.75697 c -0.29862,-4.26633 -0.55466,-8.40777 -0.56898,-9.20319 -0.0143,-0.79541 0.47409,-5.23267 1.08536,-9.86055 l 1.11141,-8.41435 2.98744,-9.20318 2.98744,-9.20319 5.11688,-9.72908 c 4.45882,-8.47789 5.22912,-9.78821 5.98972,-10.18884 1.30746,-0.68867 1.53022,-0.60105 1.53022,0.60192 0,0.85601 -1.2495,3.6027 -6.42946,14.13347 l -6.42947,13.07098 -2.11635,8.86562 -2.11635,8.86562 v 12.41975 12.41974 l 1.08273,5.7983 c 0.84325,4.51577 1.9774,8.96052 5.12749,20.09473 2.71219,9.5864 4.04476,14.71922 4.04476,15.57969 v 1.28324 h -1.00165 -1.00164 z"
       id="path26997" />
    <path
       style="opacity:1;fill:#ffffff;fill-opacity:1;stroke:#ffffff;stroke-width:0.78884399;stroke-linecap:round;stroke-linejoin:round;stroke-miterlimit:4;stroke-dasharray:none;stroke-opacity:1"
       d="m 454.95423,456.28088 c -0.76752,-1.19313 -1.47656,-2.30331 -1.57564,-2.46708 -0.0991,-0.16376 0.59414,-1.92726 1.5405,-3.91889 l 1.72065,-3.62114 -1.07008,-1.09034 c -0.63327,-0.64525 -2.04497,-1.56796 -3.45827,-2.26039 l -2.38819,-1.17005 -1.27754,-2.70783 -1.27754,-2.70783 1.02903,-2.87261 c 0.56597,-1.57993 1.28386,-3.46496 1.59532,-4.18896 l 0.56628,-1.31635 -3.05388,-3.54294 -3.05387,-3.54293 v -2.7342 -2.73419 l 2.10358,-2.93857 c 1.15697,-1.61621 2.10359,-3.00329 2.10359,-3.08241 0,-0.0791 -0.91263,-1.14102 -2.02806,-2.35979 -1.83436,-2.00431 -2.13372,-2.48953 -3.13438,-5.08057 l -1.10633,-2.86462 0.65192,-2.59139 0.65192,-2.59139 2.93944,-2.95927 c 3.39457,-3.41747 3.36174,-2.67301 0.28811,-6.53383 l -1.9439,-2.44175 v -3.27534 -3.27534 l 3.41833,-3.06624 c 1.88008,-1.68643 3.41833,-3.09767 3.41833,-3.13609 0,-0.0384 -0.53247,-1.51773 -1.18327,-3.28736 -1.12854,-3.06868 -1.18327,-3.3478 -1.18327,-6.0345 v -2.817 l 1.45837,-2.0966 1.45837,-2.0966 2.9222,-0.58973 c 1.60722,-0.32436 2.96328,-0.63081 3.01348,-0.68101 0.0502,-0.0502 -0.16408,-2.32885 -0.47617,-5.06365 l -0.56746,-4.97238 1.6658,-2.54706 1.66579,-2.54706 2.24748,-0.84825 2.24749,-0.84826 4.17368,1.031 4.17368,1.031 0.4755,1.25266 0.47551,1.25266 -4.4731,8.21126 c -5.32583,9.7766 -7.85795,15.83442 -10.7235,25.65474 l -1.81553,6.22185 -1.17752,10.12351 -1.17753,10.12351 1.25975,11.96414 1.25975,11.96414 2.5272,9.86056 c 2.30889,9.00874 2.74076,10.39357 4.99931,16.03066 l 2.47212,6.1701 -1.85747,1.38966 -1.85747,1.38966 h -3.63351 -3.63352 z m 6.3884,-1.07368 c 0,-0.19281 -0.13094,-1.00254 -0.29097,-1.79941 -0.28684,-1.42829 -0.309,-1.4546 -1.5628,-1.85555 -0.69951,-0.2237 -1.33769,-0.34085 -1.41819,-0.26036 -0.0805,0.0805 -0.14637,1.07326 -0.14637,2.20613 v 2.05976 h 1.70917 c 1.24893,0 1.70916,-0.0944 1.70916,-0.35057 z m -4.99602,-19.11146 c 0,-1.50214 -0.0429,-1.60772 -0.85458,-2.10261 -1.17184,-0.71448 -1.33058,-0.67341 -1.99988,0.51745 l -0.58477,1.04046 0.67112,1.06312 c 0.60113,0.95226 0.78047,1.06313 1.71962,1.06313 h 1.04849 z m -3.15537,-17.08777 v -1.57769 h -2.10359 -2.10359 v 0.84019 c 0,0.55354 0.24107,1.09182 0.70657,1.57769 0.60054,0.62683 0.9162,0.7375 2.10359,0.7375 h 1.39702 z m -2.945,-17.91409 c 0.54842,-0.20524 0.59744,-0.36642 0.52589,-1.72908 -0.0876,-1.66915 0.19031,-1.46761 -2.77412,-2.01157 l -0.85458,-0.15682 v 1.49099 c 0,1.26062 0.10941,1.6052 0.70811,2.23011 0.71735,0.74875 0.84089,0.75785 2.3947,0.17637 z m 2.945,-22.05404 v -1.57769 h -1.57769 -1.57769 v 1.57769 1.57769 h 1.57769 1.57769 z m 3.0668,-16.71459 c 1.12504,-0.17883 1.39132,-0.53404 1.39972,-1.86721 0.003,-0.47252 -0.22316,-0.61847 -1.32409,-0.85458 -2.37184,-0.50867 -2.35359,-0.51993 -2.35359,1.45294 0,1.6704 0.0229,1.73196 0.59163,1.59026 0.3254,-0.0811 1.08425,-0.22571 1.68633,-0.32141 z m 10.08061,-18.78342 v -2.10358 h -1.13485 c -1.04811,0 -1.17955,0.0795 -1.71962,1.04046 l -0.58477,1.04045 0.67112,1.06313 c 0.60114,0.95225 0.78048,1.06313 1.71962,1.06313 h 1.0485 z"
       id="path27036" />
    <path
       style="opacity:1;fill:#ffffff;fill-opacity:1;stroke:#ffffff;stroke-width:0.78884399;stroke-linecap:round;stroke-linejoin:round;stroke-miterlimit:4;stroke-dasharray:none;stroke-opacity:1"
       d="m 625.26383,423.84808 c 0.0884,-0.23037 0.23716,-0.73325 0.33058,-1.11753 0.0934,-0.38427 1.21702,-3.58007 2.49689,-7.10177 l 2.32703,-6.4031 v -9.98455 -9.98455 l -2.12307,-8.13957 c -1.16768,-4.47676 -2.08472,-8.24472 -2.03785,-8.37323 0.0721,-0.19759 1.95805,0.28363 2.16604,0.55268 0.0383,0.0495 0.91652,2.47138 1.95169,5.38196 l 1.88211,5.29197 0.52131,11.62649 0.52131,11.6265 -2.22816,7.35822 c -1.93738,6.39794 -2.35259,7.51007 -3.18161,8.52178 -0.79592,0.97131 -1.10492,1.16355 -1.87023,1.16355 -0.73064,0 -0.88414,-0.085 -0.75604,-0.41885 z"
       id="path27075" />
    <path
       style="opacity:1;fill:#ffffff;fill-opacity:1;stroke:#ffffff;stroke-width:0.78884399;stroke-linecap:round;stroke-linejoin:round;stroke-miterlimit:4;stroke-dasharray:none;stroke-opacity:1"
       d="m 650.67812,397.85347 -2.47484,-2.48517 0.57366,-2.73394 c 0.31551,-1.50367 0.57366,-2.8702 0.57366,-3.03674 0,-0.16654 -0.349,-0.3028 -0.77556,-0.3028 -0.65383,0 -0.96624,0.26721 -1.99043,1.70249 l -1.21487,1.70249 -1.54116,-1.24233 -1.54117,-1.24233 -0.0182,-3.51028 c -0.0182,-3.50905 -0.0179,-3.51078 0.83637,-4.92282 l 0.85458,-1.41254 3.0286,-0.007 c 2.81511,-0.007 3.09778,0.0396 4.00996,0.65939 0.90669,0.61611 0.98136,0.76392 0.98136,1.94251 0,1.22937 -0.052,1.3173 -1.43377,2.42279 -1.26171,1.00946 -1.43527,1.26371 -1.44622,2.11845 l -0.0124,0.97131 2.76096,-0.15635 2.76095,-0.15635 v 0.70715 c 0,0.38894 0.12639,2.72977 0.28086,5.20185 l 0.28085,4.4947 -0.85833,0.88558 c -0.47208,0.48707 -0.9262,0.88558 -1.00916,0.88558 -0.0829,0 -1.2645,-1.11833 -2.62566,-2.48518 z"
       id="path27114" />
    <path
       style="opacity:1;fill:#ffffff;fill-opacity:1;stroke:#ffffff;stroke-width:0.78884399;stroke-linecap:round;stroke-linejoin:round;stroke-miterlimit:4;stroke-dasharray:none;stroke-opacity:1"
       d="m 639.28046,404.07457 -0.97369,-0.99714 v -5.16424 -5.16423 l 0.79268,-0.56444 c 0.43597,-0.31044 0.90467,-0.52557 1.04155,-0.47806 0.13687,0.0475 1.32183,1.25441 2.63324,2.68202 1.86109,2.02599 2.34761,2.71149 2.21684,3.12351 -0.0922,0.29032 -0.74913,1.90866 -1.45997,3.59631 -1.00104,2.37665 -1.46322,3.16934 -2.04995,3.51594 -1.02553,0.60579 -1.08755,0.5903 -2.2007,-0.54967 z"
       id="path27153" />
    <path
       style="opacity:1;fill:#ffffff;fill-opacity:1;stroke:#ffffff;stroke-width:0.78884399;stroke-linecap:round;stroke-linejoin:round;stroke-miterlimit:4;stroke-dasharray:none;stroke-opacity:1"
       d="m 642.80397,411.41301 c -1.32887,-1.49889 -1.60477,-1.97203 -1.60477,-2.75203 0,-0.89778 0.0894,-0.99099 1.90638,-1.98835 l 1.90637,-1.04641 1.06411,-2.97247 c 1.02027,-2.85002 1.09719,-2.97575 1.86712,-3.05194 0.70271,-0.0695 1.00498,0.14833 2.41996,1.74435 l 1.61694,1.82383 v 2.94518 2.94518 l -1.20803,1.53763 -1.20803,1.53762 -2.36163,0.54376 c -1.2989,0.29906 -2.45884,0.54375 -2.57764,0.54375 -0.1188,0 -0.93815,-0.81454 -1.82078,-1.8101 z"
       id="path27192" />
    <path
       style="opacity:1;fill:#ffffff;fill-opacity:1;stroke:#ffffff;stroke-width:0.78884399;stroke-linecap:round;stroke-linejoin:round;stroke-miterlimit:4;stroke-dasharray:none;stroke-opacity:1"
       d="m 663.68839,446.20217 -0.5069,-0.94125 3.07423,-6.15509 3.07423,-6.15508 2.1055,-8.40968 2.10549,-8.40968 -0.5199,-15.11877 -0.5199,-15.11878 -2.12641,-7.43696 c -1.57356,-5.5034 -3.04484,-9.84189 -5.65894,-16.6869 -1.94289,-5.08746 -3.53252,-9.44215 -3.53252,-9.67709 0,-0.34925 0.24708,-0.41265 1.35486,-0.34767 l 1.35486,0.0795 2.59144,5.76975 2.59144,5.76974 2.9188,11.32189 2.9188,11.32189 1.13778,9.78705 1.13777,9.78704 -1.15572,9.2767 -1.15571,9.2767 -1.98033,5.73066 c -1.24582,3.60513 -2.9239,7.73152 -4.52429,11.12523 -3.00009,6.36184 -3.66589,7.10242 -4.68458,5.21082 z"
       id="path27231" />
    <path
       style="opacity:1;fill:#ffffff;fill-opacity:1;stroke:#ffffff;stroke-width:0.78884399;stroke-linecap:round;stroke-linejoin:round;stroke-miterlimit:4;stroke-dasharray:none;stroke-opacity:1"
       d="m 679.32669,456.96963 c 0,-0.23582 2.24756,-4.79624 4.99456,-10.13427 l 4.99456,-9.70549 2.07979,-8.07489 2.07979,-8.0749 0.54136,-11.48791 0.54136,-11.48792 -1.18378,-8.89006 c -1.15304,-8.65931 -1.24785,-9.13581 -3.65245,-18.35789 -2.40765,-9.23381 -2.55114,-9.66927 -5.80503,-17.61804 -3.036,-7.41651 -4.95289,-12.47979 -4.78598,-12.64171 0.1634,-0.15851 2.9904,0.51848 3.2537,0.77918 0.1633,0.1617 2.01301,4.49459 4.11046,9.62865 l 3.81354,9.33466 2.89439,11.43825 2.89438,11.43825 1.10589,13.01593 1.10588,13.01594 -1.61106,10.02961 -1.61107,10.0296 -3.03209,8.37677 c -3.01735,8.33607 -3.04766,8.40314 -6.23671,13.80419 l -3.20463,5.42743 -1.42434,0.2917 c -1.8283,0.37443 -1.86252,0.37191 -1.86252,-0.13708 z"
       id="path27270" />
    <path
       style="opacity:1;fill:#ffffff;fill-opacity:1;stroke:#ffffff;stroke-width:0.78884399;stroke-linecap:round;stroke-linejoin:round;stroke-miterlimit:4;stroke-dasharray:none;stroke-opacity:1"
       d="m 686.22603,461.54097 -2.35389,-1.90523 1.63033,-1.78631 c 1.47833,-1.61978 2.04261,-2.63659 6.05276,-10.90691 l 4.42244,-9.12061 1.78651,-8.51897 c 0.98258,-4.68543 1.83715,-8.56961 1.89904,-8.6315 0.0619,-0.0619 1.06298,0.13014 2.22464,0.42674 1.16166,0.2966 2.18114,0.53927 2.26551,0.53927 0.0844,0 0.1534,-0.94661 0.1534,-2.10359 v -2.10358 h -2.23506 -2.23506 v -16.04052 -16.04053 l -2.3704,-10.66544 c -2.35654,-10.60306 -2.38749,-10.71187 -5.29243,-18.6029 -2.08542,-5.66489 -3.62765,-9.3483 -5.38657,-12.86511 -1.3555,-2.71021 -2.45765,-5.01758 -2.44924,-5.12749 0.008,-0.10992 0.96276,-0.95791 2.12077,-1.88444 l 2.10546,-1.6846 2.52622,0.56864 c 1.38942,0.31275 2.54011,0.59751 2.55708,0.6328 0.017,0.0353 1.05199,1.19163 2.30002,2.56963 l 2.26916,2.50546 -0.76753,5.25151 c -1.10912,7.58857 -1.4109,6.67432 2.65503,8.04327 l 3.42294,1.15247 1.70455,2.8473 1.70455,2.8473 v 2.24081 2.24081 l -2.15241,2.53739 c -1.18382,1.39556 -2.37377,2.78878 -2.64433,3.09604 -0.49111,0.55771 -0.48575,0.56377 3.20419,3.61774 l 3.69613,3.05909 v 3.35696 3.35697 l -1.97211,1.95895 c -1.88755,1.87495 -1.97211,2.0111 -1.97211,3.17509 0,1.11438 0.16501,1.42675 1.97211,3.73318 l 1.97211,2.51704 v 2.99512 2.99513 l -0.81379,0.7723 c -0.44758,0.42476 -2.00146,2.04694 -3.45306,3.60484 l -2.63928,2.83255 2.92717,4.40612 2.92717,4.40613 v 2.39229 2.3923 l -2.43227,2.22567 c -1.33775,1.22413 -3.17041,2.62904 -4.07258,3.12203 -0.90217,0.49299 -1.64171,1.00267 -1.64343,1.13262 -0.002,0.12996 0.53989,1.23243 1.20356,2.44996 0.66941,1.22805 1.59299,3.5229 2.07433,5.15416 l 0.86765,2.94048 -3.96123,3.82703 -3.96123,3.82702 0.60795,5.90102 0.60795,5.90103 -1.15332,2.1688 -1.15332,2.16881 -3.19609,0.002 -3.19609,0.002 z m 7.03692,-5.06288 v -2.23506 h -1.57769 -1.57769 v 2.23506 2.23506 h 1.57769 1.57769 z m 8.15139,-18.53785 v -1.57769 h -2.23506 -2.23506 v 0.84019 c 0,0.55354 0.24107,1.09182 0.70657,1.57769 0.61547,0.64242 0.90363,0.7375 2.23506,0.7375 h 1.52849 z m 4.99602,-41.05022 v -1.60799 l -1.51195,0.18838 c -0.83158,0.10361 -1.69821,0.28775 -1.92585,0.40921 -0.34071,0.18179 -1.03232,1.82431 -1.03232,2.45168 0,0.0917 1.00578,0.16671 2.23506,0.16671 h 2.23506 z m -4.2521,-16.55037 c 1.21455,-0.26047 1.30532,-0.33715 1.44929,-1.22434 0.0845,-0.52055 0.10149,-1.03076 0.0378,-1.1338 -0.0637,-0.10303 -0.62129,-0.2677 -1.23913,-0.36592 -0.61785,-0.0982 -1.3896,-0.24492 -1.71499,-0.32599 -0.56874,-0.1417 -0.59164,-0.0801 -0.59164,1.59026 0,1.94557 -0.0479,1.91158 2.05866,1.45979 z m -3.17619,-19.20671 c 0.3254,-0.12293 0.59325,-0.43351 0.59523,-0.69018 0.002,-0.25666 0.0706,-0.71626 0.15247,-1.02133 0.12799,-0.47683 0.008,-0.57733 -0.85817,-0.71612 -0.55388,-0.0888 -1.39162,-0.23855 -1.86164,-0.33278 l -0.85458,-0.17133 v 1.76514 1.76515 l 1.11753,-0.18753 c 0.61464,-0.10313 1.38376,-0.28809 1.70916,-0.41102 z m -5.71912,-18.117 v -1.57769 h -1.57769 -1.57769 v 1.57769 1.57769 h 1.57769 1.57769 z"
       id="path27309" />
    <path
       style="fill:#000000"
       d="m 592.83375,569.80895 -0.66667,-0.66666 v -4.64221 -4.6422 l -1.44143,-1.94113 -1.44143,-1.94113 -1.80857,1.24108 -1.80857,1.24108 -5,2.67264 -5,2.67265 -7.58498,0.45521 -7.58497,0.4552 -5.41972,-1.57555 -5.41972,-1.57556 -3.99531,-4.06985 -3.9953,-4.06986 -3,-6.22352 -3,-6.22352 -8,-4.28148 -8,-4.28148 -5.73139,-5.66877 -5.7313,-5.66878 -3.4778,-6.61826 -3.4778,-6.61827 -0.6588,-4.11946 -0.6587,-4.11946 -1.9746,-2.11945 -1.9745,-2.11946 -2.1576,0.30744 -2.1575,0.30743 -1.8532,3.79368 -1.8533,3.79368 1.3199,3.20632 1.3199,3.20632 4.913,4.72463 4.913,4.72464 0.7051,3.85594 0.7051,3.85595 -0.8025,2.16942 -0.8026,2.16942 h -3.0636 -3.0636 l -0.6264,-1.63247 -0.6264,-1.63246 1.1456,-1.83447 1.1456,-1.83446 -0.8909,-2.28307 -0.8909,-2.28307 -3.6822,-3.5 -3.6822,-3.5 -1.4147,-2.70034 -1.4147,-2.70034 v -3.14853 -3.14853 l 1.6303,-3.43571 1.6304,-3.4357 1.9376,-1.03699 1.9376,-1.03698 3.9206,0.28307 3.9205,0.28307 1.2115,-1.21151 1.2115,-1.21151 h 2.0559 2.0559 l 1.358,3.06807 1.3581,3.06808 2.5181,0.95739 2.5182,0.95739 2.1179,-0.67918 2.1179,-0.67918 -3.5,-1.18038 -3.5,-1.18038 -0.2996,-2.01342 -0.2995,-2.01343 5.7995,-1.83072 5.79959,-1.83071 6,0.0595 6,0.0595 7.69167,2.59206 7.69166,2.59205 5.04887,3.1066 5.04887,3.1066 3.90414,4.56745 3.90414,4.56746 1.65501,-0.63508 1.65501,-0.63509 2.60031,-5.67984 2.60032,-5.67984 -0.0571,-8.08248 -0.0571,-8.08248 -2.50747,-13.5 -2.50746,-13.5 -0.64154,-4.5 -0.64154,-4.5 -1.01275,-5.24008 -1.01275,-5.24008 -2.68116,1.40074 -2.68116,1.40074 -8.5,6.66502 -8.5,6.66501 -6,3.57967 -6,3.57966 -2,1.7367 -2,1.73669 -3.29357,0.69699 -3.29357,0.69699 -2.20643,2.16097 -2.20639,2.16104 -9.016,4.25 -9.0161,4.25 h -2.6204 -2.6205 l -0.4543,-3.0951 -0.4542,-3.0951 2.4649,-3.63231 2.465,-3.63231 6.6258,-8.44798 6.6258,-8.44798 3.3664,-3.82461 3.3663,-3.82461 h -1.1941 -1.1942 l -24.6722,13.09118 -24.6722,13.09119 -15.5,2.38508 -15.5,2.38508 -3.25,0.0237 -3.25,0.0238 v -1.4433 -1.44329 l 1.8571,-1.30671 1.8571,-1.3067 6.1766,-5.39901 6.1765,-5.39901 -0.3667,-1.10099 -0.3666,-1.10099 -11.9075,-1.5 -11.9075,-1.5 -0.3198,-1.68248 -0.3198,-1.68248 9.6125,-5.18197 9.6125,-5.18198 -0.5567,-0.55669 -0.5567,-0.55669 -11.7418,-3.37515 -11.7418,-3.37516 -0.8865,-0.88648 -0.8865,-0.88649 0.5194,-1.35355 0.5194,-1.35356 9.3634,-3.60795 9.3634,-3.60794 1.8931,-0.62926 1.8932,-0.62925 -0.4304,-0.43038 -0.4304,-0.43038 -12.4628,-3.40341 -12.4627,-3.40342 v -1.83264 -1.83265 l 6,-2.36148 6,-2.36148 6,-2.0667 6,-2.0667 1.3282,-1.24576 1.3282,-1.24576 -8.3282,-4.68312 -8.3282,-4.68313 -2.4061,-1.825 -2.4061,-1.82499 0.5675,-1.47882 0.5675,-1.47881 10.9659,-1.76429 10.9659,-1.76429 1.3437,-0.83048 1.3438,-0.83048 -0.4711,-0.36763 -0.471,-0.36763 -9.75,-7.21564 -9.75,-7.21564 v -1.47111 -1.4711 l 4.25,-0.18656 4.25,-0.18655 3,-0.15107 3,-0.15108 5.25,-0.16237 5.25,-0.16237 v -0.90387 -0.90388 l -7.9044,-8.34049 -7.9044,-8.34049 0.8465,-1.58167 0.8465,-1.58168 18.8252,2.76234 18.8253,2.76234 2.4827,0.94762 2.4826,0.94763 25.5,15.76895 25.49999,15.76895 6.84529,3.9185 6.84529,3.91851 0.56503,-0.56504 0.56504,-0.56503 -2.00335,-1.75635 -2.00335,-1.75634 -1.15697,-2.18426 -1.15698,-2.18426 v -2.17182 -2.17182 l -2.42761,-1.90956 -2.42761,-1.90955 -1.19556,-3.73437 -1.19556,-3.73436 -1.78629,-2 -1.78628,-2 -3.04383,-8 -3.04385,-8 -0.5681,-4.90211 -0.5682,-4.90211 -0.11,-4.88312 -0.11,-4.88311 0.6882,-0.68814 0.6881,-0.68814 2.69329,1.67454 2.6933,1.67453 3.71831,2.05299 3.71831,2.05298 7.10867,7.24585 7.10866,7.24584 2.42303,2.63483 2.42302,2.63482 v 0.94086 0.94086 l 2.58584,2.42432 2.58584,2.42431 4.28112,6.5 4.28112,6.5 0.55409,1.5 0.5541,1.5 0.0789,-2.16995 0.079,-2.16995 -2.57156,-10.83005 -2.57156,-10.83005 -1.95664,-6.70249 -1.95663,-6.7025 -1.97181,-9.22696 -1.9718,-9.22696 v -2.76517 -2.76518 l -5,-4.92175 -5,-4.92176 -0.0108,-4.88361 -0.0108,-4.88362 -1.40615,-4.63308 -1.40616,-4.63307 1.29968,-2.50513 1.29968,-2.50514 -0.49661,-2.59783 -0.49661,-2.59784 0.64699,-3.44874 0.64699,-3.44874 2.21692,-0.31521 2.21687,-0.31522 1.4085,-3.19887 1.4085,-3.19887 2.50857,-0.30113 2.50856,-0.30113 1.14962,-3.43308 1.14962,-3.43308 1.92541,-1.06692 1.9254,-1.06692 2.83945,-2.25406 2.83946,-2.25405 1.54909,0.86691 1.54909,0.86692 0.41501,4.88714 0.415,4.88714 1.42323,1.43316 1.42323,1.43316 1.78113,-1.55994 1.78113,-1.55993 4.98966,-2.17301 4.98966,-2.17301 7.58678,-0.58505 7.58677,-0.58505 3.92357,1.22108 3.92356,1.22108 3,1.34806 3,1.34807 3.13138,3.31569 3.13138,3.31569 1.1169,3.5 1.11689,3.5 2.25173,2.56253 2.25172,2.56254 5,3.39969 5,3.39969 7.27435,7.26374 7.27436,7.26373 3.97565,8.22114 3.97565,8.22115 v 1.26771 1.26771 l 1.93426,1.03519 1.93426,1.03518 h 1.40522 1.40523 l 1.16051,-2.54705 1.16052,-2.54706 v -2.84406 -2.84406 l -4.06779,-4.85889 -4.06779,-4.85888 -1.99008,-3.8236 -1.99008,-3.82359 0.30787,-3.17641 0.30787,-3.1764 2.03165,-0.29094 2.03164,-0.29093 1.21622,4.5473 1.21622,4.5473 5.47293,5.95318 5.47293,5.95318 0.65124,2.59474 0.65124,2.59474 -0.58244,3.58911 -0.58243,3.58911 -2.21391,2.35661 -2.21392,2.3566 h -5.20324 -5.20324 l -1.13007,1.36165 -1.13007,1.36165 -2.71602,-0.29814 -2.71601,-0.29815 -5.52637,1.89491 -5.52636,1.89492 -9,-0.3535 -9,-0.35349 -4,-1.64975 -4,-1.64975 -2.5,-1.17511 -2.5,-1.17512 -5.34352,-3.32746 -5.34351,-3.32746 -4.88385,-4.56827 -4.88386,-4.56828 -1.36511,0.52385 -1.36511,0.52384 -1.87169,3.84183 -1.87169,3.84183 -0.38168,7.52906 -0.38168,7.52906 2.59606,14.47094 2.59607,14.47094 1.15169,6.45497 1.15169,6.45497 0.19157,2.54503 0.19157,2.54503 0.15653,1.66314 0.15652,1.66313 3.23743,-1.16313 3.23742,-1.16314 4.27227,-4.23338 4.27228,-4.23338 2.45046,-0.61503 2.45047,-0.61503 2.78983,-2.65159 2.78984,-2.65159 5,-3.25077 5,-3.25077 6.25,-3.09349 6.25,-3.09348 v -0.80078 -0.80077 l 8.75001,-4.27535 8.75,-4.27536 4.60377,-0.44279 4.60377,-0.4428 0.50179,1.91884 0.50179,1.91883 -2.37811,4.94435 -2.3781,4.94434 -3.47745,3.19902 -3.47746,3.19901 v 0.9546 0.9546 l -3.25,3.81308 -3.25,3.81309 -6.00001,6.42452 -6,6.42452 -3.90004,2.85878 -3.90004,2.85878 h 0.9045 0.90449 l 6.24793,-3.75 6.24793,-3.75 20.24763,-12.41869 20.24761,-12.4187 3.5,-1.75533 3.5,-1.75534 16.5,-3.60433 16.5,-3.60433 1.25,0.0284 1.25,0.0284 -0.028,1.75 -0.028,1.75 -8.9421,10 -8.9421,10 0.29991,1 0.29991,1 8.92018,0.65397 8.92018,0.65396 6.81149,0.31766 6.81149,0.31767 0.97303,1.17242 0.97302,1.17243 -1.35734,1.35734 -1.35735,1.35735 -12.6436,5.9986 -12.6436,5.9986 0.29169,1 0.29168,1 9.92475,1.72736 9.92474,1.72736 5,0.78641 5,0.78642 v 1.90289 1.90289 l -5.5,1.77869 -5.5,1.77869 -8.75,2.61516 -8.75,2.61516 v 0.80363 0.80362 l 4.25,1.56822 4.25,1.56822 10.13331,3.07457 10.13331,3.07458 1.12902,1.36038 1.12902,1.36039 -1.26233,1.01813 -1.26233,1.01813 -7.5,1.23318 -7.5,1.23318 -6.34974,1.31445 -6.34974,1.31444 -0.56693,0.56692 -0.56692,0.56693 0.41666,0.39901 0.41667,0.39901 12,5.03979 12,5.0398 0.96463,1.51323 0.96463,1.51323 -0.69437,0.69438 -0.69437,0.69437 -9.27026,1.72867 -9.27026,1.72867 -4.75,0.68619 -4.75,0.6862 v 0.83906 0.83906 l 11.5,6.67797 11.5,6.67797 v 1.82304 1.82305 l -11.75,0.77776 -11.75,0.77777 -2.25,-0.25068 -2.25,-0.25068 0.0401,1.32156 0.0401,1.32157 4.7099,3.73232 4.70989,3.73231 3,2.62107 3,2.62107 2.36345,1.87977 2.36345,1.87978 -0.62497,1.62865 -0.62497,1.62865 -3.23848,-0.53785 -3.23848,-0.53784 -14,-1.66346 -14,-1.66345 -3.78123,-0.96001 -3.78123,-0.96001 -7.71877,-5.36895 -7.71877,-5.36896 -15,-8.9885 -15.00001,-8.98849 -8.99013,-5.01958 -8.99014,-5.01959 -0.40842,0.40842 -0.40842,0.40842 2.64856,3.82187 2.64855,3.82186 v 1.66145 1.66146 l 2.86133,3.28479 2.86133,3.2848 1.54128,3 1.54128,3 3.09739,3.8875 3.09739,3.88751 0.0318,2.61249 0.0318,2.6125 1.4246,1.88151 1.4246,1.8815 1.00187,5.1185 1.00187,5.11849 0.67479,4 0.6748,4 0.11694,2.5 0.11693,2.5 -3.15839,0.30653 -3.15839,0.30652 -1.84161,-1.92943 -1.84162,-1.92943 -3.0293,-1.53864 -3.02929,-1.53865 -6.47785,-6.33845 -6.47784,-6.33845 -5.9485,-6.5 -5.94849,-6.5 -4.29437,-6.45311 -4.29436,-6.4531 v -1.17445 -1.17445 l -1.5,-1.24489 -1.5,-1.24489 v 1.46351 1.46352 l 1.54767,4.90893 1.54767,4.90893 2.545,9 2.545,9 1.43642,6 1.43642,6 0.41436,3 0.41435,3 1.38723,6.5 1.38723,6.5 3.37479,2.28881 3.3748,2.2888 1.78794,2.7112 1.78794,2.71119 0.0185,4 0.0185,4 1.32666,5 1.32667,5 -0.41776,1.5 -0.41777,1.5 -0.59473,1.5 -0.59473,1.5 -0.076,6 -0.076,6 -2.25219,0.31984 -2.2522,0.31984 -1.03299,1.93016 -1.03299,1.93016 h 0.57037 0.57037 l -1.0348,1.93354 -1.0348,1.93354 -2.62581,0.31646 -2.62582,0.31646 -1.12457,3.47393 -1.12457,3.47393 -2.24311,1.11485 -2.24312,1.11485 -1.83562,1.66122 -1.83563,1.66122 h -1.50459 -1.5046 l -0.66666,-0.66667 z m 4.72634,-3.91512 0.60699,-1.58178 v -4.46788 -4.46787 l -1.52568,-2.95034 -1.52568,-2.95034 h -0.93914 -0.93913 l -1.06554,1.99097 -1.06553,1.99097 1.53035,2.95937 1.53035,2.95937 v 4.04966 4.04966 h 1.39301 1.39301 z m 6.60699,-10.70821 v -4.90774 l -1.61394,-3.40113 -1.61394,-3.40113 h -0.4518 -0.4518 l -1.93426,1.03518 -1.93426,1.03519 v 1.9058 1.9058 l 0.97283,0.60124 0.97282,0.60123 0.92689,3.70778 0.9269,3.70778 0.68177,2.99879 0.68178,2.99879 1.4185,-1.93992 1.41851,-1.93992 z m -25.45496,3.18412 4.84123,-2.39412 5.7907,-5.61216 5.79069,-5.61215 3.48458,-7.38785 3.48458,-7.38784 1.53159,-5.9601 1.53159,-5.9601 v -8.23913 -8.23914 l -1.98946,-10.30077 -1.98945,-10.30076 -5.87483,-20.5 -5.87483,-20.5 -1.26443,-5.5 -1.26443,-5.5 -0.80403,-1.5 -0.80404,-1.5 -0.74,1.92136 -0.73999,1.92136 1.53116,7.07864 1.53116,7.07864 4.55288,14.5 4.55288,14.5 1.61964,7.85762 1.61964,7.85762 1.14948,10.52731 1.14947,10.52731 -1.20902,7.05047 -1.20902,7.05047 -3.0956,6.28805 -3.0956,6.28806 -4.86489,5.07398 -4.86489,5.07398 -6.74944,3.15845 -6.74944,3.15844 -6.51146,-0.0181 -6.51146,-0.0181 -3.83924,-1.84404 -3.83924,-1.84404 -2.54122,-3.84006 -2.54123,-3.84005 0.50691,-4.49728 0.50691,-4.49728 2.68149,-3.51561 2.68148,-3.51561 3.90223,-1.99077 3.90223,-1.99077 1.78984,-0.01 1.78984,-0.01 5.07086,-2.36123 5.07087,-2.36123 3.16956,-3.84523 3.16956,-3.84523 2.08748,-6.27286 2.08747,-6.27286 -0.0192,-9.34176 -0.0192,-9.34176 -3.96664,-19.41915 -3.96664,-19.41915 -0.7086,-6.75 -0.70859,-6.75 h -1.88351 -1.8835 v 1.44515 1.44515 l 2.02048,13.80485 2.02048,13.80485 1.89701,10 1.89701,10 0.67487,6.52457 0.67486,6.52456 -1.10392,5.97544 -1.10393,5.97543 -2.76764,4.47805 -2.76764,4.47805 -2.81359,1.52195 -2.81359,1.52195 -1.6572,-2.5 -1.6572,-2.5 -3.95505,-4.33429 -3.95505,-4.33428 -3.79495,-1.93604 -3.79495,-1.93604 v 1.06016 1.06017 l 2.08542,4.08776 2.08543,4.08777 0.54804,5.31004 0.54804,5.31004 -2.24576,4.31236 -2.24576,4.31235 -3.38771,3.75288 -3.3877,3.75288 v 4.88293 4.88293 l 2.75,5.2566 2.75,5.2566 3.6275,2.93331 3.62749,2.93332 3.87251,1.4416 3.8725,1.44161 6.6019,-0.37321 6.60191,-0.37322 4.84123,-2.39411 z m 32.45496,-9.68268 v -4.78856 l -1.8922,-3.71144 -1.8922,-3.71144 0.6422,0.005 0.6422,0.005 3.99047,5.52322 3.99048,5.52323 0.86301,-2.58905 0.86302,-2.58904 -1.14555,-4.5494 -1.14555,-4.54939 -3.6697,-4.39014 -3.6697,-4.39014 h -1.22697 -1.22696 l -0.68936,4.75 -0.68936,4.75 -1.87191,1.78896 -1.87192,1.78895 v 1.88779 1.88779 l 4.19089,6.07326 4.19088,6.07325 h 0.80912 0.80911 v -4.78856 z m -48.25,-6.45627 1.25,-1.00006 v -3.32085 -3.32085 l -2.22251,-1.55671 -2.2225,-1.5567 h -1.7775 -1.77749 l -2,2 -2,2 v 2.42742 2.42742 l 2.65713,2.0901 2.65713,2.09009 2.09287,-0.6399 2.09287,-0.63991 z m -25.40292,-10.00517 1.37391,-3.25 4.17215,-5 4.17215,-5 0.60257,-2.35683 0.60258,-2.35684 -1.16792,-5.14316 -1.16792,-5.14317 -2.7173,-5 -2.7173,-5 -3.5,-1.74845 -3.5,-1.74844 -5.66821,-0.002 -5.66822,-0.002 -1.58178,0.60699 -1.58179,0.60699 v 0.87268 0.87269 l 4.25,2.12635 4.25,2.12635 3.75,3.59692 3.75,3.59693 v 2.72562 2.72562 l -1.57143,1.57143 -1.57143,1.57143 h -4.36035 -4.36035 l -8.13643,-3 -8.1364,-3 h -0.9895 -0.9895 l 2.8077,5.1103 2.8077,5.11029 5.6896,5.83497 5.68956,5.83498 5.31042,3.04534 5.31041,3.04535 1.73658,0.009 1.73658,0.009 1.37392,-3.25 z m 81.26009,-3.96414 -0.64283,-3.21414 -2.16485,-3.1594 -2.16486,-3.15941 -1.94401,-1.21405 -1.944,-1.21405 -1.48206,1.48206 -1.48206,1.48206 0.85875,1.48707 0.85875,1.48708 4,4.60492 4,4.60493 1.375,0.0135 1.375,0.0135 -0.64283,-3.21414 z m -1.53217,-11.06086 -0.075,-0.725 v -1.38134 -1.38135 l -3.18984,-3.11865 -3.18984,-3.11866 h -1.31016 -1.31016 v 2.96395 2.96395 l 3.73801,2.54004 3.73802,2.54005 0.83698,-0.27899 0.83699,-0.279 z m -85.075,-9.725 v -1 l -1.96585,-1.96585 -1.96585,-1.96585 -5.13358,-2.60138 -5.13361,-2.60139 -0.595,0.59501 -0.595,0.59502 2.12124,2.12123 2.12124,2.12124 4.8232,2.74362 4.82321,2.74362 0.75,0.10737 0.75,0.10736 z m 109.30442,-27.40721 -0.22096,-6.40721 -2.03799,-3.34279 -2.03799,-3.34279 -0.004,-2.31574 -0.004,-2.31574 -1.15794,-2.16363 -1.15793,-2.16362 -1.26605,-1.26605 -1.26605,-1.26605 -3.04432,-5.32091 -3.04432,-5.32092 -2.03169,-1.83866 -2.0317,-1.83866 v -2.21015 -2.21015 l -2.25,-2.8189 -2.25,-2.8189 -2.5,-4.55347 -2.5,-4.55348 -1.84656,-0.3544 -1.84656,-0.35441 0.58623,1.84192 0.58623,1.84192 12.49602,24.5 12.49603,24.5 0.0143,1.25 0.0143,1.25 -1.75,-0.0424 -1.75,-0.0424 -7.99198,-10.2076 -7.99145,-10.2076 -11.81443,-15.25 -11.81443,-15.25 h -0.94359 -0.94359 v 1.04966 1.04966 l 1.61639,3.20034 1.61639,3.20034 3.75385,5.03523 3.75385,5.03523 3.2102,5.68816 3.2102,5.68816 8.16956,8.75481 8.16956,8.75482 3.40049,3.34657 3.40049,3.34658 5.08616,3.42522 5.08616,3.42522 h 0.52604 0.52604 z m -130.71201,-16.77093 7.2253,-3.89725 1.21357,-1.4623 1.21361,-1.46231 h 1.64005 1.64005 l 7.48751,-4.94705 7.4875,-4.94706 2.88279,-2.23898 2.88279,-2.23897 5.74649,-3.71414 5.7465,-3.71414 0.6891,-1.11498 0.68909,-1.11498 3.39603,-1.41895 3.39603,-1.41895 0.65569,-2.61247 0.65568,-2.61247 -0.53445,-0.53445 -0.53445,-0.53445 -2.33564,1.24179 -2.33565,1.24178 -23,15.19337 -22.99999,15.19336 -2.3357,1.22689 -2.3356,1.22689 -0.5825,-0.58253 -0.5826,-0.58252 1.297,-2.42332 1.2969,-2.42333 15.20445,-13.02174 15.20447,-13.02175 1.28923,-1.55342 1.28923,-1.55343 -1.37245,0.0132 -1.37244,0.0132 -7.06344,3.9177 -7.06345,3.9177 -8.9365,9.72739 -8.9366,9.7274 -5.7453,7.59168 -5.7452,7.59169 v 1.07681 1.0768 l 3.1836,-0.46725 3.1836,-0.46725 7.2252,-3.89725 z m 185.49735,-1.98955 1.16011,-2.16769 -0.61479,-5.88201 -0.61479,-5.88201 3.9699,-3.77648 3.96991,-3.77648 -0.87026,-3.03443 -0.87027,-3.03444 -1.2556,-2.34611 -1.2556,-2.34612 1.83704,-1.04327 1.83703,-1.04327 2.30879,-2.20455 2.30878,-2.20454 v -2.39497 -2.39498 l -2.95686,-4.40048 -2.95686,-4.40048 3.45686,-3.54216 3.45686,-3.54217 v -3.07297 -3.07298 l -2,-2.54259 -2,-2.54259 v -1.09227 -1.09227 l 2,-2 2,-2 v -3.4272 -3.42719 l -3.6458,-3.00518 -3.6458,-3.00517 2.6458,-3.14436 2.6458,-3.14435 -0.005,-2.17328 -0.005,-2.17327 -1.77373,-2.92054 -1.77373,-2.92055 -3.47101,-1.18651 -3.471,-1.18651 0.30208,-2.39295 0.30207,-2.39294 0.53769,-3.58988 0.53769,-3.58988 -2.33976,-2.62247 -2.33977,-2.62247 -2.56323,-0.59918 -2.56323,-0.59918 -2.26126,1.83106 -2.26126,1.83106 2.5238,5.02478 2.52381,5.02479 2.97523,8.06927 2.97524,8.06928 2.29608,10.38641 2.29607,10.38641 0.0294,16.24775 0.0294,16.24776 2.25,0.002 2.25,0.002 v 2.01905 2.01905 l -2.32992,-0.58477 -2.32991,-0.58477 -1.82875,8.71429 -1.82875,8.7143 -4.42281,9.10142 -4.42281,9.10143 -1.65984,1.84539 -1.65983,1.84539 2.35209,1.90461 2.3521,1.90461 h 3.35403 3.35403 l 1.16012,-2.16769 z m -6.08975,-4.83231 v -2 h 1.5 1.5 v 2 2 h -1.5 -1.5 z m 7.66667,-17.66667 -0.66667,-0.66666 v -0.83334 -0.83333 h 2 2 v 1.5 1.5 h -1.33333 -1.33334 z m 4.58286,-41.58333 0.4162,-1.25 1.66714,-0.32332 1.66713,-0.32333 v 1.57333 1.57332 h -2.08333 -2.08334 z m -2.24953,-18.25 v -1.64665 l 1.75,0.33702 1.75,0.33702 -0.19718,0.98631 -0.19718,0.9863 -1.55282,0.32332 -1.55282,0.32333 z m -4,-19 v -1.64665 l 1.75,0.33702 1.75,0.33702 -0.19718,0.98631 -0.19718,0.9863 -1.55282,0.32332 -1.55282,0.32333 z m -6,-17 v -1.5 h 1.5 1.5 v 1.5 1.5 h -1.5 -1.5 z m -224.5273,114.14362 1.855,-1.35639 -2.5503,-6.39361 -2.5503,-6.39362 -2.5182,-10.01982 -2.5182,-10.01982 -1.2054,-11.69146 -1.2054,-11.69147 1.1578,-9.95877 1.1577,-9.95876 1.8383,-6.32995 1.8384,-6.32995 2.1844,-5.5 2.1844,-5.5 4.514,-8.3088 4.5139,-8.30881 -0.4979,-1.2976 -0.4979,-1.29761 -4.2152,-1.06992 -4.2151,-1.06992 -2.3191,0.8817 -2.319,0.88169 -1.6879,2.57602 -1.6879,2.57602 0.5925,5.00224 0.5924,5.00224 -2.9927,0.59855 -2.9928,0.59855 -1.4641,2.09033 -1.4641,2.09033 v 2.9565 2.95649 l 1.1557,3.19599 1.1557,3.19599 -3.3557,2.99831 -3.3557,2.9983 v 3.46472 3.46471 l 2.2293,2.83413 2.2293,2.83413 -2.9601,3.07786 -2.9602,3.07786 -0.6246,2.53903 -0.6246,2.53904 1.122,2.96096 1.1221,2.96097 2.0473,2.18568 2.0473,2.18569 -2.1139,2.96868 -2.1139,2.96869 v 2.84563 2.84563 l 3.0017,3.5 3.0018,3.5 -0.6064,1.5 -0.6064,1.5 -0.9773,2.69775 -0.9773,2.69775 1.3296,2.77298 1.3296,2.77299 2.3342,1.16345 2.3342,1.16345 1.0574,1.05745 1.0575,1.05745 -1.7172,3.61864 -1.7171,3.61863 1.5985,2.43973 1.5986,2.43973 h 3.7858 3.7858 l 1.855,-1.35638 z m -7.4727,-3.72695 v -2.08334 l 1.25,0.4162 1.25,0.4162 0.3233,1.66714 0.3233,1.66713 h -1.5733 -1.5733 z m -4.5,-16.91667 -0.618,-1 0.6281,-1.01631 0.6281,-1.01631 0.9309,0.57533 0.9309,0.57532 v 1.44099 1.44098 h -0.941 -0.941 z m -3.8333,-16.66667 -0.6667,-0.66666 v -0.83334 -0.83333 h 2 2 v 1.5 1.5 h -1.3333 -1.3334 z m -1.9792,-18.97916 -0.6875,-0.6875 v -1.40666 -1.40666 l 1.75,0.33702 1.75,0.33702 v 1.40297 1.40297 l -1.0625,0.35417 -1.0625,0.35417 z m 2.3125,-21.85417 v -1.5 h 1.5 1.5 v 1.5 1.5 h -1.5 -1.5 z m 4,-18 v -1.64665 l 1.75,0.33702 1.75,0.33702 -0.1972,0.98631 -0.1972,0.9863 -1.5528,0.32332 -1.5528,0.32333 z m 9.5,-16.5 -0.618,-1 0.618,-1 0.618,-1 h 0.941 0.941 v 2 2 h -0.941 -0.941 z m 222.19675,107.11633 3.20124,-5.35715 3.07701,-8.50373 3.07701,-8.50373 1.61298,-10.12586 1.61298,-10.12586 -1.16298,-13.23832 -1.16298,-13.23832 -2.87814,-11.26168 -2.87815,-11.26168 -3.89629,-9.49563 -3.89629,-9.49563 -1.84458,-0.35524 -1.84458,-0.35523 0.57627,1.85086 0.57627,1.85087 3.56245,8.72099 3.56245,8.72099 2.45781,9.45959 2.45781,9.4596 1.1735,8.81831 1.1735,8.81831 -0.53683,11.5011 -0.53682,11.50111 -2.06063,8 -2.06062,8 -5.02957,9.79401 -5.02957,9.79401 v 0.52932 0.52931 l 1.74775,-0.33659 1.74775,-0.33658 z m -213.69675,1.31879 v -1.56489 l -3.9684,-14.00352 -3.9684,-14.00353 -1.1657,-6.18159 -1.1658,-6.18159 0.013,-12 0.013,-12 2.1499,-9 2.1499,-9 6.4711,-13.14136 6.4711,-13.14136 v -1.19198 -1.19197 l -1.25,0.40938 -1.25,0.40938 -5.2424,9.92396 -5.2425,9.92395 -2.9466,9.07157 -2.9465,9.07156 -1.1896,8.92844 -1.1896,8.92843 0.6312,9 0.6313,9 2.4279,10 2.4279,10 2.6266,8.5 2.6266,8.5 0.4115,1.25 0.4114,1.25 h 1.0314 1.0314 v -1.56488 z m 196.36909,-11.93322 2.62108,-5.53581 1.96692,-5.83873 1.96693,-5.83873 1.10846,-9.11647 1.10845,-9.11646 -1.12981,-9.77785 -1.12981,-9.77785 -2.9269,-11.3443 -2.9269,-11.3443 -2.65032,-5.9057 -2.65032,-5.9057 h -1.36343 -1.36344 v 0.70035 0.70034 l 3.46553,9.04966 3.46553,9.04965 2.14696,7.5 2.14696,7.5 0.50426,15.06978 0.50426,15.06979 -2.1145,8.43021 -2.11451,8.43022 -3.111,6.16951 -3.11101,6.16952 0.67786,1.0968 0.67786,1.09679 0.8049,-0.49745 0.80491,-0.49746 z m -4.78895,-2.2519 2.55492,-5.75 2.08492,-8.5 2.08493,-8.5 -0.034,-11.5 -0.034,-11.5 -2.13441,-10.23516 -2.13441,-10.23515 -3.32448,-9.21164 -3.32447,-9.21164 -0.93487,-0.31162 -0.93487,-0.31163 -12.97476,7.89637 -12.97474,7.89637 0.13574,2.36205 0.13574,2.36205 1.82285,7.25 1.82285,7.25 h 0.67009 0.67009 l 1.29108,-3.11694 1.29108,-3.11694 2.57002,-2.38306 2.57002,-2.38306 h 2.79394 2.79392 l 2.92591,2.99317 2.92591,2.99316 1.14966,4.25684 1.14965,4.25683 -0.65053,6.38086 -0.65052,6.38086 -1.33757,3.20124 -1.33756,3.20124 -2.75604,2.1679 -2.75604,2.1679 h -2.43088 -2.43089 l -1.92621,-1.03088 -1.92621,-1.03087 -1.92662,-3.71913 -1.92661,-3.71912 -0.44576,1.5 -0.44576,1.5 -2.18313,7.5 -2.18314,7.5 -0.56453,1.73224 -0.56452,1.73224 3.19191,1.76776 3.19192,1.76776 11.65916,6.75 11.65914,6.75 h 0.77354 0.77353 l 2.55492,-5.75 z m -169.07594,2.74318 0.6223,-1.00683 -1.9489,-2.74317 -1.9488,-2.74318 -2.7057,-6.43683 -2.7057,-6.43683 -1.3914,-6.56317 -1.3913,-6.56317 -0.017,-8.34292 -0.017,-8.34291 2.0482,-10.15709 2.0481,-10.15708 2.9292,-6.31372 2.9291,-6.31372 2.1457,-3.01333 2.1456,-3.01332 -1.1229,-1.12295 -1.1229,-1.12296 -0.9394,0.95 -0.9395,0.95 -3.9685,8 -3.9686,8 -2.2034,7 -2.2033,7 -0.5169,12.62491 -0.5168,12.62491 1.7202,7.87509 1.7201,7.87509 4.3446,9.25 4.3446,9.25 h 1.0045 1.0044 z m 16.7059,-8.20414 12.71009,-6.28904 0.0399,-1.66923 0.0399,-1.66924 -1.41121,-5.83076 -1.4112,-5.83077 -0.62634,-2.82368 -0.62634,-2.82367 -4.7634,5.07367 -4.7634,5.07368 h -3.331 -3.331 l -3.2961,-3.49491 -3.2961,-3.49491 -1.1373,-5.47817 -1.1372,-5.47817 0.6978,-4.77692 0.6979,-4.77692 2.3343,-4.65135 2.3343,-4.65135 2.7289,-2.14658 2.729,-2.14658 4.0194,0.29793 4.0193,0.29793 3.0349,4.1889 3.03479,4.18889 0.52748,0.0611 0.52747,0.0611 2.83054,-6.49732 2.83054,-6.49732 -0.5645,-1.47108 -0.56451,-1.47108 -3.29351,-1.4217 -3.29351,-1.42171 -8.49999,-5.10917 -8.5,-5.10917 -1.702,-7.2e-4 -1.7019,-7.3e-4 -2.9178,4.25 -2.9178,4.25 -2.0821,5 -2.0821,5 -1.0039,4 -1.0038,4 -1.0701,6.79116 -1.07,6.79115 1.4509,11.70885 1.451,11.70884 2.7,7.5 2.7001,7.5 1.9428,2.75 1.9429,2.75 0.6819,0.039 0.6819,0.039 12.7101,-6.28903 z m 17.33139,-10.53904 -0.67247,-1.75 -1.43452,-6.81538 -1.43451,-6.81537 v -7.22453 -7.22452 l 1.55078,-5.9601 1.55078,-5.9601 1.94922,-3.30716 1.94922,-3.30716 v -0.94284 -0.94284 h -1.37686 -1.37685 l -2.0325,4.75 -2.0325,4.75 -1.65315,5.7209 -1.65314,5.72091 0.0116,6.27909 0.0116,6.2791 1.57668,7.5 1.57667,7.5 0.54164,1.75 0.54164,1.75 h 1.5396 1.5396 l -0.67248,-1.75 z m 59.03492,0.28315 4.93942,-1.46685 4.19331,-3.08379 4.19331,-3.0838 2.77359,-5.66902 2.7736,-5.66903 0.0252,-7.53033 0.0252,-7.53033 -3,-5.41876 -3,-5.41877 -1.69723,-1.04283 -1.69723,-1.04284 -2.74993,0.9671 -2.74993,0.9671 -1.7437,2.9945 -1.7437,2.9945 -1.99684,9.16771 -1.99683,9.16771 -2.06526,4.04825 -2.06526,4.04825 -3.74705,2.55577 -3.74704,2.55578 -3.75,1.01681 -3.75,1.01681 v 0.92627 0.92627 l 2.25,1.20977 2.25,1.20976 4,1.25853 4,1.25852 2.5685,0.0669 2.5685,0.0669 4.93942,-1.46685 z m 40.20415,0.21685 1.02545,-1.25 2.21753,-7.32617 2.21753,-7.32617 -0.50148,-11.67383 -0.50147,-11.67383 -1.94474,-5.44189 -1.94474,-5.44189 -1.31585,-0.43862 -1.31585,-0.43862 0.58379,2.38051 0.58379,2.38051 1.58488,6 1.58487,6 0.0562,10.03788 0.0562,10.03789 -2.17077,5.96211 -2.17077,5.96212 -0.5292,1.75 -0.52919,1.75 h 0.99418 0.99419 l 1.02546,-1.25 z m -10.87614,-11.26368 2.40453,-5.98632 0.46445,-7.58498 0.46445,-7.58497 -1.66557,-5.72937 -1.66557,-5.72936 -1.70336,0.34555 -1.70336,0.34555 0.32382,2.46879 0.32381,2.46879 0.51378,9.5543 0.51378,9.5543 -2.56874,6.3217 -2.56874,6.3217 0.57438,0.92937 0.57438,0.92937 1.65671,-0.31906 1.65671,-0.31905 z m -68.66139,4.9373 0.57638,-0.57637 -2.50985,-5.48224 -2.50986,-5.48225 -0.52259,-5.76326 -0.5226,-5.76327 1.62274,-5.58202 1.62274,-5.58202 v -1.5961 -1.59609 h -1.55103 -1.55102 l -1.48522,3.55463 -1.48522,3.55462 -0.92359,4.87006 -0.92358,4.87006 0.89241,5.48322 0.89242,5.48323 2.19056,5.09209 2.19056,5.09209 h 1.71019 1.71019 z m 20.38896,-4.67362 3.70159,-3.25 1.76735,-4 1.76735,-4 0.67524,-5.10342 0.67524,-5.10341 2.64263,-4.89659 2.64264,-4.89658 4.99798,-3.32994 4.99798,-3.32993 0.33808,-0.93429 0.33807,-0.93429 -3.55596,-1.48578 -3.55595,-1.48577 h -6.41793 -6.41793 l -5.34591,2.79274 -5.34591,2.79274 -3.25966,4.27369 -3.25966,4.2737 -1.61054,5.54006 -1.61054,5.54006 0.64793,5.18585 0.64793,5.18584 2.97422,5.20766 2.97422,5.20766 h 2.44497 2.44498 z m -56.65739,-0.72456 1.9745,-1.97457 0.6557,-2.61249 0.6557,-2.61249 -1.9411,-2.59989 -1.9411,-2.5999 -1.0958,-0.36527 -1.0958,-0.36527 -2.2714,4.04133 -2.2714,4.04134 -1.8219,0.57827 -1.822,0.57828 v 1.10387 1.10387 l 1.655,1.82874 1.655,1.82874 h 2.845 2.845 z m 138.7754,-0.83651 1.25,-1.57119 v -2.98013 -2.98013 l -1.65499,-1.82874 -1.65499,-1.82874 h -0.89703 -0.89703 l -1.05317,3.02111 -1.05317,3.02111 -1.89481,1.01407 -1.89482,1.01408 v 1.13607 1.13608 l 1.64035,1.81257 1.64035,1.81256 2.60966,-0.60376 2.60965,-0.60377 z m -7.14798,-9.77889 1.39797,-3.3458 v -0.3861 -0.38609 l -2.50442,-2.70231 -2.50441,-2.70231 -0.99559,0.6153 -0.99558,0.6153 v 5.24099 5.24098 l 1.16008,1.16008 1.16008,1.16008 0.94196,-0.58216 0.94195,-0.58215 z m -138.89682,-0.61178 1.4702,-3.70173 -2.7064,-3.54827 -2.7064,-3.54826 h -0.7647 -0.7646 l -0.603,2.25 -0.603,2.25 -0.014,4.58333 -0.014,4.58334 0.7089,0.70885 0.7088,0.70885 1.9087,-0.29219 1.9087,-0.29218 1.4701,-3.70174 z m 13.4776,-2.59019 0.40973,-2.79193 -0.40133,-4.20807 -0.4013,-4.20807 h -2.3815 -2.3816 l -1.5134,3.62212 -1.5134,3.62213 v 0.32719 0.32719 l 3.25,3.04606 3.25,3.04606 0.6365,0.005 0.6365,0.005 0.4098,-2.79193 z m 136.62441,-4.31528 -0.30721,-5.39279 -2.75,0.18826 -2.75,0.18827 v -0.81582 -0.81582 l 1.5,-1.24489 1.5,-1.24489 v -1.31854 -1.31854 l -1.14411,-0.7071 -1.14411,-0.7071 -3.00821,0.0855 -3.00823,0.0855 -0.83236,1.31255 -0.83236,1.31255 -0.0153,3.62756 -0.0153,3.62755 1.60821,1.3347 1.60822,1.3347 1.25204,-1.71226 1.25203,-1.71225 h 0.71921 0.71921 l -0.65279,2.97212 -0.65278,2.97212 2.6506,2.65061 2.65061,2.6506 0.97993,-0.97993 0.97994,-0.97994 -0.30721,-5.39279 z m -145.25761,-5.35603 1.6434,-3.46324 1.9604,-0.6222 1.9603,-0.6222 -0.3157,-1.63944 -0.3157,-1.63945 -2.3857,-1.18941 -2.3858,-1.18941 -2.0744,0.76741 -2.0745,0.7674 -1.8596,2.49073 -1.8596,2.49074 1.5276,3.65616 1.5276,3.65615 h 1.5042 1.5041 z m 39.45039,-11.54476 v -1.008 l -12,-23.984 -12,-23.984 v -1.008 -1.008 h 0.9455 0.9455 l 17.15854,20 17.15855,20 h 0.95497 0.95497 l -0.70778,-1.25 -0.70778,-1.25 -1.67917,-2 -1.67917,-2 -0.11099,-2.26423 -0.11099,-2.26422 -3.06107,-3.71362 -3.06108,-3.71362 v -1.20477 -1.20476 l -1.75,-0.56589 -1.75,-0.56588 -2.5,-3.74765 -2.5,-3.74766 -5.80989,-6.50385 -5.80989,-6.50385 -2.58878,-2.83707 -2.58877,-2.83708 -3.33878,-1.59215 -3.33878,-1.59215 -0.55034,0.55035 -0.55034,0.55034 -0.10618,4.37888 -0.10617,4.37888 2.216,7.5 2.216,7.5 1.43417,1.5856 1.43416,1.5856 2.88267,5.9144 2.88266,5.9144 2.61113,2.42431 2.61113,2.42432 v 2.21173 2.21173 l 4.20566,6.36396 4.20565,6.36395 1.04435,0.73469 1.04434,0.73468 0.75,0.0153 0.75,0.0153 v -1.008 z m 74.5,-10.22692 3,-4.52051 3.65428,-1.6524 3.65429,-1.65241 2.47655,-3.21988 2.47656,-3.21988 3.59677,-4 3.59677,-4 2.37584,-2.50054 2.37582,-2.50054 0.70568,-2.22337 0.70567,-2.22338 2.3454,-1.84489 2.3454,-1.84489 2.09175,-3.4312 2.09175,-3.43119 0.004,-0.79531 0.004,-0.79532 -3.75,0.66717 -3.75,0.66717 -4.15063,2.62815 -4.15063,2.62814 -2.84938,1.72135 -2.84937,1.72136 -1.5,1.0044 -1.5,1.0044 -3.5,1.48699 -3.5,1.48699 -6.6398,4.28726 -6.6398,4.28725 -11.3602,8.32089 -11.3602,8.32088 -1.47507,2.41833 -1.47507,2.41833 1.75127,1.75127 1.75127,1.75127 2.46536,-1.49049 2.46536,-1.49048 9.75844,-6.61878 9.75844,-6.61878 10.5,-6.78548 10.5,-6.78548 3.74938,-2.92928 3.74939,-2.92928 1.0594,0.35313 1.05941,0.35314 -13.8088,13.60429 -13.80878,13.60429 -4.75,4.31528 -4.75,4.31527 v 1.91238 1.91238 l 4.25,-2.45874 4.25,-2.45875 3,-4.52051 z m -51.5,-2.04951 v -3.28443 l -3.54156,-15.96557 -3.54156,-15.96557 -2.9559,-14.78776 -2.95589,-14.78776 -0.63063,-9.71224 -0.63062,-9.71224 1.62406,-6.31507 1.62406,-6.31506 2.67417,-4.56313 2.67417,-4.56313 4.57985,-4.48024 4.57985,-4.48025 5.5,-2.52662 5.5,-2.52663 7.05641,-0.48402 7.05642,-0.48402 4.17298,2.1289 4.17298,2.12889 1.5206,2.94053 1.52061,2.94053 -0.004,3.79966 -0.004,3.79966 -1.95722,3.20998 -1.95723,3.20998 -3.78903,2.47325 -3.78904,2.47325 -6.5,1.63354 -6.5,1.63354 -3.83869,2.50611 -3.83869,2.50611 -2.64606,5.67712 -2.64605,5.67712 0.0491,12 0.0491,12 3.21456,15.5 3.21455,15.5 0.61905,9.69981 0.61906,9.6998 1.19268,0.45768 1.19268,0.45767 1.22598,-0.7577 1.22599,-0.7577 -1.13486,-10.39978 -1.13425,-10.39978 -2.50573,-13.5 -2.50573,-13.5 -1.01142,-6 -1.01142,-6 0.60653,-5.5 0.60654,-5.5 1.50636,-4.59102 1.50637,-4.59103 2.01139,-2.15897 2.01139,-2.15898 h 1.90285 1.90286 l 5.80819,5.11758 5.80819,5.11758 3.84448,2.45461 3.84448,2.4546 0.5307,-0.5307 0.5307,-0.5307 -1.62518,-4.06172 -1.62518,-4.06172 v -4.51189 -4.51188 l 1.37684,-3.21788 1.37684,-3.21788 3.21244,-3 3.21243,-3 1.41073,-2.70034 1.41072,-2.70034 v -4.85388 -4.85388 l -2.94839,-4.64913 -2.94839,-4.64912 -4.03451,-2.05826 -4.03452,-2.05826 -6.1296,-0.83827 -6.12959,-0.83827 -4.58598,0.85675 -4.58598,0.85675 -4.33771,2.09985 -4.3377,2.09985 -5.43808,4.97009 -5.43807,4.9701 -3.4378,5.67318 -3.43779,5.67318 -2.21964,6.5 -2.21965,6.5 -0.004,10 -0.004,10 2.66225,12 2.66226,12 3.39717,13 3.39718,13 1.61259,8.5 1.61259,8.5 0.48264,2.25 0.48263,2.25 h 1.48095 1.48095 v -3.28443 z m 69,-61.55664 v -0.84107 l -5.25,-2.83754 -5.25,-2.83753 -2.84747,-2.0714 -2.84747,-2.07139 -1.40253,-2.70034 -1.40253,-2.70034 v -2.5711 -2.5711 l 2.42244,-1.10373 2.42243,-1.10374 4.32757,0.66844 4.32756,0.66843 7.5,3.34326 7.50001,3.34326 0.32374,-0.29359 0.32373,-0.29359 -1.71367,-3.31387 -1.71367,-3.31388 -5.61007,-5.92976 -5.61007,-5.92976 -5.86001,-4.3493 -5.86001,-4.34929 h -1.1891 -1.1891 l -1.24375,3.43951 -1.24374,3.43951 -4.43213,4.9296 -4.43213,4.92959 -0.99597,2.6196 -0.99597,2.6196 2.01636,6.52821 2.01636,6.52822 3.0562,3.48081 3.0562,3.48082 3.14839,0.91208 3.1484,0.91207 7.75,0.0902 7.75,0.0902 v -0.84107 z m 9.00001,-4.15893 v -2 l -1.25,-0.11069 -1.25,-0.11069 -2.05466,0.15666 -2.05466,0.15665 -3.8007,-3.02042 -3.8007,-3.02041 -3.44127,-0.64559 -3.44128,-0.64559 -0.49139,0.4914 -0.49139,0.49139 4.93536,3.16702 4.93536,3.16701 5.35266,1.92555 5.35267,1.92556 0.75,0.0361 0.75,0.0361 v -2 z m 2.5,-6 -0.61803,-1 h -1.5 -1.5 l 0.61803,1 0.61803,1 h 1.5 1.5 z m -8.79519,-3.61307 0.37056,-1.11307 -3.06976,-1.27153 -3.06975,-1.27153 -0.44493,0.44493 -0.44494,0.44493 1.57222,2.24466 1.57222,2.24465 1.57191,-0.30498 1.57192,-0.30499 z m -94.16969,-1.44377 0.65316,-1.05683 -0.59654,-2.37677 -0.59653,-2.37677 -3.07465,-2.18935 -3.07466,-2.18935 -0.92459,0.92459 -0.92459,0.92459 2.97961,4.69837 2.97961,4.69836 h 0.96301 0.96301 z m 1.13094,-10.51535 0.60331,-1.57218 -2.13469,-2.88732 -2.13469,-2.88732 v -0.54897 -0.54897 l 1.95452,1.22062 1.95452,1.22062 0.62956,-0.62956 0.62956,-0.62956 0.54212,-4.0418 0.54212,-4.04181 1.8738,-1.69577 1.8738,-1.69577 v -2.21015 -2.21015 l -1.8586,-2.38486 -1.85861,-2.38486 -1.66708,-3.25 -1.66707,-3.25 h -0.97432 -0.97432 v 5.36045 5.36046 l 2.5,3.68395 2.5,3.68396 v 0.45559 0.45559 h -0.98979 -0.98978 l -3.6518,-5.5 -3.65179,-5.5 h -0.75143 -0.75143 l -0.48449,1.26256 -0.48449,1.26255 0.74321,4.48745 0.74321,4.48744 0.78556,1.8654 0.78556,1.8654 -2.15127,-0.68279 -2.15127,-0.68279 v 2.42785 2.42784 l 2.62686,3.88954 2.62685,3.88955 1.12315,0.73469 1.12314,0.73468 1.28138,0.0153 1.28139,0.0153 0.6033,-1.57219 z m 51.11142,-13.98451 2.22251,-1.55671 v -2.50904 -2.50903 l -0.97362,-1.81923 -0.97362,-1.81923 -2.44692,-0.61414 -2.44691,-0.61414 -1.61645,0.62029 -1.61645,0.62029 -1.34263,2.62882 -1.34262,2.62882 0.81579,2.1646 0.8158,2.16459 1.81381,1.055 1.81382,1.05499 1.52749,0.0304 1.5275,0.0304 2.2225,-1.5567 z m -40.78226,-11.93755 1.24012,-1.49426 -0.54436,-2.25574 -0.54436,-2.25575 -1.16401,-4.5 -1.16401,-4.5 -0.5291,-1.5 -0.52911,-1.5 -1.3351,3 -1.33509,3 -0.0451,3.60078 -0.0451,3.60077 1.09783,3.14923 1.09782,3.14922 h 1.27973 1.27973 l 1.24012,-1.49425 z m 6.07216,-6.08695 1.31228,-1.5812 -1.18983,-1.90523 -1.18984,-1.90523 v -4.45455 -4.45456 l -0.91938,-0.5682 -0.91938,-0.56821 -1.686,1.68599 -1.68599,1.686 0.66276,4.99617 0.66277,4.99617 0.97779,1.82702 0.9778,1.82703 h 0.84237 0.84237 z"
       id="path24292" />
    <path
       style="fill:none;stroke:#f20203;stroke-width:1px;stroke-linecap:butt;stroke-linejoin:miter;stroke-opacity:1"
       d="m 69.418327,222.98008 c 93.626743,-31.43847 187.251013,-62.87611 269.264123,-78.98256 82.01311,-16.10645 152.40811,-16.88061 224.55718,-16.63257 72.14908,0.24805 146.02026,1.51777 230.14053,17.50054 84.12027,15.98277 178.46822,46.67671 272.81684,77.37086"
       id="path20828" />
    <circle
       style="opacity:1;fill:none;stroke:#000000;stroke-width:5;stroke-linecap:round;stroke-linejoin:round;stroke-miterlimit:4;stroke-dasharray:none"
       id="path849"
       cx="576.44019"
       cy="395.17075"
       r="237.32907" />
    <circle
       style="fill:none;stroke:#ffffff;stroke-width:5;stroke-linecap:round;stroke-linejoin:round;stroke-miterlimit:4;stroke-dasharray:none"
       id="path849-0"
       cx="575.41516"
       cy="395.25284"
       r="197.91518" />
    <circle
       style="fill:none;stroke:#000000;stroke-width:5;stroke-linecap:round;stroke-linejoin:round;stroke-miterlimit:4;stroke-dasharray:none"
       id="path849-0-2"
       cx="577.25464"
       cy="398.25467"
       r="177.75467" />
    <g
       aria-label="ALABAMA-COUSHATTA TRIBE"
       id="text4398"
       style="font-weight:bold;font-size:68.6667px;line-height:1.25;font-family:'Times New Roman';-inkscape-font-specification:'Times New Roman,  Bold';white-space:pre">
      <path
         d="m 92.395785,201.6232 -15.230091,5.0966 -0.407858,4.80351 q -0.188031,2.39643 0.269493,3.76364 0.606485,1.81235 2.356364,2.18139 1.028723,0.22144 4.484177,-0.65204 l 0.393683,1.17644 -14.339814,4.79867 -0.393683,-1.17643 q 2.204038,-1.12648 3.177066,-3.18455 0.962389,-2.08986 1.507072,-7.75235 l 3.908294,-39.56327 0.604116,-0.20216 27.379816,30.1537 q 3.90683,4.2789 5.77387,5.10371 1.4109,0.6239 3.43542,0.1232 l 0.39369,1.17643 -20.857914,6.9799 -0.393683,-1.17644 0.858481,-0.28728 q 2.511852,-0.84057 3.295229,-1.88055 0.529262,-0.74282 0.210059,-1.69668 -0.191521,-0.57232 -0.584456,-1.1126 -0.159352,-0.26488 -1.751875,-2.06547 z m -1.868417,-1.99111 -11.391629,-12.69924 -1.644565,17.06168 z"
         id="path28237" />
      <path
         d="m 152.6464,178.51665 3.35075,15.69735 -38.35665,12.58507 -0.38675,-1.17873 1.4336,-0.47038 q 1.8796,-0.61671 2.80697,-1.66202 0.68196,-0.71777 0.77258,-1.94727 0.0996,-0.87957 -0.96661,-4.12905 l -9.32383,-28.41705 q -1.08708,-3.3132 -1.70928,-4.02652 -0.62221,-0.71332 -1.90397,-0.96323 -1.26036,-0.29221 -3.07625,0.30359 l -1.43359,0.47038 -0.38675,-1.17874 23.0331,-7.55731 0.38675,1.17873 -1.8796,0.61671 q -1.87961,0.61671 -2.80698,1.66202 -0.68196,0.71778 -0.80443,1.95773 -0.0996,0.87957 0.96661,4.12905 l 9.03115,27.52504 q 1.08708,3.3132 1.7725,4.11164 0.67497,0.76658 1.93632,0.84674 0.89052,0.0254 3.94886,-0.97806 l 3.59992,-1.18115 q 3.44063,-1.1289 5.33718,-3.09209 1.89655,-1.96318 2.69602,-5.11905 0.83134,-3.16633 0.65621,-8.75484 z"
         id="path28239" />
      <path
         d="m 183.29869,171.9514 -15.32029,4.81869 -0.49518,4.79529 q -0.2316,2.39261 0.20098,3.76792 0.57341,1.82308 2.31629,2.22389 1.02452,0.24013 4.49529,-0.57035 l 0.37222,1.1834 -14.42474,4.53701 -0.37221,-1.1834 q 2.22416,-1.0862 3.23447,-3.12622 1.00025,-2.07201 1.64786,-7.72365 l 4.62739,-39.48563 0.6077,-0.19113 26.82672,30.64681 q 3.82833,4.34927 5.68006,5.20791 1.39931,0.64947 3.43261,0.18567 l 0.37222,1.18341 -20.98144,6.59928 -0.37222,-1.1834 0.86357,-0.27162 q 2.52673,-0.79473 3.3289,-1.82029 0.54268,-0.73306 0.24089,-1.69258 -0.18108,-0.57571 -0.56412,-1.12304 -0.15451,-0.26774 -1.71401,-2.097 z m -1.83189,-2.02477 -11.15871,-12.90439 -1.95469,17.02894 z"
         id="path28241" />
      <path
         d="m 229.76138,146.23644 q 6.6342,-0.3717 9.7473,0.95217 4.46165,1.87206 5.82871,6.53755 1.44249,4.9229 -1.57233,9.30013 -3.71776,5.31691 -12.98439,8.03218 l -22.16914,6.49592 -0.34884,-1.19051 q 3.02453,-0.88623 3.92605,-1.74435 0.92428,-0.89972 1.07858,-1.9232 0.18647,-1.03292 -0.85061,-4.57226 l -8.29667,-28.31472 q -1.03709,-3.53934 -1.75153,-4.30827 -0.6917,-0.81054 -1.94596,-1.03697 -1.25425,-0.22644 -4.2466,0.65037 l -0.34884,-1.1905 20.91428,-6.12823 q 7.49697,-2.19673 11.014,-1.75986 3.50761,0.40468 6.09198,2.54731 2.57494,2.11045 3.45175,5.1028 0.92395,3.15323 -0.63458,6.30016 -1.56795,3.11475 -6.90316,6.25028 z m -11.96655,2.56306 q 4.56896,-1.33878 6.42305,-3.00009 1.88625,-1.67073 2.49776,-3.87634 0.6115,-2.20561 -0.23702,-5.10143 -0.84853,-2.89582 -2.54425,-4.39044 -1.67298,-1.53621 -4.07943,-1.87924 -2.40644,-0.34302 -7.09468,1.06565 z m 0.73538,2.50971 4.1012,13.99648 0.43922,1.61822 q 0.50912,1.7375 1.64185,2.38386 1.15548,0.60476 2.89297,0.0957 2.57407,-0.75424 4.39987,-2.51208 1.84854,-1.79943 2.3752,-4.29462 0.51722,-2.52737 -0.26531,-5.19796 -0.89566,-3.0567 -3.0185,-5.05505 -2.13227,-2.03053 -4.89265,-2.26985 -2.76037,-0.23932 -7.67385,1.23535 z"
         id="path28243" />
      <path
         d="m 275.52359,145.24507 -15.53833,4.06094 -0.72994,4.7652 q -0.34875,2.37836 0.0158,3.77325 0.48324,1.84903 2.20435,2.3349 1.0115,0.29012 4.51787,-0.34903 l 0.31368,1.20024 -14.63004,3.82356 -0.31368,-1.20025 q 2.2748,-0.97572 3.38402,-2.9637 1.10074,-2.02042 2.02495,-7.63346 l 6.55983,-39.21092 0.61634,-0.16108 25.2902,31.92657 q 3.61026,4.53192 5.41761,5.48042 1.36575,0.71736 3.41936,0.35392 l 0.31369,1.20025 -21.28006,5.56154 -0.31368,-1.20025 0.87586,-0.22891 q 2.56268,-0.66975 3.41422,-1.65471 0.57801,-0.70554 0.32368,-1.67871 -0.15261,-0.58391 -0.50832,-1.14938 -0.14118,-0.275 -1.60902,-2.1786 z m -1.7303,-2.11225 -10.5119,-13.43651 -2.78813,16.91247 z"
         id="path28245" />
      <path
         d="m 328.01243,130.34401 6.06804,-31.841744 18.13083,-3.716539 0.24911,1.215291 -1.44521,0.296246 q -1.97074,0.403971 -3.0118,1.336114 -0.72688,0.628161 -0.99738,1.813062 -0.19971,0.86236 0.48031,4.17977 l 6.01917,29.36406 q 0.70022,3.41595 1.23658,4.19588 0.53636,0.77992 1.78777,1.20792 1.24467,0.39515 3.11688,0.0114 l 1.44521,-0.29625 0.24912,1.21529 -23.25476,4.76687 -0.24911,-1.21529 1.44521,-0.29625 q 1.97074,-0.40397 3.01179,-1.33611 0.72689,-0.62816 0.99065,-1.84591 0.19972,-0.86236 -0.48703,-4.21262 l -6.76653,-33.00993 -8.75121,44.13122 -0.7883,0.16159 -25.61048,-36.77957 6.42988,31.36764 q 0.67329,3.28457 0.99237,4.00636 0.76364,1.55476 2.39145,2.31631 1.65393,0.72197 4.70858,0.0958 l 0.24912,1.21529 -15.2404,3.12405 -0.24912,-1.21529 0.45984,-0.0943 q 1.48479,-0.27013 2.66478,-1.0254 1.17326,-0.78811 1.65511,-1.77676 0.48186,-0.98865 0.52672,-2.60645 -0.008,-0.37477 -0.62106,-3.36373 l -5.77679,-28.18161 q -0.69349,-3.38311 -1.22311,-4.13019 -0.53636,-0.77992 -1.78104,-1.17508 -1.25141,-0.42799 -3.12361,-0.0442 l -1.41237,0.28951 -0.24911,-1.21529 18.19651,-3.73 z"
         id="path28247" />
      <path
         d="m 389.1962,122.65018 -15.91623,2.14583 -1.30267,4.64145 q -0.63472,2.31848 -0.44208,3.74729 0.25534,1.894 1.90479,2.58508 0.96883,0.4107 4.52684,0.20166 l 0.16576,1.22944 -14.98585,2.02039 -0.16575,-1.22944 q 2.37637,-0.69253 3.71857,-2.53125 1.33773,-1.87196 2.9361,-7.33141 l 11.26844,-38.125444 0.63134,-0.08512 21.23005,34.758951 q 3.03378,4.93645 4.71271,6.09721 1.26863,0.87775 3.35116,0.76614 l 0.16576,1.22944 -21.7976,2.93875 -0.16575,-1.22943 0.89716,-0.12096 q 2.62501,-0.3539 3.58975,-1.22827 0.65934,-0.63021 0.52495,-1.62705 -0.0806,-0.5981 -0.36512,-1.20256 -0.10678,-0.29009 -1.33283,-2.35771 z m -1.46126,-2.30656 -8.80414,-14.61257 -4.81936,16.44929 z"
         id="path28249" />
      <path
         d="m 431.80351,118.76158 -19.46482,1.79283 -0.63656,-6.91118 19.46482,-1.79283 z"
         id="path28251" />
      <path
         d="m 477.75929,81.691353 0.86813,15.734541 -1.30564,0.07204 q -1.81288,-6.078635 -6.01122,-9.137806 -4.19834,-3.059171 -9.28696,-2.778416 -4.25167,0.234578 -7.66548,2.874243 -3.4138,2.639665 -4.83626,6.680545 -1.83019,5.171504 -1.48848,11.364894 0.33616,6.09295 2.1532,11.02964 1.81519,4.90322 5.23823,7.3 3.4212,2.36329 8.64373,2.07515 4.28515,-0.23643 7.73036,-2.30697 3.47868,-2.07239 7.17601,-6.8768 l 0.2161,3.9169 q -3.59666,4.19442 -7.64816,6.23125 -4.01987,2.00151 -9.54369,2.30628 -7.26468,0.40081 -13.08311,-2.1996 -5.78496,-2.60225 -9.16598,-7.88919 -3.34755,-5.28879 -3.68741,-11.4487 -0.35833,-6.49468 2.70153,-12.506364 3.09334,-6.013529 8.67419,-9.545089 5.61434,-3.533407 12.10902,-3.891738 4.78732,-0.264131 10.2248,1.517805 3.14644,1.035268 3.98339,0.989092 1.07129,-0.05911 1.79879,-0.871577 0.75914,-0.847796 0.89928,-2.568091 z"
         id="path28253" />
      <path
         d="m 509.85443,81.477287 q 10.8554,-0.5773 17.73588,6.051976 6.914,6.628737 7.07713,16.753077 0.13936,8.64927 -4.81694,15.3016 -6.56443,8.82435 -18.8008,9.02151 -12.2699,0.19769 -19.10872,-8.00831 -5.40271,-6.48542 -5.54801,-15.50346 -0.16312,-10.124342 6.60079,-16.973459 6.7969,-6.883182 16.86067,-6.642934 z m 0.43686,2.139074 q -6.23552,0.100467 -9.38475,6.522481 -2.56415,5.272464 -2.40643,15.061568 0.18743,11.63293 4.36706,17.13207 2.91222,3.84291 8.04144,3.76026 3.45301,-0.0556 5.73918,-1.76912 2.91557,-2.19309 4.48264,-6.91296 1.56653,-4.75339 1.44446,-12.32989 -0.1453,-9.018036 -1.89336,-13.449763 -1.7486,-4.46525 -4.3932,-6.266955 -2.61108,-1.802246 -5.99704,-1.747691 z"
         id="path28255" />
      <path
         d="m 539.2391,81.82339 23.46994,0.07459 -0.004,1.240554 -1.1735,-0.0037 q -2.64875,-0.0084 -3.65642,0.558369 -0.97403,0.533365 -1.41299,1.504306 -0.40543,0.971048 -0.41779,4.860353 l -0.0708,22.262923 q -0.0194,6.10218 0.87959,8.08324 0.93251,1.98117 3.04065,3.29549 2.10814,1.31433 5.32687,1.32456 3.68814,0.0117 6.27505,-1.62297 2.62055,-1.66812 3.90391,-4.58105 1.31688,-2.91282 1.3399,-10.15497 l 0.0589,-18.541261 q 0.01,-3.051093 -0.62319,-4.360729 -0.63289,-1.309636 -1.60362,-1.815654 -1.50633,-0.77595 -4.25566,-0.784688 l 0.004,-1.240555 15.72486,0.04998 -0.004,1.240554 -0.9388,-0.003 q -1.91112,-0.0061 -3.18766,0.761032 -1.27653,0.767106 -1.85142,2.307605 -0.43928,1.071526 -0.44812,3.854391 l -0.0549,17.26717 q -0.0255,8.01331 -1.10968,11.56392 -1.05067,3.55072 -5.15064,6.52176 -4.09996,2.97103 -11.17447,2.94855 -5.90101,-0.0188 -9.11474,-1.60483 -4.38541,-2.15978 -6.18529,-5.51838 -1.79989,-3.35861 -1.78188,-9.02492 l 0.0708,-22.262922 q 0.0125,-3.922834 -0.42042,-4.863017 -0.43278,-0.973712 -1.50388,-1.547106 -1.0711,-0.573394 -3.95466,-0.54903 z"
         id="path28257" />
      <path
         d="m 620.09653,81.456045 0.11729,15.158989 -1.37449,-0.02281 q -0.87761,-5.715223 -4.64205,-9.231626 -3.73035,-3.549372 -8.15553,-3.622813 -3.41945,-0.05675 -5.46149,1.753689 -2.00797,1.777473 -2.04747,4.15768 -0.025,1.508582 0.6595,2.693607 0.94604,1.591766 3.06599,3.16948 1.55727,1.132443 7.20962,4.043047 7.91363,4.054734 10.63826,7.587414 2.69111,3.53212 2.61656,8.02434 -0.0946,5.69909 -4.62172,9.74855 -4.49305,4.01649 -11.33196,3.90299 -2.14554,-0.0356 -4.04917,-0.50313 -1.90364,-0.46753 -4.76668,-1.72224 -1.59803,-0.69719 -2.63727,-0.71444 -0.87163,-0.0145 -1.85495,0.63988 -0.98333,0.65435 -1.60957,2.01882 l -1.24039,-0.0206 0.28486,-17.16431 1.24039,0.0206 q 1.35488,7.26567 5.48196,11.15696 4.16116,3.85832 9.02215,3.939 3.75469,0.0623 6.00122,-1.94594 2.28005,-2.00768 2.32511,-4.72313 0.0267,-1.60916 -0.81988,-3.1322 -0.81306,-1.5225 -2.53406,-2.89239 -1.72044,-1.40342 -6.10945,-3.65592 -6.15131,-3.15362 -8.83115,-5.34423 -2.67984,-2.1906 -4.11095,-4.863481 -1.39758,-2.672324 -1.34472,-5.857108 0.0901,-5.430896 4.14292,-9.186428 4.05279,-3.755533 10.12064,-3.654829 2.21259,0.03672 4.28218,0.607601 1.56895,0.428439 3.7967,1.572009 2.26183,1.110603 3.16698,1.125626 0.87163,0.01447 1.38339,-0.513574 0.51176,-0.528039 0.98151,-2.565773 z"
         id="path28259" />
      <path
         d="m 645.00073,106.86931 -0.62888,14.06799 q -0.15572,3.4835 0.17379,4.37085 0.36302,0.88884 1.43841,1.60816 1.11039,0.68731 3.01962,0.77266 l 1.50728,0.0674 -0.0554,1.23933 -23.7481,-1.06161 0.0554,-1.23933 1.50728,0.0674 q 1.97622,0.0884 3.21349,-0.56115 0.89184,-0.43 1.41168,-1.54788 0.40438,-0.78741 0.55711,-4.20392 l 1.33562,-29.877731 q 0.15572,-3.483502 -0.17379,-4.370848 -0.32952,-0.887346 -1.43991,-1.574665 -1.07539,-0.719316 -2.98462,-0.804664 l -1.50729,-0.06738 0.0554,-1.239323 23.7481,1.061608 -0.0554,1.239323 -1.50728,-0.06738 q -1.97622,-0.08834 -3.21349,0.561153 -0.89184,0.430002 -1.44518,1.54638 -0.40438,0.787414 -0.55711,4.203926 l -0.57498,12.862161 16.04421,0.71722 0.57498,-12.86216 q 0.15572,-3.483502 -0.1738,-4.370848 -0.32951,-0.887346 -1.4399,-1.574664 -1.10889,-0.720814 -3.01812,-0.806162 l -1.47379,-0.06588 0.0554,-1.239323 23.71461,1.06011 -0.0554,1.239323 -1.47379,-0.06588 q -2.00971,-0.08984 -3.21349,0.561153 -0.89184,0.430003 -1.44517,1.54638 -0.40439,0.787415 -0.55711,4.203926 l -1.33562,29.87773 q -0.15573,3.4835 0.17379,4.37085 0.32952,0.88734 1.43841,1.60816 1.11039,0.68732 3.01961,0.77266 l 1.47379,0.0659 -0.0554,1.23932 -23.71461,-1.06011 0.0554,-1.23932 1.47379,0.0659 q 2.00971,0.0898 3.21349,-0.56115 0.89184,-0.43001 1.44518,-1.54638 0.40438,-0.78742 0.55711,-4.20393 l 0.62888,-14.06799 z"
         id="path28261" />
      <path
         d="m 708.21055,119.86449 -15.99975,-1.39249 -2.28767,4.24342 q -1.12713,2.12316 -1.25214,3.55946 -0.1657,1.90394 1.29232,2.93953 0.85535,0.61293 4.37275,1.18829 l -0.10756,1.23589 -15.06448,-1.31109 0.10756,-1.23588 q 2.47035,-0.15522 4.18271,-1.6553 1.71527,-1.53349 4.47063,-6.51027 l 19.34561,-34.731467 0.63465,0.05523 13.10111,38.565023 q 1.87885,5.48108 3.26277,6.98139 1.04556,1.13432 3.10197,1.48157 l -0.10756,1.23589 -21.91197,-1.90704 0.10756,-1.23589 0.90186,0.0785 q 2.63879,0.22966 3.77162,-0.41217 0.78137,-0.47048 0.86858,-1.47255 0.0523,-0.60125 -0.0928,-1.25333 -0.0406,-0.30644 -0.78404,-2.5924 z m -0.92056,-2.57062 -5.38968,-16.18615 -8.3053,14.99425 z"
         id="path28263" />
      <path
         d="m 771.9571,94.804902 -1.63922,12.195348 -1.19628,-0.1608 q -0.4961,-4.36312 -1.5464,-6.36495 -1.04584,-2.035067 -3.15807,-3.435376 -1.18234,-0.767866 -4.33917,-1.192188 l -3.35621,-0.451121 -4.67201,34.758395 q -0.46452,3.4559 -0.21512,4.36901 0.28262,0.91757 1.28988,1.72957 1.04495,0.78323 2.97228,1.04229 l 1.49534,0.20099 -0.16526,1.2295 -23.59318,-3.17124 0.16526,-1.22951 1.49535,0.201 q 1.96056,0.26352 3.25063,-0.27351 0.9265,-0.34908 1.57681,-1.4119 0.47273,-0.74838 0.92832,-4.13783 l 4.672,-34.758393 -3.25652,-0.437721 q -4.55248,-0.611917 -6.87179,1.038487 -3.25279,2.303026 -4.68706,7.184767 l -1.26273,-0.16973 1.63922,-12.195342 z"
         id="path28265" />
      <path
         d="m 819.18685,103.36849 -2.22552,12.10209 -1.18713,-0.21831 q -0.28508,-4.38197 -1.23761,-6.43213 -0.94647,-2.08314 -2.9887,-3.5837 -1.14393,-0.824 -4.27662,-1.40008 l -3.33055,-0.61248 -6.34303,34.49261 q -0.63067,3.42947 -0.4256,4.35354 0.23804,0.93014 1.20496,1.78977 1.00596,0.83272 2.91855,1.18444 l 1.48391,0.27288 -0.22437,1.2201 -23.41277,-4.3055 0.22438,-1.2201 1.4839,0.27288 q 1.94557,0.35778 3.26004,-0.1164 0.94227,-0.30399 1.64308,-1.33421 0.50827,-0.72471 1.12681,-4.08823 l 6.34303,-34.49261 -3.23162,-0.59428 q -4.51767,-0.830776 -6.91388,0.70584 -3.36008,2.14346 -5.02813,6.95034 l -1.25308,-0.23043 2.22552,-12.10209 z"
         id="path28267" />
      <path
         d="m 839.13221,141.38149 -15.65472,-3.58618 -2.85114,3.88729 q -1.40923,1.94738 -1.73116,3.35271 -0.42675,1.86288 0.87448,3.08969 0.76263,0.72506 4.16703,1.78012 l -0.27701,1.20924 -14.73962,-3.37656 0.27701,-1.20924 q 2.46815,0.18704 4.37106,-1.0625 1.9104,-1.28223 5.32592,-5.83136 l 23.95155,-31.73091 0.62096,0.14225 7.6562,40.00353 q 1.10483,5.68785 2.26856,7.36472 0.8791,1.2677 2.86796,1.89529 l -0.27702,1.20924 -21.43944,-4.91135 0.27701,-1.20924 0.88241,0.20214 q 2.58189,0.59146 3.79243,0.11203 0.83879,-0.3582 1.0634,-1.33866 0.13476,-0.58828 0.0809,-1.25416 0.002,-0.30911 -0.41896,-2.67576 z m -0.55717,-2.67302 -3.10544,-16.77487 -10.29422,13.70527 z"
         id="path28269" />
      <path
         d="m 922.28185,129.50712 -3.26225,11.8647 -1.16384,-0.32 q 0.0944,-4.39022 -0.67756,-6.51498 -0.76305,-2.15709 -2.66808,-3.82839 -1.06849,-0.9197 -4.13974,-1.76415 l -3.26522,-0.89779 -9.29786,33.81603 q -0.92445,3.3622 -0.79995,4.30053 0.15684,0.94722 1.04591,1.88713 0.93029,0.91648 2.80537,1.43204 l 1.4548,0.4 -0.32889,1.19617 -22.95352,-6.31117 0.32889,-1.19617 1.4548,0.40001 q 1.90741,0.52445 3.25792,0.16554 0.96499,-0.22149 1.75215,-1.18734 0.56896,-0.67811 1.47563,-3.97566 l 9.29786,-33.81602 -3.16823,-0.87112 q -4.42906,-1.21779 -6.94901,0.10617 -3.53262,1.8453 -5.60953,6.49019 l -1.2285,-0.33778 3.26225,-11.86471 z"
         id="path28271" />
      <path
         d="m 936.01973,159.39538 -3.645,12.20837 q -1.05513,3.534 -0.91565,4.59039 0.1812,1.03386 1.11047,1.90615 0.92926,0.8723 3.9171,1.76436 l -0.35491,1.18871 -22.29634,-6.65692 0.35491,-1.18871 q 3.01996,0.90166 4.24323,0.67203 1.26499,-0.25216 1.95122,-1.02702 0.71836,-0.76528 1.77349,-4.29928 l 8.44106,-28.27201 q 1.05513,-3.53401 0.87393,-4.56786 -0.13948,-1.05639 -1.06874,-1.92868 -0.92927,-0.8723 -3.9171,-1.76437 l 0.35491,-1.18871 20.24019,6.04304 q 7.90331,2.35966 11.23969,4.54548 3.33638,2.18583 4.76707,5.83218 1.44028,3.61421 0.26045,7.56587 -1.43882,4.81909 -5.84859,6.93162 -2.81149,1.33003 -7.09263,1.13656 l 6.07071,17.87345 q 1.20245,3.47322 1.85886,4.43901 1.01986,1.38922 2.72596,2.00358 l -0.35491,1.18871 -13.71835,-4.09583 -8.1117,-24.04642 z m 6.37876,-21.36464 -5.69772,19.0836 1.83126,0.54676 q 4.46569,1.3333 6.92228,1.19197 2.46618,-0.17345 4.35222,-1.91976 1.92776,-1.76884 2.95412,-5.20646 1.48678,-4.97973 -0.1487,-8.05738 -1.60335,-3.06805 -6.77584,-4.61238 z"
         id="path28273" />
      <path
         d="m 984.48064,194.6088 -0.36933,1.18431 -22.69393,-7.07708 0.36933,-1.18431 1.44038,0.44918 q 1.88849,0.58893 3.25041,0.27609 0.97196,-0.18859 1.75946,-1.13713 0.59165,-0.6584 1.60979,-3.92325 l 8.90375,-28.55146 q 1.03811,-3.32887 0.94554,-4.27089 -0.0926,-0.94201 -0.9912,-1.88955 -0.85664,-0.96957 -2.68111,-1.53853 l -1.44038,-0.44918 0.36933,-1.18431 22.69393,7.07708 -0.36933,1.18431 -1.44038,-0.44918 q -1.88849,-0.58893 -3.25041,-0.27609 -0.97196,0.18859 -1.79147,1.12714 -0.59165,0.65841 -1.60979,3.92326 l -8.90375,28.55146 q -1.0381,3.32887 -0.94554,4.27089 0.12458,0.952 0.98122,1.92156 0.89863,0.94754 2.7231,1.5165 z"
         id="path28275" />
      <path
         d="m 1022.0566,182.58819 q 5.7039,3.40836 7.5411,6.24888 2.6473,4.05005 1.1663,8.68063 -1.5628,4.88606 -6.5122,6.82326 -6.058,2.32185 -15.2553,-0.61974 l -22.0033,-7.03736 0.37792,-1.1816 q 3.00189,0.9601 4.22938,0.75426 1.26965,-0.22755 1.97079,-0.98896 0.73308,-0.75118 1.85661,-4.26404 l 8.9882,-28.10285 q 1.1235,-3.51286 0.9624,-4.55003 -0.1189,-1.0589 -1.0311,-1.94907 -0.9121,-0.89017 -3.8821,-1.84006 l 0.3779,-1.18159 20.7578,6.63901 q 7.4409,2.37984 10.1096,4.71185 2.6789,2.30009 3.6195,5.52267 0.9509,3.19066 0,6.16062 -1.001,3.12963 -4.0548,4.86345 -3.0437,1.70188 -9.2197,1.31067 z m -11.3486,-4.5801 q 4.5348,1.45037 7.0013,1.11278 2.4984,-0.32738 4.2405,-1.81191 1.7421,-1.48453 2.6613,-4.35869 0.9193,-2.87416 0.3518,-5.06215 -0.5253,-2.20972 -2.3266,-3.84189 -1.8013,-1.63217 -6.4741,-3.09146 z m -0.7967,2.49094 -4.443,13.89175 -0.5426,1.58654 q -0.5516,1.72449 0.025,2.89445 0.6184,1.14823 2.3429,1.69978 2.5548,0.81711 5.0519,0.38372 2.5393,-0.45512 4.3733,-2.22707 1.8442,-1.80389 2.692,-4.4545 0.9703,-3.03383 0.3312,-5.87837 -0.6289,-2.87647 -2.7815,-4.62099 -2.1526,-1.74452 -7.0489,-3.27531 z"
         id="path28277" />
      <path
         d="m 1060.273,175.25213 -5.7201,17.60167 0.8609,0.27979 q 4.1134,1.33679 6.8023,-0.64503 2.6888,-1.98183 4.8363,-6.85418 l 1.2117,0.39378 -7.3575,22.63983 -1.2117,-0.39378 q 0.8194,-3.82325 0.3427,-6.58704 -0.4449,-2.75343 -1.8121,-4.0791 -1.3568,-1.35756 -4.4498,-2.36274 l -3.9586,12.18087 q -1.1606,3.57136 -1.1327,4.4618 0.06,0.9008 0.7231,1.68042 0.6633,0.77963 2.5127,1.38066 l 2.5829,0.83938 q 6.0585,1.9689 10.6055,0.34418 4.579,-1.61436 8.0386,-6.8359 l 1.1798,0.38342 -6.4114,13.11121 -37.3717,-12.14503 0.3835,-1.17983 1.4349,0.46632 q 1.8813,0.6114 3.2469,0.31483 0.9741,-0.17699 1.7729,-1.11608 0.5994,-0.6513 1.6564,-3.90378 l 9.2435,-28.44329 q 0.9534,-2.93361 1.0115,-3.65505 0.044,-1.21968 -0.6202,-2.10532 -0.9215,-1.28662 -3.0261,-1.97056 l -1.4349,-0.46632 0.3834,-1.17982 36.1919,11.76162 -4.1555,12.78672 -1.2117,-0.39378 q 0.5986,-4.98792 -0.4282,-7.57792 -0.9949,-2.57963 -3.7452,-4.53106 -1.5991,-1.15427 -6.5098,-2.75012 z"
         id="path28279" />
    </g>
    <text
       xml:space="preserve"
       id="text4398-3"
       style="font-style:normal;font-variant:normal;font-weight:bold;font-stretch:normal;font-size:66.6667px;line-height:1.25;font-family:'Times New Roman';-inkscape-font-specification:'Times New Roman,  Bold';white-space:pre;shape-inside:url(#rect4400-7)"
       transform="translate(58.315532,814.77564)"><tspan
         x="179.98242"
         y="-98.780698"
         id="tspan28386">LIVINGSTON, TEXAS</tspan></text>
    <path
       style="opacity:1;fill:#ffffff;fill-opacity:1;stroke:none;stroke-width:1.85932;stroke-linecap:round;stroke-linejoin:round;stroke-miterlimit:4;stroke-dasharray:none;stroke-opacity:1"
       d=""
       id="path26334" />
  </g>
</svg>
