<?xml version="1.0"?>
<svg xmlns="http://www.w3.org/2000/svg" xmlns:xlink="http://www.w3.org/1999/xlink" width="700" height="700">
  <defs>
    <path id="a" fill="#ffbf00" d="M191.1769 46.0299h-31.4595v191.085c13.617-.0278 27.2351.0597 40.8514-.0729 10.7422-.3008 21.6053-1.5973 31.5817-5.1515 8.4313-2.9931 16.0673-7.9028 21.0958-14.4644 5.2131-6.6646 7.8663-14.5654 8.8717-22.4734.9895-7.7019.7597-15.5333-.8455-23.1635-1.6177-7.3429-4.9109-14.5514-10.5137-20.364-3.9366-4.0975-8.9105-7.4408-14.4149-9.8791 6.4505-2.8379 12.1572-6.9486 16.3055-12.0443 5.2988-6.4096 8.0918-14.0985 9.2784-21.8165.9638-6.3149.9938-12.7257.2716-19.0601-.9339-7.7784-3.3936-15.5661-8.3566-22.2076-4.4106-6.0006-10.9296-10.7785-18.3546-13.8994-8.813-3.7102-18.5969-5.4152-28.3377-6.0974-5.3107-.3985-10.6467-.4016-15.9737-.391zm1.9178 21.2344c6.4354-.0047 12.9507-.0616 19.2544 1.2071.5168.0992.7524.1462 1.2679.26 4.925 1.0636 9.7605 2.9775 13.2307 6.2238 3.1946 2.8656 5.0104 6.6201 6.1202 10.4083 1.3233 4.6854 1.583 9.5413 1.4136 14.3431-.0173.219-.039.7287-.0616 1.0621-.3709 5.2869-1.4546 10.6961-4.5648 15.3527-2.129 3.284-5.5158 5.918-9.4655 7.5483-5.8192 2.4598-12.3782 3.2637-18.8054 3.4744-4.7617.151-9.527.0427-14.2904.0716V67.2711c1.967.004 3.934-.0034 5.901-.0067zm-.0338 88.6584c4.0924.0047 8.193-.0331 12.2737.274.3075.0246.9232.0725 1.3482.117 5.7118.586 11.5196 1.7617 16.3655 4.5174 3.8588 2.2194 6.8097 5.5068 8.4427 9.2164 2.5508 5.5459 3.039 11.5935 2.9151 17.4956-.0222.9198-.0851 2.0089-.1538 2.8173-.4071 4.7196-1.4772 9.4926-4.0413 13.7281-2.015 3.2864-5.1302 6.1053-9.0026 7.825-4.112 1.9325-8.7365 2.9144-13.3612 3.4479-.2611.0277-.9019.0983-1.3134.1357-1.6339.1658-3.4442.2484-4.9794.3035-4.7852.15-9.5737.0495-14.3606.0655v-59.9407c1.9557-.0007 3.9114-.002 5.8672-.0027z"/>
  </defs>
  <path fill="#bb0602" d="M0 0h700v700H0z"/>
  <path stroke="#ffc000" stroke-width="140" d="M0 350h700M350 0v700"/>
  <g transform="translate(350)">
    <use xlink:href="#a"/>
    <use xlink:href="#a" y="416"/>
    <use xlink:href="#a" transform="scale(-1 1)"/>
    <use xlink:href="#a" transform="matrix(-1 0 0 1 0 416)"/>
  </g>
</svg>