<?xml version="1.0" encoding="UTF-8" standalone="no"?>
<svg xmlns="http://www.w3.org/2000/svg" width="1248" height="562pt" version="1.0" viewBox="0 0 936 562">
  <path fill="#048004" d="M0-.40922222h936v562.40924H0z"/>
  <path fill="#fa7f04" d="M23.108801 24.629383h889.75507v515.87598H23.108801z"/>
  <circle cx="170.772" cy="153.52" r="122.214" fill="#f2f0f2" transform="translate(353.39338 174.03384) scale(.72303)"/>
  <circle cx="170" cy="154" r="121.327" fill="none" stroke="#048204" stroke-miterlimit="10" stroke-width="6" transform="translate(307.48873 132.78025) scale(.99179)"/>
  <circle cx="170" cy="154" r="121.327" fill="none" stroke="#000" stroke-miterlimit="10" stroke-width="6" transform="translate(299.42729 125.47753) scale(1.03921)"/>
  <path fill="#fcfe04" d="M566.08963053 285.76682823c0 50.1193766-40.6310102 90.7503868-90.74938285 90.7503868-50.12038057 0-90.75139076-40.6310102-90.75139076-90.7503868 0-50.11937662 40.6310102-90.7503868 90.75139076-90.7503868 50.11837266 0 90.74938285 40.63101018 90.74938285 90.7503868zm-90.74938285-86.17938561c-47.59543701 0-86.18038956 38.58495255-86.18038956 86.1793856 0 47.59644097 38.58495255 86.18038957 86.18038956 86.18038957 47.595437 0 86.17838165-38.5839486 86.17838165-86.18038956 0-47.59543701-38.58294464-86.17938561-86.17838165-86.17938561z"/>
  <path d="M475.34018768 197.02434882c48.93270334 0 88.74147545 39.80977607 88.74147545 88.7424794 0 48.93270334-39.80877211 88.7424794-88.74147545 88.7424794-48.93270334 0-88.74348336-39.8067642-88.74348336-88.7424794 0-48.93270333 39.81078002-88.7424794 88.74348336-88.7424794m0-2.0079074c-50.12038057 0-90.75139076 40.63000624-90.75139076 90.7503868 0 50.11937662 40.6310102 90.7503868 90.75139076 90.7503868 50.11837266 0 90.74938285-40.63101018 90.74938285-90.7503868 0-50.1193766-40.6310102-90.7503868-90.74938285-90.7503868z"/>
  <g stroke="#000" stroke-miterlimit="10" stroke-width=".5" transform="translate(305.42008 130.90697) scale(1.00395)">
    <path fill="#fafc04" d="m195.125 159.5 13.874 24-26.624-7.5-12.5 26.5-11.375-27-27.625 8 12.375-24.75L121 143l26.75-7-.5-28.75 22.625 19.5 23.75-19.375-2.875 28.875L217.5 143z"/>
    <path fill="#fa8104" stroke-linejoin="bevel" d="m169.875 153-22.625-45.75 22.625 19.5zm0 0 23.75-45.625-2.875 28.875z"/>
    <path fill="#fa8104" stroke-linecap="round" stroke-linejoin="bevel" d="m169.875 153 47.625-10-22.375 16.5z"/>
    <path fill="#fa8104" stroke-linejoin="bevel" d="m169.875 153 39.124 30.5-26.624-7.5zm0-.25L158.5 175.5l11.375 27zm0 0-39 30.75 12.375-24.75zm-.625 0L121 143l26.75-7z"/>
  </g>
  <g transform="translate(305.42008 130.90697) scale(1.00395)">
    <path fill="none" stroke="#000" stroke-miterlimit="10" stroke-width=".5" d="m111.875 117.125-.375-3.625"/>
    <path fill="#a46019" stroke="#000" stroke-miterlimit="10" stroke-width=".5" d="m113.104 142.211 3.735-.339s.257-1.32 1.297-1.373c.763-.039 1.524.196 1.614 1.192.08.885-.482 1.233-1.137 1.29-.82.071-1.787-.317-1.82-.686-.061-.664-3.689-.084-3.689-.084z"/>
    <path fill="#047e04" stroke="#000" stroke-miterlimit="10" stroke-width=".5" d="M139.305 94.805s.309-2.081.232-2.273c-.278-.696-1.159-2.319.928-4.499 2.087-2.18 5.612-2.922 7.236-4.778-.464 1.948-2.598 9.138-8.164 9.277-.186.279-.232 2.273-.232 2.273z"/>
    <path fill="#047e04" stroke="#000" stroke-miterlimit="10" stroke-width=".5" d="M139 94.813s1.651-1.029 3.438-1.813c1.997-.876 4.158-1.529 4.305-1.799.278-.51.695-3.803 3.386-3.942 2.691-.139 3.943.325 6.215-.325-.463.835-2.458 4.313-4.963 4.36-2.505.047-3.299-.234-4.638.139-2.93.817-7.743 3.38-7.743 3.38z"/>
    <path fill="#047e04" stroke="#000" stroke-miterlimit="10" stroke-width=".5" d="M152.338 95.037c-.928.789-3.391 2.859-6.772 2.551-3.062-.278-4.816-2.963-7.879-1.776 0 0 1.849-.59 2.87-.172.417-.139 1.296-2.831 4.685-1.716 3.525 1.159 5.287 1.159 7.096 1.113zm-21.868 4.762s.058-2.103-.042-2.284c-.359-.658-1.563-2.569.249-4.983 1.812-2.414 6.078-4.458 7.468-6.494-.155 1.355-1.542 5.494-3.34 8.813-.849 1.566-2.62 2.407-4.377 2.664-.151.298.042 2.284.042 2.284zm15.746.433c-.928.789-3.854 3.787-7.236 3.479-3.062-.278-4.73-3.961-8.667-2.898 0 0 2.688-.646 4.021.688.417-.139.927-2.728 4.461-2.242 3.71.509 5.612 1.019 7.421.973zM129.583 88.5s-5.417 3.917-6.417 5.583c-1.037 1.729-1.833 5.75.333 7.167l-.417 3.167.417-3.167c4.083-.417 4.167-3.417 4.583-5.25.288-1.261 1.501-7.5 1.501-7.5zm-9.666 6.167s-5.083 3.583-5.75 6.5c-.523 2.288-.917 5.667 2.417 6.583v3s-.5-3.083 1.083-3.667c1.583-.584 2.667-3.417 2.5-5.333-.167-1.916-.917-3.417-.25-7.083zm20 11.833c-.928.789-4.619 3.891-8 3.583-3.062-.278-4.833-4.417-9.667-2.5 0 0 2.687-1.211 4.604.123.417-.139 2.03-3.358 5.563-2.873 3.71.511 5.691 1.713 7.5 1.667z"/>
    <path fill="#a46019" stroke="#000" stroke-miterlimit="10" stroke-width=".5" d="m106.75 112.75-.333-7.75s-1.292-.375-1.25-1.417c.03-.764.333-1.5 1.333-1.5.888 0 1.185.592 1.182 1.25-.004.824-.478 1.75-.848 1.75-.667 0-.084 7.667-.084 7.667z"/>
    <path fill="#047e04" stroke="#000" stroke-miterlimit="10" stroke-width=".5" d="M111.208 100.875s-3.25 4.584-2.833 7.417c.417 2.833 1.917 6 3 6.667 1.083.667 2.583-4.833 2.083-6.833s-2.166-6.001-2.25-7.251zm-4.791 8.208s-2.75 3.167-2.667 7c.059 2.712 2.417 5.75 2.833 6.583.416.833.917 2.25.917 2.25s-.416-3.167.167-4.583c.583-1.416.917-7.666-1.25-11.25zm-2.75 27.334L102.5 132.5s-3.833-1.583-3.917-5.833c-.084-4.25 2.084-10.667 2.084-10.667s2.917 7.084 3 9.667c.083 2.583-1.333 6.25-1.083 7.083.25.833 1.083 3.667 1.083 3.667zm4.083-7.917s2.833-1.667 3.5-2.5c.667-.833 1.5-3.333 4.25-3.333s8.667.083 9.333-.083c-1.667 1.75-4.917 4.917-8.25 5.25-4.444.444-4-2.334-8.833.666zm25.5-16.333c-.928.789-4.619 3.891-8 3.583-3.062-.278-4.833-4.417-9.667-2.5 0 0 2.687-1.211 4.604.123.417-.139 2.03-3.358 5.563-2.873 3.711.511 5.691 1.713 7.5 1.667zm-4.083 5.166c-.891.83-5.106 4.727-8.5 4.833-4.398.138-3.917-4.083-9.75-1.333 0 0 2.917-1.583 4.917-.667.167-.583 1.828-4.048 5.38-3.725 3.729.341 6.148 1.021 7.953.892zm-36 11.584s-.75 6 .5 9c1.013 2.432 4.442 4.782 5.516 5.554.251.18 2.817 3.946 2.817 3.946s-2.53-3.683-2.5-4c.139-1.46 1-5.167-.083-7.583-.918-2.048-6.25-6.917-6.25-6.917zM90 139.417s.102 6.65 2.667 9.5c3 3.333 5.583 2.25 5.583 2.25l2.5 2.667-2.5-2.667S99.833 147 97.583 145c-2.491-2.214-7.583-5.583-7.583-5.583zm13.333 7.666 1.917-1.583s-.5-3.417 2.25-5.25c2.75-1.833 10.333-4 10.333-4s-4.422 7.116-6 8.25c-2.667 1.917-6.583 1-6.583 1l-1.917 1.583zm1.584-11.666s2.833-1.667 3.5-2.5c.667-.833 1.5-2.667 4.25-3.333 2.672-.648 9-.167 9.667-.333-1.083 1.333-5.384 5.251-8.667 5.917-5.75 1.165-3-3.418-8.75.249z"/>
    <path fill="#a46019" stroke="#000" stroke-miterlimit="10" stroke-width=".5" d="m92.555 159.215-3.726.424s-.227 1.325-1.266 1.4c-.762.057-1.528-.161-1.641-1.155-.1-.883.455-1.243 1.108-1.313.818-.09 1.794.275 1.835.646.075.66 3.69-.002 3.69-.002zm35.296 29.9 2.967-2.292s-.493-1.253.356-1.855c.623-.442 1.39-.653 2.002.138.544.703.255 1.302-.266 1.699-.654.5-1.679.693-1.904.399-.407-.527-3.155 1.911-3.155 1.911zm-5.793 26.175-.943 3.629s1.156.688.853 1.687c-.22.73-.699 1.367-1.667 1.115-.86-.224-.998-.871-.83-1.505.211-.796.902-1.575 1.261-1.481.646.165 1.326-3.445 1.326-3.445z"/>
    <path fill="#047e04" stroke="#000" stroke-miterlimit="10" stroke-width=".5" d="M88.336 149.815s1.162 6.265 3.727 9.115c3 3.332 6.431 1.642 6.431 1.642l3.187 1.395-3.187-1.395s.736-3.56-1.514-5.56c-2.492-2.214-8.644-5.197-8.644-5.197zm14.4 4.438 1.917-1.583s-.5-3.417 2.25-5.25c2.75-1.833 12.105-1.189 12.105-1.189s-6.194 4.305-7.772 5.439c-2.667 1.917-6.583 1-6.583 1l-1.917 1.583zm.723 9.436 1.917-1.584s-.5-3.416 2.25-5.25 10.333-4 10.333-4-4.543 6.381-6.121 7.516c-2.667 1.917-6.462 1.734-6.462 1.734l-1.917 1.584zm-13.529-1.923s1.162 6.266 3.727 9.113c3 3.333 6.431.846 6.431.846l3.386.995-3.386-.995s.996-2.189-2.19-4.781c-2.588-2.103-7.968-5.178-7.968-5.178zm17.128 11.352s-1.792-9.761 10.357-13.146c-4.382 3.981-2.191 6.372-5.377 9.959-1.984 2.23-5.179 2.188-6.374 6.174-1.195 3.984 1.394-2.987 1.394-2.987zm1.792 12.348-5.377-2.589s-3.585 3.385-7.568-1.195c-3.983-4.58-4.979-8.363-5.577-8.563-.598-.199 8.564 2.391 10.556 3.982 1.992 1.592 2.589 5.979 2.589 5.979l5.377 2.386zm8.365-17.128s-4.382 2.788-5.577 6.373c-1.195 3.585-.598 7.969-.598 7.969l-1.872 2.358 1.872-2.358c1.196-.201 7.171-2.789 6.175-14.342zm-19.916 17.725s2.788 7.172 6.771 8.166c2.407.604 4.445.27 5.957-.326l3.318-.06-3.318.06c-.254-5.294-6.355-6.048-12.728-7.84zm23.501 16.731-4.183.599s-3.187 2.19-6.771.599c-3.584-1.595-7.369-4.581-7.369-4.581s5.178-.799 8.166 0c2.988.797 5.975 3.982 5.975 3.982l4.182-.599zm-3.597-10.305s-3.354-5.313-1.677-8.666c1.677-3.354 3.914-7.826 3.914-7.826s1.677 7.548 1.677 10.343-3.795 6.149-3.795 6.149l-.118 3.634-.001-3.634zm9.251-9.143s-3.841 6.284-3.952 10.082c-.101 3.445 2.077 7.146 2.077 7.146v4.763-4.763s4.357-3.345 4.155-6.991c-.19-3.416-1.368-8.009-2.28-10.237zm-14.54 25.133s5.32 4.459 8.461 5.572c3.141 1.114 6.688 1.471 8.004.305.963-.963 7.499-.457 7.499-.457s-6.13-.557-7.499.457c-.456-.76-2.583-4.862-5.573-5.774-2.99-.914-8.562-.662-10.892-.103zm19.606-17.583s4.408 6.183 4.256 10.082c-.152 3.899-2.533 7.145-2.533 7.145l-.051 3.141-.051-2.988s-3.749-3.344-3.901-7.854c-.152-4.509 2.28-9.526 2.28-9.526zm12.21 24.473-.405-2.889s-5.016-2.025-5.522-7.193c-.506-5.168.102-10.285.102-10.285s5.371 6.223 6.13 8.714c1.267 4.155-.152 7.904-.709 8.767l.404 2.886zm-19.354 6.333s3.243-4.308 6.435-5.117c3.192-.809 9.677.76 9.677.76l3.141-1.62-3.141 1.62s-1.723 5.574-7.042 5.32c-5.319-.254-9.07-.963-9.07-.963zm32.069-16.82s2.432 2.433 4.661 3.952c2.349 1.604 3.27 5.792 2.938 7.447-.304 1.52-.354 1.723-.354 1.723s-4.712-1.367-6.384-5.066c-1.672-3.698-.861-8.056-.861-8.056zm-10.031-3.394s.297 6.32 1.976 8.613c2.077 2.836 6.231 5.063 6.231 5.063l.355 1.875-.355-1.875s1.115-4.813-.557-7.347c-1.672-2.531-5.978-5.417-7.65-6.329zm-8.41 24.42s2.786-1.672 3.85-3.293c1.064-1.621 4.662-3.902 8.917-3.648s4.002-.506 4.61-.861c-.405.307-1.723.813-2.736.912-1.552 1.849-1.571 4.61-5.016 5.728-4.027 1.301-9.625 1.162-9.625 1.162zm11.602 2.028s4.002-6.281 6.586-7.244c1.178-.438 3.901-.861 5.826-.658 1.672-.202 3.04-.963 3.04-.963s-1.166.606-3.04.963c-.203 2.938-1.773 5.624-4.661 6.535-2.888.911-7.751 1.367-7.751 1.367zm41.637.75s-4.004-6.281-6.588-7.244c-1.179-.438-3.9-.861-5.826-.658-1.672-.202-3.039-.963-3.039-.963s1.166.606 3.039.963c.203 2.938 1.773 5.624 4.662 6.535 2.886.911 7.752 1.367 7.752 1.367z"/>
    <path fill="#a46019" d="M179.631 227.523c-3.909-6.34-9.708-7.236-11.625-7.533-1.232-.19-3.686-.438-7.082-.779-2.081-.21-4.516-.455-7.236-.745-3.952-.42-10.028-1.302-17.133-4.093-7.032-2.764-13.194-7.296-18.314-13.473-4.943-5.965-9.05-13.815-12.752-21.41-3.068-6.297-4.723-15.352-4.541-24.846.132-6.915 1.349-14.709 3.338-21.392 4.011-13.476 10.296-20.896 15.915-26.375 3.278-3.197 14.375-9.673 18.717-11.989-1.463 1-5.561 3.821-8.839 6.128-8.447 5.896-15.819 14.072-19.719 21.871-3.167 6.334-4.096 9.499-5.646 17.091-2.579 12.636-1.678 27.328 2.296 37.429 2.309 5.869 7.312 14.943 13.282 21.984 4.926 5.809 11.376 10.851 16.834 13.16 7.218 3.055 19.876 4.54 28.251 5.523 2.813.33 5.242.615 6.809.883 4.716.807 8.732 6.346 9.564 7.564l-2.119 1.002z"/>
    <path d="M134.321 97.752c-1.433.994-2.983 2.073-4.384 3.059-8.48 5.919-15.883 14.13-19.801 21.965-3.18 6.36-4.112 9.535-5.667 17.153-2.588 12.68-1.682 27.426 2.308 37.57 2.317 5.892 7.335 14.995 13.325 22.058 5.024 5.922 11.352 10.867 16.928 13.229 7.251 3.067 19.93 4.557 28.319 5.542 2.81.33 5.235.613 6.796.882 4.359.745 8.137 5.661 9.232 7.218l-1.651.778c-3.968-6.269-9.755-7.163-11.682-7.461-1.239-.19-3.694-.438-7.094-.781-2.081-.21-4.515-.455-7.236-.743-3.938-.42-9.991-1.298-17.068-4.078-6.992-2.746-13.12-7.256-18.213-13.398-4.926-5.943-9.024-13.778-12.72-21.359-3.051-6.262-4.697-15.275-4.515-24.729.132-6.893 1.345-14.666 3.327-21.325 3.995-13.421 10.254-20.81 15.851-26.268 2.376-2.325 8.904-6.386 13.945-9.312m5.429-3.485c-.111 0-.335.077-.75.295-4.409 2.333-15.664 8.909-18.974 12.137-6.24 6.086-12.176 13.701-15.98 26.483-1.743 5.854-3.199 13.688-3.348 21.458-.177 9.192 1.349 18.357 4.566 24.959 3.945 8.094 7.972 15.651 12.784 21.459 5.38 6.489 11.667 10.896 18.415 13.547 6.524 2.563 12.266 3.584 17.198 4.107 7.153.762 12.328 1.219 14.306 1.521 2.626.406 7.915 1.521 11.567 7.608l2.588-1.218s-4.439-6.982-9.894-7.914c-6.24-1.066-25.397-2.326-35.004-6.393-5.263-2.229-11.628-7.063-16.741-13.09-6.419-7.569-11.208-16.748-13.241-21.916-3.652-9.285-5.022-23.869-2.283-37.289 1.522-7.458 2.428-10.637 5.625-17.029 4.18-8.358 11.928-16.396 19.64-21.778 4.109-2.892 9.436-6.544 9.436-6.544s.347-.403.09-.403z"/>
  </g>
  <g transform="translate(305.42008 130.90697) scale(1.00395)">
    <path fill="none" stroke="#000" stroke-miterlimit="10" stroke-width=".5" d="M228 117.25s.688-1.75.563-3.063"/>
    <path fill="#047e04" stroke="#000" stroke-miterlimit="10" stroke-width=".5" d="M200.811 94.805s-.311-2.081-.232-2.273c.278-.696 1.159-2.319-.928-4.499-2.087-2.18-4.525-3.178-6.15-5.033.465 1.948 1.514 9.393 7.078 9.532.185.279.232 2.273.232 2.273z"/>
    <path fill="#047e04" stroke="#000" stroke-miterlimit="10" stroke-width=".5" d="M201.375 95.375s-1.672-1.587-3.313-2.375c-2.168-1.042-4.47-1.383-4.627-1.674-.278-.51-.694-3.803-3.388-3.942-2.688-.139-6.108.433-8.381-.217.463.835 4.178 4.538 6.666 4.833 2.104.25 3.666-.25 5.103-.674.632.304 2.785.789 4.627 1.674 1.81.87 3.313 2.375 3.313 2.375z"/>
    <path fill="#047e04" stroke="#000" stroke-miterlimit="10" stroke-width=".5" d="M185.5 94.333c.928.789 4.785 4.474 8.166 4.167 3.062-.278 6.029-3.695 8.211-2.767 0 0-1.299-.51-2.319-.093-.417-.139-1.296-2.831-4.685-1.716-3.525 1.159-7.563.456-9.373.409zm24.125 6.48s-.039-3.116.062-3.297c.358-.658 1.104-2.285-.249-4.983-1.604-3.199-6.215-5.329-7.604-7.365.153 1.355 1.679 6.365 3.477 9.685.85 1.566 2.62 2.407 4.377 2.664.15.296-.063 3.296-.063 3.296zm-15.061.419c.929.789 3.854 3.787 7.235 3.479 3.063-.278 4.888-3.773 8.388-3.023 0 0-1.813-.625-4.125.938 0 0-.543-2.853-4.076-2.367-3.711.509-5.612 1.019-7.422.973zM210.532 88.5s5.416 3.917 6.416 5.583c1.036 1.729 1.834 5.75-.332 7.167l.571 4.813-.571-4.813c-4.084-.417-4.168-3.417-4.584-5.25-.287-1.261-1.5-7.5-1.5-7.5zm9.666 6.167s5.084 3.583 5.75 6.5c.522 2.288.916 5.667-2.416 6.583l.03 4.438s.5-4.313-.875-4.75c-1.583-.583-2.905-3.771-2.739-5.688.168-1.917.918-3.417.25-7.083zm-19.666 12.666c.928.789 4.618 3.891 8 3.583 3.063-.278 4.655-4.292 10.469-2.292 0 0-3.487-1.419-5.403-.085-.418-.139-2.03-3.358-5.563-2.873-3.714.511-5.695 1.714-7.503 1.667z"/>
    <path fill="#a46019" stroke="#000" stroke-miterlimit="10" stroke-width=".5" d="M233.698 110.75V107s1.291-.375 1.25-1.417c-.029-.764-.332-1.5-1.332-1.5-.89 0-1.187.592-1.183 1.25.004.824.478 1.75.849 1.75.666 0 .416 3.667.416 3.667z"/>
    <path fill="#047e04" stroke="#000" stroke-miterlimit="10" stroke-width=".5" d="M228.782 101.5s3.25 4.584 2.834 7.417c-.418 2.833-1.918 6-3 6.667-1.084.667-2.584-4.833-2.084-6.833s2.166-6.001 2.25-7.251zm4.916 7.583s2.75 3.167 2.668 7c-.06 2.712-2.418 5.75-2.834 6.583-.416.833-.916 2.25-.916 2.25s.416-3.167-.168-4.583c-.582-1.416-.916-7.666 1.25-11.25zm2.75 27.334 1.137-3s3.748-1.083 3.947-6.75c.147-4.248-2.084-10.667-2.084-10.667s-2.916 7.084-3 9.667c-.082 2.583 1.303 7.167 1.053 8-.25.833-1.053 2.75-1.053 2.75zm-2.115-5.584s-5.301-3-5.967-3.833c-.669-.833-2.449-3.5-5.199-3.5s-8.334.333-9 .167c1.666 1.75 4.666 5 8.865 5.167 4.463.177 5.301-2.501 11.301 1.999zm-29-16.833c.928.789 6.277 3.637 9.668 3.833 4.304.25 4.529-5 9.363-3.083 0 0-3.031-.75-4.363-.083-.418-.139-2.27-3.152-5.803-2.667-3.711.511-7.055 2.046-8.865 2z"/>
    <path fill="#047e04" stroke="#000" stroke-miterlimit="10" stroke-width=".5" d="M207.833 120.333c.894.83 8.225 1.986 11.614 1.833 3.72-.167 3.919-4.083 9.75-1.333 0 0-2.915-1.583-4.915-.667-.166-.583-2.064-3.491-5.615-3.167-3.729.341-9.028 3.463-10.834 3.334zm39.115 8.584s.75 6-.5 9c-1.014 2.432-4.441 4.782-5.517 5.554-.251.18-2.815 3.946-2.815 3.946s2.528-3.683 2.5-4c-.14-1.46-1-5.167.082-7.583.918-2.048 6.25-6.917 6.25-6.917zm3.366 12.094s-.103 6.65-2.668 9.5c-3 3.333-5.556 1.297-5.556 1.297l-2.987 1.992 2.987-1.992s-1.61-3.214.64-5.214c2.492-2.215 7.584-5.583 7.584-5.583zm-13.532 6.072-1.916-1.583s-.949-3.5-3.699-5.333c-2.412-1.609-4.666-1.834-11.666-2.667 0 0 4.719 5.833 7.166 7 2.965 1.413 8.199 1 8.199 1l1.916 1.583zm-1.084-9.666s-2.832-1.667-3.5-2.5c-.666-.833-1.501-2.667-4.25-3.333-2.673-.648-9.001-.167-9.666-.333 1.084 1.333 5.383 5.251 8.666 5.917 5.75 1.165 3-3.418 8.75.249z"/>
    <path fill="#a46019" stroke="#000" stroke-miterlimit="10" stroke-width=".5" d="m210.85 190.973-2.705-2.6s.625-1.191-.154-1.882c-.57-.509-1.313-.8-2.005-.079-.616.643-.396 1.266.082 1.718.597.567 1.593.869 1.851.603.46-.482 2.931 2.24 2.931 2.24zm5.354 24.925 1.313 3.938s-1.228.847-.815 1.923c.297.791.871 1.461 1.922 1.109.935-.313 1.039-1.036.805-1.727-.293-.861-1.112-1.672-1.502-1.541-.703.238-1.723-3.702-1.723-3.702zm31.664-50.339 2.62-2.686s1.187.634 1.884-.141c.512-.566.811-1.308.094-2.004-.637-.621-1.262-.404-1.719.067-.572.593-.881 1.586-.615 1.847.476.465-2.264 2.917-2.264 2.917z"/>
    <path fill="#047e04" stroke="#000" stroke-miterlimit="10" stroke-width=".5" d="M251.452 151.011s-1.162 6.265-3.727 9.114c-3 3.333-6.432 1.641-6.432 1.641l-3.188 1.396 3.188-1.396s-.734-3.558 1.516-5.558c2.49-2.215 8.643-5.197 8.643-5.197zm-14.327 12.678-1.916-1.584s-2.52-4.281-5.27-6.115c-2.75-1.834-9.759-1.396-9.759-1.396s5.592 5.838 7.17 6.973c2.667 1.916 7.856.539 7.856.539l1.919 1.583zm12.135.267s-2.555 7.062-5.119 9.91c-3 3.333-6.43.845-6.43.845l-3.387.996 3.387-.996s-.996-2.189 2.188-4.779c2.589-2.104 9.361-5.976 9.361-5.976zm-16.927 8.364s0-7.967-12.148-11.354c3.585 4.184 1.992 5.977 5.179 9.563 1.984 2.23 7.769 1.99 8.964 5.975l-1.995-4.184zm-3.385 15.535 5.377-2.59s3.586 3.385 7.567-1.195c3.981-4.579 4.979-8.363 5.575-8.563.598-.198-8.563 2.392-10.555 3.983-1.992 1.592-2.591 5.979-2.591 5.979l-5.373 2.386zm-9.573-17.605s6.385 4.063 7.578 7.646c1.194 3.586 1.396 6.771 1.396 6.771l.797 2.789-.797-2.789c-1.195-.196-9.372-1.67-8.974-14.417zm23.513 18.203s-3.278 6.052-7.263 7.047c-2.438.609-4.293.5-6.28-.673 0 0-2.062-.244-2.987-.397-2.391-.397 2.987.397 2.987.397 1.195-4.382 6.97-6.374 13.543-6.374zm-25.891 14.938 4.185.6s3.188 2.189 6.771.598c3.584-1.592 7.368-4.581 7.368-4.581s-5.178-.797-8.166 0c-2.987.798-5.975 3.983-5.975 3.983l-4.183-.6zm20.628-49.266-3.428-1.521s-3.14 1.918-6.248.797c-3.109-1.119-8.765-7.169-8.765-7.169s8.44 1.082 10.292 1.675c3.128 1.004 4.72 4.697 4.72 4.697l3.429 1.521zm-16.292 40.177s3.354-5.312 1.678-8.666c-1.678-3.354-3.913-7.825-3.913-7.825s-1.679 7.547-1.679 10.342c0 2.797 3.795 6.149 3.795 6.149l.119 3.634v-3.634zm-8.814-9.831s3.841 6.284 3.952 10.082c.102 3.445-2.077 7.146-2.077 7.146v4.763-4.763s-4.356-3.345-4.155-6.991c.189-3.416 1.367-8.009 2.28-10.237zm-6.19 7.675s-4.408 6.183-4.256 10.082c.15 3.899 2.532 7.145 2.532 7.145l.052 3.141.051-2.988s3.748-3.344 3.899-7.854c.151-4.509-2.278-9.526-2.278-9.526zm-11.961 23.848.405-2.889s5.017-2.025 5.521-7.193c.508-5.168-.102-10.285-.102-10.285s-5.369 6.223-6.13 8.714c-1.267 4.155.151 7.904.71 8.767l-.404 2.886zm20.228 5.458s-3.242-4.308-6.434-5.117c-3.193-.81-9.68.76-9.68.76l-3.143-1.62 3.143 1.62s1.725 5.574 7.043 5.32c5.322-.254 9.071-.963 9.071-.963zm-32.444-15.695s-2.433 2.433-4.661 3.952c-2.349 1.604-3.27 5.792-2.938 7.447.305 1.52.354 1.723.354 1.723s4.713-1.367 6.385-5.066c1.671-3.698.86-8.056.86-8.056zm10.032-3.394s-.297 6.32-1.977 8.613c-2.076 2.836-6.23 5.063-6.23 5.063l-.355 1.875.355-1.875s-1.115-4.813.557-7.347c1.672-2.531 5.978-5.417 7.65-6.329zm9.774 22.936s-2.896-1.479-4.064-3.023c-1.172-1.545-4.916-3.575-9.146-3.032-4.229.542-4.025-.232-4.658-.548.427.277 1.773.693 2.791.726 1.677 1.737 1.881 4.493 5.395 5.372 4.105 1.022 9.682.505 9.682.505zm6.481-14.047s2.617 3.823 7.246 3.32c4.629-.504 9.761-3.219 12.075-1.106-1.409-1.812-4.727-4.713-8.855-4.831-3.521-.101-6.131 3.053-8.051 3.926-.932.421-1.02-.45-2.415-1.309z"/>
    <path fill="#a46019" d="M160.514 227.467c.846-1.185 4.812-6.406 9.512-7.211 8.582-1.467 24.324-4.496 33.327-8.306 6.384-2.702 11.647-6.563 16.091-11.802 6.213-7.323 10.786-15.937 12.995-21.551 3.606-9.173 6.468-23.854 3.671-37.554-1.54-7.545-2.595-11.142-5.805-17.564-3.781-7.562-10.911-15.362-19.561-21.399-4.189-3.135-9.014-6.446-9.556-6.818-.103-.189-.188-.39-.242-.542 3.841 2.457 16.05 10.657 19.623 14.146 6.089 5.937 11.44 11.905 15.296 24.85 2.49 8.375 3.637 15.74 3.4 21.891-.396 10.354-2.131 18.554-5.309 25.072-3.484 7.146-8.078 14.185-13.652 20.909-5.205 6.278-9.497 9.466-16.398 12.179-4.438 1.741-12.753 4.76-18.599 5.381-4.976.528-7.494 1.22-9.161 1.676-.753.205-1.35.369-1.941.461-2.623.404-7.901 1.221-11.578 7.177l-2.113-.995z"/>
    <path d="M207.262 99.224c4.925 3.362 10.833 7.578 13.137 9.824 6.063 5.913 11.393 11.855 15.229 24.742 2.483 8.349 3.625 15.687 3.394 21.81-.396 10.316-2.121 18.484-5.282 24.971-3.479 7.133-8.059 14.15-13.619 20.861-5.177 6.241-9.439 9.408-16.3 12.104-4.425 1.737-12.717 4.748-18.532 5.366-4.994.531-7.525 1.225-9.199 1.683-.746.204-1.336.365-1.916.455l-.071.011c-2.561.396-7.832 1.21-11.561 7.094l-1.642-.771c1.11-1.507 4.83-6.124 9.175-6.866 8.593-1.469 24.355-4.503 33.382-8.323 6.422-2.718 11.715-6.6 16.186-11.869 6.23-7.348 10.82-15.984 13.035-21.621 3.621-9.203 6.49-23.938 3.686-37.692-1.545-7.569-2.604-11.178-5.824-17.625-3.802-7.598-10.959-15.432-19.629-21.482-1.209-.907-2.461-1.819-3.649-2.672m-6.506-4.853c-.344 0 .244 1.067.244 1.067s5.125 3.5 9.602 6.851c7.711 5.382 15.301 12.947 19.48 21.306 3.193 6.392 4.262 10.044 5.783 17.502 2.736 13.418-.008 28.125-3.658 37.41-2.033 5.169-6.533 13.912-12.953 21.481-5.113 6.027-10.735 9.505-15.998 11.732-9.606 4.063-27.032 7.223-33.272 8.288-5.452.933-9.844 7.558-9.844 7.558l2.587 1.219c3.652-6.087 8.892-6.846 11.52-7.252 1.979-.307 3.938-1.373 11.092-2.135 4.933-.523 12.141-2.834 18.662-5.397 6.748-2.651 11.119-5.76 16.5-12.25 4.813-5.808 9.74-12.867 13.688-20.961 3.217-6.601 4.938-14.808 5.333-25.171.296-7.765-1.671-16.116-3.413-21.971-3.807-12.783-9.117-18.872-15.357-24.958-3.561-3.472-15.603-11.579-19.686-14.19-.146-.091-.245-.129-.31-.129z"/>
  </g>
  <g transform="translate(305.42008 130.90697) scale(1.00395)">
    <circle cx="169.25" cy="154.24899" r="96.720001" fill="none"/>
    <ellipse cx="167.759" cy="166.095" fill="none" rx="107.302" ry="99.931999" transform="rotate(15.269 167.75031777 166.10293767)"/>
    <path stroke="#000" stroke-miterlimit="10" stroke-width=".5" d="M273.004 164.876c-.836-.058-1.65-.05-2.446.021-.795.066-1.513.22-2.147.449-.64.229-1.156.555-1.555.973-.398.421-.619.951-.664 1.597-.031.478.012.92.13 1.329.121.408.308.767.56 1.07.252.312.563.555.937.732.373.184.796.289 1.271.321.416.028.724.005.916-.066.193-.069.328-.161.404-.271.081-.112.118-.243.121-.388.004-.146.025-.275.066-.391.044-.115.137-.21.271-.286.139-.073.372-.1.709-.077.377.025.635.168.77.428.136.264.195.529.176.811-.02.287-.105.546-.262.771-.155.225-.358.41-.614.563-.253.148-.542.258-.86.328-.32.064-.646.09-.979.066-.558-.039-1.113-.172-1.673-.404-.559-.233-1.055-.561-1.485-.979-.435-.422-.774-.938-1.03-1.553-.25-.611-.354-1.318-.301-2.117.115-1.729.825-3.051 2.123-3.951 1.3-.906 3.184-1.276 5.646-1.11 1.06.069 2.023.274 2.896.612.873.338 1.613.779 2.221 1.328.606.549 1.066 1.183 1.385 1.898.313.718.445 1.493.388 2.326-.065.986-.33 1.744-.792 2.271-.461.527-1.098.909-1.911 1.144-.2.055-.358.104-.474.145-.113.044-.205.096-.271.157-.067.063-.122.14-.161.233-.041.09-.076.213-.102.367-.02.057-.061.094-.121.115-.064.023-.139.03-.213.021-.074-.012-.145-.033-.204-.072-.063-.036-.09-.078-.088-.121.021-.268.034-.475.054-.624.018-.149.034-.272.059-.372.021-.098.033-.188.049-.266.01-.077.021-.172.027-.281.016-.189.02-.354.021-.493.003-.139.003-.274 0-.407-.004-.134-.01-.273-.003-.42.003-.146.006-.305.003-.484.004-.064.042-.112.113-.144.07-.026.143-.039.211-.034.084.006.158.025.225.063.068.04.105.093.117.16.041.427.095.728.169.903.069.179.247.275.522.295.599.039 1.049-.145 1.354-.553.308-.408.483-.979.534-1.711.039-.578-.107-1.098-.439-1.563-.334-.463-.787-.856-1.359-1.188-.57-.326-1.231-.591-1.979-.793-.751-.195-1.524-.324-2.315-.378zm-.15493 15.94806-6.71107-.24006c-.119-.008-.185.021-.192.088-.007.068.021.12.09.155.646.368 1.375.774 2.192 1.217.815.442 1.679.897 2.581 1.368.9.468 1.82.936 2.753 1.4.937.465 1.845.912 2.735 1.338.164.076.259.186.279.322.02.141-.005.271-.072.396-.064.124-.162.215-.289.272-.129.063-.254.057-.373-.015-2.352-1.399-4.627-2.707-6.827-3.92-2.198-1.21-4.327-2.404-6.399-3.579-.094-.042-.158-.104-.186-.178-.028-.076-.034-.151-.018-.229.016-.063.058-.119.123-.166.063-.043.129-.063.207-.055l7.60811.74319c-.963-.563-3.13311-1.84819-4.05711-2.37619-.929-.528-1.854-1.055-2.783-1.579-.094-.041-.159-.103-.186-.177-.027-.076-.035-.151-.016-.227.018-.066.053-.121.117-.167.064-.045.134-.063.207-.056l13.395.015c.309-.006.6-.065.874-.182.28-.113.47-.322.569-.624.013-.059.059-.094.137-.104.079-.012.162-.007.25.015.087.02.161.052.229.099.065.044.095.092.082.139-.06.241-.119.467-.191.668-.068.201-.133.432-.196.687-.028.131-.058.284-.079.464-.027.176-.051.333-.064.469l-11.12138-.11901c-.116-.008-.181.021-.188.089-.008.066.021.119.09.154.513.287 1.54921.88016 2.17313 1.17106l2.27989 1.06299c1.73556.8092 6.47774 1.67399.97743 1.66102zM262.854 187.325c.081.146.188.306.322.479.132.172.277.336.441.486.164.154.344.277.534.375.193.098.396.139.604.117.646-.07 1.332-.131 2.056-.176.726-.051 1.454-.086 2.19-.112.74-.024 1.479-.038 2.209-.03.732.01 1.432.029 2.1.068.438.033.866.01 1.294-.071.429-.082.761-.317.988-.706.022-.052.069-.076.147-.072.073.004.146.021.211.047.068.025.127.064.174.117.052.051.064.104.043.156-.127.316-.276.653-.457 1.014-.18.357-.334.692-.459 1.012-.125.315-.231.636-.321.951-.093.317-.2.636-.326.951-.021.055-.065.084-.14.086-.068.004-.139-.01-.206-.035-.066-.025-.128-.068-.183-.127-.053-.063-.067-.116-.049-.17.061-.191.088-.395.081-.604-.008-.212-.155-.374-.435-.485-.146-.058-.293-.109-.438-.154-.145-.045-.301-.074-.463-.09-1.021-.092-2.104-.115-3.257-.074-1.155.037-2.295.138-3.428.293-.084.016-.135.063-.157.136-.021.076-.009.142.05.202.676.71 1.448 1.422 2.316 2.134.867.713 1.767 1.367 2.688 1.963.214.136.408.213.595.233.185.021.358.004.524-.063.166-.065.317-.167.458-.301.139-.136.257-.289.357-.463.033-.052.09-.075.16-.08.07-.003.137.01.205.036.08.029.146.076.189.131.047.061.063.113.04.168-.087.218-.211.479-.367.779-.155.305-.278.568-.366.785-.091.229-.18.494-.263.793-.084.304-.17.567-.263.797-.021.057-.067.084-.139.087-.07.005-.141-.009-.207-.034-.065-.025-.123-.066-.175-.126-.045-.058-.063-.113-.057-.172.032-.163.043-.313.022-.438-.021-.129-.074-.261-.168-.398-.093-.139-.227-.283-.402-.443-.178-.158-.409-.341-.7-.544-.408-.302-.861-.646-1.364-1.035-.503-.391-1.021-.813-1.552-1.265-.533-.449-1.063-.932-1.603-1.434-.535-.504-1.047-1.019-1.535-1.539-.486-.521-.938-1.053-1.346-1.578-.408-.529-.742-1.056-1-1.571-.258-.521-.422-1.03-.492-1.533-.072-.502-.015-.987.174-1.456.188-.47.42-.813.699-1.029.28-.217.58-.353.896-.408.314-.059.626-.061.919-.004.297.054.56.127.782.219.309.119.554.265.736.424.185.162.322.329.418.499.096.168.147.337.157.506.009.169-.01.317-.063.447-.11.284-.279.467-.508.546-.226.08-.459.072-.699-.023-.186-.072-.317-.152-.403-.236-.081-.082-.146-.163-.19-.243-.045-.082-.101-.159-.164-.233-.063-.074-.166-.143-.315-.197-.306-.123-.591-.136-.858-.031-.264.103-.472.347-.623.729-.072.174-.102.36-.096.557.008.201.033.396.08.584.05.188.109.365.178.522.077.146.141.267.2.354zm.275 4.534c-.129.211-.313.32-.539.33-.231.009-.469-.063-.705-.205-.184-.113-.313-.211-.385-.301-.072-.091-.138-.179-.184-.262-.048-.085-.102-.166-.158-.247-.062-.077-.162-.161-.308-.252-.159-.098-.317-.177-.481-.235-.162-.062-.32-.09-.474-.09-.153.002-.306.037-.449.109-.146.074-.271.205-.387.393-.218.354-.197.743.063 1.164.26.42.668.865 1.229 1.344.563.474 1.218.972 1.979 1.49.76.521 1.532 1.058 2.319 1.617.79.559 1.542 1.137 2.255 1.729.717.593 1.313 1.199 1.781 1.813.475.618.773 1.244.9 1.879.129.637-.006 1.275-.4 1.924-.173.283-.424.558-.757.817-.329.258-.798.399-1.409.422-.609.022-1.391-.125-2.335-.44-.949-.313-2.125-.902-3.533-1.766-1.003-.611-1.931-1.246-2.784-1.9-.857-.656-1.568-1.314-2.133-1.979-.563-.658-.938-1.313-1.126-1.957-.188-.643-.103-1.256.259-1.84.207-.34.452-.578.736-.719.285-.137.573-.208.876-.209.297 0 .587.049.872.147.284.104.534.22.759.355.607.366 1.007.739 1.202 1.116.199.375.229.674.096.89-.101.164-.279.246-.537.256-.261.011-.506-.06-.742-.203-.184-.11-.313-.229-.385-.35-.068-.12-.127-.242-.168-.366-.041-.124-.101-.247-.168-.366-.072-.12-.195-.231-.363-.336-.385-.233-.707-.313-.977-.233-.262.076-.477.252-.639.519-.146.235-.128.532.049.894.182.358.498.764.958 1.209.458.447 1.042.937 1.749 1.463.708.526 1.514 1.074 2.409 1.646l2.563-4.197c-.937-.66-1.793-1.272-2.576-1.84-.785-.568-1.424-1.119-1.912-1.645-.489-.529-.811-1.053-.955-1.57-.145-.516-.053-1.047.279-1.591.239-.388.512-.649.82-.786.309-.132.623-.189.946-.172.325.021.633.091.929.217.294.124.555.253.777.391.305.188.541.371.721.56.176.185.305.36.395.528.084.17.129.328.131.476.007.143-.024.264-.083.359zm5.336 11.295c.285-.463.35-.934.201-1.413-.148-.481-.435-.968-.852-1.454-.417-.489-.934-.971-1.544-1.451-.608-.479-1.229-.943-1.858-1.396l-2.551 4.172.18.109c1.146.698 2.102 1.203 2.862 1.512.761.311 1.388.49 1.877.549.489.057.867.014 1.121-.127.26-.137.446-.305.564-.501zm-8.279 7.535c.256.194.51.379.764.553.254.175.502.316.741.435.242.114.474.183.692.204.22.023.416-.023.594-.137.105-.072.211-.151.313-.24.104-.088.195-.177.277-.266.04-.055.098-.071.178-.053.076.019.15.053.219.104.07.054.125.112.162.187.039.072.037.135-.002.188-.222.301-.434.563-.633.784-.199.221-.416.491-.65.811-.27.363-.524.729-.771 1.095-.241.367-.493.734-.753 1.109-.533.727-1.184 1.279-1.938 1.663-.756.386-1.567.591-2.437.622-.864.027-1.769-.117-2.702-.438-.935-.32-1.844-.819-2.725-1.494-.977-.746-1.732-1.514-2.273-2.301-.547-.791-.902-1.576-1.076-2.361-.176-.787-.166-1.553.021-2.301.187-.748.529-1.453 1.021-2.117.293-.398.604-.77.926-1.108.32-.343.596-.664.818-.966.137-.186.258-.354.362-.512.106-.152.205-.308.3-.457.094-.147.184-.305.27-.469.088-.162.186-.343.291-.535.029-.063.084-.086.164-.072.082.013.16.042.234.086.077.044.141.107.186.193.049.084.052.166.009.248-.12.234-.206.455-.254.654-.05.199-.05.395-.007.579.047.187.145.368.298.558.151.188.381.396.681.627l6.7 5.127zm-6.576-2.755c-.576-.44-1.055-.773-1.426-.998-.372-.223-.688-.343-.946-.359-.26-.02-.495.063-.706.236-.213.177-.451.444-.721.808-.294.397-.453.848-.477 1.346-.025.501.086 1.031.332 1.597.25.563.631 1.145 1.146 1.748.519.604 1.179 1.213 1.979 1.822.847.648 1.646 1.158 2.399 1.527.754.367 1.468.572 2.136.613.668.043 1.301-.101 1.896-.426.597-.324 1.159-.851 1.696-1.574.131-.176.182-.332.15-.465-.027-.134-.158-.287-.392-.467l-7.066-5.408zm-2.828 10.278c-.57-.271-1.184-.426-1.834-.464-.648-.041-1.261.016-1.828.162.213.43.51.857.896 1.283.386.427.818.873 1.299 1.34.479.465.988.96 1.531 1.479.542.521 1.083 1.081 1.621 1.688.404.461.699.937.879 1.431.178.492.246.991.207 1.487-.045.497-.192.981-.444 1.459-.251.478-.604.918-1.053 1.332-.304.276-.657.526-1.058.752-.4.223-.813.375-1.238.459-.426.084-.844.075-1.254-.021-.411-.1-.777-.332-1.103-.694-.229-.265-.354-.563-.372-.904-.017-.34.021-.683.113-1.028.093-.347.216-.681.365-.996.152-.314.291-.584.416-.802.125-.251.121-.431-.018-.539-.139-.108-.334-.12-.582-.026-.4.133-.795.246-1.177.354-.381.105-.759.146-1.136.124-.375-.021-.744-.118-1.107-.292-.365-.177-.724-.464-1.078-.863-.455-.518-.713-1.062-.769-1.635-.062-.572.002-1.132.183-1.678.184-.549.442-1.063.781-1.541.34-.479.68-.876 1.02-1.188.154-.143.314-.281.479-.416.162-.133.334-.263.507-.386-.255-.343-.465-.653-.629-.935-.166-.283-.302-.545-.406-.783-.104-.245-.188-.473-.252-.684-.063-.211-.117-.427-.158-.646-.033-.15-.025-.35.024-.591.052-.242.12-.49.203-.745.085-.249.177-.496.272-.732.104-.236.187-.41.25-.521.039-.068.094-.117.16-.146.067-.025.127-.015.176.043.095.387.192.771.295 1.151.103.377.227.765.373 1.155s.322.791.527 1.199c.204.418.457.853.747 1.314.835-.379 1.666-.605 2.5-.688.83-.086 1.601.004 2.304.274.172.066.278.194.319.396.046.199.035.395-.026.584-.063.193-.174.346-.332.457-.153.12-.353.123-.593.021zm-2.186 8.101c-.083.207-.146.399-.193.569-.049.173-.068.343-.058.515.008.168.057.35.146.537.088.188.234.396.432.619.176.196.369.355.586.48.22.121.449.195.699.226.248.025.506-.012.775-.112.268-.103.538-.276.813-.529.205-.186.369-.389.5-.608.129-.221.199-.46.209-.725.009-.263-.049-.552-.18-.865-.13-.313-.353-.651-.678-1.021-.688-.777-1.348-1.489-1.982-2.144-.639-.657-1.226-1.256-1.768-1.802-.541-.549-1.018-1.043-1.436-1.495-.412-.45-.735-.865-.974-1.241-.278.151-.573.373-.887.658-.293.27-.539.551-.729.848-.195.297-.313.615-.34.959-.029.34.032.709.192 1.104.157.396.442.828.858 1.297.496.56 1.008.916 1.533 1.073.525.15 1.023.164 1.496.037.201-.051.389-.051.557-.004.168.053.306.148.408.291.102.144.157.326.174.553.022.225-.032.485-.153.78z"/>
    <g stroke="#000" stroke-miterlimit="10">
      <path d="M79.242 200.387c1.283-.726 2.572-.801 3.868-.228 1.156.524 2.108 1.448 2.857 2.771.483.854.758 1.834.824 2.94l-2.668 1.51c.303-.741.475-1.353.514-1.83.048-.63-.095-1.239-.427-1.825-.366-.646-.875-1.092-1.528-1.334-.691-.265-1.352-.219-1.983.139-.658.373-1.078 1.188-1.26 2.445l-.451 3.487c-.326 1.339-.99 2.292-1.993 2.858-1.179.666-2.365.758-3.56.271-1.102-.442-1.993-1.268-2.675-2.474-.458-.809-.747-1.717-.869-2.723L72.354 205c-.188.821-.287 1.377-.295 1.666-.012.542.135 1.084.442 1.625.318.563.743.935 1.275 1.115.556.194 1.108.136 1.655-.175.625-.354 1.026-1.155 1.202-2.41l.48-3.504c.358-1.351 1.067-2.331 2.129-2.93zm-5.186-15.722 3.375.12 2.987 7.826c-1.236.078-2.945.535-5.128 1.367l-5.162 1.971c-1.623.619-3.118 1.386-4.483 2.299l-3.104-8.131 2.814.224c-.135 1.201.01 2.358.436 3.474.054.143.198.486.433 1.041l4.774-1.821-1.85-4.849 2.907.465c-.101 1.084.086 2.338.559 3.768l5.131-1.958c-.799-1.718-1.309-2.765-1.53-3.136-.576-1.012-1.296-1.897-2.159-2.66zm-1.268-19.966.733 3.758c-.808.242-1.592.598-2.349 1.066-.26.156-.987.662-2.182 1.513l1.09 5.577c1.313.225 2.161.354 2.543.396.962.109 1.816.103 2.564-.021l.748 3.824c-1.031-.594-2.94-1.248-5.729-1.972l-11.596-3.009 9.937-7.354c1.689-1.236 3.102-2.495 4.241-3.778zm-5.556 7.584-4.244 2.82 5.001 1.06-.757-3.88zm2.131-21.309 3.137 1.251.164 8.05c-1.213-.334-2.8-.481-4.761-.442l-6.759.137c-1.744.035-3.174.244-4.29.626l-.07-3.503c1.315.341 2.733.495 4.251.466l9.84-.199c-.202-2.253-.705-4.381-1.512-6.386zm-.395-26.916c2.242.537 3.985 1.544 5.229 3.021 1.243 1.477 1.664 3.055 1.261 4.736-.419 1.748-1.513 2.996-3.283 3.743-1.769.749-3.822.843-6.159.282-2.271-.545-4.008-1.584-5.211-3.12-1.177-1.513-1.56-3.126-1.149-4.841.405-1.687 1.5-2.885 3.287-3.594 1.752-.695 3.761-.77 6.025-.227zm-.007 1.999c-1.679-.402-3.242-.393-4.688.03-1.586.465-2.527 1.31-2.821 2.535-.279 1.165.027 2.243.919 3.231.863.954 2.076 1.618 3.638 1.992 1.744.418 3.34.414 4.787-.016 1.58-.465 2.523-1.338 2.831-2.619.274-1.144-.062-2.21-1.008-3.201-.898-.932-2.118-1.583-3.658-1.952zm-2.751-17.153 1.933 2.058c-.9.781-1.569 1.73-2.005 2.846-.057.146-.184.503-.381 1.069l4.759 1.86 1.881-4.812 1.843 2.287c-.547.525-.964 1.007-1.252 1.439-.221.341-.508.912-.86 1.715l2.5.977c1.597.624 3.073 1.004 4.426 1.14l-1.276 3.263c-1.124-.825-2.519-1.563-4.186-2.215l-6.318-2.47c-1.604-.627-3.011-.984-4.223-1.071l3.159-8.086zm14.589-24.451 1.644 2.097c-.75.456-1.334.89-1.75 1.304-.329.329-.78.896-1.354 1.704l7.219 5.048c1.883 1.316 3.427 2.177 4.631 2.581l-2.008 2.872c-.691-.932-2.051-2.107-4.081-3.525l-7.146-4.997c-.597.984-1.024 1.725-1.282 2.222-.42.832-.729 1.623-.929 2.372l-1.6-2.161 6.656-9.517zm23.991-2.566-2.455 2.5c-.646-1.138-1.265-1.997-1.858-2.58l-2.821-2.769-4.751 4.842 1.442 1.415c1.256 1.232 2.59 2.285 4.001 3.155l-2.454 2.501c-.637-1.127-1.611-2.335-2.926-3.625L88.52 82.96c-1.346-1.321-2.65-2.35-3.913-3.085l2.455-2.5c.769 1.269 1.554 2.296 2.356 3.083l2.084 2.045 4.751-4.841-1.467-1.44c-1.128-1.106-2.373-2.076-3.736-2.911l2.455-2.5c.71 1.211 1.666 2.406 2.869 3.586l4.192 4.114c1.528 1.5 2.936 2.625 4.224 3.376zm9.729-11.298.79 3.283-6.741 4.975c-.407-1.17-1.304-2.694-2.691-4.574l-3.281-4.446c-1.031-1.397-2.171-2.632-3.417-3.703l7.003-5.168.538 2.771c-1.193.191-2.27.643-3.229 1.351-.121.089-.417.32-.886.695l3.034 4.111 4.175-3.081.33 2.925c-1.071.193-2.23.709-3.479 1.548l3.261 4.418c1.442-1.229 2.313-2.001 2.612-2.314.817-.825 1.478-1.756 1.981-2.791zm22.129-11.401.902 2.472c-1.372 1.435-2.733 2.437-4.086 3.003-2.141.898-4.167.953-6.08.168-1.913-.785-3.315-2.244-4.21-4.379-.961-2.292-1.014-4.466-.158-6.521.855-2.056 2.426-3.563 4.712-4.521 1.167-.489 2.496-.814 3.986-.978l1.046 2.497c-1.792-.28-3.313-.157-4.564.366-1.617.678-2.658 1.783-3.121 3.313-.436 1.424-.308 2.961.386 4.615.679 1.621 1.648 2.778 2.907 3.475 1.378.767 2.855.82 4.431.16 1.431-.598 2.714-1.822 3.849-3.67zm16.195-.461-3.406.824c.053-1.307-.019-2.364-.214-3.172l-.931-3.842-6.592 1.598.475 1.964c.415 1.71.991 3.308 1.728 4.794l-3.405.824c.057-1.292-.131-2.833-.565-4.624l-1.468-6.058c-.444-1.834-1.008-3.396-1.69-4.687l3.405-.825c-.019 1.484.104 2.771.37 3.862l.687 2.838 6.594-1.597-.484-1.997c-.372-1.536-.916-3.019-1.632-4.446l3.405-.826c-.037 1.404.142 2.925.539 4.562l1.383 5.709c.503 2.081 1.104 3.78 1.801 5.099zm14.247-4.457-1.064 3.205-8.352.662c.272-1.209.315-2.978.132-5.306l-.437-5.509c-.137-1.731-.453-3.38-.944-4.949l8.677-.688-1.008 2.637c-1.113-.467-2.265-.653-3.455-.56-.149.012-.523.054-1.12.123l.404 5.093 5.173-.41-1.265 2.658c-1.012-.401-2.269-.576-3.771-.523l.434 5.475c1.874-.283 3.021-.478 3.44-.586 1.129-.268 2.181-.709 3.156-1.322zm17.827 4.261-2.842-.256c-1.724-1.863-3.523-4.43-5.404-7.704l-.196 2.192c-.162 1.781-.127 3.454.101 5.015l-3.49-.313c.46-1.109.78-2.651.958-4.627l.598-6.634c.117-1.335.072-2.831-.139-4.488l1.732.156c2.207.198 3.836.567 4.885 1.104 1.639.848 2.371 2.214 2.203 4.101-.164 1.812-1.311 3.065-3.439 3.761 1.275 2.52 2.952 5.085 5.033 7.693zm-4.18-11.557c.172-1.898-.974-3.052-3.433-3.461l-.572 6.364c1.065-.016 1.944-.233 2.634-.651.823-.503 1.28-1.254 1.371-2.252zm21.461 7.798c-.597 2.228-1.65 3.942-3.16 5.146-1.509 1.204-3.099 1.582-4.769 1.134-1.735-.467-2.953-1.594-3.653-3.382-.699-1.789-.738-3.844-.115-6.166.604-2.256 1.69-3.964 3.26-5.124 1.544-1.137 3.166-1.476 4.869-1.019 1.677.449 2.845 1.577 3.504 3.382.648 1.771.669 3.781.064 6.029zm-1.996-.061c.446-1.667.479-3.229.094-4.686-.42-1.599-1.239-2.563-2.457-2.889-1.157-.311-2.241-.033-3.256.833-.978.836-1.672 2.03-2.09 3.582-.464 1.733-.502 3.328-.113 4.787.425 1.592 1.271 2.558 2.543 2.899 1.138.305 2.211-.002 3.228-.922.954-.872 1.639-2.073 2.051-3.604zm14.114 13.641-3.834-1.661c.108-.646.101-1.336-.024-2.067-.051-.356-.211-1.037-.479-2.043l-1.529-5.742-1.6 3.689c-.612 1.415-1.002 2.775-1.168 4.082l-3.219-1.392c.795-.929 1.545-2.208 2.25-3.836l2.887-6.657c.576-1.34.964-2.679 1.15-4.016l3.215 1.392c-.799.919-1.461 1.99-1.989 3.213l-1.261 2.906c1.293-.64 2.592-1.277 3.891-1.913 1.512-.781 2.713-1.57 3.605-2.366l3.557 1.54c-1.339.391-2.813.97-4.417 1.733-.083.038-1.503.753-4.265 2.144.91 3.348 1.414 5.194 1.513 5.537.584 2.064 1.157 3.884 1.717 5.457zm11.886 3.678L223.458 74l-7.147-4.369c.933-.818 2.004-2.224 3.224-4.217l2.881-4.714c.905-1.482 1.621-3.004 2.144-4.562l7.426 4.539-2.362 1.543c-.627-1.033-1.449-1.861-2.47-2.483-.127-.077-.452-.264-.978-.558l-2.666 4.359 4.429 2.706-2.584 1.408c-.582-.919-1.498-1.798-2.745-2.638l-2.863 4.686c1.685.872 2.726 1.387 3.129 1.547 1.065.447 2.175.708 3.326.783zm9.961 7.857-2.97 1.607-6.539-5.236c1.025-.694 2.269-1.953 3.728-3.776l3.455-4.313c1.084-1.355 1.983-2.773 2.701-4.254l6.793 5.439-2.539 1.232c-.492-1.104-1.205-2.027-2.135-2.773-.117-.094-.419-.32-.9-.678l-3.192 3.988 4.049 3.243-2.739 1.07c-.463-.985-1.258-1.972-2.392-2.963l-3.433 4.287c1.56 1.077 2.529 1.72 2.908 1.929 1.007.579 2.076.977 3.205 1.198zm12.205 18.181-1.994-2.418c.328-.638.69-1.757 1.092-3.354l2.386-9.483-4.488 3.701c-1.604 1.324-2.782 2.532-3.53 3.625l-2.064-2.505c1.303-.608 2.711-1.536 4.225-2.783l6.567-5.416.528-2.926 2.352 2.852c-.307.794-.648 1.908-1.027 3.344l-2.847 10.882 5.19-4.278c1.664-1.372 2.912-2.64 3.748-3.805l2.063 2.504c-1.478.741-2.973 1.738-4.491 2.991l-4.566 3.781c-1.363 1.118-2.409 2.216-3.144 3.288z"/>
      <path d="m256.043 110.738-1.883-3.113c.678-.502 1.297-1.097 1.854-1.783.191-.233.711-.941 1.559-2.126l-2.797-4.618c-1.297.261-2.131.44-2.5.54-.936.24-1.729.547-2.391.921l-1.916-3.168c1.15.168 3.146.085 5.979-.249l11.788-1.382-6.938 10.095c-1.182 1.704-2.101 3.332-2.755 4.883zm2.773-8.759 3.065-4.024-5.01.811 1.945 3.213zm15.936 12.457-2.646.322c-.002-.878-.07-1.601-.211-2.171-.109-.452-.363-1.132-.76-2.041l-8.055 3.568c-2.1.931-3.635 1.807-4.604 2.629l-1.42-3.203c1.154-.11 2.863-.667 5.127-1.669l7.973-3.532c-.533-1.021-.945-1.769-1.238-2.247-.496-.789-1.012-1.463-1.549-2.021l2.676-.251 4.707 10.616zm-13.427 9.937-1.166-3.305c1.432-.124 2.771-.406 4.014-.844l6.673-2.354c1.674-.59 3.082-1.278 4.228-2.063l1.165 3.305c-1.387.1-2.915.444-4.59 1.035l-6.565 2.315c-1.317.466-2.57 1.101-3.759 1.911zm11.474 13.407c-2.252.496-4.26.353-6.023-.432-1.763-.785-2.832-2.021-3.204-3.71-.388-1.754.052-3.355 1.315-4.801 1.266-1.446 3.07-2.428 5.418-2.945 2.281-.503 4.297-.326 6.051.529 1.721.846 2.77 2.129 3.148 3.852.373 1.693-.088 3.25-1.385 4.669-1.273 1.391-3.047 2.337-5.32 2.838zm-.869-1.801c1.688-.372 3.088-1.064 4.203-2.076 1.225-1.111 1.701-2.282 1.43-3.513-.258-1.171-1.004-2.006-2.238-2.506-1.193-.48-2.574-.547-4.143-.201-1.752.386-3.186 1.088-4.301 2.105-1.217 1.109-1.686 2.307-1.4 3.594.254 1.147 1.021 1.96 2.307 2.438 1.214.448 2.595.5 4.142.159zm-5.629 18.939-.205-3.127c.639-.326 1.588-1.021 2.846-2.083l7.479-6.301-5.807.38c-2.076.135-3.738.427-4.984.877l-.211-3.239c1.412.269 3.1.338 5.059.21l8.494-.556 2.138-2.063.241 3.687c-.714.466-1.643 1.17-2.789 2.112l-8.668 7.168 6.711-.439c2.15-.141 3.904-.439 5.268-.895l.211 3.238c-1.631-.262-3.43-.326-5.395-.199l-5.916.398c-1.759.113-3.25.393-4.472.832z"/>
    </g>
    <path d="M118.824 248.239c-.87 1.422-2.143 2.179-3.82 2.271-1.503.072-3.041-.371-4.616-1.336-1.015-.622-1.896-1.48-2.639-2.582l1.81-2.957c.141.922.338 1.639.591 2.148.336.672.854 1.221 1.553 1.648.769.471 1.561.657 2.377.563.868-.095 1.517-.49 1.945-1.188.445-.729.378-1.787-.204-3.174l-1.667-3.816c-.486-1.545-.388-2.873.292-3.983.799-1.306 1.958-2.024 3.477-2.157 1.398-.125 2.814.251 4.249 1.129.961.588 1.811 1.365 2.551 2.334l-1.67 2.729c-.309-.943-.547-1.563-.716-1.866-.318-.563-.8-1.04-1.443-1.436-.668-.408-1.332-.565-1.987-.471-.688.094-1.216.443-1.587 1.051-.424.69-.343 1.729.244 3.106l1.647 3.851c.461 1.583.333 2.96-.387 4.136zm7.979 6.65-2.056 1.711-6.336-3.07c.682-.697 1.421-1.869 2.219-3.516l1.885-3.893c.592-1.223 1.024-2.467 1.292-3.729l6.582 3.188-1.787 1.352c-.622-.783-1.386-1.395-2.287-1.83-.114-.057-.401-.187-.863-.391l-1.745 3.6 3.924 1.9-1.981 1.257c-.576-.694-1.42-1.343-2.533-1.938l-1.874 3.867c1.475.6 2.386.951 2.734 1.055.93.294 1.872.441 2.826.437zm10.18-2.796c-.521 1.345-1.406 2.081-2.653 2.214-.837.084-2.089-.139-3.757-.666l-.622 1.605c-.317.814-.562 1.873-.737 3.175l-2.744-1.063c.678-.914 1.174-1.771 1.487-2.582l1.971-5.08c.495-1.271.833-2.563 1.019-3.877l3.017 1.174c2.896 1.12 3.904 2.821 3.019 5.1zm-2.118-.538c.272-.703.313-1.359.124-1.974-.216-.687-.697-1.172-1.44-1.461l-.725-.28-1.902 4.899c1.013.329 1.802.438 2.369.327.713-.142 1.239-.647 1.574-1.511zm13.223.008-1.187 1.732c-.57-.455-1.076-.79-1.521-1.004-.351-.169-.926-.373-1.723-.611l-1.933 6.616c-.504 1.726-.746 3.088-.723 4.089l-2.827-.824c.539-.74 1.079-2.041 1.622-3.898l1.915-6.553c-.942-.215-1.646-.357-2.111-.436-.774-.117-1.482-.162-2.128-.135l1.25-1.713 9.366 2.737zm.07 11.356-.101.274-1.406.895-.23-.053-1.145-1.381.049-.213 1.491-.932.22.051 1.122 1.359zm20.244-2.183c-.146 1.695-.849 3.133-2.105 4.31-1.339 1.269-2.921 1.824-4.747 1.667-1.68-.145-2.97-.816-3.871-2.016-.9-1.198-1.271-2.73-1.11-4.598.202-2.345 1.158-4.484 2.871-6.424 1.663-1.875 3.671-3.148 6.02-3.828.357.117.759.318 1.208.604l1.107.683-.311.488c-1.48-.039-3.004.553-4.572 1.776-1.569 1.224-2.569 2.574-3.002 4.052.866-.646 1.388-1.019 1.565-1.122.833-.499 1.567-.723 2.205-.667 1.514.131 2.712.668 3.595 1.612.883.948 1.265 2.1 1.147 3.463zm-2.667 1.088c.079-.914-.211-1.713-.869-2.397-.619-.661-1.362-1.028-2.232-1.104-.879-.076-1.607.102-2.182.532-.63.455-.985 1.141-1.064 2.055-.073.847.245 1.57.953 2.17.638.545 1.425.857 2.356.938.849.072 1.55-.084 2.106-.474.556-.387.866-.961.932-1.72zm5.687 4.263c-.009.567-.129 1.077-.362 1.524-.128.25-.4.642-.815 1.174-.306.247-.695.482-1.168.703l-.381-.262c.567-.957.854-1.606.859-1.947.009-.573-.307-1.075-.948-1.508l.003-.237 1.374-1.271c.967.641 1.446 1.251 1.438 1.824zm15.23-.515-2.14 1.078-.504.059-1.528-12.373c-.056-.495-.38-.709-.974-.643-.471.053-1.396.27-2.776.648l-.507-.428.23-2.313 5.592-2.103.699.188 1.041 9.996c.161 1.43.449 3.393.867 5.891zm14.72-8.461c.369 1.57.061 3.068-.933 4.496-1.013 1.473-2.458 2.429-4.336 2.869-1.449.34-2.696.198-3.741-.418-1.044-.619-1.718-1.574-2.021-2.869-.373-1.588.246-3.185 1.854-4.783-1.533-.293-2.482-1.059-2.849-2.295-.415-1.447-.166-2.834.745-4.16.912-1.326 2.146-2.172 3.709-2.538 1.357-.317 2.482-.241 3.375.231.893.472 1.477 1.295 1.75 2.474.191.815.086 1.628-.316 2.434-.208.399-.615.955-1.225 1.669 1.09.146 1.908.381 2.457.704.786.458 1.298 1.186 1.531 2.186zm-4.913-5.867c-.16-.59-.518-1.016-1.068-1.273-.553-.26-1.17-.31-1.85-.15-.588.14-1.074.438-1.459.896-.385.459-.521.939-.401 1.439.253 1.076 1.485 1.654 3.698 1.732.418-.268.732-.66.951-1.18.215-.519.258-1.006.129-1.464zm2.435 7.561c-.286-1.224-1.886-1.885-4.794-1.98-1.042 1.111-1.445 2.174-1.21 3.179.17.722.597 1.256 1.28 1.604.686.352 1.461.424 2.33.221.795-.188 1.435-.563 1.916-1.131.481-.571.64-1.202.478-1.893zm13.535-5.944c.626 1.711.233 3.701-1.179 5.973-.576.93-1.563 1.65-2.961 2.164-1.545.566-3.017.579-4.406.039.037-.991.035-2.035-.01-3.133l.576-.211c.838.92 2.022 1.1 3.557.537.707-.258 1.277-.629 1.715-1.111.777-.857 1.018-1.689.723-2.496-.289-.788-.898-1.282-1.83-1.482-.809-.172-1.654-.095-2.539.229-.421.155-.863.374-1.328.659l-.392-.25-.065-1.971c.797-.332 1.453-.819 1.969-1.463.604-.736.781-1.441.537-2.113-.481-1.316-1.563-1.693-3.235-1.133-.994.344-1.759.981-2.287 1.916l-.521.002-.23-2.599c.911-.896 1.93-1.544 3.055-1.946 1.098-.392 2.139-.474 3.127-.244 1.137.268 1.892.905 2.262 1.92.271.74.285 1.521.039 2.348-.229.738-.627 1.38-1.186 1.927 2.412-.168 3.951.645 4.609 2.438zm9.663-10.168c1.082 2.1 1.41 4.422.988 6.965-.418 2.486-1.438 4.635-3.063 6.445-.366.09-.813.139-1.338.146-.436.004-.87.003-1.311-.003l.004-.578c1.274-.754 2.25-2.076 2.932-3.966.673-1.854.797-3.528.367-5.024-.391 1.006-.631 1.605-.721 1.795-.443.857-.951 1.435-1.52 1.728-1.352.694-2.65.881-3.896.558-1.244-.324-2.184-1.099-2.813-2.32-.775-1.51-.949-3.094-.52-4.75.461-1.783 1.508-3.097 3.135-3.935 1.5-.771 2.953-.892 4.356-.354 1.412.528 2.543 1.627 3.4 3.293zm-2.838.809c-.387-.752-1.034-1.195-1.942-1.329-.83-.118-1.66.035-2.493.463-.757.39-1.27.896-1.531 1.519-.266.623-.224 1.275.129 1.957.412.805 1.082 1.322 2.008 1.559.867.221 1.689.13 2.467-.271.785-.401 1.311-.936 1.572-1.596.281-.715.212-1.482-.21-2.302z"/>
    <path stroke="#000" stroke-miterlimit="10" stroke-width=".5" d="M242.608 227.725c.662.693 1.243 1.446 1.739 2.266.498.814.827 1.656.995 2.531.164.873.119 1.756-.133 2.648-.252.895-.795 1.751-1.631 2.578-.302.295-.615.529-.953.706-.334.175-.662.29-.979.342-.317.054-.621.041-.909-.037-.287-.077-.531-.225-.736-.438-.184-.189-.283-.443-.303-.758-.021-.313.096-.594.346-.838.22-.217.459-.33.713-.334.257-.004.486.101.693.313.088.098.149.206.182.331.035.124.078.218.142.283.142.146.349.188.617.113.272-.066.522-.219.752-.442.519-.513.828-1.058.933-1.638.104-.582.059-1.184-.14-1.806-.199-.621-.526-1.256-.989-1.901-.46-.642-.994-1.283-1.607-1.924l-2.885-3.021c-.326-.344-.615-.611-.863-.813-.248-.199-.34246-.42252-.57046-.49752-.72777-.59876-1.09951-.20436-1.54333.11973.16248.16739-.55169.87061-.74265.68306l-.41916-.41167c-.025-.032-.053-.1-.067-.196-.015-.098.053-.22.198-.365l2.2386-2.1756c.393-.385.752-.77 1.087-1.148.329-.383.662-.756.987-1.123.07-.066.146-.094.232-.076.088.021.16.063.223.129.063.063.103.141.123.232.02.091.002.18-.06.26-.269.348-.474.641-.614.875-.144.233-.218.451-.222.649-.003.201.074.417.229.647.15.23.396.525.731.878z"/>
  </g>
  <path d="M0 281v281h936V0H0v281zM22 4.2v3.2l3.3-3.2c3-3 3.8-3.2 10-3.2 4.6 0 6.7.4 6.7 1.2C42 3.9 24.9 21 23.3 21c-.8 0-1.3-1.2-1.3-3 0-1.7-.5-3-1.2-3C19.1 15 8 3.9 8 2.3 8 1.4 10 1 15 1h7v3.2zm43-2c0 .7-4.2 5.4-9.2 10.5L46.5 22h-6.2c-4.3 0-6.3-.4-6.3-1.2 0-.7 4.2-5.4 9.2-10.5L52.5 1h6.2C63 1 65 1.4 65 2.2zm24 0c0 .7-4.2 5.4-9.2 10.5L70.5 22h-6.7c-4.7 0-6.8-.4-6.8-1.2 0-.7 4.2-5.4 9.2-10.5L75.5 1h6.7c4.7 0 6.8.4 6.8 1.2zm24 0c0 .7-4.2 5.4-9.2 10.5L94.5 22h-6.7c-4.7 0-6.8-.4-6.8-1.2 0-.7 4.2-5.4 9.2-10.5L99.5 1h6.7c4.7 0 6.8.4 6.8 1.2zm24 0c0 .7-4.2 5.4-9.2 10.5l-9.3 9.3h-6.7c-4.7 0-6.8-.4-6.8-1.2 0-.7 4.2-5.4 9.2-10.5l9.3-9.3h6.7c4.7 0 6.8.4 6.8 1.2zm23 0c0 .7-4.2 5.4-9.2 10.5l-9.3 9.3h-6.2c-4.3 0-6.3-.4-6.3-1.2 0-.7 4.2-5.4 9.2-10.5l9.3-9.3h6.2c4.3 0 6.3.4 6.3 1.2zm24 0c0 .7-4.2 5.4-9.2 10.5l-9.3 9.3h-6.7c-4.7 0-6.8-.4-6.8-1.2 0-.7 4.2-5.4 9.2-10.5l9.3-9.3h6.7c4.7 0 6.8.4 6.8 1.2zm24 0c0 .7-4.2 5.4-9.2 10.5l-9.3 9.3h-6.7c-4.7 0-6.8-.4-6.8-1.2 0-.7 4.2-5.4 9.2-10.5l9.3-9.3h6.7c4.7 0 6.8.4 6.8 1.2zm24 0c0 .7-4.2 5.4-9.2 10.5l-9.3 9.3h-6.7c-4.7 0-6.8-.4-6.8-1.2 0-.7 4.2-5.4 9.2-10.5l9.3-9.3h6.7c4.7 0 6.8.4 6.8 1.2zm23 0c0 .7-4.2 5.4-9.2 10.5l-9.3 9.3h-6.2c-4.3 0-6.3-.4-6.3-1.2 0-.7 4.2-5.4 9.2-10.5l9.3-9.3h6.2c4.3 0 6.3.4 6.3 1.2zm24 0c0 .7-4.2 5.4-9.2 10.5l-9.3 9.3h-6.7c-4.7 0-6.8-.4-6.8-1.2 0-.7 4.2-5.4 9.2-10.5l9.3-9.3h6.7c4.7 0 6.8.4 6.8 1.2zm24 0c0 .7-4.2 5.4-9.2 10.5l-9.3 9.3h-6.7c-4.7 0-6.8-.4-6.8-1.2 0-.7 4.2-5.4 9.2-10.5l9.3-9.3h6.7c4.7 0 6.8.4 6.8 1.2zm24 0c0 .7-4.2 5.4-9.2 10.5l-9.3 9.3h-6.7c-4.7 0-6.8-.4-6.8-1.2 0-.7 4.2-5.4 9.2-10.5l9.3-9.3h6.7c4.7 0 6.8.4 6.8 1.2zm23 0c0 .7-4.2 5.4-9.2 10.5l-9.3 9.3h-6.2c-4.3 0-6.3-.4-6.3-1.2 0-.7 4.2-5.4 9.2-10.5l9.3-9.3h6.2c4.3 0 6.3.4 6.3 1.2zm24 0c0 .7-4.2 5.4-9.2 10.5l-9.3 9.3h-6.7c-4.7 0-6.8-.4-6.8-1.2 0-.7 4.2-5.4 9.2-10.5l9.3-9.3h6.7c4.7 0 6.8.4 6.8 1.2zm23 0c0 .7-4.2 5.4-9.2 10.5l-9.3 9.3h-6.2c-4.3 0-6.3-.4-6.3-1.2 0-.7 4.2-5.4 9.2-10.5l9.3-9.3h6.2c4.3 0 6.3.4 6.3 1.2zm24 0c0 .7-4.2 5.4-9.2 10.5l-9.3 9.3h-6.7c-4.7 0-6.8-.4-6.8-1.2 0-.7 4.2-5.4 9.2-10.5l9.3-9.3h6.7c4.7 0 6.8.4 6.8 1.2zm23 0c0 .7-4.2 5.4-9.2 10.5l-9.3 9.3h-6.2c-4.3 0-6.3-.4-6.3-1.2 0-.7 4.2-5.4 9.2-10.5l9.3-9.3h6.2c4.3 0 6.3.4 6.3 1.2zm24 0c0 .7-4.2 5.4-9.2 10.5l-9.3 9.3h-6.7c-4.7 0-6.8-.4-6.8-1.2 0-.7 4.2-5.4 9.2-10.5l9.3-9.3h6.7c4.7 0 6.8.4 6.8 1.2zm24 0c0 .7-4.2 5.4-9.2 10.5l-9.3 9.3h-6.7c-4.7 0-6.8-.4-6.8-1.2 0-.7 4.2-5.4 9.2-10.5l9.3-9.3h6.7c4.7 0 6.8.4 6.8 1.2zm24 0c0 .7-4.2 5.4-9.2 10.5l-9.3 9.3h-6.7c-4.7 0-6.8-.4-6.8-1.2 0-.7 4.2-5.4 9.2-10.5l9.3-9.3h6.7c4.7 0 6.8.4 6.8 1.2zm23 0c0 .7-4.2 5.4-9.2 10.5l-9.3 9.3h-6.2c-4.3 0-6.3-.4-6.3-1.2 0-.7 4.2-5.4 9.2-10.5l9.3-9.3h6.2c4.3 0 6.3.4 6.3 1.2zm24 0c0 .7-4.2 5.4-9.2 10.5l-9.3 9.3h-6.7c-4.7 0-6.8-.4-6.8-1.2 0-.7 4.2-5.4 9.2-10.5l9.3-9.3h6.7c4.7 0 6.8.4 6.8 1.2zm24 0c0 .7-4.2 5.4-9.2 10.5l-9.3 9.3h-6.7c-4.7 0-6.8-.4-6.8-1.2 0-.7 4.2-5.4 9.2-10.5l9.3-9.3h6.7c4.7 0 6.8.4 6.8 1.2zm24 0c0 .7-4.2 5.4-9.2 10.5l-9.3 9.3h-6.7c-4.7 0-6.8-.4-6.8-1.2 0-.7 4.2-5.4 9.2-10.5l9.3-9.3h6.7c4.7 0 6.8.4 6.8 1.2zm23 0c0 .7-4.2 5.4-9.2 10.5l-9.3 9.3h-6.2c-4.3 0-6.3-.4-6.3-1.2 0-.7 4.2-5.4 9.2-10.5l9.3-9.3h6.2c4.3 0 6.3.4 6.3 1.2zm24 0c0 .7-4.2 5.4-9.2 10.5l-9.3 9.3h-6.7c-4.7 0-6.8-.4-6.8-1.2 0-.7 4.2-5.4 9.2-10.5l9.3-9.3h6.7c4.7 0 6.8.4 6.8 1.2zm24 0c0 .7-4.2 5.4-9.2 10.5l-9.3 9.3h-6.7c-4.7 0-6.8-.4-6.8-1.2 0-.7 4.2-5.4 9.2-10.5l9.3-9.3h6.7c4.7 0 6.8.4 6.8 1.2zm24 0c0 .7-4.2 5.4-9.2 10.5l-9.3 9.3h-6.7c-4.7 0-6.8-.4-6.8-1.2 0-.7 4.2-5.4 9.2-10.5l9.3-9.3h6.7c4.7 0 6.8.4 6.8 1.2zm23 0c0 .7-4.2 5.4-9.2 10.5l-9.3 9.3h-6.2c-4.3 0-6.3-.4-6.3-1.2 0-.7 4.2-5.4 9.2-10.5l9.3-9.3h6.2c4.3 0 6.3.4 6.3 1.2zm24 0c0 .7-4.2 5.4-9.2 10.5l-9.3 9.3h-6.7c-4.7 0-6.8-.4-6.8-1.2 0-.7 4.2-5.4 9.2-10.5l9.3-9.3h6.7c4.7 0 6.8.4 6.8 1.2zm21 0c0 .7-4.2 5.4-9.2 10.5l-9.3 9.3h-5.2c-3.5 0-5.3-.4-5.3-1.2 0-.7 4.2-5.4 9.2-10.5l9.3-9.3h5.2c3.5 0 5.3.4 5.3 1.2zm24 0c0 .7-4.2 5.4-9.2 10.5l-9.3 9.3h-6.7c-4.7 0-6.8-.4-6.8-1.2 0-.7 4.2-5.4 9.2-10.5l9.3-9.3h6.7c4.7 0 6.8.4 6.8 1.2zm23 0c0 .7-4.2 5.4-9.2 10.5l-9.3 9.3h-6.2c-4.3 0-6.3-.4-6.3-1.2 0-.7 4.2-5.4 9.2-10.5l9.3-9.3h6.2c4.3 0 6.3.4 6.3 1.2zm24 0c0 .7-4.2 5.4-9.2 10.5l-9.3 9.3h-6.7c-4.7 0-6.8-.4-6.8-1.2 0-.7 4.2-5.4 9.2-10.5l9.3-9.3h6.7c4.7 0 6.8.4 6.8 1.2zm24 0c0 .7-4.2 5.4-9.2 10.5l-9.3 9.3h-6.7c-4.7 0-6.8-.4-6.8-1.2 0-.7 4.2-5.4 9.2-10.5l9.3-9.3h6.7c4.7 0 6.8.4 6.8 1.2zm24 0c0 .7-4.2 5.4-9.2 10.5l-9.3 9.3h-6.7c-4.7 0-6.8-.4-6.8-1.2 0-.7 4.2-5.4 9.2-10.5l9.3-9.3h6.7c4.7 0 6.8.4 6.8 1.2zm23 0c0 .7-4.2 5.4-9.2 10.5l-9.3 9.3h-6.2c-4.3 0-6.3-.4-6.3-1.2 0-.7 4.2-5.4 9.2-10.5l9.3-9.3h6.2c4.3 0 6.3.4 6.3 1.2zm18 3c0 3.9-.6 4.8-6.2 10.5-3.4 3.5-5.6 6.3-4.8 6.3.8 0 3.8 2.3 6.7 5.2 5.3 5.2 5.3 5.3 5.3 11.5 0 4.3-.4 6.3-1.2 6.3-2.3 0-19.8-18.3-19.8-20.7 0-1.9-.5-2.3-3-2.3-1.7 0-3-.5-3-1.2s4.2-5.4 9.2-10.5c8.4-8.5 9.6-9.3 13-9.3 3.8 0 3.8 0 3.8 4.2zm-921.3 11 9.3 9.3v6.7c0 4.7-.4 6.8-1.2 6.8-.7 0-5.4-4.2-10.5-9.2L1 20.5v-6.7C1 9.1 1.4 7 2.2 7c.7 0 5.4 4.2 10.5 9.2zM913 281v258H23V23h890v258zM12.7 40.2l9.3 9.3v6.2c0 4.3-.4 6.3-1.2 6.3-.7 0-5.4-4.2-10.5-9.2L1 43.5v-6.2C1 33 1.4 31 2.2 31c.7 0 5.4 4.2 10.5 9.2zm913 6 9.3 9.3v6.7c0 4.7-.4 6.8-1.2 6.8-.7 0-5.4-4.2-10.5-9.2l-9.3-9.3v-6.7c0-4.7.4-6.8 1.2-6.8.7 0 5.4 4.2 10.5 9.2zm-913 17 9.3 9.3v6.7c0 4.7-.4 6.8-1.2 6.8-.7 0-5.4-4.2-10.5-9.2L1 67.5v-6.7c0-4.7.4-6.8 1.2-6.8.7 0 5.4 4.2 10.5 9.2zm913 7 9.3 9.3v6.7c0 4.7-.4 6.8-1.2 6.8-.7 0-5.4-4.2-10.5-9.2l-9.3-9.3v-6.7c0-4.7.4-6.8 1.2-6.8.7 0 5.4 4.2 10.5 9.2zm-913 17 9.3 9.3v6.7c0 4.7-.4 6.8-1.2 6.8-.7 0-5.4-4.2-10.5-9.2L1 91.5v-6.7c0-4.7.4-6.8 1.2-6.8.7 0 5.4 4.2 10.5 9.2zm913 7 9.3 9.3v6.7c0 4.7-.4 6.8-1.2 6.8-.7 0-5.4-4.2-10.5-9.2l-9.3-9.3v-6.7c0-4.7.4-6.8 1.2-6.8.7 0 5.4 4.2 10.5 9.2zm-913 17 9.3 9.3v6.7c0 4.7-.4 6.8-1.2 6.8-.7 0-5.4-4.2-10.5-9.2L1 115.5v-6.7c0-4.7.4-6.8 1.2-6.8.7 0 5.4 4.2 10.5 9.2zm913 7 9.3 9.3v6.2c0 4.3-.4 6.3-1.2 6.3-.7 0-5.4-4.2-10.5-9.2l-9.3-9.3v-6.2c0-4.3.4-6.3 1.2-6.3.7 0 5.4 4.2 10.5 9.2zm-913 17 9.3 9.3v6.2c0 4.3-.4 6.3-1.2 6.3-.7 0-5.4-4.2-10.5-9.2L1 138.5v-6.2c0-4.3.4-6.3 1.2-6.3.7 0 5.4 4.2 10.5 9.2zm913 6 9.3 9.3v6.7c0 4.7-.4 6.8-1.2 6.8-.7 0-5.4-4.2-10.5-9.2l-9.3-9.3v-6.7c0-4.7.4-6.8 1.2-6.8.7 0 5.4 4.2 10.5 9.2zm-913 17 9.3 9.3v6.7c0 4.7-.4 6.8-1.2 6.8-.7 0-5.4-4.2-10.5-9.2L1 162.5v-6.7c0-4.7.4-6.8 1.2-6.8.7 0 5.4 4.2 10.5 9.2zm913 7 9.3 9.3v6.7c0 4.7-.4 6.8-1.2 6.8-.7 0-5.4-4.2-10.5-9.2l-9.3-9.3v-6.7c0-4.7.4-6.8 1.2-6.8.7 0 5.4 4.2 10.5 9.2zm-913 17 9.3 9.3v6.2c0 4.3-.4 6.3-1.2 6.3-.7 0-5.4-4.2-10.5-9.2L1 185.5v-6.2c0-4.3.4-6.3 1.2-6.3.7 0 5.4 4.2 10.5 9.2zm913 7 9.3 9.3v6.7c0 4.7-.4 6.8-1.2 6.8-.7 0-5.4-4.2-10.5-9.2l-9.3-9.3v-6.7c0-4.7.4-6.8 1.2-6.8.7 0 5.4 4.2 10.5 9.2zm-913 16 9.3 9.3v6.7c0 4.7-.4 6.8-1.2 6.8-.7 0-5.4-4.2-10.5-9.2L1 209.5v-6.7c0-4.7.4-6.8 1.2-6.8.7 0 5.4 4.2 10.5 9.2zm913 8 9.3 9.3v6.2c0 4.3-.4 6.3-1.2 6.3-.7 0-5.4-4.2-10.5-9.2l-9.3-9.3v-6.2c0-4.3.4-6.3 1.2-6.3.7 0 5.4 4.2 10.5 9.2zm-913 16 9.3 9.3v6.2c0 4.3-.4 6.3-1.2 6.3-.7 0-5.4-4.2-10.5-9.2L1 232.5v-6.2c0-4.3.4-6.3 1.2-6.3.7 0 5.4 4.2 10.5 9.2zm913 7 9.3 9.3v6.7c0 4.7-.4 6.8-1.2 6.8-.7 0-5.4-4.2-10.5-9.2l-9.3-9.3v-6.7c0-4.7.4-6.8 1.2-6.8.7 0 5.4 4.2 10.5 9.2zm-913 16 9.3 9.3v6.7c0 4.7-.4 6.8-1.2 6.8-.7 0-5.4-4.2-10.5-9.2L1 256.5v-6.7c0-4.7.4-6.8 1.2-6.8.7 0 5.4 4.2 10.5 9.2zm913 8 9.3 9.3v6.2c0 4.3-.4 6.3-1.2 6.3-.7 0-5.4-4.2-10.5-9.2l-9.3-9.3v-6.2c0-4.3.4-6.3 1.2-6.3.7 0 5.4 4.2 10.5 9.2zm-913 16 9.3 9.3v6.7c0 4.7-.4 6.8-1.2 6.8-.7 0-5.4-4.2-10.5-9.2L1 280.5v-6.7c0-4.7.4-6.8 1.2-6.8.7 0 5.4 4.2 10.5 9.2zm913 7 9.3 9.3v6.7c0 4.7-.4 6.8-1.2 6.8-.7 0-5.4-4.2-10.5-9.2l-9.3-9.3v-6.7c0-4.7.4-6.8 1.2-6.8.7 0 5.4 4.2 10.5 9.2zm-913 17 9.3 9.3v6.7c0 4.7-.4 6.8-1.2 6.8-.7 0-5.4-4.2-10.5-9.2L1 304.5v-6.7c0-4.7.4-6.8 1.2-6.8.7 0 5.4 4.2 10.5 9.2zm913 7 9.3 9.3v6.2c0 4.3-.4 6.3-1.2 6.3-.7 0-5.4-4.2-10.5-9.2l-9.3-9.3v-6.2c0-4.3.4-6.3 1.2-6.3.7 0 5.4 4.2 10.5 9.2zm-913 17 9.3 9.3v6.2c0 4.3-.4 6.3-1.2 6.3-.7 0-5.4-4.2-10.5-9.2L1 327.5v-6.2c0-4.3.4-6.3 1.2-6.3.7 0 5.4 4.2 10.5 9.2zm913 6 9.3 9.3v6.7c0 4.7-.4 6.8-1.2 6.8-.7 0-5.4-4.2-10.5-9.2l-9.3-9.3v-6.7c0-4.7.4-6.8 1.2-6.8.7 0 5.4 4.2 10.5 9.2zm-913 17 9.3 9.3v6.7c0 4.7-.4 6.8-1.2 6.8-.7 0-5.4-4.2-10.5-9.2L1 351.5v-6.7c0-4.7.4-6.8 1.2-6.8.7 0 5.4 4.2 10.5 9.2zm913 7 9.3 9.3v6.7c0 4.7-.4 6.8-1.2 6.8-.7 0-5.4-4.2-10.5-9.2l-9.3-9.3v-6.7c0-4.7.4-6.8 1.2-6.8.7 0 5.4 4.2 10.5 9.2zm-913 17 9.3 9.3v6.7c0 4.7-.4 6.8-1.2 6.8-.7 0-5.4-4.2-10.5-9.2L1 375.5v-6.7c0-4.7.4-6.8 1.2-6.8.7 0 5.4 4.2 10.5 9.2zm913 7 9.3 9.3v6.7c0 4.7-.4 6.8-1.2 6.8-.7 0-5.4-4.2-10.5-9.2l-9.3-9.3v-6.7c0-4.7.4-6.8 1.2-6.8.7 0 5.4 4.2 10.5 9.2zm-913 17 9.3 9.3v6.7c0 4.7-.4 6.8-1.2 6.8-.7 0-5.4-4.2-10.5-9.2L1 399.5v-6.7c0-4.7.4-6.8 1.2-6.8.7 0 5.4 4.2 10.5 9.2zm913 7 9.3 9.3v6.2c0 4.3-.4 6.3-1.2 6.3-.7 0-5.4-4.2-10.5-9.2l-9.3-9.3v-6.2c0-4.3.4-6.3 1.2-6.3.7 0 5.4 4.2 10.5 9.2zm-913 17 9.3 9.3v6.2c0 4.3-.4 6.3-1.2 6.3-.7 0-5.4-4.2-10.5-9.2L1 422.5v-6.2c0-4.3.4-6.3 1.2-6.3.7 0 5.4 4.2 10.5 9.2zm913 6 9.3 9.3v6.7c0 4.7-.4 6.8-1.2 6.8-.7 0-5.4-4.2-10.5-9.2l-9.3-9.3v-6.7c0-4.7.4-6.8 1.2-6.8.7 0 5.4 4.2 10.5 9.2zm-913 17 9.3 9.3v6.7c0 4.7-.4 6.8-1.2 6.8-.7 0-5.4-4.2-10.5-9.2L1 446.5v-6.7c0-4.7.4-6.8 1.2-6.8.7 0 5.4 4.2 10.5 9.2zm913 7 9.3 9.3v6.7c0 4.7-.4 6.8-1.2 6.8-.7 0-5.4-4.2-10.5-9.2l-9.3-9.3v-6.7c0-4.7.4-6.8 1.2-6.8.7 0 5.4 4.2 10.5 9.2zm-913 17 9.3 9.3v6.7c0 4.7-.4 6.8-1.2 6.8-.7 0-5.4-4.2-10.5-9.2L1 470.5v-6.7c0-4.7.4-6.8 1.2-6.8.7 0 5.4 4.2 10.5 9.2zm913 7 9.3 9.3v6.7c0 4.7-.4 6.8-1.2 6.8-.7 0-5.4-4.2-10.5-9.2l-9.3-9.3v-6.7c0-4.7.4-6.8 1.2-6.8.7 0 5.4 4.2 10.5 9.2zm-913 17 9.3 9.3v6.7c0 4.7-.4 6.8-1.2 6.8-.7 0-5.4-4.2-10.5-9.2L1 494.5v-6.7c0-4.7.4-6.8 1.2-6.8.7 0 5.4 4.2 10.5 9.2zm913 7 9.3 9.3v6.2c0 4.3-.4 6.3-1.2 6.3-.7 0-5.4-4.2-10.5-9.2l-9.3-9.3v-6.2c0-4.3.4-6.3 1.2-6.3.7 0 5.4 4.2 10.5 9.2zm-913 17 9.3 9.3v6.2c0 4.3-.4 6.3-1.2 6.3-.7 0-5.4-4.2-10.5-9.2L1 517.5v-6.2c0-4.3.4-6.3 1.2-6.3.7 0 5.4 4.2 10.5 9.2zm913 6 9.3 9.3v6.7c0 4.7-.4 6.8-1.2 6.8-.7 0-5.4-4.2-10.5-9.2l-9.3-9.3v-6.7c0-4.7.4-6.8 1.2-6.8.7 0 5.4 4.2 10.5 9.2zm0 24c8.5 8.4 9.3 9.6 9.3 13 0 3.8 0 3.8-4.2 3.8-3.9 0-4.8-.6-10.5-6.2l-6.3-6.2v3.5c0 2.6-.8 4.3-2.8 6.2-2.4 2.3-3.6 2.7-9 2.7-4.2 0-6.2-.4-6.2-1.2 0-1.7 15.1-16.8 16.7-16.8.8 0 1.3-1.4 1.3-4 0-2.5.5-4 1.2-4s5.4 4.2 10.5 9.2zm-897.7-3c0 .7-4.2 5.4-9.2 10.5-8.8 8.8-9.5 9.3-13.5 9.3-4.3 0-4.3 0-4.3-3.7 0-3.3.8-4.6 6.7-10.5l6.7-6.8h6.8c4.7 0 6.8.4 6.8 1.2zm23 0c0 .7-4.2 5.4-9.2 10.5l-9.3 9.3h-6.2c-4.3 0-6.3-.4-6.3-1.2 0-.7 4.2-5.4 9.2-10.5l9.3-9.3h6.2c4.3 0 6.3.4 6.3 1.2zm24 0c0 .7-4.2 5.4-9.2 10.5l-9.3 9.3h-6.7c-4.7 0-6.8-.4-6.8-1.2 0-.7 4.2-5.4 9.2-10.5l9.3-9.3h6.7c4.7 0 6.8.4 6.8 1.2zm23 0c0 .7-4.2 5.4-9.2 10.5l-9.3 9.3h-6.2c-4.3 0-6.3-.4-6.3-1.2 0-.7 4.2-5.4 9.2-10.5l9.3-9.3h6.2c4.3 0 6.3.4 6.3 1.2zm24 0c0 .7-4.2 5.4-9.2 10.5l-9.3 9.3h-6.7c-4.7 0-6.8-.4-6.8-1.2 0-.7 4.2-5.4 9.2-10.5l9.3-9.3h6.7c4.7 0 6.8.4 6.8 1.2zm23 0c0 .7-4.2 5.4-9.2 10.5l-9.3 9.3h-6.2c-4.3 0-6.3-.4-6.3-1.2 0-.7 4.2-5.4 9.2-10.5l9.3-9.3h6.2c4.3 0 6.3.4 6.3 1.2zm24 0c0 .7-4.2 5.4-9.2 10.5l-9.3 9.3h-6.7c-4.7 0-6.8-.4-6.8-1.2 0-.7 4.2-5.4 9.2-10.5l9.3-9.3h6.7c4.7 0 6.8.4 6.8 1.2zm24 0c0 .7-4.2 5.4-9.2 10.5l-9.3 9.3h-6.7c-4.7 0-6.8-.4-6.8-1.2 0-.7 4.2-5.4 9.2-10.5l9.3-9.3h6.7c4.7 0 6.8.4 6.8 1.2zm24 0c0 .7-4.2 5.4-9.2 10.5l-9.3 9.3h-6.7c-4.7 0-6.8-.4-6.8-1.2 0-.7 4.2-5.4 9.2-10.5l9.3-9.3h6.7c4.7 0 6.8.4 6.8 1.2zm23 0c0 .7-4.2 5.4-9.2 10.5l-9.3 9.3h-6.2c-4.3 0-6.3-.4-6.3-1.2 0-.7 4.2-5.4 9.2-10.5l9.3-9.3h6.2c4.3 0 6.3.4 6.3 1.2zm24 0c0 .7-4.2 5.4-9.2 10.5l-9.3 9.3h-6.7c-4.7 0-6.8-.4-6.8-1.2 0-.7 4.2-5.4 9.2-10.5l9.3-9.3h6.7c4.7 0 6.8.4 6.8 1.2zm24 0c0 .7-4.2 5.4-9.2 10.5l-9.3 9.3h-6.7c-4.7 0-6.8-.4-6.8-1.2 0-.7 4.2-5.4 9.2-10.5l9.3-9.3h6.7c4.7 0 6.8.4 6.8 1.2zm24 0c0 .7-4.2 5.4-9.2 10.5l-9.3 9.3h-6.7c-4.7 0-6.8-.4-6.8-1.2 0-.7 4.2-5.4 9.2-10.5l9.3-9.3h6.7c4.7 0 6.8.4 6.8 1.2zm23 0c0 .7-4.2 5.4-9.2 10.5l-9.3 9.3h-6.2c-4.3 0-6.3-.4-6.3-1.2 0-.7 4.2-5.4 9.2-10.5l9.3-9.3h6.2c4.3 0 6.3.4 6.3 1.2zm24 0c0 .7-4.2 5.4-9.2 10.5l-9.3 9.3h-6.7c-4.7 0-6.8-.4-6.8-1.2 0-.7 4.2-5.4 9.2-10.5l9.3-9.3h6.7c4.7 0 6.8.4 6.8 1.2zm24 0c0 .7-4.2 5.4-9.2 10.5l-9.3 9.3h-6.7c-4.7 0-6.8-.4-6.8-1.2 0-.7 4.2-5.4 9.2-10.5l9.3-9.3h6.7c4.7 0 6.8.4 6.8 1.2zm24 0c0 .7-4.2 5.4-9.2 10.5l-9.3 9.3h-6.7c-4.7 0-6.8-.4-6.8-1.2 0-.7 4.2-5.4 9.2-10.5l9.3-9.3h6.7c4.7 0 6.8.4 6.8 1.2zm23 0c0 .7-4.2 5.4-9.2 10.5l-9.3 9.3h-6.2c-4.3 0-6.3-.4-6.3-1.2 0-.7 4.2-5.4 9.2-10.5l9.3-9.3h6.2c4.3 0 6.3.4 6.3 1.2zm24 0c0 .7-4.2 5.4-9.2 10.5l-9.3 9.3h-6.7c-4.7 0-6.8-.4-6.8-1.2 0-.7 4.2-5.4 9.2-10.5l9.3-9.3h6.7c4.7 0 6.8.4 6.8 1.2zm24 0c0 .7-4.2 5.4-9.2 10.5l-9.3 9.3h-6.7c-4.7 0-6.8-.4-6.8-1.2 0-.7 4.2-5.4 9.2-10.5l9.3-9.3h6.7c4.7 0 6.8.4 6.8 1.2zm23 0c0 .7-4.2 5.4-9.2 10.5l-9.3 9.3h-6.7c-4.7 0-6.8-.4-6.8-1.2 0-.7 4.2-5.4 9.2-10.5l9.3-9.3h6.7c4.7 0 6.8.4 6.8 1.2zm24 0c0 .7-4.2 5.4-9.2 10.5l-9.3 9.3h-6.7c-4.7 0-6.8-.4-6.8-1.2 0-.7 4.2-5.4 9.2-10.5l9.3-9.3h6.7c4.7 0 6.8.4 6.8 1.2zm23 0c0 .7-4.2 5.4-9.2 10.5l-9.3 9.3h-6.2c-4.3 0-6.3-.4-6.3-1.2 0-.7 4.2-5.4 9.2-10.5l9.3-9.3h6.2c4.3 0 6.3.4 6.3 1.2zm24 0c0 .7-4.2 5.4-9.2 10.5l-9.3 9.3h-6.7c-4.7 0-6.8-.4-6.8-1.2 0-.7 4.2-5.4 9.2-10.5l9.3-9.3h6.7c4.7 0 6.8.4 6.8 1.2zm23 0c0 .7-4.2 5.4-9.2 10.5l-9.3 9.3h-6.2c-4.3 0-6.3-.4-6.3-1.2 0-.7 4.2-5.4 9.2-10.5l9.3-9.3h6.2c4.3 0 6.3.4 6.3 1.2zm24 0c0 .7-4.2 5.4-9.2 10.5l-9.3 9.3h-6.7c-4.7 0-6.8-.4-6.8-1.2 0-.7 4.2-5.4 9.2-10.5l9.3-9.3h6.7c4.7 0 6.8.4 6.8 1.2zm23 0c0 .7-4.2 5.4-9.2 10.5l-9.3 9.3h-6.2c-4.3 0-6.3-.4-6.3-1.2 0-.7 4.2-5.4 9.2-10.5l9.3-9.3h6.2c4.3 0 6.3.4 6.3 1.2zm24 0c0 .7-4.2 5.4-9.2 10.5l-9.3 9.3h-6.7c-4.7 0-6.8-.4-6.8-1.2 0-.7 4.2-5.4 9.2-10.5l9.3-9.3h6.7c4.7 0 6.8.4 6.8 1.2zm24 0c0 .7-4.2 5.4-9.2 10.5l-9.3 9.3h-6.7c-4.7 0-6.8-.4-6.8-1.2 0-.7 4.2-5.4 9.2-10.5l9.3-9.3h6.7c4.7 0 6.8.4 6.8 1.2zm24 0c0 .7-4.2 5.4-9.2 10.5l-9.3 9.3h-6.7c-4.7 0-6.8-.4-6.8-1.2 0-.7 4.2-5.4 9.2-10.5l9.3-9.3h6.7c4.7 0 6.8.4 6.8 1.2zm23 0c0 .7-4.2 5.4-9.2 10.5l-9.3 9.3h-6.2c-4.3 0-6.3-.4-6.3-1.2 0-.7 4.2-5.4 9.2-10.5l9.3-9.3h6.2c4.3 0 6.3.4 6.3 1.2zm24 0c0 .7-4.2 5.4-9.2 10.5l-9.3 9.3h-6.7c-4.7 0-6.8-.4-6.8-1.2 0-.7 4.2-5.4 9.2-10.5l9.3-9.3h6.7c4.7 0 6.8.4 6.8 1.2zm24 0c0 .7-4.2 5.4-9.2 10.5l-9.3 9.3h-6.7c-4.7 0-6.8-.4-6.8-1.2 0-.7 4.2-5.4 9.2-10.5l9.3-9.3h6.7c4.7 0 6.8.4 6.8 1.2zm24 0c0 .7-4.2 5.4-9.2 10.5l-9.3 9.3h-6.7c-4.7 0-6.8-.4-6.8-1.2 0-.7 4.2-5.4 9.2-10.5l9.3-9.3h6.7c4.7 0 6.8.4 6.8 1.2zm23 0c0 .7-4.2 5.4-9.2 10.5l-9.3 9.3h-6.2c-4.3 0-6.3-.4-6.3-1.2 0-.7 4.2-5.4 9.2-10.5l9.3-9.3h6.2c4.3 0 6.3.4 6.3 1.2zm24 0c0 .7-4.2 5.4-9.2 10.5l-9.3 9.3h-6.7c-4.7 0-6.8-.4-6.8-1.2 0-.7 4.2-5.4 9.2-10.5l9.3-9.3h6.7c4.7 0 6.8.4 6.8 1.2zm24 0c0 .7-4.2 5.4-9.2 10.5l-9.3 9.3h-6.7c-4.7 0-6.8-.4-6.8-1.2 0-.7 4.2-5.4 9.2-10.5l9.3-9.3h6.7c4.7 0 6.8.4 6.8 1.2zm24 0c0 .7-4.2 5.4-9.2 10.5l-9.3 9.3h-6.7c-4.7 0-6.8-.4-6.8-1.2 0-.7 4.2-5.4 9.2-10.5l9.3-9.3h6.7c4.7 0 6.8.4 6.8 1.2z"/>
  <path d="M824.8 63.1c-.6 2.4-6 20.1-6.4 20.7-.1.2-2.1-.6-4.5-1.6-2.4-1.1-6-2.5-7.9-3.2-1.9-.7-4.5-1.7-5.7-2.3-1.3-.6-2.5-.8-2.8-.6-.2.3 2.2 4.5 5.5 9.4 3.2 4.9 5.7 9.2 5.5 9.6-.5.6-12.6 8-17.2 10.4-2 1.1-.9 1.4 8.9 2.5 6.2.7 11.6 1.4 11.9 1.6.4.2.3 2.1-.2 4.1-.4 2.1-1 6.2-1.3 9.2-.3 3-.8 6.3-1.2 7.3-.3 1.1 3.1-1.6 7.7-6.1 4.5-4.5 8.6-8.1 8.9-8.1.4 0 4 3.6 8 8 4 4.5 7.4 8 7.5 7.8.2-.2-.3-3.9-1.1-8.3-.7-4.4-1.4-9.4-1.4-11.1v-3.1l11.7-1.3 11.6-1.3-3.4-1.7c-1.9-.9-6-3.3-9.1-5.3-3.1-2-6.2-3.7-6.9-3.7-1.6 0-.8-1.6 5.5-10.9 3.2-4.6 5.5-8.5 5.3-8.8-.3-.2-4 .9-8.3 2.6-12.4 4.7-13.2 4.8-14 1.4-.3-1.5-1.9-6.6-3.4-11.2-2.1-6.6-2.8-7.9-3.2-6z"/>
  <path fill="#fcfe04" d="M568.8 72.1c-.6 2.4-6 20.1-6.4 20.7-.1.2-2.1-.6-4.5-1.6-2.4-1.1-6-2.5-7.9-3.2-1.9-.7-4.5-1.7-5.7-2.3-1.3-.6-2.5-.8-2.8-.6-.2.3 2.2 4.5 5.5 9.4 3.2 4.9 5.7 9.2 5.5 9.6-.5.6-12.6 8-17.2 10.4-2 1.1-.9 1.4 8.9 2.5 6.2.7 11.6 1.4 11.9 1.6.4.2.3 2.1-.2 4.1-.4 2.1-1 6.2-1.3 9.2-.3 3-.8 6.3-1.2 7.3-.3 1.1 3.1-1.6 7.7-6.1 4.5-4.5 8.6-8.1 8.9-8.1.4 0 4 3.6 8 8 4 4.5 7.4 8 7.5 7.8.2-.2-.3-3.9-1.1-8.3-.7-4.4-1.4-9.4-1.4-11.1v-3.1l11.7-1.3 11.6-1.3-3.4-1.7c-1.9-.9-6-3.3-9.1-5.3-3.1-2-6.2-3.7-6.9-3.7-1.6 0-.8-1.6 5.5-10.9 3.2-4.6 5.5-8.5 5.3-8.8-.3-.2-4 .9-8.3 2.6-12.4 4.7-13.2 4.8-14 1.4-.3-1.5-1.9-6.6-3.4-11.2-2.1-6.6-2.8-7.9-3.2-6zm-209 2c-.6 2.4-6 20.1-6.4 20.7-.1.2-2.1-.6-4.5-1.6-2.4-1.1-6-2.5-7.9-3.2-1.9-.7-4.5-1.7-5.7-2.3-1.3-.6-2.5-.8-2.8-.6-.2.3 2.2 4.5 5.5 9.4 3.2 4.9 5.7 9.2 5.5 9.6-.5.6-12.6 8-17.2 10.4-2 1.1-.9 1.4 8.9 2.5 6.2.7 11.6 1.4 11.9 1.6.4.2.3 2.1-.2 4.1-.4 2.1-1 6.2-1.3 9.2-.3 3-.8 6.3-1.2 7.3-.3 1.1 3.1-1.6 7.7-6.1 4.5-4.5 8.6-8.1 8.9-8.1.4 0 4 3.6 8 8 4 4.5 7.4 8 7.5 7.8.2-.2-.3-3.9-1.1-8.3-.7-4.4-1.4-9.4-1.4-11.1v-3.1l11.7-1.3 11.6-1.3-3.4-1.7c-1.9-.9-6-3.3-9.1-5.3-3.1-2-6.2-3.7-6.9-3.7-1.6 0-.8-1.6 5.5-10.9 3.2-4.6 5.5-8.5 5.3-8.8-.3-.2-4 .9-8.3 2.6-12.4 4.7-13.2 4.8-14 1.4-.3-1.5-1.9-6.6-3.4-11.2-2.1-6.6-2.8-7.9-3.2-6zm-85 125c-.6 2.4-6 20.1-6.4 20.7-.1.2-2.1-.6-4.5-1.6-2.4-1.1-6-2.5-7.9-3.2-1.9-.7-4.5-1.7-5.7-2.3-1.3-.6-2.5-.8-2.8-.6-.2.3 2.2 4.5 5.5 9.4 3.2 4.9 5.7 9.2 5.5 9.6-.5.6-12.6 8-17.2 10.4-2 1.1-.9 1.4 8.9 2.5 6.2.7 11.6 1.4 11.9 1.6.4.2.3 2.1-.2 4.1-.4 2.1-1 6.2-1.3 9.2-.3 3-.8 6.3-1.2 7.3-.3 1.1 3.1-1.6 7.7-6.1 4.5-4.5 8.6-8.1 8.9-8.1.4 0 4 3.6 8 8 4 4.5 7.4 8 7.5 7.8.2-.2-.3-3.9-1.1-8.3-.7-4.4-1.4-9.4-1.4-11.1v-3.1l11.7-1.3 11.6-1.3-3.4-1.7c-1.9-.9-6-3.3-9.1-5.3-3.1-2-6.2-3.7-6.9-3.7-1.6 0-.8-1.6 5.5-10.9 3.2-4.6 5.5-8.5 5.3-8.8-.3-.2-4 .9-8.3 2.6-12.4 4.7-13.2 4.8-14 1.4-.3-1.5-1.9-6.6-3.4-11.2-2.1-6.6-2.8-7.9-3.2-6zm395 3c-.6 2.4-6 20.1-6.4 20.7-.1.2-2.1-.6-4.5-1.6-2.4-1.1-6-2.5-7.9-3.2-1.9-.7-4.5-1.7-5.7-2.3-1.3-.6-2.5-.8-2.8-.6-.2.3 2.2 4.5 5.5 9.4 3.2 4.9 5.7 9.2 5.5 9.6-.5.6-12.6 8-17.2 10.4-2 1.1-.9 1.4 8.9 2.5 6.2.7 11.6 1.4 11.9 1.6.4.2.3 2.1-.2 4.1-.4 2.1-1 6.2-1.3 9.2-.3 3-.8 6.3-1.2 7.3-.3 1.1 3.1-1.6 7.7-6.1 4.5-4.5 8.6-8.1 8.9-8.1.4 0 4 3.6 8 8 4 4.5 7.4 8 7.5 7.8.2-.2-.3-3.9-1.1-8.3-.7-4.4-1.4-9.4-1.4-11.1v-3.1l11.7-1.3 11.6-1.3-3.4-1.7c-1.9-.9-6-3.3-9.1-5.3-3.1-2-6.2-3.7-6.9-3.7-1.6 0-.8-1.6 5.5-10.9 3.2-4.6 5.5-8.5 5.3-8.8-.3-.2-4 .9-8.3 2.6-12.4 4.7-13.2 4.8-14 1.4-.3-1.5-1.9-6.6-3.4-11.2-2.1-6.6-2.8-7.9-3.2-6zm-34 170c-.6 2.4-6 20.1-6.4 20.7-.1.2-2.1-.6-4.5-1.6-2.4-1.1-6-2.5-7.9-3.2-1.9-.7-4.5-1.7-5.7-2.3-1.3-.6-2.5-.8-2.8-.6-.2.3 2.2 4.5 5.5 9.4 3.2 4.9 5.7 9.2 5.5 9.6-.5.6-12.6 8-17.2 10.4-2 1.1-.9 1.4 8.9 2.5 6.2.7 11.6 1.4 11.9 1.6.4.2.3 2.1-.2 4.1-.4 2.1-1 6.2-1.3 9.2-.3 3-.8 6.3-1.2 7.3-.3 1.1 3.1-1.6 7.7-6.1 4.5-4.5 8.6-8.1 8.9-8.1.4 0 4 3.6 8 8 4 4.5 7.4 8 7.5 7.8.2-.2-.3-3.9-1.1-8.3-.7-4.4-1.4-9.4-1.4-11.1v-3.1l11.7-1.3 11.6-1.3-3.4-1.7c-1.9-.9-6-3.3-9.1-5.3-3.1-2-6.2-3.7-6.9-3.7-1.6 0-.8-1.6 5.5-10.9 3.2-4.6 5.5-8.5 5.3-8.8-.3-.2-4 .9-8.3 2.6-12.4 4.7-13.2 4.8-14 1.4-.3-1.5-1.9-6.6-3.4-11.2-2.1-6.6-2.8-7.9-3.2-6zm-318 8c-.6 2.4-6 20.1-6.4 20.7-.1.2-2.1-.6-4.5-1.6-2.4-1.1-6-2.5-7.9-3.2-1.9-.7-4.5-1.7-5.7-2.3-1.3-.6-2.5-.8-2.8-.6-.2.3 2.2 4.5 5.5 9.4 3.2 4.9 5.7 9.2 5.5 9.6-.5.6-12.6 8-17.2 10.4-2 1.1-.9 1.4 8.9 2.5 6.2.7 11.6 1.4 11.9 1.6.4.2.3 2.1-.2 4.1-.4 2.1-1 6.2-1.3 9.2-.3 3-.8 6.3-1.2 7.3-.3 1.1 3.1-1.6 7.7-6.1 4.5-4.5 8.6-8.1 8.9-8.1.4 0 4 3.6 8 8 4 4.5 7.4 8 7.5 7.8.2-.2-.3-3.9-1.1-8.3-.7-4.4-1.4-9.4-1.4-11.1v-3.1l11.7-1.3 11.6-1.3-3.4-1.7c-1.9-.9-6-3.3-9.1-5.3-3.1-2-6.2-3.7-6.9-3.7-1.6 0-.8-1.6 5.5-10.9 3.2-4.6 5.5-8.5 5.3-8.8-.3-.2-4 .9-8.3 2.6-12.4 4.7-13.2 4.8-14 1.4-.3-1.5-1.9-6.6-3.4-11.2-2.1-6.6-2.8-7.9-3.2-6zm163 62c-.6 2.4-6 20.1-6.4 20.7-.1.2-2.1-.6-4.5-1.6-2.4-1.1-6-2.5-7.9-3.2-1.9-.7-4.5-1.7-5.7-2.3-1.3-.6-2.5-.8-2.8-.6-.2.3 2.2 4.5 5.5 9.4 3.2 4.9 5.7 9.2 5.5 9.6-.5.6-12.6 8-17.2 10.4-2 1.1-.9 1.4 8.9 2.5 6.2.7 11.6 1.4 11.9 1.6.4.2.3 2.1-.2 4.1-.4 2.1-1 6.2-1.3 9.2-.3 3-.8 6.3-1.2 7.3-.3 1.1 3.1-1.6 7.7-6.1 4.5-4.5 8.6-8.1 8.9-8.1.4 0 4 3.6 8 8 4 4.5 7.4 8 7.5 7.8.2-.2-.3-3.9-1.1-8.3-.7-4.4-1.4-9.4-1.4-11.1v-3.1l11.7-1.3 11.6-1.3-3.4-1.7c-1.9-.9-6-3.3-9.1-5.3-3.1-2-6.2-3.7-6.9-3.7-1.6 0-.8-1.6 5.5-10.9 3.2-4.6 5.5-8.5 5.3-8.8-.3-.2-4 .9-8.3 2.6-12.4 4.7-13.2 4.8-14 1.4-.3-1.5-1.9-6.6-3.4-11.2-2.1-6.6-2.8-7.9-3.2-6z"/>
  <path d="M475.34051126 168.99890514c64.38617362 0 116.7669811 52.38212849 116.7669811 116.76830211s-52.38080748 116.7683021-116.7669811 116.7683021-116.76962312-52.37816544-116.76962312-116.7683021c0-64.38617362 52.3834495-116.7683021 116.76962312-116.7683021m0-2.642026c-65.948932 0-119.41164912 53.4613961-119.41164912 119.4103281 0 65.94761099 53.46271712 119.4103281 119.41164912 119.4103281 65.94628998 0 119.4090071-53.46271711 119.4090071-119.4103281s-53.46271712-119.4103281-119.4090071-119.4103281z"/>
</svg>