<?xml version="1.0" encoding="UTF-8" standalone="no"?>
<!-- Created with Inkscape (http://www.inkscape.org/) -->

<svg
   xmlns:dc="http://purl.org/dc/elements/1.1/"
   xmlns:cc="http://creativecommons.org/ns#"
   xmlns:rdf="http://www.w3.org/1999/02/22-rdf-syntax-ns#"
   xmlns:svg="http://www.w3.org/2000/svg"
   xmlns="http://www.w3.org/2000/svg"
   xmlns:sodipodi="http://sodipodi.sourceforge.net/DTD/sodipodi-0.dtd"
   xmlns:inkscape="http://www.inkscape.org/namespaces/inkscape"
   version="1.1"
   id="svg10"
   width="1212"
   height="806"
   viewBox="0 0 1212 806"
   sodipodi:docname="Flag_of_Sephardi_Jews.svg"
   inkscape:version="0.92.4 (5da689c313, 2019-01-14)">
  <metadata
     id="metadata16">
    <rdf:RDF>
      <cc:Work
         rdf:about="">
        <dc:format>image/svg+xml</dc:format>
        <dc:type
           rdf:resource="http://purl.org/dc/dcmitype/StillImage" />
        <dc:title></dc:title>
      </cc:Work>
    </rdf:RDF>
  </metadata>
  <defs
     id="defs14" />
  <sodipodi:namedview
     pagecolor="#ffffff"
     bordercolor="#666666"
     borderopacity="1"
     objecttolerance="10"
     gridtolerance="10"
     guidetolerance="10"
     inkscape:pageopacity="0"
     inkscape:pageshadow="2"
     inkscape:window-width="1366"
     inkscape:window-height="705"
     id="namedview12"
     showgrid="false"
     inkscape:zoom="0.68610422"
     inkscape:cx="606"
     inkscape:cy="403"
     inkscape:window-x="-8"
     inkscape:window-y="-8"
     inkscape:window-maximized="1"
     inkscape:current-layer="svg10" />
  <rect
     style="fill:#cb2027;fill-opacity:1;stroke:none;stroke-width:1.87852216;stroke-opacity:1"
     id="rect20-7"
     width="1212"
     height="403"
     x="0"
     y="-1.5258789e-05" />
  <rect
     style="fill:#fcdd09;fill-opacity:1;stroke:none;stroke-width:1.87852216;stroke-opacity:1"
     id="rect20"
     width="1212"
     height="403"
     x="0"
     y="403" />
  <path
     style="fill:#ffffff;fill-opacity:1;stroke-width:0.99109894"
     d="m 226.7292,354.56232 c -9.37767,-4.94905 -11.02329,-16.66273 -3.53852,-25.18739 l 2.89944,-3.3023 -16.13643,-28.28706 -16.13643,-28.28714 -32.45853,-0.0395 -32.45843,-0.0395 v 2.33117 c 0,3.31896 -3.8696,8.55137 -7.91337,10.70016 -7.2775,3.86739 -15.99992,1.63963 -21.232959,-5.42297 -2.894256,-3.90608 -2.910596,-13.2793 -0.0335,-17.13765 3.948559,-5.28871 7.021999,-6.82387 13.661489,-6.82387 h 6.1442 l 16.14697,-28.10403 16.14704,-28.10395 -15.67393,-27.30073 -15.67391,-27.30071 -6.61829,-0.0974 c -7.1349,-0.10477 -10.14487,-1.57833 -14.133569,-6.92074 -2.880661,-3.85836 -2.864362,-13.2315 0.0335,-17.13762 4.022239,-5.42846 8.218669,-7.47624 14.430709,-7.04181 8.31739,0.58156 12.18853,3.89557 15.08707,12.91574 0.51526,1.60324 2.91541,1.7344 31.74063,1.7344 h 31.18322 l 1.87268,-2.72548 c 3.34688,-4.87127 30.9686,-53.442994 30.9686,-54.457178 0,-0.541762 -0.87604,-1.777671 -1.94662,-2.746594 -2.91293,-2.636201 -5.3346,-9.787713 -4.61101,-13.617079 1.46082,-7.730303 8.40141,-13.670335 15.97312,-13.670335 4.81545,0 11.0597,3.362945 13.4158,7.225417 4.00098,6.559162 3.39672,13.507082 -1.70169,19.566115 l -2.48631,2.954873 16.38647,28.487343 16.38651,28.487398 31.6938,0.2611 31.69397,0.2611 0.66116,-3.01065 c 0.36355,-1.6558 1.79158,-4.35392 3.17309,-5.99576 7.10626,-8.44526 18.66294,-7.82339 25.47543,1.37087 2.89425,3.90605 2.91062,13.27929 0.0335,17.13765 -3.88138,5.19863 -7.05139,6.82381 -13.31036,6.82381 h -5.79289 l -15.98355,27.83905 -15.98353,27.83913 15.84123,27.57425 15.84116,27.57425 5.93612,0.0887 c 6.39655,0.095 9.58567,1.73373 13.45182,6.91204 2.88066,3.85839 2.86432,13.23153 -0.0335,17.13763 -6.81249,9.19426 -18.36917,9.81613 -25.47543,1.3709 -1.38151,-1.64184 -2.80803,-4.33381 -3.17011,-5.98221 l -0.65825,-2.99702 H 308.3659 276.88496 l -16.54601,28.80206 -16.54608,28.8022 2.43004,2.88782 c 3.19357,3.79535 4.92355,9.23958 4.18222,13.16164 -2.06766,10.93944 -13.86888,16.66745 -23.67593,11.49174 z m 17.99936,-70.17424 c 4.45678,-7.84645 7.93409,-14.43548 7.72735,-14.64214 -0.20653,-0.20654 -8.17476,-0.25373 -17.70674,-0.10511 l -17.33079,0.27113 8.02684,13.8754 c 10.06403,17.39718 9.58848,16.68312 10.45323,15.69618 0.39994,-0.4563 4.37332,-7.24944 8.83011,-15.09597 z m -66.46372,-41.53671 c -1.80317,-3.16392 -5.73145,-10.06742 -8.72955,-15.34117 -2.99804,-5.27378 -5.67401,-9.59065 -5.94659,-9.59293 -0.27248,-0.002 -3.05275,4.55972 -6.17814,10.13791 -3.12545,5.57816 -7.03686,12.48357 -8.69219,15.34539 l -3.00956,5.20328 h 17.91727 17.91716 z m 101.59279,-19.65094 14.61674,-25.40333 -14.84331,-25.88603 -14.84325,-25.88601 h -30.03428 -30.03419 l -14.64859,25.39192 -14.64854,25.39191 13.01064,22.67642 c 7.15589,12.47201 13.89558,24.12587 14.97717,25.89742 l 1.96648,3.22112 h 29.93222 29.93212 z m 43.13283,24.45532 c -0.69387,-1.991 -16.21244,-28.73616 -16.68352,-28.75275 -0.45831,-0.0167 -15.94258,26.68713 -16.68348,28.77143 -0.19682,0.55522 6.51963,0.92942 16.68348,0.92942 10.39667,0 16.88537,-0.36884 16.68352,-0.9481 z m -7.48236,-86.51637 8.6041,-15.11432 -17.46868,-0.27113 c -9.60779,-0.14896 -17.62677,-0.11381 -17.82004,0.0804 -0.46509,0.46517 16.77988,30.4197 17.51279,30.4197 0.31197,0 4.43962,-6.80145 9.17183,-15.11425 z m -143.10165,-0.0673 c 4.417,-7.80478 8.03095,-14.49466 8.03095,-14.86652 0,-0.37192 -7.58187,-0.67606 -16.8487,-0.67606 -9.26676,0 -16.84865,0.27783 -16.84865,0.61702 0,1.17187 16.26892,29.11594 16.95128,29.11594 0.37624,0 4.29806,-6.38568 8.71512,-14.19041 z m 79.28864,-37.59457 c -3.02941,-5.81274 -16.99348,-29.564051 -17.22314,-29.294723 -0.85887,1.007185 -17.36393,30.368313 -17.36393,30.888963 0,0.34956 8.04363,0.63572 17.87466,0.63572 h 17.87471 z"
     id="path1951"
     inkscape:connector-curvature="0" />
</svg>
