<?xml version="1.0" encoding="UTF-8" standalone="no"?>
<!-- Created with Inkscape (http://www.inkscape.org/) -->

<svg
   xmlns:dc="http://purl.org/dc/elements/1.1/"
   xmlns:cc="http://creativecommons.org/ns#"
   xmlns:rdf="http://www.w3.org/1999/02/22-rdf-syntax-ns#"
   xmlns:svg="http://www.w3.org/2000/svg"
   xmlns="http://www.w3.org/2000/svg"
   xmlns:sodipodi="http://sodipodi.sourceforge.net/DTD/sodipodi-0.dtd"
   xmlns:inkscape="http://www.inkscape.org/namespaces/inkscape"
   width="1000"
   height="500"
   id="svg2"
   sodipodi:version="0.32"
   inkscape:version="0.47 r22583"
   version="1.0"
   sodipodi:docname="Mikmaq_State_Flag_(vertical).svg">
  <defs
     id="defs4">
    <inkscape:perspective
       sodipodi:type="inkscape:persp3d"
       inkscape:vp_x="0 : 250 : 1"
       inkscape:vp_y="0 : 1000 : 0"
       inkscape:vp_z="1000 : 250 : 1"
       inkscape:persp3d-origin="500 : 166.66667 : 1"
       id="perspective14" />
  </defs>
  <sodipodi:namedview
     id="base"
     pagecolor="#ffffff"
     bordercolor="#666666"
     borderopacity="1.0"
     gridtolerance="10000"
     guidetolerance="10"
     objecttolerance="10"
     inkscape:pageopacity="0.0"
     inkscape:pageshadow="2"
     inkscape:zoom="0.754"
     inkscape:cx="500"
     inkscape:cy="290.42439"
     inkscape:document-units="px"
     inkscape:current-layer="layer1"
     width="1000px"
     height="500px"
     inkscape:window-width="1129"
     inkscape:window-height="959"
     inkscape:window-x="372"
     inkscape:window-y="59"
     showgrid="false"
     inkscape:window-maximized="0"
     showguides="true"
     inkscape:guide-bbox="true" />
  <metadata
     id="metadata7">
    <rdf:RDF>
      <cc:Work
         rdf:about="">
        <dc:format>image/svg+xml</dc:format>
        <dc:type
           rdf:resource="http://purl.org/dc/dcmitype/StillImage" />
        <dc:title></dc:title>
      </cc:Work>
    </rdf:RDF>
  </metadata>
  <g
     inkscape:label="Layer 1"
     inkscape:groupmode="layer"
     id="layer1">
    <g
       id="g2859"
       transform="matrix(0,-1,1,0,500,500)">
      <rect
         transform="matrix(0,1,-1,0,0,0)"
         y="-500"
         x="-500"
         height="500"
         width="1000"
         id="rect1890"
         style="fill:#ffffff;fill-opacity:1;stroke:none" />
      <rect
         transform="scale(-1,-1)"
         y="182.63394"
         x="-470"
         height="100"
         width="440"
         id="rect1874"
         style="fill:#ff0000;fill-opacity:1;stroke:none" />
      <path
         transform="matrix(-0.10425882,1.0786963,-1.0786963,-0.10425882,511.20459,-513.81838)"
         d="M 183.02387,122.01591 127.9589,108.95342 100.62362,158.50705 96.030779,102.10062 40.45541,91.416139 92.681847,69.617538 85.66966,13.460535 l 36.87056,42.934155 51.2416,-24.022455 -29.43918,48.333368 38.68123,41.310307 z"
         inkscape:randomized="0"
         inkscape:rounded="0"
         inkscape:flatsided="false"
         sodipodi:arg2="1.1539023"
         sodipodi:arg1="0.52558379"
         sodipodi:r2="27.778223"
         sodipodi:r1="76.65966"
         sodipodi:cy="83.554375"
         sodipodi:cx="116.71088"
         sodipodi:sides="5"
         id="path1878"
         style="fill:#ff0000;fill-opacity:1;stroke:none"
         sodipodi:type="star" />
      <g
         transform="matrix(0,1.06278,-1.06278,0,520.46734,-504.88182)"
         id="g1886">
        <path
           sodipodi:type="arc"
           style="fill:#ff0000;fill-opacity:1;stroke:none"
           id="path1882"
           sodipodi:cx="108.09019"
           sodipodi:cy="393.23608"
           sodipodi:rx="73.60743"
           sodipodi:ry="73.60743"
           d="m 181.69762,393.23608 c 0,40.65226 -32.95517,73.60743 -73.60743,73.60743 -40.652264,0 -73.607432,-32.95517 -73.607432,-73.60743 0,-40.65226 32.955168,-73.60743 73.607432,-73.60743 40.65226,0 73.60743,32.95517 73.60743,73.60743 z" />
        <path
           sodipodi:type="arc"
           style="fill:#ffffff;fill-opacity:1;stroke:none"
           id="path1884"
           sodipodi:cx="108.09019"
           sodipodi:cy="393.23608"
           sodipodi:rx="73.60743"
           sodipodi:ry="73.60743"
           d="m 181.69762,393.23608 c 0,40.65226 -32.95517,73.60743 -73.60743,73.60743 -40.652264,0 -73.607432,-32.95517 -73.607432,-73.60743 0,-40.65226 32.955168,-73.60743 73.607432,-73.60743 40.65226,0 73.60743,32.95517 73.60743,73.60743 z"
           transform="translate(-0.663144,-30.504)" />
      </g>
      <rect
         transform="matrix(0,1,-1,0,0,0)"
         y="-300"
         x="-470"
         height="100"
         width="940"
         id="rect1872"
         style="fill:#ff0000;fill-opacity:1;stroke:none" />
    </g>
  </g>
</svg>
