<svg xmlns="http://www.w3.org/2000/svg" xmlns:xlink="http://www.w3.org/1999/xlink" x="0px" y="0px" width="1476.051px" height="874.293px" viewBox="0 0 1476.051 874.293" xml:space="preserve"> <g id="Layer_3_copy_10"> <rect fill="#960018" width="1476.051" height="874.293"/> </g> <g id="Layer_10_copy_16"> <g> <path fill="#ECBF69" d="M282.752,580.891c-0.796-0.546-1.644-1.15-2.509-1.802c-9.602-4.467-27.076-14.182-47.772-33.049 c-26.469-24.13-54.474-65.878-54.948-125.32c0,0-13.805,4.026-19.55,26.7c-6.131,24.198-4.526,57.293,57.659,91.308 C215.633,538.728,250.653,571.03,282.752,580.891z"/> <path fill="#ECBF69" d="M308.049,720.083c-6.258-4.546-11.525-3.881-17.148-3.213c-4.781,0.565-10.042-0.764-13.818-6.466 c-27.099-62.643,4.036-50.128,4.036-50.128c-4.283-8.142-12.244-4.571-12.244-4.571c-0.651,0.388-1.17,0.691-1.517,0.912 c-0.347,0.219-0.533,0.336-0.533,0.336s0.14-0.173,0.421-0.486c0.286-0.305,0.697-0.767,1.264-1.3 c0.563-0.539,1.255-1.189,2.097-1.873c0.835-0.695,1.816-1.426,2.918-2.181c0.552-0.375,1.147-0.733,1.757-1.12 c0.625-0.354,1.267-0.735,1.949-1.08c0.686-0.341,1.385-0.706,2.131-1.01c0.373-0.159,0.747-0.317,1.126-0.477 c0.382-0.148,0.777-0.277,1.172-0.42c0.398-0.13,0.789-0.299,1.204-0.401c0.4-0.109,0.806-0.22,1.212-0.331l-0.001-0.001 c-0.166-0.209-0.335-0.404-0.508-0.589c-0.03-0.034-0.063-0.063-0.095-0.096c-0.138-0.144-0.276-0.284-0.417-0.414 c-0.052-0.048-0.106-0.093-0.16-0.141c-0.121-0.106-0.242-0.21-0.364-0.307c-0.061-0.048-0.123-0.094-0.185-0.141 c-0.117-0.086-0.234-0.17-0.351-0.25c-0.064-0.043-0.129-0.084-0.193-0.126c-0.117-0.074-0.235-0.144-0.353-0.21 c-0.064-0.037-0.128-0.073-0.193-0.107c-0.122-0.065-0.243-0.125-0.365-0.182c-0.06-0.028-0.121-0.058-0.181-0.084 c-0.132-0.058-0.265-0.111-0.397-0.16c-0.049-0.018-0.098-0.041-0.147-0.057c-0.166-0.061-0.332-0.113-0.498-0.162 c-0.015-0.003-0.029-0.008-0.044-0.013c-0.186-0.052-0.371-0.098-0.556-0.137c-0.015-0.002-0.029-0.004-0.043-0.007 c-0.164-0.034-0.326-0.063-0.489-0.086c-0.047-0.009-0.096-0.012-0.144-0.021c-0.127-0.016-0.254-0.031-0.379-0.042 c-0.057-0.004-0.113-0.009-0.169-0.012c-0.115-0.009-0.229-0.017-0.344-0.021c-0.059,0-0.115-0.002-0.173-0.003 c-0.11-0.002-0.219-0.002-0.327-0.001c-0.056,0-0.111,0.002-0.167,0.004c-0.108,0.002-0.214,0.008-0.319,0.014 c-0.051,0.003-0.103,0.005-0.153,0.008c-0.111,0.009-0.217,0.021-0.323,0.031c-0.042,0.005-0.085,0.008-0.126,0.013 c-0.125,0.015-0.246,0.031-0.364,0.049c-0.017,0.002-0.035,0.004-0.052,0.008c-0.442,0.198-0.876,0.391-1.294,0.579 c-1.152,0.543-2.208,1.068-3.129,1.564c-0.465,0.244-0.894,0.482-1.291,0.703c-0.404,0.216-0.765,0.428-1.092,0.619 c-0.651,0.389-1.171,0.693-1.516,0.913c-0.349,0.219-0.534,0.336-0.534,0.336s0.141-0.175,0.421-0.486 c0.286-0.304,0.697-0.767,1.264-1.3c0.563-0.538,1.256-1.189,2.098-1.873c0.834-0.694,1.814-1.425,2.917-2.179 c0.553-0.377,1.146-0.735,1.756-1.12c0.626-0.353,1.268-0.734,1.95-1.082c0.687-0.339,1.386-0.705,2.131-1.008 c0.372-0.158,0.747-0.317,1.125-0.478c0.383-0.148,0.777-0.278,1.172-0.42c0.399-0.13,0.791-0.298,1.204-0.402 c0.412-0.112,0.826-0.225,1.244-0.339c0.042-0.01,0.085-0.021,0.126-0.033c-0.126-0.157-0.255-0.305-0.385-0.448 c-0.044-0.048-0.088-0.097-0.133-0.144c-0.119-0.127-0.237-0.249-0.359-0.364c-0.033-0.032-0.065-0.063-0.098-0.093 c-0.121-0.112-0.243-0.219-0.366-0.319c-0.046-0.04-0.093-0.078-0.14-0.116c-0.136-0.108-0.271-0.213-0.408-0.31 c-0.031-0.021-0.062-0.041-0.093-0.062c-0.116-0.08-0.233-0.157-0.35-0.228c-0.048-0.031-0.097-0.06-0.144-0.088 c-0.139-0.081-0.277-0.158-0.417-0.23c-0.037-0.019-0.074-0.036-0.11-0.055c-0.115-0.055-0.229-0.109-0.344-0.159 c-0.047-0.022-0.094-0.042-0.141-0.063c-0.139-0.057-0.279-0.112-0.417-0.161c-0.041-0.015-0.082-0.027-0.122-0.041 c-0.113-0.038-0.226-0.073-0.338-0.106c-0.044-0.012-0.089-0.026-0.133-0.038c-0.139-0.038-0.276-0.072-0.414-0.102 c-0.042-0.009-0.084-0.018-0.125-0.027c-0.112-0.022-0.223-0.042-0.333-0.061c-0.039-0.006-0.08-0.014-0.119-0.02 c-0.137-0.021-0.272-0.038-0.407-0.052c-0.04-0.003-0.081-0.007-0.121-0.011c-0.112-0.011-0.223-0.019-0.333-0.024 c-0.032-0.002-0.065-0.006-0.098-0.006c-0.134-0.006-0.265-0.009-0.394-0.01c-0.038,0-0.076,0-0.113,0 c-0.111,0.001-0.221,0.002-0.33,0.007c-0.024,0-0.049,0-0.073,0.002c-0.127,0.005-0.251,0.013-0.373,0.023 c-0.034,0.003-0.068,0.005-0.102,0.009c-0.11,0.009-0.219,0.02-0.325,0.034c-0.015,0-0.028,0.002-0.043,0.004 c-0.118,0.015-0.232,0.031-0.345,0.047c-0.029,0.005-0.058,0.009-0.087,0.015c-0.108,0.018-0.216,0.036-0.319,0.057 c-0.002,0-0.005,0-0.007,0.001c-0.108,0.021-0.21,0.042-0.312,0.064c-0.023,0.005-0.046,0.01-0.069,0.016 c-0.095,0.021-0.188,0.043-0.275,0.065c-0.141,0.063-0.285,0.127-0.424,0.189c-1.153,0.547-2.207,1.069-3.128,1.567 c-0.466,0.242-0.894,0.482-1.292,0.703c-0.402,0.216-0.765,0.428-1.091,0.621c-0.652,0.388-1.17,0.69-1.517,0.91 c-0.348,0.219-0.533,0.337-0.533,0.337s0.139-0.175,0.421-0.487c0.285-0.304,0.696-0.765,1.264-1.297 c0.563-0.54,1.256-1.19,2.098-1.874c0.835-0.696,1.815-1.426,2.918-2.181c0.552-0.376,1.146-0.733,1.755-1.121 c0.626-0.353,1.269-0.733,1.951-1.08c0.685-0.34,1.385-0.707,2.13-1.01c0.372-0.155,0.747-0.315,1.127-0.476 c0.383-0.148,0.778-0.278,1.173-0.421c0.397-0.13,0.788-0.297,1.202-0.401c0.413-0.112,0.828-0.226,1.245-0.339 c0.053-0.015,0.107-0.029,0.162-0.044c-0.001-0.001-0.001-0.001-0.002-0.002c-1.718-2.035-3.733-2.845-5.552-3.075 c-0.003-0.001-0.006-0.001-0.008-0.002c-0.333-0.041-0.659-0.063-0.975-0.07c-0.011,0-0.022,0-0.033,0 c-0.102-0.002-0.201-0.002-0.302-0.002c-0.012,0-0.023,0-0.035,0c-0.188,0.003-0.373,0.011-0.554,0.023 c-0.015,0.001-0.032,0.001-0.047,0.003c-0.084,0.005-0.168,0.014-0.25,0.021c-0.034,0.004-0.067,0.007-0.1,0.01 c-0.169,0.018-0.333,0.038-0.491,0.063c-0.003,0-0.007,0.001-0.009,0.001c-0.07,0.01-0.139,0.022-0.208,0.033 c-0.039,0.007-0.077,0.013-0.114,0.02c-0.064,0.013-0.127,0.024-0.189,0.036c-0.031,0.007-0.062,0.012-0.092,0.019 c-0.111,0.022-0.218,0.046-0.321,0.072c-0.033,0.007-0.064,0.015-0.096,0.022c-0.057,0.015-0.113,0.028-0.167,0.042 c-0.02,0.006-0.04,0.011-0.06,0.017c-0.104,0.028-0.202,0.056-0.293,0.083c-0.017,0.006-0.033,0.011-0.049,0.015 c-0.04,0.019-0.082,0.038-0.123,0.055c-1.152,0.545-2.207,1.069-3.128,1.565c-0.465,0.242-0.894,0.483-1.292,0.704 c-0.401,0.217-0.763,0.428-1.09,0.62c-0.652,0.387-1.171,0.691-1.517,0.912c-0.349,0.219-0.534,0.335-0.534,0.335 s0.14-0.175,0.422-0.486c0.285-0.305,0.696-0.767,1.264-1.3c0.563-0.539,1.256-1.189,2.097-1.874 c0.835-0.694,1.816-1.424,2.918-2.18c0.553-0.376,1.146-0.733,1.756-1.119c0.626-0.354,1.268-0.734,1.95-1.082 c0.686-0.34,1.385-0.706,2.132-1.009c0.37-0.157,0.745-0.315,1.125-0.476c0.383-0.147,0.778-0.279,1.173-0.419 c0.397-0.131,0.789-0.299,1.203-0.402c0.412-0.112,0.827-0.224,1.244-0.338c0.105-0.028,0.211-0.056,0.316-0.084 c-3.578-4.199-8.425-3.122-10.126-2.566c-0.003,0.001-0.006,0.002-0.01,0.003c-0.059,0.02-0.113,0.038-0.164,0.056 c-0.009,0.003-0.019,0.006-0.027,0.01c-0.046,0.016-0.088,0.031-0.126,0.045c-0.011,0.003-0.021,0.008-0.03,0.011 c-0.035,0.013-0.066,0.025-0.095,0.037c-0.01,0.002-0.018,0.006-0.027,0.01c-0.025,0.009-0.046,0.019-0.065,0.026 c-0.009,0.003-0.016,0.006-0.023,0.009c-0.031,0.013-0.052,0.022-0.052,0.022c0.06-0.038,0.127-0.08,0.2-0.126 c0.02-0.012,0.043-0.028,0.063-0.041c0.056-0.037,0.112-0.072,0.173-0.112c0.027-0.019,0.057-0.037,0.084-0.056 c0.058-0.038,0.117-0.077,0.179-0.12c0.059-0.04,0.119-0.079,0.182-0.121c-0.121,0.053-0.246,0.109-0.365,0.163 c-1.153,0.545-2.207,1.068-3.128,1.566c-0.467,0.242-0.895,0.482-1.293,0.703c-0.401,0.216-0.764,0.429-1.091,0.619 c-0.652,0.39-1.17,0.693-1.517,0.912c-0.347,0.22-0.533,0.337-0.533,0.337s0.139-0.175,0.421-0.487 c0.285-0.305,0.696-0.768,1.264-1.3c0.563-0.538,1.255-1.188,2.097-1.872c0.835-0.695,1.815-1.426,2.917-2.18 c0.553-0.376,1.146-0.735,1.757-1.12c0.625-0.353,1.267-0.732,1.95-1.081c0.685-0.34,1.385-0.704,2.13-1.009 c0.371-0.157,0.748-0.315,1.125-0.476c0.385-0.147,0.779-0.278,1.175-0.419c0.397-0.131,0.789-0.3,1.203-0.403 c0.412-0.111,0.826-0.224,1.244-0.337c0.209-0.056,0.417-0.118,0.63-0.168l0.015-0.003c-0.104-0.127-0.21-0.25-0.316-0.367 c-0.074-0.083-0.147-0.16-0.222-0.239c-0.058-0.059-0.115-0.117-0.173-0.175c-0.122-0.12-0.244-0.234-0.367-0.343 c-0.061-0.054-0.122-0.11-0.183-0.162c-0.081-0.066-0.162-0.131-0.243-0.196c-0.055-0.042-0.11-0.083-0.166-0.125 c-0.136-0.102-0.273-0.197-0.412-0.288c-0.054-0.036-0.108-0.071-0.162-0.105c-0.084-0.053-0.17-0.104-0.255-0.153 c-0.054-0.031-0.108-0.06-0.162-0.089c-0.142-0.078-0.283-0.15-0.425-0.217c-0.054-0.026-0.108-0.051-0.162-0.075 c-0.086-0.039-0.171-0.075-0.257-0.111c-0.055-0.021-0.11-0.042-0.165-0.063c-0.14-0.053-0.279-0.103-0.419-0.147 c-0.056-0.019-0.113-0.035-0.17-0.053c-0.083-0.025-0.165-0.049-0.248-0.07c-0.064-0.017-0.128-0.032-0.191-0.047 c-0.126-0.03-0.252-0.059-0.378-0.082c-0.062-0.012-0.123-0.023-0.185-0.035c-0.077-0.012-0.152-0.026-0.228-0.036 c-0.109-0.016-0.218-0.03-0.326-0.042c-0.074-0.008-0.147-0.015-0.221-0.021c-0.068-0.006-0.136-0.011-0.203-0.016 c-0.066-0.004-0.132-0.008-0.199-0.011c-0.113-0.006-0.225-0.008-0.335-0.009c-0.061,0-0.12,0-0.18,0 c-0.074,0-0.149,0.002-0.224,0.005c-0.053,0.001-0.106,0.002-0.159,0.005c-0.112,0.005-0.221,0.012-0.33,0.021 c-0.049,0.004-0.097,0.008-0.147,0.013c-0.082,0.008-0.164,0.015-0.244,0.026c-0.038,0.003-0.075,0.006-0.112,0.012 c-0.107,0.013-0.213,0.029-0.316,0.044c-0.04,0.006-0.077,0.013-0.116,0.019c-0.088,0.014-0.175,0.029-0.259,0.044 c-0.021,0.005-0.044,0.008-0.065,0.012c-0.099,0.02-0.193,0.039-0.286,0.059c-0.031,0.007-0.061,0.015-0.091,0.021 c-0.086,0.021-0.173,0.041-0.254,0.061c-0.006,0.001-0.01,0.003-0.016,0.004c-0.333,0.15-0.664,0.297-0.983,0.439 c-1.152,0.545-2.208,1.069-3.129,1.566c-0.465,0.241-0.894,0.483-1.292,0.702c-0.402,0.217-0.763,0.427-1.091,0.621 c-0.651,0.388-1.17,0.691-1.515,0.911c-0.348,0.22-0.534,0.336-0.534,0.336s0.14-0.174,0.422-0.487 c0.284-0.303,0.696-0.766,1.264-1.297c0.563-0.542,1.255-1.191,2.097-1.875c0.835-0.695,1.815-1.424,2.917-2.179 c0.552-0.376,1.147-0.735,1.757-1.121c0.625-0.354,1.268-0.734,1.949-1.08c0.686-0.342,1.385-0.707,2.132-1.01 c0.37-0.158,0.746-0.317,1.125-0.477c0.384-0.148,0.778-0.278,1.172-0.419c0.398-0.131,0.791-0.299,1.204-0.403 c0.412-0.112,0.826-0.226,1.243-0.338c0.21-0.055,0.418-0.117,0.631-0.167l0.413-0.084c-0.005-0.028-0.008-0.057-0.012-0.086 c-0.001,0-0.001-0.001-0.001-0.001c-0.719-0.933-1.498-1.636-2.297-2.159c-0.002,0-0.003-0.002-0.006-0.004 c-0.277-0.18-0.558-0.337-0.838-0.476c-0.727-0.361-1.459-0.592-2.169-0.727c-0.014-0.003-0.027-0.005-0.04-0.006 c-0.184-0.036-0.364-0.063-0.545-0.084c-0.013,0-0.025-0.003-0.038-0.004c-0.574-0.066-1.126-0.079-1.645-0.053 c-0.015,0-0.029,0.002-0.045,0.002c-0.15,0.008-0.297,0.02-0.441,0.034c-0.029,0.004-0.059,0.006-0.088,0.009 c-0.132,0.013-0.262,0.029-0.387,0.047c-0.026,0.003-0.053,0.007-0.079,0.011c-0.142,0.021-0.28,0.044-0.413,0.068 c-0.002,0-0.005,0.001-0.008,0.001l0,0c-0.031,0.013-0.063,0.027-0.093,0.039c-0.626,0.28-1.231,0.549-1.811,0.809 c-1.152,0.544-2.207,1.068-3.129,1.566c-0.466,0.243-0.893,0.482-1.292,0.704c-0.402,0.215-0.764,0.426-1.09,0.618 c-0.652,0.388-1.171,0.691-1.516,0.912c-0.349,0.219-0.534,0.338-0.534,0.338s0.14-0.176,0.42-0.488 c0.285-0.304,0.696-0.767,1.263-1.299c0.564-0.54,1.256-1.188,2.098-1.872c0.835-0.695,1.815-1.425,2.918-2.182 c0.553-0.375,1.146-0.733,1.756-1.119c0.626-0.354,1.269-0.734,1.951-1.082c0.685-0.34,1.385-0.707,2.13-1.009 c0.372-0.158,0.746-0.317,1.125-0.477c0.384-0.146,0.778-0.279,1.173-0.419c0.397-0.131,0.789-0.299,1.203-0.403 c0.271-0.073,0.544-0.148,0.817-0.223c-0.133-0.15-0.268-0.298-0.405-0.437c-0.004-0.003-0.008-0.01-0.013-0.014 c-0.138-0.138-0.277-0.268-0.418-0.392c-0.002-0.002-0.004-0.004-0.007-0.007c-0.646-0.567-1.316-0.996-1.991-1.313 c-2.922-1.373-5.912-0.672-7.168-0.262c-0.006,0.002-0.013,0.005-0.018,0.007c-0.055,0.018-0.105,0.035-0.152,0.051 c-0.013,0.005-0.025,0.009-0.038,0.014c-0.041,0.014-0.079,0.028-0.114,0.041c-0.015,0.006-0.028,0.012-0.04,0.016 c-0.032,0.011-0.06,0.022-0.086,0.032c-0.013,0.005-0.024,0.01-0.036,0.015c-0.021,0.007-0.04,0.016-0.055,0.022 c-0.013,0.006-0.023,0.009-0.033,0.013c-0.009,0.005-0.018,0.009-0.025,0.012c-0.01,0.004-0.018,0.008-0.018,0.008 c0.043-0.025,0.093-0.059,0.143-0.09c0.027-0.019,0.054-0.035,0.082-0.053c-0.799,0.39-1.545,0.767-2.218,1.13 c-0.465,0.242-0.893,0.482-1.291,0.702c-0.402,0.217-0.764,0.427-1.091,0.621c-0.651,0.388-1.171,0.691-1.516,0.912 c-0.348,0.219-0.533,0.337-0.533,0.337s0.139-0.176,0.42-0.486c0.286-0.305,0.696-0.767,1.264-1.3 c0.563-0.538,1.256-1.189,2.097-1.872c0.834-0.695,1.815-1.425,2.918-2.181c0.552-0.375,1.146-0.734,1.756-1.12 c0.466-0.262,0.947-0.537,1.439-0.804c-2.104-0.665-36.095-13.776-61.087-40.841c0,0,29.439,133.056,37.285,162.239 c-4.579,9.962-12.002,12.133-18.608,11.259c-6.648-0.88-12.881-1.761-20.36,3.522c-7.479,5.285-13.297,14.532-13.297,14.532 c4.434-3.522,5.97-5.62,10.527-6.311c6.787-1.03,8.449,6.017,18.421,2.054c1.739-0.69,3.287-1.216,4.684-1.614 c-0.951,1.125-1.857,2.363-2.723,3.748c-5.372,8.589-3.678,14.655-3.542,17.35c0.135,2.696-0.656-6.375,6.439-11.913 c2.114-1.649,5.8-1.112,9.767,0.209c3.675,1.221,8.429,2.204,14.855-6.298c0.744-0.982,1.664-2.048,2.667-3.15 c5.099-0.216,8.541-0.993,10.777-2.193c2.57,0.046,5.458-0.046,8.713-0.294c3.238-0.247,6.446-1.396,14.82,2.063 c8.373,3.466,9.851-2.461,15.569-1.514c3.838,0.637,5.114,2.426,8.817,5.455C319.118,732.507,314.305,724.63,308.049,720.083z"/> <path fill="#ECBF69" d="M489.145,721.927c-6.685-4.901-12.381-4.297-18.463-3.697c-2.233,0.22-8.413-2.833-15.424-6.061 c0,0-45.888-35.486-47.737-58.549c-1.812-22.601,19.944-16.325,19.944-16.325s-0.08-0.147-0.227-0.42 c-1.87-2.114-3.676-4.189-5.37-5.721c-5.465-4.944-10.661-1.655-12.38-0.286c-0.606,0.869-1.16,1.69-1.637,2.443 c-0.295,0.454-0.56,0.884-0.806,1.283c-0.251,0.396-0.471,0.767-0.667,1.104c-0.391,0.675-0.704,1.208-0.906,1.579 c-0.203,0.371-0.311,0.567-0.311,0.567s0.041-0.224,0.144-0.641c0.109-0.414,0.255-1.03,0.506-1.787 c0.244-0.762,0.549-1.687,0.971-2.718c0.41-1.039,0.931-2.184,1.546-3.411c0.311-0.614,0.664-1.233,1.02-1.884 c0.384-0.632,0.771-1.295,1.206-1.95c0.442-0.652,0.885-1.332,1.397-1.981c0.252-0.33,0.507-0.662,0.764-0.997 c0.268-0.326,0.553-0.644,0.831-0.972c0.289-0.321,0.553-0.669,0.867-0.972c0.308-0.311,0.619-0.624,0.931-0.938 c0.157-0.157,0.312-0.318,0.474-0.471l0.501-0.445c0.206-0.177,0.413-0.356,0.619-0.536c-0.013-0.022-0.025-0.044-0.039-0.067 c-4.071-1.8-7.641,0.231-9.225,1.416c-0.34,0.423-0.667,0.851-0.998,1.254c-0.418,0.566-0.822,1.115-1.209,1.643 c-0.757,1.068-1.437,2.072-2.013,2.982c-0.295,0.452-0.559,0.881-0.805,1.28c-0.252,0.397-0.471,0.768-0.667,1.105 c-0.392,0.675-0.706,1.208-0.905,1.578c-0.204,0.372-0.313,0.569-0.313,0.569s0.041-0.224,0.144-0.64 c0.11-0.416,0.256-1.031,0.507-1.788c0.244-0.761,0.55-1.688,0.971-2.719c0.41-1.039,0.931-2.181,1.546-3.411 c0.311-0.613,0.664-1.233,1.02-1.885c0.385-0.63,0.771-1.294,1.207-1.95c0.442-0.65,0.885-1.331,1.397-1.98 c0.251-0.33,0.507-0.662,0.763-0.996c0.267-0.329,0.551-0.645,0.832-0.973c0.287-0.319,0.553-0.668,0.866-0.972 c0.308-0.31,0.618-0.624,0.931-0.937c0.157-0.158,0.312-0.319,0.473-0.473l0.503-0.445c0.11-0.097,0.223-0.193,0.334-0.29 c-3.737-1.851-7.09-0.4-8.942,0.804c-0.386,0.472-0.747,0.952-1.118,1.404c-0.417,0.567-0.821,1.114-1.208,1.64 c-0.756,1.071-1.437,2.073-2.013,2.983c-0.295,0.452-0.56,0.883-0.805,1.281c-0.251,0.396-0.472,0.769-0.668,1.105 c-0.391,0.676-0.705,1.207-0.905,1.578c-0.203,0.371-0.312,0.57-0.312,0.57s0.042-0.225,0.144-0.642 c0.109-0.414,0.257-1.028,0.508-1.786c0.243-0.762,0.549-1.688,0.971-2.72c0.409-1.037,0.931-2.182,1.547-3.409 c0.308-0.613,0.663-1.234,1.018-1.885c0.384-0.632,0.77-1.295,1.207-1.951c0.442-0.651,0.886-1.332,1.397-1.981 c0.251-0.329,0.507-0.662,0.764-0.997c0.267-0.328,0.551-0.644,0.831-0.972c0.289-0.32,0.553-0.669,0.866-0.972 c0.309-0.311,0.619-0.624,0.932-0.939c0.157-0.156,0.311-0.317,0.473-0.471l0.501-0.444c0.153-0.132,0.307-0.266,0.46-0.398 c-0.066-0.116-0.134-0.232-0.2-0.347c-4.482-1.67-8.269,1.168-9.322,2.076c-0.194,0.25-0.385,0.499-0.58,0.737 c-0.418,0.565-0.821,1.115-1.21,1.64c-0.755,1.071-1.437,2.072-2.012,2.982c-0.296,0.452-0.559,0.883-0.806,1.281 c-0.25,0.397-0.47,0.767-0.667,1.104c-0.392,0.676-0.706,1.208-0.906,1.579c-0.204,0.371-0.312,0.569-0.312,0.569 s0.041-0.225,0.144-0.642c0.109-0.413,0.257-1.029,0.507-1.787c0.244-0.763,0.55-1.688,0.971-2.719 c0.41-1.038,0.932-2.181,1.547-3.41c0.31-0.613,0.664-1.232,1.019-1.885c0.385-0.632,0.771-1.294,1.207-1.951 c0.443-0.65,0.885-1.33,1.399-1.98c0.251-0.329,0.506-0.66,0.763-0.996c0.267-0.329,0.552-0.645,0.832-0.974 c0.288-0.319,0.552-0.667,0.866-0.972c0.309-0.311,0.619-0.623,0.93-0.938c0.157-0.155,0.312-0.317,0.474-0.469l0.502-0.445 c0.096-0.084,0.194-0.168,0.291-0.253c-0.054-0.091-0.108-0.182-0.163-0.273c-4.35-1.77-8.085,0.775-9.371,1.83 c-0.16,0.207-0.32,0.414-0.482,0.612c-0.418,0.568-0.821,1.116-1.209,1.641c-0.757,1.071-1.437,2.072-2.012,2.982 c-0.296,0.453-0.56,0.883-0.807,1.281c-0.25,0.396-0.47,0.768-0.667,1.104c-0.391,0.677-0.704,1.208-0.905,1.58 c-0.203,0.369-0.311,0.569-0.311,0.569s0.041-0.225,0.144-0.643c0.109-0.413,0.256-1.029,0.507-1.788 c0.244-0.761,0.55-1.687,0.972-2.717c0.409-1.039,0.929-2.182,1.545-3.409c0.31-0.613,0.664-1.234,1.019-1.886 c0.385-0.632,0.771-1.294,1.206-1.951c0.442-0.65,0.885-1.331,1.397-1.98c0.252-0.329,0.507-0.663,0.764-0.997 c0.268-0.328,0.553-0.644,0.833-0.972c0.288-0.32,0.552-0.668,0.866-0.973c0.308-0.311,0.618-0.622,0.93-0.938 c0.158-0.156,0.312-0.317,0.475-0.47l0.483-0.428c-3.819-1.708-7.198-0.039-8.921,1.158c-0.237,0.304-0.467,0.604-0.704,0.891 c-0.418,0.567-0.822,1.116-1.209,1.641c-0.755,1.07-1.437,2.072-2.012,2.983c-0.294,0.452-0.559,0.883-0.806,1.281 c-0.251,0.397-0.47,0.767-0.668,1.105c-0.389,0.675-0.704,1.207-0.905,1.578c-0.203,0.372-0.311,0.57-0.311,0.57 s0.041-0.226,0.146-0.643c0.109-0.413,0.255-1.027,0.507-1.787c0.243-0.762,0.549-1.687,0.969-2.718 c0.41-1.037,0.931-2.182,1.547-3.41c0.31-0.613,0.665-1.233,1.02-1.885c0.383-0.631,0.769-1.295,1.206-1.95 c0.443-0.652,0.886-1.331,1.397-1.982c0.251-0.328,0.506-0.661,0.764-0.997c0.267-0.327,0.552-0.645,0.832-0.973 c0.287-0.318,0.552-0.667,0.866-0.971c0.307-0.311,0.618-0.624,0.931-0.938c0.156-0.156,0.31-0.317,0.473-0.472l0.091-0.081 c-5.002-2.033-9.193,1.637-9.78,2.187c-0.253,0.342-0.502,0.681-0.743,1.008c-0.756,1.07-1.437,2.071-2.013,2.982 c-0.295,0.453-0.56,0.882-0.806,1.282c-0.252,0.396-0.471,0.768-0.667,1.104c-0.392,0.675-0.705,1.208-0.906,1.579 c-0.203,0.37-0.311,0.568-0.311,0.568s0.041-0.225,0.144-0.643c0.109-0.412,0.256-1.028,0.507-1.788 c0.244-0.761,0.55-1.686,0.972-2.717c0.409-1.038,0.93-2.182,1.545-3.412c0.311-0.613,0.665-1.232,1.02-1.883 c0.384-0.632,0.771-1.295,1.207-1.951c0.443-0.65,0.885-1.332,1.397-1.981c0.252-0.33,0.507-0.661,0.764-0.997 c0.267-0.328,0.552-0.645,0.832-0.972c0.287-0.32,0.552-0.669,0.866-0.972c0.199-0.201,0.399-0.403,0.6-0.605 c-3.448-1.516-6.533-0.288-8.355,0.843c-0.411,0.558-0.809,1.098-1.189,1.615c-0.756,1.071-1.437,2.073-2.014,2.984 c-0.295,0.45-0.558,0.882-0.805,1.28c-0.251,0.395-0.47,0.767-0.667,1.105c-0.392,0.675-0.705,1.208-0.906,1.578 c-0.203,0.371-0.312,0.568-0.312,0.568s0.042-0.225,0.145-0.642c0.109-0.412,0.255-1.029,0.506-1.787 c0.244-0.76,0.55-1.688,0.97-2.717c0.41-1.039,0.932-2.182,1.547-3.41c0.31-0.613,0.664-1.234,1.02-1.884 c0.385-0.633,0.771-1.297,1.207-1.952c0.441-0.651,0.884-1.331,1.397-1.981c0.25-0.328,0.505-0.661,0.763-0.997 c0.267-0.326,0.552-0.644,0.831-0.973c0.113-0.125,0.223-0.255,0.333-0.386c-0.136-0.137-0.271-0.278-0.405-0.413 c-4.123-1.149-7.544,1.364-8.597,2.26c-0.065,0.095-0.135,0.193-0.2,0.287c-0.094,0.136-0.186,0.271-0.276,0.404 c-0.066,0.098-0.133,0.197-0.197,0.293c-0.093,0.138-0.183,0.272-0.271,0.406c-0.053,0.081-0.106,0.162-0.159,0.24 c-0.138,0.213-0.273,0.421-0.401,0.625c-0.295,0.45-0.559,0.882-0.805,1.28c-0.251,0.396-0.471,0.769-0.668,1.104 c-0.39,0.676-0.704,1.209-0.905,1.579c-0.203,0.372-0.311,0.569-0.311,0.569s0.041-0.225,0.145-0.643 c0.108-0.412,0.256-1.029,0.506-1.787c0.244-0.761,0.55-1.687,0.972-2.717c0.409-1.039,0.93-2.182,1.546-3.409 c0.31-0.615,0.664-1.234,1.019-1.887c0.383-0.629,0.77-1.293,1.206-1.949c0.443-0.651,0.886-1.331,1.398-1.982 c0.067-0.087,0.135-0.175,0.203-0.263c-3.398-1.405-6.477,0.055-8.36,1.408c-0.272,0.42-0.52,0.821-0.75,1.194 c-0.252,0.396-0.471,0.767-0.668,1.105c-0.391,0.675-0.705,1.208-0.905,1.579c-0.203,0.371-0.312,0.568-0.312,0.568 s0.042-0.224,0.144-0.642c0.11-0.414,0.257-1.029,0.507-1.788c0.042-0.13,0.088-0.27,0.133-0.41 c-0.043,0.048-0.068,0.076-0.068,0.076c0.024-0.029,0.052-0.068,0.077-0.102c0.001,0,0.001,0,0.001-0.002 c0.038-0.117,0.079-0.236,0.12-0.359c0.03-0.092,0.062-0.185,0.095-0.28c0.034-0.099,0.069-0.196,0.104-0.298 c0.047-0.132,0.096-0.268,0.147-0.404c0.03-0.082,0.059-0.161,0.09-0.244c0.086-0.227,0.176-0.458,0.273-0.695 c0.408-1.038,0.93-2.182,1.545-3.41c0.31-0.613,0.664-1.232,1.019-1.884c0.135-0.224,0.274-0.452,0.415-0.681 c0.002-0.002,0.002-0.004,0.003-0.007c-3.72-1.646-6.163,0.39-7.007,1.296c-0.069,0.122-0.132,0.233-0.185,0.333 c-0.203,0.37-0.312,0.566-0.312,0.566s0.042-0.223,0.145-0.641c0.109-0.413,0.256-1.028,0.506-1.786 c0.244-0.762,0.551-1.689,0.972-2.719c0.099-0.249,0.204-0.505,0.314-0.767c0.105-0.247,0.217-0.499,0.333-0.756 c0.005-0.012,0.009-0.023,0.015-0.034c-37.943-28.676-69.933-21.753-76.2-1.556c-4.427,14.265,12.551,44.045,12.551,44.045 s86.068,85.551,122.447,120.504c-4.703,4.712-10.447,5.679-15.687,4.912c-7.164-1.049-13.878-2.09-22.037,3.338 c-8.158,5.426-14.586,15.057-14.586,15.057c4.843-3.629,6.534-5.809,11.465-6.453c7.344-0.959,9.026,6.49,19.855,2.499 c1.889-0.696,3.567-1.22,5.081-1.614c-1.044,1.167-2.042,2.457-2.998,3.896c-5.936,8.947-4.203,15.365-4.101,18.204 c0.104,2.841-0.606-6.724,7.142-12.427c2.308-1.697,6.279-1.063,10.541,0.399c3.946,1.354,9.064,2.476,16.136-6.359 c0.781-0.975,1.734-2.024,2.777-3.11c7.089,0.031,11.623-0.765,14.343-2.167c2.119-0.029,4.407-0.112,6.89-0.255 c3.501-0.201,6.982-1.354,15.967,2.443c8.984,3.803,10.673-2.412,16.832-1.308c4.133,0.739,5.481,2.646,9.431,5.902 C500.895,735.21,495.825,726.831,489.145,721.927z"/> <path fill="#ECBF69" d="M282.262,495.175c18.921,11.682,41.202,22.981,63.583,33.207c26.426,12.075,52.984,22.656,74.298,30.604 c5.802,2.084,11.238,3.993,16.173,5.696l-125.454-80.794C307.292,493.443,298.595,502.192,282.262,495.175z"/> <path fill="#ECBF69" d="M301.686,516.571l-0.267,3.871c-0.038,1.169-0.132,2.302-0.251,3.759c-0.029,0.353-0.06,0.73-0.092,1.13 c1.747-0.37,7.077-1.63,16.238-0.731c-0.883-0.382-1.771-0.808-2.66-1.282c-1.263-0.673-2.634-1.545-4.078-2.487 C307.581,519.433,304.615,518.013,301.686,516.571z"/> <path fill="#ECBF69" d="M272.278,386.119c-2.284,0.024-5.757,0.249-9.108,0.782c-6.488,1.033-13.777,3.331-19.679,8.314 c-1.914,1.851-4.22,4.398-6.413,7.643c-0.029,0.045-0.058,0.091-0.087,0.135l0.018,0.05l-0.172,0.188 c-0.06,0.09-0.119,0.183-0.179,0.274c-3.867,6.897-8.559,19.246-6.695,33.362c0.71,4.313,1.993,8.93,3.992,13.853 c2.643,5.804,6.637,11.697,12.43,17.465c5.987,5.958,13.451,11.952,21.972,17.894c0.283,0.136,0.602,0.286,0.945,0.444 c1.746,0.798,4.24,1.83,7.146,2.717c9.864,3.009,24.456,4.319,30.498-10.997c0.058-0.149,0.119-0.294,0.176-0.446 c-0.029-0.024-0.059-0.046-0.089-0.071c0,0,0.033,0.02,0.095,0.056c0.013-0.034,0.027-0.067,0.041-0.103 c0.505,0.281,1.017,0.548,1.526,0.82c1.091,0.581,2.188,1.147,3.3,1.686c0,0.001,0,0.001,0,0.001 c8.927,3.847,27.511,9.065,35.51-9.429c0.138-0.321,0.271-0.652,0.403-0.985c0.04-0.102,0.083-0.2,0.123-0.304l5.113,3.361 c3.119,1.985,6.474,4.127,10.028,6.425c2.556,1.645,5.219,3.359,7.975,5.133c2.748,1.787,5.588,3.634,8.509,5.534 c5.836,3.807,12.001,7.801,18.337,12.005c3.172,2.094,6.397,4.224,9.662,6.379c3.267,2.152,6.57,4.336,9.885,6.563 c6.638,4.439,13.381,8.949,20.124,13.457c5.368,3.636,10.734,7.27,16.048,10.868l57.742,37.187 c-0.022,0.01-0.045,0.022-0.068,0.035l13.537,8.719c2.769,1.551,11.732,7.246,19.43,8.735c17.178,3.324,28.969,4.831,32.467,4.573 c5.453-0.4-241.913-184.304-295.208-210.181C280.477,387.71,275.813,386.08,272.278,386.119z"/> <path fill="#ECBF69" d="M383.908,499.946l-32.871-21.169c-3.562,7.53-10.539,13.716-22.623,10.709l118.065,76.035 c11.49,5.175,33.751,13.345,75.939,23.706l-138.544-89.224L383.908,499.946z"/> <path fill="#ECBF69" d="M273.316,569.356c0.195,0.073,0.391,0.145,0.587,0.213c0.847-4.06,1.099-8.293,0.747-13 c-0.391-2.992-1.065-6.006-1.848-8.98l-0.042-0.017c-6.644-2.81-12.694-8.042-17.441-14.992 c0.351,6.287-0.041,12.856-2.583,18.692c-0.178,0.408-0.367,0.815-0.565,1.215C256.418,557.741,264.168,565.961,273.316,569.356z"/> <path fill="#ECBF69" d="M276.253,571.77c0.333,0.361,0.685,0.72,1.047,1.075c1.034,1.01,2.168,1.986,3.311,2.896 c1.496,1.188,3.006,2.262,4.327,3.147c-0.911-2.284-2.06-5.58-3.406-10.292c-1.93-6.749-2.362-13.73-2.453-15.849 c-0.179-0.173-0.407-0.395-0.667-0.647c-0.238-0.229-0.48-0.462-0.729-0.7c-0.317-0.304-0.642-0.615-0.967-0.927 c0.321,2.021,0.553,3.961,0.694,5.83c0.389,5.134,0.099,9.756-0.866,14.21C276.453,570.932,276.356,571.351,276.253,571.77z"/> <path fill="#ECBF69" d="M278.173,527.123c0.25,6.011-0.27,12.225-2.742,17.846c-0.021,0.048-0.042,0.097-0.064,0.145 c1.061,1.127,2.617,2.622,4.049,3.993c0.001-0.004,0.001-0.01,0.001-0.017c0.122-3.797,1.157-7.588,3.034-11.109 c0.431-0.922,0.921-1.826,1.481-2.704c0.402-0.634,0.858-1.24,1.36-1.818C283.425,532.031,280.583,529.83,278.173,527.123z"/> <path fill="#ECBF69" d="M249.783,550.627c0.047,0.028,0.096,0.057,0.143,0.084c0.215-0.457,0.414-0.92,0.6-1.389 c2.569-6.47,2.386-14.031,1.679-20.917c-0.016-0.01-0.031-0.02-0.046-0.031c-6.693-4.184-11.237-10.695-14.242-16.765 c-0.205,2.331-0.596,4.684-1.173,7.03c-0.893,4.452-2.417,8.895-5.007,12.847c0.254,0.596,0.576,1.234,0.953,1.902 C235.863,539.001,243.118,546.761,249.783,550.627z"/> <path fill="#ECBF69" d="M275.12,523.108c-0.146-0.084-0.292-0.169-0.438-0.257c-5.49-3.323-10.364-8.775-13.943-15.506 c-0.23,3.305-0.817,6.576-1.749,9.773c-0.843,3.337-2.085,6.574-3.916,9.544c-0.016,0.026-0.033,0.052-0.049,0.077 c4.361,7.894,10.581,14.145,17.32,17.447c0.102,0.05,0.202,0.106,0.304,0.153c0.013-0.027,0.023-0.056,0.036-0.083 c0.111-0.237,0.21-0.478,0.313-0.717c0.135-0.315,0.267-0.632,0.389-0.954c0.313-0.817,0.591-1.644,0.823-2.488 c0.859-3.11,1.2-6.378,1.242-9.649C275.484,527.98,275.346,525.513,275.12,523.108z"/> <path fill="#ECBF69" d="M287.245,531.338c0.313-0.267,0.632-0.519,0.954-0.769c0.676-0.52,1.373-1.007,2.086-1.447 c2.468-1.521,5.156-2.732,8-3.601c0.046-0.571,0.089-1.093,0.129-1.574c0.215-2.628,0.333-4.068,0.209-6.592 c-2.688-1.622-5.246-3.719-7.591-6.209c-2.679-1.413-5.314-2.844-7.9-4.291c-0.771,5.556-2.2,10.143-4.374,14.045 c-0.247,0.442-0.504,0.874-0.77,1.297c0.11,0.182,0.227,0.364,0.347,0.542c0.363,0.508,0.725,1,1.087,1.476 c2.413,2.984,5.694,5.494,7.668,7.003C287.142,531.259,287.194,531.299,287.245,531.338z"/> <path fill="#ECBF69" d="M271.945,517.281c0.909,0.797,1.843,1.535,2.802,2.193c0.34,0.233,1.115,0.726,1.158,0.751 c0.076-0.125,0.801-1.412,1.031-1.873c0.008-0.016,0.016-0.032,0.023-0.048c1.178-2.359,2.085-4.999,2.745-7.986 c0.342-1.549,0.618-3.189,0.828-4.935c-0.12-0.069-0.239-0.137-0.358-0.206c-0.452-0.259-0.901-0.519-1.349-0.778 c-5.184-3.006-10.141-6.083-14.813-9.222c-0.868,2.109-1.878,4.055-3.021,5.83c-0.023,0.036-0.045,0.074-0.069,0.112 C263.542,507.689,267.409,513.309,271.945,517.281z"/> <path fill="#ECBF69" d="M238.277,505.447c-0.016,0.023,0,0-0.016,0.024c3.273,8.502,7.971,15.047,13.586,19.203 c0.257,0.191,0.514,0.38,0.774,0.562c0.007,0.004,0.014,0.01,0.021,0.015c0.096-0.153,0.181-0.312,0.273-0.466 c0.146-0.244,0.295-0.487,0.433-0.736c1.333-2.402,2.282-4.996,2.96-7.677c1.215-4.796,1.561-9.868,1.649-14.618 c-6.606-4.331-10.853-11.104-13.438-16.75C243.832,491.939,242.312,499.438,238.277,505.447z"/> <path fill="#ECBF69" d="M258.961,498.953c1.018-1.637,1.915-3.437,2.689-5.386c-5.706-3.944-10.951-7.984-15.618-12.112 C248.247,486.955,252.271,494.361,258.961,498.953z"/> <path fill="#ECBF69" d="M226.701,527.326c0.948,0.743,1.925,1.417,2.936,2.016c0.032,0.019,0.062,0.04,0.094,0.058 c2.176-3.461,3.49-7.366,4.287-11.305c0.853-4.222,1.114-8.487,1.182-12.302c-5.126-3.62-9.311-8.778-12.892-15.928 c-0.467,3.584-1.393,7.182-2.81,10.92c-1.196,3.708-2.776,7.097-4.712,10.051c0.843,1.885,1.73,3.635,2.657,5.27 C220.145,520.872,223.212,524.591,226.701,527.326z"/> <path fill="#ECBF69" d="M231.855,466.152c-1.749,5.83-4.415,12.509-9.019,17.691c0.003,0.161,3.432,8.632,8.343,14.466 c0.797,0.946,1.656,1.794,2.528,2.595c1.821,1.579,2.939,1.997,3.065,2.077c0.071-0.146,2.32-5.167,2.71-6.848 c1.583-4.72,2.232-9.805,2.545-14.645c-3.151-3.263-5.69-7.271-7.605-11.98C233.52,468.393,232.662,467.275,231.855,466.152z"/> <path fill="#ECBF69" d="M201.536,486.16c0.002,0.013,0.005,0.028,0.008,0.041c0.052,0.24,0.11,0.476,0.166,0.712 c0.041,0.172,0.078,0.346,0.12,0.516c0.197,0.792,0.418,1.57,0.655,2.334c0.007,0.018,0.012,0.038,0.018,0.058 c0.368,1.173,0.779,2.31,1.222,3.407c0,0,0,0,0,0.001s0.001,0.001,0.001,0.002c0.252,0.625,0.515,1.236,0.785,1.834 c0.271,0.596,0.549,1.18,0.832,1.75c0.038,0.075,0.074,0.153,0.112,0.229c0.016,0.031,0.031,0.06,0.047,0.09 c0.999,1.975,2.058,3.765,3.08,5.331c0.612,0.938,1.208,1.795,1.77,2.565c0.47,0.642,0.916,1.229,1.322,1.743 c0.474,0.597,0.896,1.105,1.248,1.517c1.632-2.989,2.955-5.827,3.999-8.581c2.069-5.455,3.023-10.564,2.985-15.784 c-0.173-0.178-0.341-0.366-0.51-0.55c-0.071-0.076-0.142-0.15-0.211-0.228c-4.68-4.603-7.411-10.69-9.173-16.619 c-0.151-0.473-0.296-0.949-0.436-1.43c-0.029-0.104-0.063-0.207-0.092-0.31c-0.809,3.38-1.75,6.655-3.33,10.141 c-0.351,0.775-0.733,1.559-1.153,2.358c-1.049,1.998-2.329,4.083-3.928,6.308c0.004,0.03,0.01,0.061,0.014,0.09 C201.21,484.523,201.36,485.347,201.536,486.16z"/> <path fill="#ECBF69" d="M222.02,440.576c-2.327,6.59-5.966,12.652-11.026,18.37c0.449,2.17,0.993,4.472,1.685,6.789 c1.419,4.744,3.486,9.55,6.734,13.453c0.516,0.619,1.052,1.224,1.63,1.793c0.002-0.002,0.004-0.006,0.007-0.009 c0.097-0.114,0.19-0.234,0.286-0.351c3.735-4.515,6.648-10.547,8.47-17.497c-2.766-4.353-4.789-8.776-5.948-13.258 C223.022,446.634,222.42,443.54,222.02,440.576z"/> <path fill="#ECBF69" d="M195.517,472.924c1.556,3.45,3.151,6.192,4.141,7.775c5.14-7.531,6.462-13.473,7.979-20.282 c0.112-0.505,0.229-1.021,0.345-1.536c-6.647-8.424-7.779-15.929-8.52-22.617c-0.634,2.003-1.376,3.861-2.324,5.804 c-2.413,5.434-4.845,8.769-6.052,10.243c-0.14,1.894-0.085,3.792,0.115,5.667C191.784,463.459,193.617,468.716,195.517,472.924z"/> <path fill="#ECBF69" d="M209.548,456.281c5.969-6.935,9.764-14.385,11.578-22.718c-0.011-0.093-0.023-0.188-0.034-0.282 c-1.656-2.728-5.249-9.799-6.114-20.948c-5.063,10.501-11.308,15.591-13.56,17.184c0.362,5.108,1.629,12.509,2.127,14.455 C204.536,447.852,206.247,451.909,209.548,456.281z"/> <path fill="#ECBF69" d="M187.317,443.344c0.514,1.663,2.488,5.917,2.519,5.968c1.468-1.993,3.083-4.725,4.607-8.096 c1.145-2.531,2.237-5.426,3.178-8.641c0.293-1.001,0.573-2.032,0.833-3.094c-0.027-0.042-0.059-0.088-0.088-0.133 c-0.874-1.325-2.639-4.417-4.241-9.762c-0.431-1.393-0.836-2.926-1.189-4.599c-0.472-2.131-0.897-4.512-1.24-7.166 c-1.224,2.496-2.593,4.835-4.097,7.013c-1.004,2.276-1.854,4.86-2.275,7.644c-0.184,1.209-0.287,2.457-0.285,3.732 c0.003,3.284,0.202,6.194,0.524,8.753C185.988,438.347,186.628,441.12,187.317,443.344z"/> <path fill="#ECBF69" d="M208.15,384.545c-5.18,10.745-11.596,15.827-13.708,17.291c-0.115,11.318,2.851,19.154,4.826,23.101 c0.38,0.76,0.725,1.376,1.003,1.846c0.175-0.133,0.371-0.285,0.583-0.456c2.974-2.387,9.365-8.562,13.769-20.266 C213.196,403.856,209.085,396.571,208.15,384.545z"/> <path fill="#ECBF69" d="M231.258,389.394c-5.18,10.738-11.592,15.817-13.703,17.281c-0.102,9.838,2.104,17.007,3.981,21.308 c0.813-12.061,5.425-21.302,11.547-28.03C232.155,396.625,231.542,393.099,231.258,389.394z"/> <path fill="#ECBF69" d="M233.844,383.719c-0.054,4.951,0.447,9.615,1.5,13.925c5.403-5.133,11.671-8.531,17.463-10.37 c0.486-0.155,0.967-0.298,1.443-0.437c-1.45-1.922-5.717-8.504-6.693-20.424C242.376,377.167,235.96,382.252,233.844,383.719z"/> <path fill="#ECBF69" d="M184.161,389.658c-0.433,2.968-0.769,6.106-0.888,9.19c-0.272,7.099,0.641,12.075,1.381,14.851 c0.016,0.252,3.579-5.098,4.871-7.812c0.714-1.5,1.38-3.052,1.986-4.664c-1.3-2.008-4.824-8.229-6.15-18.403 C184.937,384.901,184.516,387.221,184.161,389.658z"/> <path fill="#ECBF69" d="M187.621,374.04c-0.137,13.505,4.109,22.058,5.829,24.955c2.627-1.984,9.623-8.182,14.341-20.723 c-1.423-2.197-5.533-9.478-6.469-21.514C196.146,367.496,189.739,372.572,187.621,374.04z"/> <path fill="#ECBF69" d="M210.733,378.878c-0.14,13.564,4.104,22.077,5.825,24.958c2.624-1.981,9.625-8.179,14.345-20.727 c-1.423-2.197-5.533-9.478-6.468-21.514C219.258,372.333,212.852,377.409,210.733,378.878z"/> <path fill="#ECBF69" d="M272.793,384.556c0,0-1.328-10.551-1.628-14.394c-3.834,8.267-8.445,12.966-11.511,15.394 C267.732,383.942,272.793,384.556,272.793,384.556z"/> <path fill="#ECBF69" d="M314.005,294.842L314.005,294.842C314.004,294.829,314.004,294.831,314.005,294.842z"/> <path fill="#ECBF69" d="M314.067,294.766c-0.005,0.014-0.044,0.042-0.062,0.076c-0.011,0.021-0.015,0.042,0.009,0.066 c0.037-0.038,0.072-0.073,0.109-0.11C314.104,294.787,314.085,294.776,314.067,294.766z"/> <path id="_x3C_Path_x3E_" fill="#ECBF69" d="M334.029,316.807c-2.311-7.149-6.162-12.466-11.383-16.455 c-0.898-0.686-5.629-3.971-8.522-5.554c-0.037,0.037-0.072,0.072-0.109,0.11c0.078,0.081,0.205,0.304,0.265,0.555 c0.146,0.612,0.234,1.665-0.259,3.311c-0.376,1.253-1.14,2.957-2.26,4.482c-0.556,0.765-1.175,1.561-1.881,2.35 c-0.71,0.783-1.496,1.565-2.349,2.341c-0.85,0.78-1.778,1.538-2.774,2.267c-0.497,0.362-1.037,0.743-1.543,1.07l-0.388,0.255 l-0.097,0.064l-0.12,0.074l-0.223,0.132c-0.295,0.183-0.6,0.343-0.908,0.5c-1.239,0.618-2.552,1.042-3.88,1.393 c-1.329,0.329-2.68,0.587-4.03,0.817c-2.694,0.459-5.425,0.855-7.932,1.793c-0.624,0.237-1.223,0.522-1.808,0.832 c-0.574,0.326-1.127,0.687-1.641,1.105c-0.129,0.103-0.249,0.219-0.375,0.328c-0.13,0.107-0.25,0.217-0.356,0.328 c-0.113,0.114-0.223,0.214-0.341,0.336l-0.367,0.426c-0.412,0.486-0.791,1.085-0.997,1.61c-0.103,0.267-0.166,0.521-0.173,0.735 c-0.011,0.218,0.026,0.395,0.107,0.581c0.161,0.372,0.604,0.77,1.144,1.082c1.1,0.632,2.471,1.017,3.817,1.33 c2.722,0.622,5.515,0.959,8.209,1.283c0.528,0.062,1.051,0.121,1.572,0.18c2.543-0.292,5.506-0.464,8.554-0.284 c6.444,0.379,13.255,2.084,17.216,3.419c2.132,0.673,4.361,1.776,4.361,1.776c-3.742-3.015-9.839-6.227-19.768-8.632 c-4.555-1.103-9.916-2.038-16.226-2.704c-0.416-0.043-0.775-0.551-0.136-0.422c2.074,0.419,4.319,0.224,5.76,0.221 c13.017-0.029,25.68,4.199,32.053,10.859c2.675,2.796,4.968,7.208,4.986,10.725C331.228,341.428,337.945,328.924,334.029,316.807z M314.141,305.837c0.393-0.645,0.781-1.591,0.9-2.962c2.772,1.253,5.128,2.629,6.463,5.924 C320.012,307.665,317.506,305.722,314.141,305.837z"/> <path id="_x3C_Path_x3E__1_" fill="#ECBF69" d="M314.005,294.842c0.018-0.034,0.057-0.063,0.062-0.076 c0.018,0.01,0.037,0.021,0.056,0.032c0.669-0.68,1.312-1.333,1.947-1.983c0.646-0.658,0.696-1.51,0.229-2.254 c-0.684-1.087-1.388-2.215-2.256-3.058c-10.045-9.788-21.519-15.487-34.167-17.63c-3.006-0.509-42.157-6.219-48.847-13.42 c-0.272-0.293,0.149,4.459,1.77,9.09c0.343,0.98,0.762,1.96,1.198,2.879c-0.223,0.088-0.437,0.177-0.637,0.272 c-8.402,4.016-16.104,10.175-22.781,18.614l0.076-0.166c0,0-9.142,8.093-20.468,30.979c-8.141,16.452-11.332,16.413-11.332,16.413 s5.724,0.547,11.125-2.94c0.506-1.236,1.004-2.399,1.475-3.459c1.624-3.662,2.915-6.124,3.042-6.365l2.723-5.16l-0.008,0.349 l-0.099,4.367l-0.027,1.194c-0.316,13.961,4.067,22.784,5.821,25.738c2.679-2.024,9.901-8.418,14.618-21.459l0.347-0.96 l2.518-6.96l-0.159,7.049l-0.032,1.431c-0.318,14.024,4.063,22.804,5.817,25.741c1.347-1.017,3.846-3.144,6.599-6.669 c2.56-3.277,5.337-7.767,7.61-13.695c0.139-0.362,0.278-0.724,0.413-1.097l0.339-0.939l2.526-6.982l-0.193,8.481 c-0.316,14.022,4.064,22.803,5.818,25.739c2.677-2.02,9.902-8.413,14.622-21.46l2.866-7.922l-0.192,8.482 c-0.245,10.854,2.325,18.57,4.313,22.864c0.003-17.573,4.364-26.188,10.514-29.696c2.449-1.397,5.477-2.333,5.485-2.336 c0.042-0.007,0.536-0.142,1.375-0.332c-1.264-0.143-2.543-0.318-3.837-0.561c-0.723-0.143-1.45-0.312-2.183-0.53 c-0.731-0.221-1.469-0.484-2.208-0.886c-0.366-0.204-0.736-0.439-1.091-0.751c-0.353-0.31-0.696-0.705-0.946-1.204 c-0.251-0.496-0.383-1.093-0.369-1.645c0.007-0.556,0.132-1.058,0.292-1.507c0.333-0.907,0.786-1.597,1.298-2.29l0.333-0.456 c0.128-0.16,0.276-0.329,0.415-0.492c0.281-0.345,0.571-0.607,0.87-0.9c0.605-0.554,1.258-1.039,1.933-1.473 c0.681-0.417,1.384-0.777,2.095-1.084c2.857-1.213,5.749-1.649,8.414-2.127c2.668-0.459,5.185-0.92,7.265-1.875 c0.26-0.118,0.516-0.238,0.757-0.375l0.184-0.099l0.046-0.024c-0.014,0.011,0.025-0.014,0.035-0.019l0.101-0.059l0.397-0.237 c0.544-0.315,1.01-0.619,1.503-0.924c0.978-0.622,1.89-1.274,2.756-1.915c0.862-0.647,1.662-1.308,2.39-1.976 c0.733-0.662,1.413-1.314,2.019-1.964c1.206-1.304,3.653-5.521,3.438-7.257C313.991,294.885,313.995,294.863,314.005,294.842z M291.605,298.916c-2.984-1.371-5.404-3.156-5.446-3.174c-0.02-0.008-0.817,2.309,3.336,4.689 c2.378,1.364,6.335,2.445,6.335,2.445s-1.563,3.532-5.076,4.498c-3.324,0.915-7.575-0.683-8.714-4.498 c-0.598-2.003-0.511-5.692,1.123-7.785c-4.874-2.749-11.181-1.172-15.346-0.591c0.018-0.007,13.814-5.56,24.152-0.13 c2.988,1.257,4.467,1.497,7.601,2.02c3.066,0.512,7.861-0.004,10.61-1.642C305.425,302.09,294.062,300.045,291.605,298.916z"/> <path fill="#ECBF69" d="M314.005,294.842c0.001,0.011,0.004,0.03,0.009,0.066c0.037-0.038,0.072-0.073,0.109-0.11 c-0.019-0.011-0.038-0.022-0.056-0.032C314.062,294.78,314.023,294.809,314.005,294.842z"/> <path fill="#ECBF69" d="M314.005,294.842c0.003,0.021,0.009,0.066,0.009,0.066C314.009,294.872,314.007,294.853,314.005,294.842 L314.005,294.842z"/> <path fill="#ECBF69" d="M314.014,294.908c0,0-0.006-0.045-0.009-0.066C313.995,294.863,313.991,294.885,314.014,294.908z"/> <path fill="#ECBF69" d="M187.461,349.446c-1.347,8.312-1.304,14.185-0.94,17.943c0.145,1.49,0.339,2.649,0.518,3.494 c0.202-0.159,0.422-0.339,0.657-0.536c3.143-2.644,9.101-8.768,13.274-19.862c-1.454-2.244-5.687-9.752-6.521-22.167 C192.075,333.555,188.673,341.963,187.461,349.446z"/> <path fill="#ECBF69" d="M203.9,351.1c-0.122,11.952,3.193,20.02,5.149,23.726c0.252,0.48,0.483,0.889,0.68,1.221 c0.304-0.229,0.669-0.517,1.078-0.862c3.144-2.642,9.102-8.767,13.274-19.86c-1.428-2.205-5.538-9.489-6.474-21.516 C212.428,344.554,206.012,349.636,203.9,351.1z"/> <path fill="#ECBF69" d="M227.013,355.938c-0.122,11.952,3.192,20.02,5.148,23.726c0.253,0.479,0.484,0.889,0.681,1.221 c0.304-0.229,0.668-0.517,1.078-0.861c3.143-2.642,9.101-8.767,13.274-19.86c-1.428-2.204-5.538-9.49-6.474-21.516 C235.541,349.393,229.125,354.474,227.013,355.938z"/> <path fill="#ECBF69" d="M250.125,360.776c-0.137,13.641,4.265,21.33,5.962,23.78c2.483-1.581,9.464-6.936,14.218-19.556 c-1.427-2.205-5.537-9.489-6.473-21.515C258.652,354.232,252.237,359.313,250.125,360.776z"/> <path fill="#ECBF69" d="M458.233,587.379c1.203,2.68,1.956,5.543,2.077,8.343c30.554,16.938,129.813,69.206,143.278,74.239 c14.016,5.238,27.727-3.754,27.727-3.754S515.848,613.709,458.233,587.379z"/> <path fill="#ECBF69" d="M458.515,603.802c24.676,16.442,94.414,62.251,111.708,72.426c11.229,6.606,28.583-0.958,28.583-0.958 l-138.642-76.41C459.917,600.594,459.384,602.263,458.515,603.802z"/> <path fill="#ECBF69" d="M454.922,607.917c-0.68,0.526-1.381,0.992-2.096,1.414c21.2,17.379,74.293,56.083,91.091,70.089 c7.7,6.42,22.691,1.847,22.691,1.847l-109.615-75.304C456.393,606.655,455.707,607.311,454.922,607.917z"/> <path fill="#ECBF69" d="M443.89,612.267c20.613,19.665,64.943,59.448,73.96,66.733c7.296,5.896,21.611,4.163,21.611,4.163 l-89.391-72.478C448.083,611.488,446.009,611.982,443.89,612.267z"/> <path fill="#ECBF69" d="M427.735,611.919c-0.55-0.094-1.098-0.193-1.645-0.296c10.747,12.767,38.882,45.966,47.342,53.677 c15.184,13.84,38.021,15.989,38.021,15.989l-71.895-68.705C435.568,612.664,431.532,612.242,427.735,611.919z"/> <path fill="#ECBF69" d="M379.062,552.586c21.593,18.297,36.826,49.204,36.826,49.204s29.597,8.434,35.538-3.321 c6.738-13.332-21.077-24.681-21.077-24.681L379.062,552.586z"/> </g> </g> <g id="Layer_10_copy_17"> <g> <path fill="#ECBF69" d="M1193.286,580.891c0.797-0.546,1.645-1.15,2.509-1.802c9.603-4.467,27.077-14.182,47.771-33.049 c26.469-24.13,54.474-65.878,54.948-125.32c0,0,13.805,4.026,19.551,26.7c6.13,24.198,4.526,57.293-57.659,91.308 C1260.406,538.728,1225.385,571.03,1193.286,580.891z"/> <path fill="#ECBF69" d="M1167.989,720.083c6.259-4.546,11.525-3.881,17.148-3.213c4.781,0.565,10.044-0.764,13.818-6.466 c27.099-62.643-4.035-50.128-4.035-50.128c4.282-8.142,12.243-4.571,12.243-4.571c0.651,0.388,1.171,0.691,1.517,0.912 c0.347,0.219,0.532,0.336,0.532,0.336s-0.139-0.173-0.42-0.486c-0.286-0.305-0.696-0.767-1.263-1.3 c-0.564-0.539-1.256-1.189-2.098-1.873c-0.834-0.695-1.815-1.426-2.918-2.181c-0.552-0.375-1.146-0.733-1.756-1.12 c-0.626-0.354-1.268-0.735-1.95-1.08c-0.686-0.341-1.384-0.706-2.131-1.01c-0.37-0.159-0.746-0.317-1.125-0.477 c-0.383-0.148-0.777-0.277-1.173-0.42c-0.398-0.13-0.789-0.299-1.204-0.401c-0.4-0.109-0.806-0.22-1.212-0.331v-0.001 c0.167-0.209,0.337-0.404,0.509-0.589c0.031-0.034,0.063-0.063,0.095-0.096c0.137-0.144,0.276-0.284,0.417-0.414 c0.053-0.048,0.107-0.093,0.161-0.141c0.12-0.106,0.241-0.21,0.363-0.307c0.061-0.048,0.124-0.094,0.185-0.141 c0.117-0.086,0.233-0.17,0.352-0.25c0.064-0.043,0.129-0.084,0.194-0.126c0.117-0.074,0.234-0.144,0.353-0.21 c0.063-0.037,0.127-0.073,0.192-0.107c0.122-0.065,0.243-0.125,0.366-0.182c0.059-0.028,0.12-0.058,0.18-0.084 c0.132-0.058,0.264-0.111,0.397-0.16c0.049-0.018,0.099-0.041,0.147-0.057c0.167-0.061,0.333-0.113,0.498-0.162 c0.014-0.003,0.03-0.008,0.044-0.013c0.187-0.052,0.372-0.098,0.557-0.137c0.014-0.002,0.028-0.004,0.043-0.007 c0.164-0.034,0.327-0.063,0.489-0.086c0.047-0.009,0.096-0.012,0.144-0.021c0.128-0.016,0.253-0.031,0.379-0.042 c0.058-0.004,0.113-0.009,0.169-0.012c0.115-0.009,0.229-0.017,0.343-0.021c0.059,0,0.116-0.002,0.174-0.003 c0.11-0.002,0.219-0.002,0.326-0.001c0.057,0,0.112,0.002,0.169,0.004c0.107,0.002,0.213,0.008,0.318,0.014 c0.051,0.003,0.103,0.005,0.155,0.008c0.109,0.009,0.216,0.021,0.322,0.031c0.041,0.005,0.085,0.008,0.127,0.013 c0.124,0.015,0.244,0.031,0.363,0.049c0.018,0.002,0.035,0.004,0.052,0.008c0.442,0.198,0.876,0.391,1.295,0.579 c1.153,0.543,2.208,1.068,3.128,1.564c0.465,0.244,0.894,0.482,1.291,0.703c0.404,0.216,0.765,0.428,1.092,0.619 c0.652,0.389,1.17,0.693,1.516,0.913c0.349,0.219,0.534,0.336,0.534,0.336s-0.14-0.175-0.421-0.486 c-0.286-0.304-0.697-0.767-1.264-1.3c-0.563-0.538-1.255-1.189-2.097-1.873c-0.835-0.694-1.815-1.425-2.917-2.179 c-0.553-0.377-1.146-0.735-1.756-1.12c-0.626-0.353-1.27-0.734-1.951-1.082c-0.685-0.339-1.384-0.705-2.13-1.008 c-0.371-0.158-0.747-0.317-1.125-0.478c-0.383-0.148-0.777-0.278-1.173-0.42c-0.397-0.13-0.789-0.298-1.203-0.402 c-0.413-0.112-0.827-0.225-1.244-0.339c-0.042-0.01-0.085-0.021-0.127-0.033c0.127-0.157,0.256-0.305,0.385-0.448 c0.043-0.048,0.088-0.097,0.132-0.144c0.118-0.127,0.238-0.249,0.359-0.364c0.033-0.032,0.065-0.063,0.099-0.093 c0.121-0.112,0.242-0.219,0.364-0.319c0.047-0.04,0.093-0.078,0.141-0.116c0.136-0.108,0.271-0.213,0.408-0.31 c0.031-0.021,0.062-0.041,0.093-0.062c0.116-0.08,0.233-0.157,0.351-0.228c0.049-0.031,0.096-0.06,0.145-0.088 c0.138-0.081,0.276-0.158,0.415-0.23c0.037-0.019,0.074-0.036,0.111-0.055c0.113-0.055,0.229-0.109,0.342-0.159 c0.047-0.022,0.095-0.042,0.142-0.063c0.139-0.057,0.278-0.112,0.418-0.161c0.04-0.015,0.08-0.027,0.121-0.041 c0.112-0.038,0.226-0.073,0.337-0.106c0.045-0.012,0.09-0.026,0.134-0.038c0.138-0.038,0.277-0.072,0.414-0.102 c0.042-0.009,0.083-0.018,0.125-0.027c0.112-0.022,0.223-0.042,0.333-0.061c0.04-0.006,0.08-0.014,0.12-0.02 c0.137-0.021,0.272-0.038,0.407-0.052c0.041-0.003,0.08-0.007,0.12-0.011c0.112-0.011,0.223-0.019,0.333-0.024 c0.034-0.002,0.066-0.006,0.098-0.006c0.134-0.006,0.265-0.009,0.394-0.01c0.038,0,0.075,0,0.113,0 c0.11,0.001,0.222,0.002,0.33,0.007c0.023,0,0.048,0,0.073,0.002c0.126,0.005,0.25,0.013,0.372,0.023 c0.034,0.003,0.068,0.005,0.101,0.009c0.111,0.009,0.22,0.02,0.326,0.034c0.014,0,0.029,0.002,0.043,0.004 c0.118,0.015,0.233,0.031,0.344,0.047c0.029,0.005,0.059,0.009,0.088,0.015c0.109,0.018,0.216,0.036,0.32,0.057 c0.001,0,0.005,0,0.007,0.001c0.107,0.021,0.209,0.042,0.31,0.064c0.024,0.005,0.047,0.01,0.07,0.016 c0.095,0.021,0.188,0.043,0.275,0.065c0.141,0.063,0.285,0.127,0.424,0.189c1.153,0.547,2.207,1.069,3.127,1.567 c0.467,0.242,0.895,0.482,1.293,0.703c0.402,0.216,0.764,0.428,1.091,0.621c0.652,0.388,1.17,0.69,1.517,0.91 c0.347,0.219,0.533,0.337,0.533,0.337s-0.139-0.175-0.421-0.487c-0.285-0.304-0.695-0.765-1.263-1.297 c-0.563-0.54-1.256-1.19-2.098-1.874c-0.834-0.696-1.815-1.426-2.917-2.181c-0.552-0.376-1.146-0.733-1.756-1.121 c-0.626-0.353-1.268-0.733-1.951-1.08c-0.686-0.34-1.385-0.707-2.13-1.01c-0.372-0.155-0.747-0.315-1.125-0.476 c-0.383-0.148-0.779-0.278-1.174-0.421c-0.397-0.13-0.788-0.297-1.202-0.401c-0.412-0.112-0.828-0.226-1.244-0.339 c-0.053-0.015-0.107-0.029-0.162-0.044c0.001-0.001,0.001-0.001,0.002-0.002c1.718-2.035,3.733-2.845,5.553-3.075 c0.002-0.001,0.005-0.001,0.008-0.002c0.332-0.041,0.658-0.063,0.975-0.07c0.01,0,0.021,0,0.032,0 c0.103-0.002,0.203-0.002,0.302-0.002c0.012,0,0.024,0,0.036,0c0.189,0.003,0.373,0.011,0.553,0.023 c0.016,0.001,0.033,0.001,0.049,0.003c0.084,0.005,0.167,0.014,0.25,0.021c0.033,0.004,0.066,0.007,0.1,0.01 c0.169,0.018,0.333,0.038,0.492,0.063c0.002,0,0.005,0.001,0.008,0.001c0.071,0.01,0.139,0.022,0.208,0.033 c0.038,0.007,0.076,0.013,0.113,0.02c0.065,0.013,0.128,0.024,0.189,0.036c0.032,0.007,0.062,0.012,0.092,0.019 c0.111,0.022,0.219,0.046,0.321,0.072c0.032,0.007,0.065,0.015,0.096,0.022c0.058,0.015,0.112,0.028,0.166,0.042 c0.021,0.006,0.041,0.011,0.061,0.017c0.104,0.028,0.202,0.056,0.294,0.083c0.018,0.006,0.033,0.011,0.049,0.015 c0.041,0.019,0.082,0.038,0.123,0.055c1.152,0.545,2.207,1.069,3.127,1.565c0.466,0.242,0.895,0.483,1.292,0.704 c0.402,0.217,0.763,0.428,1.09,0.62c0.652,0.387,1.172,0.691,1.517,0.912c0.349,0.219,0.534,0.335,0.534,0.335 s-0.14-0.175-0.421-0.486c-0.286-0.305-0.697-0.767-1.264-1.3c-0.563-0.539-1.255-1.189-2.097-1.874 c-0.835-0.694-1.816-1.424-2.918-2.18c-0.552-0.376-1.146-0.733-1.756-1.119c-0.626-0.354-1.267-0.734-1.95-1.082 c-0.686-0.34-1.385-0.706-2.131-1.009c-0.371-0.157-0.746-0.315-1.125-0.476c-0.383-0.147-0.778-0.279-1.172-0.419 c-0.398-0.131-0.791-0.299-1.204-0.402c-0.412-0.112-0.827-0.224-1.244-0.338c-0.105-0.028-0.211-0.056-0.316-0.084 c3.577-4.199,8.425-3.122,10.125-2.566c0.003,0.001,0.007,0.002,0.01,0.003c0.059,0.02,0.113,0.038,0.164,0.056 c0.009,0.003,0.018,0.006,0.027,0.01c0.046,0.016,0.087,0.031,0.126,0.045c0.011,0.003,0.021,0.008,0.03,0.011 c0.035,0.013,0.067,0.025,0.096,0.037c0.009,0.002,0.018,0.006,0.026,0.01c0.025,0.009,0.047,0.019,0.065,0.026 c0.009,0.003,0.015,0.006,0.022,0.009c0.032,0.013,0.053,0.022,0.053,0.022c-0.061-0.038-0.129-0.08-0.201-0.126 c-0.02-0.012-0.043-0.028-0.063-0.041c-0.056-0.037-0.112-0.072-0.175-0.112c-0.026-0.019-0.055-0.037-0.083-0.056 c-0.058-0.038-0.117-0.077-0.179-0.12c-0.06-0.04-0.119-0.079-0.183-0.121c0.122,0.053,0.247,0.109,0.366,0.163 c1.153,0.545,2.207,1.068,3.129,1.566c0.466,0.242,0.894,0.482,1.291,0.703c0.402,0.216,0.765,0.429,1.092,0.619 c0.651,0.39,1.17,0.693,1.517,0.912c0.347,0.22,0.532,0.337,0.532,0.337s-0.138-0.175-0.421-0.487 c-0.284-0.305-0.696-0.768-1.263-1.3c-0.563-0.538-1.255-1.188-2.097-1.872c-0.835-0.695-1.815-1.426-2.917-2.18 c-0.553-0.376-1.147-0.735-1.756-1.12c-0.626-0.353-1.269-0.732-1.95-1.081c-0.686-0.34-1.385-0.704-2.13-1.009 c-0.373-0.157-0.747-0.315-1.125-0.476c-0.384-0.147-0.778-0.278-1.173-0.419c-0.398-0.131-0.79-0.3-1.204-0.403 c-0.412-0.111-0.826-0.224-1.244-0.337c-0.209-0.056-0.417-0.118-0.629-0.168l-0.015-0.003c0.104-0.127,0.209-0.25,0.315-0.367 c0.073-0.083,0.147-0.16,0.222-0.239c0.058-0.059,0.115-0.117,0.174-0.175c0.121-0.12,0.243-0.234,0.366-0.343 c0.061-0.054,0.122-0.11,0.183-0.162c0.081-0.066,0.162-0.131,0.244-0.196c0.054-0.042,0.11-0.083,0.165-0.125 c0.137-0.102,0.273-0.197,0.412-0.288c0.054-0.036,0.108-0.071,0.162-0.105c0.084-0.053,0.169-0.104,0.255-0.153 c0.053-0.031,0.108-0.06,0.162-0.089c0.142-0.078,0.283-0.15,0.426-0.217c0.054-0.026,0.107-0.051,0.161-0.075 c0.086-0.039,0.171-0.075,0.257-0.111c0.055-0.021,0.109-0.042,0.165-0.063c0.14-0.053,0.279-0.103,0.419-0.147 c0.056-0.019,0.114-0.035,0.17-0.053c0.083-0.025,0.166-0.049,0.248-0.07c0.063-0.017,0.128-0.032,0.191-0.047 c0.127-0.03,0.253-0.059,0.379-0.082c0.062-0.012,0.124-0.023,0.185-0.035c0.075-0.012,0.152-0.026,0.228-0.036 c0.109-0.016,0.218-0.03,0.326-0.042c0.074-0.008,0.147-0.015,0.221-0.021c0.067-0.006,0.135-0.011,0.202-0.016 s0.133-0.008,0.199-0.011c0.113-0.006,0.225-0.008,0.335-0.009c0.061,0,0.121,0,0.18,0c0.076,0,0.15,0.002,0.225,0.005 c0.053,0.001,0.106,0.002,0.159,0.005c0.111,0.005,0.221,0.012,0.33,0.021c0.05,0.004,0.098,0.008,0.146,0.013 c0.083,0.008,0.165,0.015,0.245,0.026c0.038,0.003,0.075,0.006,0.111,0.012c0.107,0.013,0.212,0.029,0.316,0.044 c0.039,0.006,0.077,0.013,0.116,0.019c0.088,0.014,0.175,0.029,0.259,0.044c0.021,0.005,0.044,0.008,0.065,0.012 c0.099,0.02,0.193,0.039,0.286,0.059c0.031,0.007,0.061,0.015,0.091,0.021c0.087,0.021,0.173,0.041,0.253,0.061 c0.006,0.001,0.011,0.003,0.017,0.004c0.334,0.15,0.664,0.297,0.982,0.439c1.153,0.545,2.208,1.069,3.129,1.566 c0.465,0.241,0.894,0.483,1.292,0.702c0.402,0.217,0.764,0.427,1.091,0.621c0.651,0.388,1.171,0.691,1.516,0.911 c0.348,0.22,0.534,0.336,0.534,0.336s-0.14-0.174-0.421-0.487c-0.286-0.303-0.696-0.766-1.264-1.297 c-0.563-0.542-1.254-1.191-2.097-1.875c-0.834-0.695-1.815-1.424-2.917-2.179c-0.554-0.376-1.147-0.735-1.757-1.121 c-0.625-0.354-1.268-0.734-1.95-1.08c-0.685-0.342-1.385-0.707-2.131-1.01c-0.37-0.158-0.746-0.317-1.125-0.477 c-0.384-0.148-0.778-0.278-1.172-0.419c-0.399-0.131-0.791-0.299-1.205-0.403c-0.411-0.112-0.826-0.226-1.244-0.338 c-0.209-0.055-0.417-0.117-0.629-0.167l-0.414-0.084c0.004-0.028,0.008-0.057,0.011-0.086c0.001,0,0.001-0.001,0.001-0.001 c0.72-0.933,1.498-1.636,2.298-2.159c0.002,0,0.004-0.002,0.006-0.004c0.278-0.18,0.557-0.337,0.838-0.476 c0.726-0.361,1.458-0.592,2.169-0.727c0.013-0.003,0.027-0.005,0.039-0.006c0.185-0.036,0.366-0.063,0.545-0.084 c0.013,0,0.025-0.003,0.038-0.004c0.573-0.066,1.127-0.079,1.644-0.053c0.016,0,0.031,0.002,0.046,0.002 c0.15,0.008,0.297,0.02,0.441,0.034c0.03,0.004,0.059,0.006,0.087,0.009c0.133,0.013,0.262,0.029,0.388,0.047 c0.026,0.003,0.052,0.007,0.079,0.011c0.142,0.021,0.28,0.044,0.412,0.068c0.003,0,0.006,0.001,0.008,0.001l0,0 c0.031,0.013,0.063,0.027,0.093,0.039c0.626,0.28,1.23,0.549,1.809,0.809c1.152,0.544,2.208,1.068,3.13,1.566 c0.466,0.243,0.894,0.482,1.292,0.704c0.401,0.215,0.764,0.426,1.089,0.618c0.654,0.388,1.171,0.691,1.517,0.912 c0.348,0.219,0.533,0.338,0.533,0.338s-0.139-0.176-0.42-0.488c-0.285-0.304-0.696-0.767-1.264-1.299 c-0.563-0.54-1.255-1.188-2.097-1.872c-0.835-0.695-1.816-1.425-2.918-2.182c-0.552-0.375-1.146-0.733-1.756-1.119 c-0.626-0.354-1.269-0.734-1.95-1.082c-0.685-0.34-1.384-0.707-2.131-1.009c-0.371-0.158-0.746-0.317-1.125-0.477 c-0.383-0.146-0.778-0.279-1.173-0.419c-0.398-0.131-0.79-0.299-1.204-0.403c-0.271-0.073-0.544-0.148-0.817-0.223 c0.134-0.15,0.268-0.298,0.404-0.437c0.005-0.003,0.01-0.01,0.015-0.014c0.138-0.138,0.277-0.268,0.418-0.392 c0.002-0.002,0.005-0.004,0.007-0.007c0.646-0.567,1.317-0.996,1.992-1.313c2.921-1.373,5.911-0.672,7.167-0.262 c0.006,0.002,0.012,0.005,0.018,0.007c0.055,0.018,0.105,0.035,0.152,0.051c0.012,0.005,0.025,0.009,0.038,0.014 c0.041,0.014,0.079,0.028,0.115,0.041c0.015,0.006,0.027,0.012,0.041,0.016c0.03,0.011,0.059,0.022,0.084,0.032 c0.014,0.005,0.026,0.01,0.038,0.015c0.02,0.007,0.038,0.016,0.055,0.022c0.013,0.006,0.022,0.009,0.032,0.013 c0.01,0.005,0.018,0.009,0.024,0.012c0.01,0.004,0.019,0.008,0.019,0.008c-0.042-0.025-0.093-0.059-0.142-0.09 c-0.028-0.019-0.055-0.035-0.083-0.053c0.801,0.39,1.547,0.767,2.219,1.13c0.465,0.242,0.894,0.482,1.292,0.702 c0.401,0.217,0.763,0.427,1.09,0.621c0.652,0.388,1.171,0.691,1.517,0.912c0.348,0.219,0.533,0.337,0.533,0.337 s-0.14-0.176-0.421-0.486c-0.286-0.305-0.696-0.767-1.265-1.3c-0.563-0.538-1.256-1.189-2.097-1.872 c-0.834-0.695-1.815-1.425-2.918-2.181c-0.552-0.375-1.146-0.734-1.756-1.12c-0.466-0.262-0.946-0.537-1.44-0.804 c2.105-0.665,36.096-13.776,61.088-40.841c0,0-29.439,133.056-37.285,162.239c4.579,9.962,12.003,12.133,18.607,11.259 c6.648-0.88,12.882-1.761,20.361,3.522c7.479,5.285,13.296,14.532,13.296,14.532c-4.433-3.522-5.969-5.62-10.526-6.311 c-6.788-1.03-8.45,6.017-18.422,2.054c-1.739-0.69-3.287-1.216-4.683-1.614c0.951,1.125,1.856,2.363,2.721,3.748 c5.373,8.589,3.679,14.655,3.544,17.35c-0.136,2.696,0.656-6.375-6.44-11.913c-2.114-1.649-5.799-1.112-9.767,0.209 c-3.675,1.221-8.43,2.204-14.855-6.298c-0.743-0.982-1.663-2.048-2.666-3.15c-5.099-0.216-8.541-0.993-10.777-2.193 c-2.569,0.046-5.459-0.046-8.712-0.294c-3.24-0.247-6.447-1.396-14.821,2.063c-8.374,3.466-9.851-2.461-15.569-1.514 c-3.839,0.637-5.113,2.426-8.817,5.455C1156.92,732.507,1161.734,724.63,1167.989,720.083z"/> <path fill="#ECBF69" d="M986.894,721.927c6.686-4.901,12.382-4.297,18.463-3.697c2.233,0.22,8.412-2.833,15.425-6.061 c0,0,45.887-35.486,47.736-58.549c1.812-22.601-19.944-16.325-19.944-16.325s0.08-0.147,0.227-0.42 c1.87-2.114,3.676-4.189,5.37-5.721c5.465-4.944,10.662-1.655,12.381-0.286c0.606,0.869,1.159,1.69,1.637,2.443 c0.295,0.454,0.559,0.884,0.806,1.283c0.251,0.396,0.471,0.767,0.667,1.104c0.392,0.675,0.705,1.208,0.906,1.579 c0.202,0.371,0.311,0.567,0.311,0.567s-0.041-0.224-0.144-0.641c-0.11-0.414-0.256-1.03-0.506-1.787 c-0.245-0.762-0.55-1.687-0.971-2.718c-0.41-1.039-0.932-2.184-1.546-3.411c-0.31-0.614-0.665-1.233-1.02-1.884 c-0.384-0.632-0.769-1.295-1.206-1.95c-0.442-0.652-0.885-1.332-1.397-1.981c-0.252-0.33-0.507-0.662-0.764-0.997 c-0.267-0.326-0.552-0.644-0.832-0.972c-0.287-0.321-0.552-0.669-0.867-0.972c-0.307-0.311-0.618-0.624-0.93-0.938 c-0.158-0.157-0.312-0.318-0.474-0.471l-0.501-0.445c-0.206-0.177-0.413-0.356-0.619-0.536c0.012-0.022,0.026-0.044,0.038-0.067 c4.073-1.8,7.642,0.231,9.227,1.416c0.34,0.423,0.666,0.851,0.997,1.254c0.418,0.566,0.821,1.115,1.209,1.643 c0.756,1.068,1.437,2.072,2.013,2.982c0.295,0.452,0.559,0.881,0.805,1.28c0.252,0.397,0.471,0.768,0.667,1.105 c0.392,0.675,0.705,1.208,0.905,1.578c0.204,0.372,0.312,0.569,0.312,0.569s-0.042-0.224-0.144-0.64 c-0.11-0.416-0.257-1.031-0.508-1.788c-0.244-0.761-0.549-1.688-0.97-2.719c-0.41-1.039-0.93-2.181-1.546-3.411 c-0.311-0.613-0.664-1.233-1.02-1.885c-0.384-0.63-0.771-1.294-1.207-1.95c-0.443-0.65-0.885-1.331-1.397-1.98 c-0.253-0.33-0.507-0.662-0.764-0.996c-0.266-0.329-0.551-0.645-0.832-0.973c-0.288-0.319-0.552-0.668-0.865-0.972 c-0.309-0.31-0.619-0.624-0.932-0.937c-0.157-0.158-0.312-0.319-0.473-0.473l-0.502-0.445c-0.111-0.097-0.223-0.193-0.334-0.29 c3.737-1.851,7.09-0.4,8.942,0.804c0.386,0.472,0.748,0.952,1.117,1.404c0.418,0.567,0.822,1.114,1.209,1.64 c0.757,1.071,1.437,2.073,2.013,2.983c0.296,0.452,0.56,0.883,0.805,1.281c0.252,0.396,0.471,0.769,0.668,1.105 c0.391,0.676,0.705,1.207,0.905,1.578c0.203,0.371,0.312,0.57,0.312,0.57s-0.042-0.225-0.144-0.642 c-0.109-0.414-0.257-1.028-0.507-1.786c-0.244-0.762-0.549-1.688-0.971-2.72c-0.409-1.037-0.931-2.182-1.547-3.409 c-0.309-0.613-0.663-1.234-1.018-1.885c-0.385-0.632-0.771-1.295-1.207-1.951c-0.442-0.651-0.885-1.332-1.397-1.981 c-0.252-0.329-0.506-0.662-0.764-0.997c-0.266-0.328-0.551-0.644-0.832-0.972c-0.287-0.32-0.552-0.669-0.865-0.972 c-0.309-0.311-0.619-0.624-0.931-0.939c-0.157-0.156-0.311-0.317-0.473-0.471l-0.502-0.444c-0.153-0.132-0.306-0.266-0.46-0.398 c0.066-0.116,0.134-0.232,0.201-0.347c4.481-1.67,8.269,1.168,9.321,2.076c0.193,0.25,0.385,0.499,0.58,0.737 c0.418,0.565,0.821,1.115,1.21,1.64c0.755,1.071,1.437,2.072,2.012,2.982c0.295,0.452,0.559,0.883,0.806,1.281 c0.25,0.397,0.47,0.767,0.667,1.104c0.391,0.676,0.705,1.208,0.906,1.579c0.204,0.371,0.312,0.569,0.312,0.569 s-0.041-0.225-0.144-0.642c-0.109-0.413-0.257-1.029-0.507-1.787c-0.244-0.763-0.55-1.688-0.971-2.719 c-0.41-1.038-0.931-2.181-1.547-3.41c-0.31-0.613-0.663-1.232-1.019-1.885c-0.385-0.632-0.771-1.294-1.207-1.951 c-0.443-0.65-0.885-1.33-1.399-1.98c-0.251-0.329-0.505-0.66-0.762-0.996c-0.268-0.329-0.552-0.645-0.832-0.974 c-0.288-0.319-0.553-0.667-0.866-0.972c-0.309-0.311-0.619-0.623-0.931-0.938c-0.158-0.155-0.312-0.317-0.473-0.469l-0.502-0.445 c-0.097-0.084-0.194-0.168-0.291-0.253c0.054-0.091,0.108-0.182,0.163-0.273c4.351-1.77,8.085,0.775,9.372,1.83 c0.161,0.207,0.321,0.414,0.482,0.612c0.418,0.568,0.82,1.116,1.209,1.641c0.756,1.071,1.437,2.072,2.012,2.982 c0.295,0.453,0.559,0.883,0.806,1.281c0.251,0.396,0.471,0.768,0.668,1.104c0.391,0.677,0.705,1.208,0.904,1.58 c0.204,0.369,0.312,0.569,0.312,0.569s-0.04-0.225-0.144-0.643c-0.109-0.413-0.256-1.029-0.507-1.788 c-0.244-0.761-0.55-1.687-0.972-2.717c-0.408-1.039-0.93-2.182-1.545-3.409c-0.31-0.613-0.664-1.234-1.02-1.886 c-0.384-0.632-0.77-1.294-1.206-1.951c-0.442-0.65-0.885-1.331-1.397-1.98c-0.252-0.329-0.507-0.663-0.764-0.997 c-0.267-0.328-0.553-0.644-0.832-0.972c-0.287-0.32-0.553-0.668-0.866-0.973c-0.308-0.311-0.619-0.622-0.931-0.938 c-0.157-0.156-0.312-0.317-0.474-0.47l-0.484-0.428c3.819-1.708,7.199-0.039,8.921,1.158c0.236,0.304,0.467,0.604,0.703,0.891 c0.418,0.567,0.822,1.116,1.21,1.641c0.755,1.07,1.437,2.072,2.013,2.983c0.294,0.452,0.559,0.883,0.806,1.281 c0.251,0.397,0.471,0.767,0.667,1.105c0.391,0.675,0.705,1.207,0.906,1.578c0.203,0.372,0.311,0.57,0.311,0.57 s-0.042-0.226-0.145-0.643c-0.109-0.413-0.255-1.027-0.507-1.787c-0.243-0.762-0.549-1.687-0.971-2.718 c-0.408-1.037-0.931-2.182-1.545-3.41c-0.311-0.613-0.665-1.233-1.021-1.885c-0.384-0.631-0.77-1.295-1.206-1.95 c-0.442-0.652-0.885-1.331-1.396-1.982c-0.252-0.328-0.507-0.661-0.765-0.997c-0.267-0.327-0.552-0.645-0.831-0.973 c-0.288-0.318-0.553-0.667-0.866-0.971c-0.308-0.311-0.618-0.624-0.932-0.938c-0.155-0.156-0.31-0.317-0.472-0.472l-0.091-0.081 c5.002-2.033,9.192,1.637,9.78,2.187c0.253,0.342,0.502,0.681,0.742,1.008c0.757,1.07,1.437,2.071,2.013,2.982 c0.296,0.453,0.56,0.882,0.806,1.282c0.251,0.396,0.471,0.768,0.667,1.104c0.392,0.675,0.706,1.208,0.907,1.579 c0.202,0.37,0.311,0.568,0.311,0.568s-0.041-0.225-0.144-0.643c-0.109-0.412-0.256-1.028-0.506-1.788 c-0.245-0.761-0.55-1.686-0.972-2.717c-0.408-1.038-0.93-2.182-1.545-3.412c-0.31-0.613-0.665-1.232-1.02-1.883 c-0.384-0.632-0.771-1.295-1.207-1.951c-0.442-0.65-0.885-1.332-1.396-1.981c-0.252-0.33-0.507-0.661-0.764-0.997 c-0.266-0.328-0.552-0.645-0.832-0.972c-0.287-0.32-0.552-0.669-0.866-0.972c-0.199-0.201-0.399-0.403-0.6-0.605 c3.449-1.516,6.534-0.288,8.355,0.843c0.411,0.558,0.809,1.098,1.19,1.615c0.756,1.071,1.437,2.073,2.014,2.984 c0.295,0.45,0.558,0.882,0.805,1.28c0.251,0.395,0.47,0.767,0.668,1.105c0.391,0.675,0.704,1.208,0.905,1.578 c0.203,0.371,0.311,0.568,0.311,0.568s-0.041-0.225-0.144-0.642c-0.109-0.412-0.256-1.029-0.507-1.787 c-0.244-0.76-0.55-1.688-0.971-2.717c-0.409-1.039-0.93-2.182-1.546-3.41c-0.31-0.613-0.664-1.234-1.019-1.884 c-0.385-0.633-0.771-1.297-1.207-1.952c-0.442-0.651-0.885-1.331-1.398-1.981c-0.251-0.328-0.505-0.661-0.762-0.997 c-0.269-0.326-0.553-0.644-0.833-0.973c-0.112-0.125-0.222-0.255-0.331-0.386c0.134-0.137,0.27-0.278,0.405-0.413 c4.122-1.149,7.544,1.364,8.596,2.26c0.065,0.095,0.136,0.193,0.201,0.287c0.093,0.136,0.185,0.271,0.275,0.404 c0.067,0.098,0.133,0.197,0.198,0.293c0.092,0.138,0.182,0.272,0.27,0.406c0.053,0.081,0.107,0.162,0.159,0.24 c0.139,0.213,0.274,0.421,0.402,0.625c0.295,0.45,0.559,0.882,0.805,1.28c0.252,0.396,0.471,0.769,0.668,1.104 c0.391,0.676,0.706,1.209,0.905,1.579c0.204,0.372,0.311,0.569,0.311,0.569s-0.04-0.225-0.143-0.643 c-0.109-0.412-0.257-1.029-0.507-1.787c-0.245-0.761-0.55-1.687-0.972-2.717c-0.409-1.039-0.93-2.182-1.546-3.409 c-0.31-0.615-0.664-1.234-1.019-1.887c-0.383-0.629-0.77-1.293-1.206-1.949c-0.442-0.651-0.886-1.331-1.398-1.982 c-0.066-0.087-0.135-0.175-0.202-0.263c3.398-1.405,6.477,0.055,8.36,1.408c0.271,0.42,0.52,0.821,0.749,1.194 c0.251,0.396,0.472,0.767,0.668,1.105c0.392,0.675,0.705,1.208,0.906,1.579c0.203,0.371,0.311,0.568,0.311,0.568 s-0.042-0.224-0.144-0.642c-0.11-0.414-0.257-1.029-0.507-1.788c-0.042-0.13-0.088-0.27-0.133-0.41 c0.043,0.048,0.069,0.076,0.069,0.076c-0.024-0.029-0.052-0.068-0.078-0.102c0,0,0,0,0-0.002 c-0.038-0.117-0.078-0.236-0.119-0.359c-0.031-0.092-0.063-0.185-0.095-0.28c-0.034-0.099-0.068-0.196-0.104-0.298 c-0.047-0.132-0.097-0.268-0.147-0.404c-0.03-0.082-0.059-0.161-0.09-0.244c-0.086-0.227-0.176-0.458-0.273-0.695 c-0.409-1.038-0.93-2.182-1.546-3.41c-0.31-0.613-0.664-1.232-1.019-1.884c-0.137-0.224-0.275-0.452-0.415-0.681 c-0.001-0.002-0.002-0.004-0.004-0.007c3.722-1.646,6.163,0.39,7.009,1.296c0.067,0.122,0.131,0.233,0.183,0.333 c0.204,0.37,0.313,0.566,0.313,0.566s-0.042-0.223-0.144-0.641c-0.11-0.413-0.257-1.028-0.507-1.786 c-0.244-0.762-0.55-1.689-0.972-2.719c-0.099-0.249-0.203-0.505-0.314-0.767c-0.105-0.247-0.217-0.499-0.332-0.756 c-0.006-0.012-0.01-0.023-0.016-0.034c37.944-28.676,69.934-21.753,76.201-1.556c4.426,14.265-12.553,44.045-12.553,44.045 s-86.067,85.551-122.446,120.504c4.702,4.712,10.447,5.679,15.687,4.912c7.163-1.049,13.878-2.09,22.036,3.338 c8.159,5.426,14.586,15.057,14.586,15.057c-4.841-3.629-6.533-5.809-11.464-6.453c-7.344-0.959-9.027,6.49-19.855,2.499 c-1.889-0.696-3.568-1.22-5.08-1.614c1.043,1.167,2.041,2.457,2.997,3.896c5.936,8.947,4.203,15.365,4.101,18.204 c-0.105,2.841,0.606-6.724-7.142-12.427c-2.309-1.697-6.278-1.063-10.541,0.399c-3.946,1.354-9.064,2.476-16.136-6.359 c-0.781-0.975-1.735-2.024-2.776-3.11c-7.09,0.031-11.623-0.765-14.344-2.167c-2.119-0.029-4.406-0.112-6.89-0.255 c-3.501-0.201-6.982-1.354-15.967,2.443c-8.985,3.803-10.673-2.412-16.832-1.308c-4.135,0.739-5.482,2.646-9.432,5.902 C975.143,735.21,980.213,726.831,986.894,721.927z"/> <path fill="#ECBF69" d="M1193.776,495.175c-18.921,11.682-41.202,22.981-63.583,33.207 c-26.425,12.075-52.984,22.656-74.297,30.604c-5.803,2.084-11.238,3.993-16.173,5.696l125.453-80.794 C1168.746,493.443,1177.443,502.192,1193.776,495.175z"/> <path fill="#ECBF69" d="M1174.352,516.571l0.267,3.871c0.039,1.169,0.132,2.302,0.251,3.759c0.029,0.353,0.06,0.73,0.092,1.13 c-1.747-0.37-7.077-1.63-16.237-0.731c0.883-0.382,1.77-0.808,2.659-1.282c1.264-0.673,2.634-1.545,4.078-2.487 C1168.458,519.433,1171.423,518.013,1174.352,516.571z"/> <path fill="#ECBF69" d="M1203.76,386.119c2.284,0.024,5.757,0.249,9.108,0.782c6.487,1.033,13.777,3.331,19.679,8.314 c1.914,1.851,4.219,4.398,6.412,7.643c0.031,0.045,0.059,0.091,0.088,0.135l-0.018,0.05l0.173,0.188 c0.06,0.09,0.118,0.183,0.179,0.274c3.866,6.897,8.559,19.246,6.694,33.362c-0.711,4.313-1.993,8.93-3.992,13.853 c-2.642,5.804-6.636,11.697-12.43,17.465c-5.987,5.958-13.449,11.952-21.972,17.894c-0.283,0.136-0.601,0.286-0.945,0.444 c-1.745,0.798-4.239,1.83-7.145,2.717c-9.865,3.009-24.457,4.319-30.499-10.997c-0.058-0.149-0.119-0.294-0.177-0.446 c0.031-0.024,0.06-0.046,0.089-0.071c0,0-0.033,0.02-0.094,0.056c-0.014-0.034-0.028-0.067-0.04-0.103 c-0.506,0.281-1.018,0.548-1.526,0.82c-1.092,0.581-2.188,1.147-3.301,1.686c0,0.001,0,0.001,0,0.001 c-8.927,3.847-27.51,9.065-35.509-9.429c-0.138-0.321-0.271-0.652-0.404-0.985c-0.04-0.102-0.083-0.2-0.123-0.304l-5.114,3.361 c-3.119,1.985-6.474,4.127-10.028,6.425c-2.556,1.645-5.218,3.359-7.975,5.133c-2.747,1.787-5.588,3.634-8.509,5.534 c-5.835,3.807-12.001,7.801-18.336,12.005c-3.173,2.094-6.398,4.224-9.663,6.379c-3.268,2.152-6.57,4.336-9.884,6.563 c-6.638,4.439-13.381,8.949-20.124,13.457c-5.368,3.636-10.734,7.27-16.048,10.868l-57.742,37.187 c0.022,0.01,0.045,0.022,0.067,0.035l-13.537,8.719c-2.769,1.551-11.732,7.246-19.43,8.735 c-17.178,3.324-28.968,4.831-32.466,4.573c-5.454-0.4,241.911-184.304,295.208-210.181 C1195.561,387.71,1200.226,386.08,1203.76,386.119z"/> <path fill="#ECBF69" d="M1092.13,499.946l32.871-21.169c3.562,7.53,10.539,13.716,22.623,10.709l-118.065,76.035 c-11.491,5.175-33.752,13.345-75.94,23.706l138.544-89.224L1092.13,499.946z"/> <path fill="#ECBF69" d="M1202.723,569.356c-0.196,0.073-0.392,0.145-0.588,0.213c-0.848-4.06-1.099-8.293-0.748-13 c0.391-2.992,1.065-6.006,1.848-8.98l0.042-0.017c6.644-2.81,12.695-8.042,17.441-14.992c-0.35,6.287,0.041,12.856,2.583,18.692 c0.179,0.408,0.366,0.815,0.565,1.215C1219.621,557.741,1211.87,565.961,1202.723,569.356z"/> <path fill="#ECBF69" d="M1199.786,571.77c-0.334,0.361-0.686,0.72-1.048,1.075c-1.034,1.01-2.168,1.986-3.311,2.896 c-1.496,1.188-3.006,2.262-4.327,3.147c0.911-2.284,2.06-5.58,3.407-10.292c1.929-6.749,2.362-13.73,2.452-15.849 c0.18-0.173,0.409-0.395,0.668-0.647c0.238-0.229,0.48-0.462,0.729-0.7c0.317-0.304,0.642-0.615,0.966-0.927 c-0.321,2.021-0.552,3.961-0.694,5.83c-0.388,5.134-0.099,9.756,0.865,14.21C1199.585,570.932,1199.682,571.351,1199.786,571.77z"/> <path fill="#ECBF69" d="M1197.865,527.123c-0.249,6.011,0.271,12.225,2.743,17.846c0.021,0.048,0.042,0.097,0.063,0.145 c-1.06,1.127-2.616,2.622-4.048,3.993c0-0.004-0.001-0.01-0.001-0.017c-0.122-3.797-1.157-7.588-3.034-11.109 c-0.431-0.922-0.921-1.826-1.48-2.704c-0.404-0.634-0.859-1.24-1.361-1.818C1192.613,532.031,1195.455,529.83,1197.865,527.123z"/> <path fill="#ECBF69" d="M1226.255,550.627c-0.048,0.028-0.095,0.057-0.143,0.084c-0.216-0.457-0.414-0.92-0.6-1.389 c-2.568-6.47-2.387-14.031-1.68-20.917c0.016-0.01,0.032-0.02,0.047-0.031c6.693-4.184,11.236-10.695,14.242-16.765 c0.205,2.331,0.596,4.684,1.173,7.03c0.893,4.452,2.417,8.895,5.007,12.847c-0.254,0.596-0.576,1.234-0.954,1.902 C1240.175,539.001,1232.921,546.761,1226.255,550.627z"/> <path fill="#ECBF69" d="M1200.918,523.108c0.146-0.084,0.292-0.169,0.438-0.257c5.49-3.323,10.365-8.775,13.943-15.506 c0.23,3.305,0.817,6.576,1.749,9.773c0.843,3.337,2.085,6.574,3.916,9.544c0.016,0.026,0.033,0.052,0.049,0.077 c-4.362,7.894-10.581,14.145-17.321,17.447c-0.102,0.05-0.202,0.106-0.303,0.153c-0.013-0.027-0.024-0.056-0.037-0.083 c-0.111-0.237-0.209-0.478-0.312-0.717c-0.136-0.315-0.268-0.632-0.391-0.954c-0.312-0.817-0.59-1.644-0.822-2.488 c-0.859-3.11-1.201-6.378-1.242-9.649C1200.555,527.98,1200.692,525.513,1200.918,523.108z"/> <path fill="#ECBF69" d="M1188.793,531.338c-0.312-0.267-0.631-0.519-0.953-0.769c-0.677-0.52-1.373-1.007-2.086-1.447 c-2.469-1.521-5.155-2.732-8.002-3.601c-0.045-0.571-0.088-1.093-0.128-1.574c-0.215-2.628-0.333-4.068-0.209-6.592 c2.689-1.622,5.246-3.719,7.591-6.209c2.679-1.413,5.315-2.844,7.9-4.291c0.771,5.556,2.2,10.143,4.374,14.045 c0.247,0.442,0.505,0.874,0.77,1.297c-0.11,0.182-0.227,0.364-0.346,0.542c-0.364,0.508-0.725,1-1.087,1.476 c-2.413,2.984-5.695,5.494-7.667,7.003C1188.897,531.259,1188.844,531.299,1188.793,531.338z"/> <path fill="#ECBF69" d="M1204.093,517.281c-0.91,0.797-1.842,1.535-2.802,2.193c-0.34,0.233-1.115,0.726-1.156,0.751 c-0.077-0.125-0.801-1.412-1.032-1.873c-0.008-0.016-0.015-0.032-0.023-0.048c-1.178-2.359-2.084-4.999-2.745-7.986 c-0.341-1.549-0.618-3.189-0.828-4.935c0.12-0.069,0.24-0.137,0.359-0.206c0.451-0.259,0.9-0.519,1.348-0.778 c5.183-3.006,10.14-6.083,14.812-9.222c0.869,2.109,1.879,4.055,3.021,5.83c0.024,0.036,0.046,0.074,0.069,0.112 C1212.495,507.689,1208.63,513.309,1204.093,517.281z"/> <path fill="#ECBF69" d="M1237.761,505.447c0.015,0.023,0,0,0.015,0.024c-3.272,8.502-7.97,15.047-13.584,19.203 c-0.258,0.191-0.515,0.38-0.775,0.562c-0.007,0.004-0.014,0.01-0.021,0.015c-0.095-0.153-0.181-0.312-0.272-0.466 c-0.146-0.244-0.295-0.487-0.433-0.736c-1.333-2.402-2.282-4.996-2.961-7.677c-1.214-4.796-1.56-9.868-1.648-14.618 c6.606-4.331,10.853-11.104,13.438-16.75C1232.206,491.939,1233.727,499.438,1237.761,505.447z"/> <path fill="#ECBF69" d="M1217.077,498.953c-1.018-1.637-1.915-3.437-2.688-5.386c5.704-3.944,10.95-7.984,15.618-12.112 C1227.791,486.955,1223.768,494.361,1217.077,498.953z"/> <path fill="#ECBF69" d="M1249.337,527.326c-0.948,0.743-1.926,1.417-2.936,2.016c-0.031,0.019-0.063,0.04-0.094,0.058 c-2.175-3.461-3.489-7.366-4.287-11.305c-0.854-4.222-1.113-8.487-1.182-12.302c5.126-3.62,9.311-8.778,12.893-15.928 c0.466,3.584,1.392,7.182,2.81,10.92c1.197,3.708,2.777,7.097,4.712,10.051c-0.843,1.885-1.73,3.635-2.657,5.27 C1255.893,520.872,1252.826,524.591,1249.337,527.326z"/> <path fill="#ECBF69" d="M1244.183,466.152c1.749,5.83,4.415,12.509,9.019,17.691c-0.003,0.161-3.433,8.632-8.344,14.466 c-0.796,0.946-1.656,1.794-2.528,2.595c-1.821,1.579-2.938,1.997-3.064,2.077c-0.07-0.146-2.319-5.167-2.71-6.848 c-1.583-4.72-2.233-9.805-2.545-14.645c3.15-3.263,5.689-7.271,7.605-11.98C1242.519,468.393,1243.376,467.275,1244.183,466.152z"/> <path fill="#ECBF69" d="M1274.502,486.16c-0.002,0.013-0.005,0.028-0.008,0.041c-0.052,0.24-0.11,0.476-0.166,0.712 c-0.041,0.172-0.078,0.346-0.121,0.516c-0.197,0.792-0.417,1.57-0.655,2.334c-0.006,0.018-0.011,0.038-0.017,0.058 c-0.368,1.173-0.779,2.31-1.223,3.407c0,0,0,0,0,0.001s0,0.001,0,0.002c-0.253,0.625-0.516,1.236-0.786,1.834 c-0.271,0.596-0.548,1.18-0.832,1.75c-0.038,0.075-0.074,0.153-0.112,0.229c-0.016,0.031-0.031,0.06-0.047,0.09 c-0.999,1.975-2.058,3.765-3.079,5.331c-0.612,0.938-1.208,1.795-1.771,2.565c-0.469,0.642-0.916,1.229-1.321,1.743 c-0.475,0.597-0.896,1.105-1.248,1.517c-1.633-2.989-2.955-5.827-3.999-8.581c-2.069-5.455-3.024-10.564-2.986-15.784 c0.173-0.178,0.341-0.366,0.511-0.55c0.07-0.076,0.142-0.15,0.211-0.228c4.68-4.603,7.411-10.69,9.173-16.619 c0.151-0.473,0.296-0.949,0.435-1.43c0.031-0.104,0.063-0.207,0.093-0.31c0.809,3.38,1.75,6.655,3.329,10.141 c0.352,0.775,0.733,1.559,1.153,2.358c1.049,1.998,2.329,4.083,3.928,6.308c-0.005,0.03-0.01,0.061-0.015,0.09 C1274.829,484.523,1274.677,485.347,1274.502,486.16z"/> <path fill="#ECBF69" d="M1254.019,440.576c2.326,6.59,5.966,12.652,11.026,18.37c-0.45,2.17-0.992,4.472-1.685,6.789 c-1.419,4.744-3.488,9.55-6.735,13.453c-0.516,0.619-1.052,1.224-1.629,1.793c-0.003-0.002-0.005-0.006-0.008-0.009 c-0.096-0.114-0.19-0.234-0.286-0.351c-3.736-4.515-6.648-10.547-8.47-17.497c2.765-4.353,4.789-8.776,5.948-13.258 C1253.016,446.634,1253.617,443.54,1254.019,440.576z"/> <path fill="#ECBF69" d="M1280.522,472.924c-1.557,3.45-3.152,6.192-4.142,7.775c-5.139-7.531-6.462-13.473-7.978-20.282 c-0.112-0.505-0.229-1.021-0.345-1.536c6.647-8.424,7.778-15.929,8.52-22.617c0.633,2.003,1.376,3.861,2.324,5.804 c2.413,5.434,4.845,8.769,6.052,10.243c0.14,1.894,0.086,3.792-0.114,5.667C1284.254,463.459,1282.42,468.716,1280.522,472.924z"/> <path fill="#ECBF69" d="M1266.49,456.281c-5.969-6.935-9.764-14.385-11.578-22.718c0.011-0.093,0.023-0.188,0.035-0.282 c1.657-2.728,5.248-9.799,6.114-20.948c5.063,10.501,11.307,15.591,13.56,17.184c-0.362,5.108-1.629,12.509-2.127,14.455 C1271.502,447.852,1269.792,451.909,1266.49,456.281z"/> <path fill="#ECBF69" d="M1288.721,443.344c-0.513,1.663-2.488,5.917-2.518,5.968c-1.468-1.993-3.083-4.725-4.607-8.096 c-1.145-2.531-2.237-5.426-3.178-8.641c-0.292-1.001-0.572-2.032-0.833-3.094c0.027-0.042,0.058-0.088,0.089-0.133 c0.874-1.325,2.638-4.417,4.24-9.762c0.431-1.393,0.836-2.926,1.189-4.599c0.472-2.131,0.897-4.512,1.239-7.166 c1.224,2.496,2.595,4.835,4.099,7.013c1.002,2.276,1.854,4.86,2.274,7.644c0.184,1.209,0.287,2.457,0.286,3.732 c-0.003,3.284-0.203,6.194-0.525,8.753C1290.051,438.347,1289.409,441.12,1288.721,443.344z"/> <path fill="#ECBF69" d="M1267.888,384.545c5.18,10.745,11.595,15.827,13.707,17.291c0.115,11.318-2.851,19.154-4.826,23.101 c-0.381,0.76-0.726,1.376-1.003,1.846c-0.175-0.133-0.371-0.285-0.583-0.456c-2.974-2.387-9.366-8.562-13.769-20.266 C1262.842,403.856,1266.953,396.571,1267.888,384.545z"/> <path fill="#ECBF69" d="M1244.781,389.394c5.179,10.738,11.591,15.817,13.701,17.281c0.103,9.838-2.104,17.007-3.98,21.308 c-0.813-12.061-5.425-21.302-11.547-28.03C1243.883,396.625,1244.497,393.099,1244.781,389.394z"/> <path fill="#ECBF69" d="M1242.194,383.719c0.055,4.951-0.446,9.615-1.5,13.925c-5.402-5.133-11.671-8.531-17.463-10.37 c-0.485-0.155-0.968-0.298-1.442-0.437c1.449-1.922,5.716-8.504,6.692-20.424C1233.662,377.167,1240.079,382.252,1242.194,383.719 z"/> <path fill="#ECBF69" d="M1291.877,389.658c0.433,2.968,0.769,6.106,0.888,9.19c0.273,7.099-0.642,12.075-1.382,14.851 c-0.015,0.252-3.578-5.098-4.871-7.812c-0.714-1.5-1.38-3.052-1.986-4.664c1.3-2.008,4.824-8.229,6.15-18.403 C1291.101,384.901,1291.522,387.221,1291.877,389.658z"/> <path fill="#ECBF69" d="M1288.417,374.04c0.139,13.505-4.107,22.058-5.828,24.955c-2.627-1.984-9.623-8.182-14.341-20.723 c1.422-2.197,5.533-9.478,6.468-21.514C1279.893,367.496,1286.3,372.572,1288.417,374.04z"/> <path fill="#ECBF69" d="M1265.304,378.878c0.142,13.564-4.104,22.077-5.825,24.958c-2.624-1.981-9.623-8.179-14.345-20.727 c1.423-2.197,5.534-9.478,6.469-21.514C1256.78,372.333,1263.187,377.409,1265.304,378.878z"/> <path fill="#ECBF69" d="M1203.245,384.556c0,0,1.329-10.551,1.628-14.394c3.834,8.267,8.446,12.966,11.512,15.394 C1208.306,383.942,1203.245,384.556,1203.245,384.556z"/> <path fill="#ECBF69" d="M1162.033,294.842L1162.033,294.842C1162.035,294.829,1162.035,294.831,1162.033,294.842z"/> <path fill="#ECBF69" d="M1161.971,294.766c0.006,0.014,0.044,0.042,0.062,0.076c0.01,0.021,0.015,0.042-0.009,0.066 c-0.037-0.038-0.072-0.073-0.109-0.11C1161.933,294.787,1161.953,294.776,1161.971,294.766z"/> <path id="_x3C_Path_x3E__3_" fill="#ECBF69" d="M1144.81,341.428c0.019-3.517,2.311-7.929,4.986-10.725 c6.373-6.661,19.037-10.889,32.052-10.859c1.441,0.003,3.687,0.199,5.76-0.221c0.641-0.128,0.281,0.379-0.134,0.422 c-6.311,0.666-11.672,1.601-16.226,2.704c-9.928,2.405-16.025,5.618-19.767,8.632c0,0,2.228-1.103,4.359-1.776 c3.962-1.335,10.773-3.04,17.217-3.419c3.048-0.18,6.01-0.008,8.555,0.284c0.521-0.059,1.043-0.118,1.572-0.18 c2.693-0.323,5.486-0.661,8.209-1.283c1.345-0.313,2.717-0.698,3.816-1.33c0.54-0.312,0.983-0.709,1.143-1.082 c0.083-0.186,0.119-0.363,0.108-0.581c-0.007-0.214-0.071-0.469-0.173-0.735c-0.206-0.525-0.585-1.125-0.997-1.61l-0.368-0.426 c-0.118-0.122-0.227-0.223-0.34-0.336c-0.106-0.111-0.227-0.22-0.356-0.328c-0.125-0.109-0.245-0.225-0.374-0.328 c-0.514-0.418-1.068-0.78-1.642-1.105c-0.584-0.31-1.184-0.595-1.808-0.832c-2.507-0.938-5.237-1.333-7.933-1.793 c-1.35-0.23-2.7-0.488-4.029-0.817c-1.328-0.351-2.641-0.775-3.88-1.393c-0.309-0.157-0.612-0.317-0.908-0.5l-0.223-0.132 l-0.12-0.074l-0.097-0.064l-0.388-0.255c-0.507-0.328-1.046-0.708-1.543-1.07c-0.996-0.729-1.924-1.487-2.774-2.267 c-0.853-0.776-1.639-1.558-2.349-2.341c-0.706-0.789-1.325-1.584-1.881-2.35c-1.12-1.525-1.884-3.229-2.26-4.482 c-0.493-1.646-0.405-2.698-0.259-3.311c0.06-0.251,0.187-0.475,0.265-0.555c-0.037-0.038-0.072-0.073-0.109-0.11 c-2.893,1.583-7.624,4.868-8.523,5.554c-5.22,3.989-9.071,9.305-11.382,16.455C1138.094,328.924,1144.81,341.428,1144.81,341.428z M1154.534,308.8c1.335-3.295,3.691-4.671,6.464-5.924c0.118,1.371,0.507,2.317,0.899,2.962 C1158.532,305.722,1156.026,307.665,1154.534,308.8z"/> <path id="_x3C_Path_x3E__2_" fill="#ECBF69" d="M1162.024,294.908c-0.215,1.737,2.232,5.954,3.438,7.257 c0.605,0.65,1.286,1.302,2.019,1.964c0.729,0.668,1.528,1.328,2.391,1.976c0.866,0.641,1.778,1.293,2.755,1.915 c0.494,0.305,0.958,0.608,1.502,0.924l0.399,0.237l0.1,0.059c0.009,0.005,0.049,0.03,0.034,0.019l0.047,0.024l0.184,0.099 c0.242,0.137,0.497,0.257,0.756,0.375c2.081,0.955,4.596,1.416,7.265,1.875c2.666,0.479,5.557,0.915,8.414,2.127 c0.711,0.308,1.414,0.667,2.096,1.084c0.673,0.435,1.327,0.919,1.933,1.473c0.298,0.293,0.587,0.555,0.869,0.9 c0.139,0.163,0.287,0.332,0.415,0.492l0.333,0.456c0.513,0.692,0.965,1.383,1.299,2.29c0.159,0.449,0.284,0.951,0.291,1.507 c0.014,0.551-0.118,1.148-0.368,1.645c-0.251,0.499-0.594,0.894-0.947,1.204c-0.354,0.312-0.724,0.547-1.092,0.751 c-0.737,0.402-1.476,0.665-2.208,0.886c-0.731,0.218-1.459,0.387-2.182,0.53c-1.294,0.243-2.573,0.418-3.838,0.561 c0.841,0.19,1.334,0.325,1.376,0.332c0.009,0.002,3.036,0.938,5.485,2.336c6.149,3.508,10.511,12.124,10.514,29.696 c1.988-4.294,4.558-12.01,4.312-22.864l-0.192-8.482l2.866,7.922c4.719,13.047,11.945,19.44,14.622,21.46 c1.754-2.936,6.135-11.716,5.817-25.739l-0.192-8.481l2.526,6.982l0.34,0.939c0.134,0.373,0.273,0.735,0.412,1.097 c2.273,5.929,5.049,10.418,7.61,13.695c2.754,3.525,5.252,5.652,6.599,6.669c1.754-2.937,6.135-11.717,5.817-25.741l-0.032-1.431 l-0.161-7.049l2.52,6.96l0.348,0.96c4.717,13.041,11.939,19.435,14.618,21.459c1.753-2.954,6.136-11.777,5.821-25.738 l-0.026-1.194l-0.1-4.367l-0.008-0.349l2.724,5.16c0.127,0.241,1.417,2.703,3.041,6.365c0.47,1.06,0.968,2.223,1.474,3.459 c5.401,3.487,11.125,2.94,11.125,2.94s-3.191,0.04-11.332-16.413c-11.324-22.887-20.467-30.979-20.467-30.979l0.075,0.166 c-6.676-8.439-14.378-14.598-22.78-18.614c-0.2-0.096-0.415-0.184-0.637-0.272c0.435-0.918,0.854-1.898,1.198-2.879 c1.62-4.631,2.042-9.383,1.77-9.09c-6.689,7.201-45.84,12.911-48.847,13.42c-12.648,2.143-24.121,7.842-34.168,17.63 c-0.868,0.843-1.571,1.971-2.255,3.058c-0.467,0.745-0.417,1.597,0.229,2.254c0.636,0.65,1.278,1.303,1.947,1.983 c0.019-0.011,0.038-0.022,0.057-0.032c0.006,0.014,0.044,0.042,0.062,0.076C1162.043,294.863,1162.047,294.885,1162.024,294.908z M1165.858,294.748c2.75,1.638,7.543,2.154,10.609,1.642c3.135-0.523,4.613-0.763,7.603-2.02 c10.337-5.43,24.134,0.124,24.152,0.13c-4.165-0.582-10.472-2.158-15.346,0.591c1.634,2.093,1.721,5.781,1.123,7.785 c-1.138,3.815-5.39,5.413-8.714,4.498c-3.514-0.966-5.076-4.498-5.076-4.498s3.957-1.082,6.335-2.445 c4.153-2.38,3.355-4.697,3.335-4.689c-0.042,0.018-2.462,1.804-5.446,3.174C1181.977,300.045,1170.613,302.09,1165.858,294.748z"/> <path fill="#ECBF69" d="M1162.033,294.842c-0.001,0.011-0.004,0.03-0.009,0.066c-0.037-0.038-0.072-0.073-0.109-0.11 c0.019-0.011,0.038-0.022,0.057-0.032C1161.977,294.78,1162.016,294.809,1162.033,294.842z"/> <path fill="#ECBF69" d="M1162.033,294.842c-0.003,0.021-0.009,0.066-0.009,0.066 C1162.029,294.872,1162.032,294.853,1162.033,294.842L1162.033,294.842z"/> <path fill="#ECBF69" d="M1162.024,294.908c0,0,0.006-0.045,0.009-0.066C1162.043,294.863,1162.047,294.885,1162.024,294.908z"/> <path fill="#ECBF69" d="M1288.577,349.446c1.348,8.312,1.304,14.185,0.941,17.943c-0.145,1.49-0.34,2.649-0.518,3.494 c-0.202-0.159-0.422-0.339-0.657-0.536c-3.143-2.644-9.102-8.768-13.274-19.862c1.454-2.244,5.687-9.752,6.521-22.167 C1283.963,333.555,1287.364,341.963,1288.577,349.446z"/> <path fill="#ECBF69" d="M1272.138,351.1c0.121,11.952-3.193,20.02-5.148,23.726c-0.253,0.48-0.484,0.889-0.681,1.221 c-0.303-0.229-0.668-0.517-1.077-0.862c-3.144-2.642-9.101-8.767-13.275-19.86c1.428-2.205,5.538-9.489,6.474-21.516 C1263.61,344.554,1270.026,349.636,1272.138,351.1z"/> <path fill="#ECBF69" d="M1249.024,355.938c0.123,11.952-3.192,20.02-5.147,23.726c-0.253,0.479-0.484,0.889-0.682,1.221 c-0.304-0.229-0.667-0.517-1.077-0.861c-3.143-2.642-9.102-8.767-13.274-19.86c1.428-2.204,5.538-9.49,6.474-21.516 C1240.499,349.393,1246.913,354.474,1249.024,355.938z"/> <path fill="#ECBF69" d="M1225.913,360.776c0.137,13.641-4.266,21.33-5.962,23.78c-2.483-1.581-9.464-6.936-14.218-19.556 c1.428-2.205,5.538-9.489,6.473-21.515C1217.386,354.232,1223.801,359.313,1225.913,360.776z"/> <path fill="#ECBF69" d="M1017.805,587.379c-1.203,2.68-1.956,5.543-2.078,8.343c-30.552,16.938-129.813,69.206-143.277,74.239 c-14.017,5.238-27.729-3.754-27.729-3.754S960.19,613.709,1017.805,587.379z"/> <path fill="#ECBF69" d="M1017.523,603.802c-24.676,16.442-94.414,62.251-111.708,72.426c-11.228,6.606-28.582-0.958-28.582-0.958 l138.642-76.41C1016.12,600.594,1016.654,602.263,1017.523,603.802z"/> <path fill="#ECBF69" d="M1021.116,607.917c0.681,0.526,1.381,0.992,2.096,1.414c-21.199,17.379-74.293,56.083-91.091,70.089 c-7.7,6.42-22.69,1.847-22.69,1.847l109.614-75.304C1019.646,606.655,1020.332,607.311,1021.116,607.917z"/> <path fill="#ECBF69" d="M1032.148,612.267c-20.613,19.665-64.943,59.448-73.96,66.733c-7.296,5.896-21.612,4.163-21.612,4.163 l89.393-72.478C1027.954,611.488,1030.029,611.982,1032.148,612.267z"/> <path fill="#ECBF69" d="M1048.303,611.919c0.55-0.094,1.098-0.193,1.645-0.296c-10.746,12.767-38.882,45.966-47.341,53.677 c-15.185,13.84-38.021,15.989-38.021,15.989l71.894-68.705C1040.47,612.664,1044.506,612.242,1048.303,611.919z"/> <path fill="#ECBF69" d="M1096.977,552.586c-21.592,18.297-36.826,49.204-36.826,49.204s-29.597,8.434-35.537-3.321 c-6.739-13.332,21.076-24.681,21.076-24.681L1096.977,552.586z"/> </g> </g> <g id="Layer_7_copy_6"> <g> <path fill="#ECBF69" d="M685,358.091c0,12.348-10.009,22.357-22.358,22.357c-12.348,0-174.923-22.357-174.923-22.357 s162.575-22.359,174.923-22.359C674.991,335.732,685,345.743,685,358.091z"/> <path fill="#ECBF69" d="M791.051,358.091c0,12.348,10.01,22.357,22.358,22.357s174.923-22.357,174.923-22.357 s-162.575-22.359-174.923-22.359S791.051,345.743,791.051,358.091z"/> <path fill="#ECBF69" d="M738.026,411.116c12.348,0,22.358,10.01,22.358,22.357c0,12.349-22.358,174.924-22.358,174.924 s-22.358-162.575-22.358-174.924C715.668,421.125,725.677,411.116,738.026,411.116z"/> <path fill="#ECBF69" d="M738.026,305.066c12.348,0,22.358-10.011,22.358-22.358c0-12.349-22.358-174.923-22.358-174.923 s-22.358,162.575-22.358,174.923C715.668,295.055,725.677,305.066,738.026,305.066z"/> <path fill="#ECBF69" d="M700.532,395.585c8.732,8.731,8.732,22.887,0,31.62c-8.732,8.731-139.499,107.879-139.499,107.879 s99.148-130.768,107.88-139.499C677.644,386.854,691.8,386.854,700.532,395.585z"/> <path fill="#ECBF69" d="M775.521,320.596c8.732,8.731,22.887,8.731,31.62,0c8.731-8.731,107.88-139.499,107.88-139.499 s-130.768,99.148-139.5,107.88C766.789,297.708,766.789,311.865,775.521,320.596z"/> <path fill="#ECBF69" d="M775.521,395.585c8.732-8.731,22.887-8.731,31.62,0c8.731,8.731,107.88,139.499,107.88,139.499 s-130.768-99.148-139.5-107.879C766.789,418.472,766.789,404.316,775.521,395.585z"/> <path fill="#ECBF69" d="M700.532,320.596c8.732-8.731,8.732-22.888,0-31.619c-8.732-8.732-139.499-107.88-139.499-107.88 s99.148,130.768,107.88,139.499S691.8,329.328,700.532,320.596z"/> <circle fill="#ECBF69" cx="738.026" cy="358.091" r="30.341"/> </g> </g> </svg>