<?xml version="1.0" encoding="UTF-8" standalone="no"?>
<svg
   id="svg"
   version="1.1"
   width="900"
   height="600"
   viewBox="0 0 900 600"
   sodipodi:docname="Flag_of_Rakhine.svg"
   inkscape:version="1.1.1 (3bf5ae0d25, 2021-09-20)"
   xmlns:inkscape="http://www.inkscape.org/namespaces/inkscape"
   xmlns:sodipodi="http://sodipodi.sourceforge.net/DTD/sodipodi-0.dtd"
   xmlns="http://www.w3.org/2000/svg"
   xmlns:svg="http://www.w3.org/2000/svg"
   xmlns:rdf="http://www.w3.org/1999/02/22-rdf-syntax-ns#"
   xmlns:cc="http://creativecommons.org/ns#"
   xmlns:dc="http://purl.org/dc/elements/1.1/">
  <metadata
     id="metadata10">
    <rdf:RDF>
      <cc:Work
         rdf:about="">
        <dc:format>image/svg+xml</dc:format>
        <dc:type
           rdf:resource="http://purl.org/dc/dcmitype/StillImage" />
      </cc:Work>
    </rdf:RDF>
  </metadata>
  <defs
     id="defs8" />
  <sodipodi:namedview
     pagecolor="#ffffff"
     bordercolor="#666666"
     borderopacity="1"
     objecttolerance="10"
     gridtolerance="10"
     guidetolerance="10"
     inkscape:pageopacity="0"
     inkscape:pageshadow="2"
     inkscape:window-width="1920"
     inkscape:window-height="1017"
     id="namedview6"
     showgrid="false"
     inkscape:zoom="0.95989746"
     inkscape:cx="522.97253"
     inkscape:cy="420.3574"
     inkscape:window-x="-8"
     inkscape:window-y="-8"
     inkscape:window-maximized="1"
     inkscape:current-layer="svg"
     inkscape:pagecheckerboard="0"
     showguides="false" />
  <path
     id="rect837"
     style="fill:#f41818;fill-opacity:1;fill-rule:evenodd;stroke-width:4.64889"
     d="M 0,0 H 900 V 600 H 0 Z" />
  <path
     id="rect845"
     style="fill:#ffffff;stroke-width:0.905808"
     d="M 0,0 H 900 V 300 H 0 Z" />
  <path
     id="path1165"
     style="fill:#272ca7;fill-opacity:1;stroke-width:1.4415"
     d="M 625,300 A 175,175 0 0 1 449.99999,475 175,175 0 0 1 275,300 175,175 0 0 1 449.99999,125 175,175 0 0 1 625,300 Z" />
  <path
     id="path847"
     style="fill:#ffffff;stroke-width:1.66592;fill-opacity:1"
     d="M 450 135 A 165 165 0 0 0 285 300 A 165 165 0 0 0 450 465 A 165 165 0 0 0 615 300 A 165 165 0 0 0 450 135 z M 450 145 A 155 155 0 0 1 605 300 A 155 155 0 0 1 450 455 A 155 155 0 0 1 295 300 A 155 155 0 0 1 450 145 z " />
  <path
     id="path7935-0"
     style="fill:#ffffff;fill-opacity:1;stroke:none;stroke-width:0.698895;stroke-linecap:butt;stroke-linejoin:miter;stroke-miterlimit:4;stroke-dasharray:none;stroke-opacity:1"
     d="m 415.45898,175 a 17.933541,18.009704 0 0 0 -17.93359,18.00977 17.933541,18.009704 0 0 0 17.93359,18.00976 17.933541,18.009704 0 0 0 17.9336,-18.00976 A 17.933541,18.009704 0 0 0 415.45898,175 Z m 0,6.00391 a 11.955693,12.006472 0 0 1 11.95508,12.00586 11.955693,12.006472 0 0 1 -11.95508,12.00781 11.955693,12.006472 0 0 1 -11.95703,-12.00781 11.955693,12.006472 0 0 1 11.95703,-12.00586 z m 57.11719,0.79492 c -5.31738,17.23777 29.75753,32.50712 41.51172,12.27148 -16.7917,3.18523 -29.10452,1.50003 -41.51172,-12.27148 z m -57.11719,7.20898 a 3.9852318,4.0021582 0 0 0 -3.98632,4.00196 3.9852318,4.0021582 0 0 0 3.98632,4.00195 3.9852318,4.0021582 0 0 0 3.98438,-4.00195 3.9852318,4.0021582 0 0 0 -3.98438,-4.00196 z M 380.5625,216.8418 c -1.74891,-0.0322 -3.63371,0.076 -5.66211,0.35547 0,0 -26.38418,-0.19839 -35.61914,41.66797 0,0 -0.92486,14.04413 -12.73242,11.32812 0,0 -1.11973,-1.05971 1.12305,-3.9082 0,0 3.89098,-10.0703 -7.125,-10.86524 0,0 -13.91776,4.96797 -5.14454,16.62696 0,0 4.81446,7.75153 22.29493,0.39843 0,0 6.56348,-1.85533 4.08984,8.57813 0,0 -4.09011,12.0243 -7.91602,6.79101 0,0 -6.59566,-10.99715 -15.03906,-3.44531 0,0 -8.90551,11.26232 7.51953,16.29688 0,0 5.60793,1.45614 13.25977,-6.89063 l 5.07812,-8.41211 c 0,0 1.78232,-4.37346 5.14649,4.23828 0,0 5.14413,10.07086 0.13086,19.875 0,0 -3.09615,5.72652 -5.94141,2.91602 0,0 -9.7475,-15.22389 -17.11719,-0.46875 0,0 -2.3332,12.74235 10.02735,12.97656 0,0 7.37007,1.12277 14.64648,-10.25976 0,0 4.10454,-7.11869 3.91797,-9.22657 0,0 2.51974,-4.30914 5.31836,0.42188 0,0 7.32126,11.75689 4.75586,15.97265 0,0 -1.63104,4.63724 -7.18164,2.62305 0,0 -8.67628,-1.9669 -9.5625,6.13672 0,0 -0.0929,9.13261 10.30859,8.85156 0,0 6.62236,0.60935 10.02735,-7.68164 0,0 3.40505,-8.29014 2.3789,-9.78906 0,0 1.53916,-3.98249 4.71094,1.4043 0,0 5.92503,10.21162 4.19922,16.67578 0,0 -0.37402,4.16937 -8.44336,0.65625 0,0 -9.84215,-0.5144 -6.76367,9.46289 0,0 4.33778,8.24255 14.55273,0.51367 0,0 7.69727,-8.05563 4.15234,-20.375 -5.16993,-19.88311 -29.09042,-36.97943 -33.98632,-54.86133 0,0 -9.89531,-18.01793 13.58789,-45.31054 19.20531,-19.03356 44.75676,4.78773 29.41992,10.99609 -4.78097,1.82682 -2.22981,5.63252 0.26562,5.23437 0,0 12.26776,-0.66374 8.50782,-15.70117 0,0 -4.27938,-13.4916 -21.18555,-13.80273 z m 138.875,0 c -16.90616,0.31113 -21.18555,13.80273 -21.18555,13.80273 -3.75995,15.03743 8.50977,15.70117 8.50977,15.70117 2.49543,0.39815 5.04465,-3.40755 0.26367,-5.23437 -15.33684,-6.20836 10.21461,-30.02965 29.41992,-10.99609 23.4832,27.29261 13.58789,45.31054 13.58789,45.31054 -4.8959,17.8819 -28.81639,34.97822 -33.98632,54.86133 -3.54492,12.31937 4.15234,20.375 4.15234,20.375 10.21495,7.72888 14.55273,-0.51367 14.55273,-0.51367 3.07848,-9.97729 -6.76367,-9.46289 -6.76367,-9.46289 -8.06934,3.51312 -8.44336,-0.65625 -8.44336,-0.65625 -1.72582,-6.46416 4.19922,-16.67578 4.19922,-16.67578 3.17178,-5.38679 4.71094,-1.4043 4.71094,-1.4043 -1.02615,1.49892 2.3789,9.78906 2.3789,9.78906 3.40498,8.29099 10.02735,7.68164 10.02735,7.68164 10.40153,0.28105 10.30859,-8.85156 10.30859,-8.85156 -0.88622,-8.10362 -9.5625,-6.13672 -9.5625,-6.13672 -5.55059,2.01419 -7.18164,-2.62305 -7.18164,-2.62305 -2.5654,-4.21576 4.75781,-15.97265 4.75781,-15.97265 2.79861,-4.73102 5.31641,-0.42188 5.31641,-0.42188 -0.18657,2.10788 3.91797,9.22657 3.91797,9.22657 7.27641,11.38253 14.64648,10.25976 14.64648,10.25976 12.36055,-0.23421 10.02735,-12.97656 10.02735,-12.97656 -7.36969,-14.75514 -17.11719,0.46875 -17.11719,0.46875 -2.84526,2.8105 -5.94141,-2.91602 -5.94141,-2.91602 -5.01325,-9.80414 0.13282,-19.875 0.13282,-19.875 3.36418,-8.61174 5.14453,-4.23828 5.14453,-4.23828 l 5.07812,8.41211 c 7.65183,8.34677 13.25977,6.89063 13.25977,6.89063 16.42504,-5.03456 7.51953,-16.29688 7.51953,-16.29688 -8.4434,-7.55184 -15.03906,3.44531 -15.03906,3.44531 -3.82591,5.23329 -7.91602,-6.79101 -7.91602,-6.79101 -2.47365,-10.43346 4.08984,-8.57813 4.08984,-8.57813 17.48047,7.3531 22.29493,-0.39843 22.29493,-0.39843 8.77322,-11.65899 -5.14454,-16.62696 -5.14454,-16.62696 -11.01598,0.79494 -7.125,10.86524 -7.125,10.86524 2.24279,2.84849 1.12305,3.9082 1.12305,3.9082 -11.80756,2.71601 -12.73242,-11.32812 -12.73242,-11.32812 -9.23497,-41.86636 -35.61914,-41.66797 -35.61914,-41.66797 -2.0284,-0.27947 -3.9132,-0.38766 -5.66211,-0.35547 z M 450,247.54102 c -2.18711,0 -5.2461,5.36718 -5.24609,5.36718 0,0 -14.34436,35.59698 -8.56055,67.63672 0,0 5.97161,6.74431 -4.47656,26.23047 0,0 -0.65439,2.81089 6.80859,3.2793 L 450,350.52344 l 11.47461,-0.46875 c 7.46299,-0.46841 6.80859,-3.2793 6.80859,-3.2793 -10.44817,-19.48616 -4.47656,-26.23047 -4.47656,-26.23047 5.78381,-32.03974 -8.56055,-67.63672 -8.56055,-67.63672 1e-5,0 -3.05899,-5.36718 -5.24609,-5.36718 z m -43.96289,2.60156 c -8.0504,-0.0307 -23.87987,3.53427 -21.71094,32.55273 4.94854,13.64862 22.61586,29.7702 24.16016,44.59375 l 2.05273,14.70899 c 0,0 1.20232,3.15068 3.41211,-1.51953 0,0 6.38369,-23.02729 1.43945,-31.17774 0,0 -5.69029,-10.30422 -13.33984,-17.89258 0,0 -11.66208,-19.9551 -1.02734,-25.48242 11.05666,13.27838 19.89818,9.85882 23.13672,1.21875 0,0 3.45046,-13.20942 -13.6211,-16.58203 0,0 -1.81848,-0.40968 -4.50195,-0.41992 z m 87.92578,0 c -2.68347,0.0102 -4.50195,0.41992 -4.50195,0.41992 -17.07156,3.37261 -13.6211,16.58203 -13.6211,16.58203 3.23853,8.64007 12.08007,12.05963 23.13672,-1.21875 10.63476,5.52732 -1.02734,25.48242 -1.02734,25.48242 -7.64957,7.58836 -13.33984,17.89258 -13.33984,17.89258 -4.94424,8.15045 1.43945,31.17774 1.43945,31.17774 2.2098,4.67021 3.41211,1.51953 3.41211,1.51953 l 2.05273,-14.70899 c 1.54431,-14.82355 19.21161,-30.94513 24.16016,-44.59375 2.16893,-29.01846 -13.66054,-32.58347 -21.71094,-32.55273 z m -101.9043,103.47266 c 0,0 -20.52445,2.15421 -9.70312,18.54882 0,0 9.06847,17.99673 67.64453,19.05664 58.57606,-1.05991 67.64453,-19.05664 67.64453,-19.05664 10.82133,-16.39461 -9.70312,-18.54882 -9.70312,-18.54882 -11.47435,0.56209 -8.60157,14.35546 -8.60157,14.35546 0,0 -9.19746,11.93178 -49.33984,12.05078 -40.14238,-0.119 -49.33984,-12.05078 -49.33984,-12.05078 0,0 2.87277,-13.79338 -8.60157,-14.35546 z m -12.75195,32.36523 a 4.981539,5.0026969 0 0 0 -4.98047,5.00195 4.981539,5.0026969 0 0 0 4.98047,5.00196 4.981539,5.0026969 0 0 0 4.98242,-5.00196 4.981539,5.0026969 0 0 0 -4.98242,-5.00195 z m 141.38672,0 a 4.981539,5.0026969 0 0 0 -4.98242,5.00195 4.981539,5.0026969 0 0 0 4.98242,5.00196 4.981539,5.0026969 0 0 0 4.98047,-5.00196 4.981539,5.0026969 0 0 0 -4.98047,-5.00195 z m -126.44141,9.00391 a 6.9741545,7.0037756 0 0 0 -6.97461,7.0039 6.9741545,7.0037756 0 0 0 6.97461,7.00391 6.9741545,7.0037756 0 0 0 6.97461,-7.00391 6.9741545,7.0037756 0 0 0 -6.97461,-7.0039 z m 111.4961,0 a 6.9741545,7.0037756 0 0 0 -6.97461,7.0039 6.9741545,7.0037756 0 0 0 6.97461,7.00391 6.9741545,7.0037756 0 0 0 6.97461,-7.00391 6.9741545,7.0037756 0 0 0 -6.97461,-7.0039 z m -86.58789,5.00195 a 8.96677,9.0048543 0 0 0 -8.9668,9.00586 8.96677,9.0048543 0 0 0 8.9668,9.0039 8.96677,9.0048543 0 0 0 8.96679,-9.0039 8.96677,9.0048543 0 0 0 -8.96679,-9.00586 z m 61.68164,0 a 8.96677,9.0048543 0 0 0 -8.9668,9.00586 8.96677,9.0048543 0 0 0 8.9668,9.0039 8.96677,9.0048543 0 0 0 8.96484,-9.0039 8.96677,9.0048543 0 0 0 -8.96484,-9.00586 z m -30.88672,3.00195 A 10.959386,11.005933 0 0 0 438.99609,413.99414 10.959386,11.005933 0 0 0 449.95508,425 10.959386,11.005933 0 0 0 460.91406,413.99414 10.959386,11.005933 0 0 0 449.95508,402.98828 Z" />
</svg>
