<?xml version="1.0" encoding="UTF-8" standalone="no"?>
<svg
   width="900"
   height="600"
   version="1.1"
   id="svg4716"
   sodipodi:docname="Flag_of_Volga_Germans_(version).svg"
   inkscape:version="1.1.1 (3bf5ae0d25, 2021-09-20)"
   xmlns:inkscape="http://www.inkscape.org/namespaces/inkscape"
   xmlns:sodipodi="http://sodipodi.sourceforge.net/DTD/sodipodi-0.dtd"
   xmlns="http://www.w3.org/2000/svg"
   xmlns:svg="http://www.w3.org/2000/svg"
   xmlns:rdf="http://www.w3.org/1999/02/22-rdf-syntax-ns#"
   xmlns:cc="http://creativecommons.org/ns#"
   xmlns:dc="http://purl.org/dc/elements/1.1/">
  <metadata
     id="metadata4722">
    <rdf:RDF>
      <cc:Work
         rdf:about="">
        <dc:format>image/svg+xml</dc:format>
        <dc:type
           rdf:resource="http://purl.org/dc/dcmitype/StillImage" />
        <dc:title />
      </cc:Work>
    </rdf:RDF>
  </metadata>
  <defs
     id="defs4720">
    <rect
       height="46.064"
       width="183.307"
       transform="matrix(-1 5.331834e-005 -5.331834e-005 -1 279.6868 46.0663)"
       y="0.005"
       x="48.189"
       id="SVGID_1_" />
    <rect
       height="46.064"
       width="37.855"
       id="SVGID_3_" />
  </defs>
  <sodipodi:namedview
     pagecolor="#ffffff"
     bordercolor="#666666"
     borderopacity="1"
     objecttolerance="10"
     gridtolerance="10"
     guidetolerance="10"
     inkscape:pageopacity="0"
     inkscape:pageshadow="2"
     inkscape:window-width="1920"
     inkscape:window-height="1007"
     id="namedview4718"
     showgrid="false"
     inkscape:lockguides="false"
     inkscape:zoom="1.2622222"
     inkscape:cx="435.34331"
     inkscape:cy="304.22535"
     inkscape:window-x="-9"
     inkscape:window-y="-9"
     inkscape:window-maximized="1"
     inkscape:current-layer="svg4716"
     inkscape:pagecheckerboard="0" />
  <path
     inkscape:connector-curvature="0"
     d="M 0,0 H 900 V 600 H 0 Z"
     id="path4710"
     style="fill:#ffffff;fill-opacity:1;stroke:none;stroke-opacity:1" />
  <path
     inkscape:connector-curvature="0"
     d="M 0,0 H 900 V 400 H 0 Z"
     id="path4712"
     style="fill:#ffde07;fill-opacity:1" />
  <path
     inkscape:connector-curvature="0"
     d="M 0,0 H 900 V 200 H 0 Z"
     id="path4714" />
  <path
     style="fill:#060402;stroke-width:0.22867601"
     d="m 439.84377,472.56957 c -4.65542,-0.34274 -11.17991,-1.11695 -11.47471,-1.36161 -0.15409,-0.12787 -0.47298,-0.1713 -0.70864,-0.0965 -0.63349,0.20105 -3.97518,-0.49038 -6.07672,-1.25736 -1.01014,-0.36864 -2.20281,-0.67038 -2.65038,-0.67052 -3.18969,0 -15.3249,-4.2756 -21.85196,-7.69739 -1.88658,-0.98903 -4.60114,-2.41437 -6.03235,-3.16737 -2.69855,-1.41983 -13.03471,-8.12136 -14.29057,-9.26541 -0.3934,-0.35837 -1.84722,-1.61838 -3.23071,-2.79999 -1.38349,-1.18164 -3.02996,-2.72374 -3.65882,-3.42692 -0.62886,-0.70318 -2.84563,-3.11269 -4.92618,-5.3545 -5.26833,-5.67662 -12.21751,-14.44495 -14.76566,-18.63101 -1.47186,-2.4179 -7.60795,-14.79791 -8.20041,-16.54488 -1.88518,-5.55877 -2.88241,-8.93919 -4.58728,-15.54997 -0.5514,-2.13812 -1.32115,-5.07089 -1.71056,-6.51727 -0.51588,-1.91612 -0.76623,-3.49858 -0.9225,-5.83124 -0.37081,-5.53483 -0.68538,-9.96161 -0.91813,-12.92019 -0.12368,-1.57215 -0.37447,-4.76218 -0.55731,-7.08896 -0.18284,-2.32677 -0.49412,-5.92842 -0.69173,-8.00365 -0.75518,-7.9309 -0.82727,-8.90389 -0.92022,-12.41996 -0.0526,-1.98875 -0.25404,-5.4875 -0.44771,-7.77498 -0.70488,-8.32541 -0.80725,-9.47749 -1.14179,-12.84875 -0.44779,-4.51265 -0.9686,-10.6405 -1.14669,-13.49188 -0.0786,-1.25772 -0.28422,-4.13904 -0.45706,-6.40293 -0.17283,-2.2639 -0.37867,-5.29957 -0.45744,-6.74595 -0.0788,-1.44637 -0.29051,-4.5335 -0.47054,-6.86028 -0.51755,-6.68885 -0.76294,-9.93032 -1.0214,-13.49188 -0.13234,-1.82369 -0.38682,-4.96227 -0.56551,-6.97462 -0.83566,-9.41095 -1.89352,-22.58813 -2.16624,-26.98376 -0.12485,-2.01235 -0.33097,-4.89367 -0.45804,-6.40293 -0.12707,-1.50926 -0.33679,-4.23623 -0.46605,-6.05992 -0.81455,-11.4929 -1.18672,-16.44685 -1.7008,-22.63892 -0.31848,-3.83604 -0.72882,-8.77544 -0.91187,-10.97645 -0.18305,-2.201 -0.39278,-4.92797 -0.46608,-6.05991 -0.13387,-2.0674 -0.27527,-3.37742 -0.91467,-8.47388 -0.19024,-1.51634 -0.34589,-3.03418 -0.34589,-3.37297 v -0.61599 h 133.21727 c 88.75327,0 124.96578,0.46164 124.86651,0.97187 -0.15884,0.81618 -0.79954,7.22341 -1.17194,11.71964 -0.48315,5.83334 -0.99599,11.54794 -1.25186,13.94924 -0.12063,1.13195 -0.27071,2.72696 -0.33353,3.54448 -0.0628,0.81751 -0.27208,3.08141 -0.46499,5.03087 -0.45518,4.59962 -1.72458,18.8628 -1.95378,21.9529 -0.26211,3.53384 -0.65026,8.04772 -0.90455,10.51909 -0.12294,1.19483 -0.27396,2.89275 -0.33558,3.77315 -0.13625,1.94652 -0.70652,8.30502 -1.02548,11.4338 -0.12819,1.25772 -0.39369,3.93323 -0.58993,5.94558 -0.19628,2.01235 -0.40205,4.07043 -0.45727,4.57352 -0.54523,4.96669 -1.41646,14.2444 -1.93263,20.58084 -0.13318,1.63503 -0.34215,4.05328 -0.46435,5.37389 -0.1222,1.3206 -0.32421,3.73885 -0.44894,5.37388 -0.12472,1.63504 -0.38477,4.56781 -0.57788,6.51727 -0.56058,5.65891 -1.0824,11.15308 -1.48775,15.66431 -0.55319,6.15667 -0.95266,10.3624 -1.49872,15.77864 -0.19018,1.88658 -0.44255,4.71645 -0.56078,6.28859 -0.11825,1.57215 -0.32189,3.93895 -0.45252,5.25955 -0.22813,2.30582 -0.52809,5.48522 -1.26212,13.37755 -0.18717,2.01235 -0.44097,4.68785 -0.56405,5.94557 -0.12307,1.25772 -0.38913,4.03613 -0.59126,6.17425 -0.56229,5.94827 -4.11215,22.41748 -6.39371,29.66298 -0.68349,2.1705 -2.59854,7.0748 -2.8783,7.3711 -0.11281,0.11948 -0.20512,0.34151 -0.20512,0.49339 0,0.43087 -2.70105,6.13666 -4.04782,8.55075 -0.2456,0.4402 -0.84709,1.52069 -1.33667,2.4011 -0.48958,0.8804 -1.50153,2.52686 -2.24877,3.65881 -2.44877,3.70949 -9.83442,13.75445 -11.34917,15.43563 -1.93731,2.15015 -3.93556,4.11617 -4.18365,4.11617 -0.1521,0 -0.54794,0.4493 -0.87963,0.99847 -0.58082,0.96155 -6.13342,5.84241 -11.78181,10.35641 -2.63844,2.10855 -8.01607,5.56108 -12.76613,8.19604 -5.17572,2.8711 -9.56203,5.24684 -10.17608,5.51167 -1.30171,0.56138 -7.43022,2.57858 -12.69152,4.17743 -2.90088,0.88152 -17.10695,3.93279 -19.32312,4.15031 -2.65305,0.26041 -14.41206,0.22934 -18.17975,-0.048 z"
     id="path11504"
     inkscape:connector-curvature="0"
     sodipodi:nodetypes="cccccccccscccscccsscccccssscsscccccscscscscccccccccsscccccccccscsccscccccccc" />
  <path
     inkscape:connector-curvature="0"
     style="fill:#ffdc08;fill-opacity:1;stroke-width:0.22867601"
     d="m 453.10698,471.92287 c 5.35351,-0.35379 12.53765,-1.44837 17.37938,-2.64798 8.15588,-2.02072 12.94823,-3.59604 18.10791,-5.95241 0.65224,-0.29785 1.22837,-0.54157 1.28026,-0.54157 0.21692,0 6.29802,-3.01746 7.13824,-3.54201 0.50309,-0.31409 1.06906,-0.63796 1.25772,-0.71976 0.27781,-0.12042 2.72161,-1.51644 4.7534,-2.71537 0.93647,-0.55259 5.7898,-3.87928 7.25641,-4.97384 8.44474,-6.30256 15.74649,-13.52433 22.82918,-22.5791 2.90028,-3.70782 6.56168,-9.18852 8.55502,-12.80585 0.45049,-0.81752 1.00136,-1.75137 1.22416,-2.0752 0.52564,-0.764 4.05096,-7.82775 5.01296,-10.04454 2.37841,-5.48073 5.20682,-14.16026 6.5204,-20.00924 1.6311,-7.26272 1.9174,-9.50726 3.07729,-24.12532 0.2545,-3.20718 0.62243,-7.63206 0.81765,-9.83307 0.57917,-6.52991 0.77972,-8.88162 1.0043,-11.77681 0.11709,-1.50926 0.31654,-3.77315 0.44324,-5.03087 0.12672,-1.25772 0.33794,-3.47016 0.46941,-4.91654 0.22129,-2.43467 0.83217,-8.60477 1.39243,-14.06357 0.12907,-1.25772 0.32511,-3.26435 0.43563,-4.45918 0.24232,-2.61999 0.81397,-8.31948 1.27292,-12.69152 0.18484,-1.7608 0.39365,-3.9218 0.46406,-4.8022 0.0704,-0.88041 0.26956,-2.93849 0.44262,-4.57352 0.17306,-1.63504 0.3775,-3.74457 0.45429,-4.68786 0.24029,-2.95204 1.01932,-11.22059 1.27114,-13.49188 0.13245,-1.19484 0.21877,-2.42969 0.19183,-2.74412 -0.0269,-0.31443 0.067,-1.44637 0.20884,-2.51543 0.26587,-2.00447 0.56039,-4.94875 0.97214,-9.71873 0.13027,-1.50926 0.38962,-4.33913 0.57628,-6.28859 0.50664,-5.29115 0.7671,-8.06952 1.0183,-10.86211 0.20773,-2.30972 1.08139,-11.58956 1.93755,-20.58084 0.19163,-2.01235 0.45335,-4.84221 0.58164,-6.28859 0.12826,-1.44638 0.32808,-3.55591 0.44402,-4.68786 0.11594,-1.13194 0.37235,-3.80745 0.56983,-5.94557 0.44689,-4.83846 0.68416,-7.26746 1.26209,-12.9202 0.56558,-5.53216 0.88004,-8.81952 1.02804,-10.74777 0.0627,-0.81752 0.21774,-2.56217 0.34445,-3.87701 0.15315,-1.5891 0.15395,-2.46705 0.002,-2.61862 -0.14312,-0.14312 -4.46352,-0.25955 -11.60434,-0.31272 -23.06159,-0.17173 -241.90012,-0.13063 -242.42812,0.0455 -0.6098,0.20345 -0.60715,-0.43067 -0.0259,6.19113 0.12145,1.38349 0.47985,6.21999 0.79645,10.74778 0.31661,4.52778 0.72989,10.34187 0.9184,12.92019 0.18851,2.57832 0.59993,8.80402 0.91428,13.8349 0.31434,5.03087 0.62536,9.66156 0.69115,10.29042 0.0658,0.62886 0.3287,3.97324 0.58423,7.43197 0.25554,3.45872 0.56111,7.52344 0.67903,9.0327 0.11794,1.50926 0.36741,4.85365 0.55438,7.43197 0.18698,2.57832 0.49875,6.79739 0.69284,9.37571 0.19408,2.57833 0.45378,6.23142 0.57712,8.118 0.12333,1.88658 0.3219,4.35628 0.44126,5.48822 0.11935,1.13195 0.27414,2.93277 0.34395,4.00183 0.16031,2.45446 1.10236,15.02425 1.84238,24.58268 0.31159,4.0247 0.77882,10.1475 1.03827,13.60622 0.25946,3.45873 0.51175,6.75166 0.56064,7.31763 0.0489,0.56598 0.14846,1.85228 0.22123,2.85845 0.0728,1.00618 0.18306,2.39539 0.24507,3.08713 0.062,0.69175 0.26591,3.62452 0.45312,6.51727 0.37112,5.73432 0.60067,9.07117 1.14053,16.57901 0.19444,2.70409 0.45413,6.563 0.57709,8.57535 0.6568,10.74866 1.44239,16.95542 3.07766,24.31577 2.24577,10.10824 3.80293,15.12162 6.97251,22.44847 2.84617,6.57925 6.48018,13.24052 10.35446,18.9801 1.27476,1.8885 4.25443,5.92781 4.63889,6.28859 0.13402,0.12578 0.54318,0.6403 0.90922,1.14338 2.03482,2.7966 7.53337,8.78777 11.42819,12.45205 2.30834,2.17169 6.70512,5.86202 8.51455,7.14644 0.40677,0.28876 1.74452,1.24817 2.97279,2.13202 4.13922,2.97858 12.41658,7.93154 14.46739,8.65695 0.31443,0.1112 0.67459,0.28051 0.80036,0.37623 0.28518,0.21704 5.96102,2.75646 7.66065,3.42747 4.91592,1.94075 10.85336,3.75657 13.14731,4.02081 0.75377,0.0868 2.2327,0.4493 3.2865,0.80551 3.44976,1.16608 11.29306,2.54198 16.72421,2.93382 3.58843,0.25888 9.96355,0.26151 13.8349,0.006 z"
     id="path11502" />
  <path
     inkscape:connector-curvature="0"
     style="fill:#030201;fill-opacity:1;stroke-width:0.22867601"
     d="m 438.92906,462.19291 c -7.56403,-0.69648 -21.16829,-3.6308 -25.44795,-5.48888 -0.41304,-0.17933 -0.90183,-0.32605 -1.08621,-0.32605 -0.1844,0 -0.33527,-0.10291 -0.33527,-0.22868 0,-0.12577 -0.21597,-0.22867 -0.47995,-0.22867 -0.26399,0 -0.80423,-0.14311 -1.20055,-0.318 -0.39632,-0.17489 -1.13221,-0.47297 -1.6353,-0.66243 -1.86078,-0.70069 -7.91266,-3.59858 -10.74777,-5.14647 -3.06523,-1.67354 -8.11247,-4.8729 -10.60496,-6.72234 -1.21049,-0.89819 -2.56106,-1.89358 -3.00126,-2.21198 -0.4402,-0.31841 -0.85182,-0.63789 -0.9147,-0.71 -0.0629,-0.0721 -1.70936,-1.53174 -3.65882,-3.24365 -4.35381,-3.82328 -10.76966,-10.45402 -12.33724,-12.75047 -0.30824,-0.45155 -0.64569,-0.9239 -0.7499,-1.04967 -2.11493,-2.55246 -6.04507,-8.20567 -6.99496,-10.06174 -0.25747,-0.50309 -0.84205,-1.48068 -1.29907,-2.17242 -1.2749,-1.92969 -5.41265,-10.46736 -6.87126,-14.17792 -1.47019,-3.74 -2.7165,-7.56111 -3.72931,-11.4338 -1.13583,-4.34308 -1.39773,-5.48768 -1.8575,-8.11799 -0.24183,-1.38349 -0.59152,-3.23577 -0.77708,-4.11617 -0.7095,-3.3662 -1.3024,-9.58864 -2.0809,-21.83856 -1.02684,-16.15788 -1.65205,-25.75953 -1.95062,-29.95655 -0.12974,-1.8237 -0.33556,-5.32244 -0.45739,-7.77499 -0.12183,-2.45255 -0.37304,-6.51726 -0.55825,-9.0327 -0.18521,-2.51544 -0.44304,-6.47725 -0.57295,-8.80403 -0.12991,-2.32678 -0.39283,-6.54585 -0.58426,-9.37572 -0.51915,-7.67437 -1.70673,-24.82589 -1.8367,-26.52641 -0.0625,-0.81752 -0.2643,-3.75029 -0.44849,-6.51727 -0.18418,-2.76698 -0.44025,-6.52298 -0.56905,-8.34667 -0.12879,-1.82369 -0.38585,-5.73405 -0.57123,-8.68969 -0.18539,-2.95564 -0.49028,-7.53487 -0.67753,-10.17608 -0.18725,-2.64121 -0.44527,-6.29431 -0.57338,-8.118 -0.1281,-1.82369 -0.3375,-5.37389 -0.46533,-7.88932 -0.12783,-2.51544 -0.33729,-5.85982 -0.46547,-7.43197 -0.9264,-11.36215 -0.96231,-12.28193 -0.48341,-12.378 0.0809,-0.0162 51.77922,-0.0522 114.88522,-0.0799 l 114.73819,-0.0505 -0.003,0.82315 c -0.002,0.45273 -0.15575,2.40804 -0.34281,4.34515 -0.18708,1.9371 -0.44375,4.92132 -0.57039,6.6316 -0.12661,1.71028 -0.28051,3.62412 -0.34196,4.25298 -0.0615,0.62885 -0.37094,4.33341 -0.68777,8.23233 -0.66562,8.19151 -1.34864,16.26468 -1.81856,21.49555 -0.18079,2.01234 -0.38837,4.32769 -0.46129,5.1452 -0.0729,0.81752 -0.33682,4.11046 -0.58641,7.31764 -0.2496,3.20718 -0.65173,7.83787 -0.89361,10.29042 -0.58412,5.92271 -1.10836,11.76711 -1.39483,15.54996 -0.12858,1.69792 -0.42854,5.04231 -0.66657,7.43197 -0.23802,2.38967 -0.4972,5.16808 -0.57596,6.17426 -0.0787,1.00617 -0.33869,4.04184 -0.57766,6.74594 -1.47457,16.68496 -2.89835,33.37363 -3.98964,46.76425 -0.19474,2.38966 -0.4539,5.32243 -0.57589,6.51726 -0.12198,1.19483 -0.37869,4.59067 -0.57044,7.54631 -0.94715,14.59992 -1.59504,20.1539 -3.12108,26.75509 -2.81494,12.17653 -9.38671,26.51825 -17.17232,37.47554 -5.38427,7.57768 -13.89321,16.38758 -21.13442,21.88196 -13.02665,9.88418 -28.03074,16.58961 -43.18939,19.30169 -3.62528,0.64862 -10.84288,1.37741 -13.64104,1.37741 -1.9959,0 -2.26191,-0.0487 -2.47869,-0.45377 -0.42015,-0.78504 -0.30697,-47.82804 0.12026,-49.98299 0.0514,-0.25907 0.55391,-0.80178 1.11677,-1.20599 1.81919,-1.30645 4.92643,-5.47194 4.93254,-6.61246 0.004,-0.62774 0.0745,-0.62758 -1.66236,-0.004 -1.30151,0.46741 -1.82896,0.51051 -6.22421,0.50873 -4.65767,-0.002 -4.8533,-0.0206 -6.50015,-0.62502 -2.17573,-0.7984 -2.39755,-0.79876 -2.19797,-0.004 0.53028,2.1128 2.65655,4.85735 4.99546,6.44802 0.60474,0.41127 1.19482,0.99838 1.31127,1.30469 0.12719,0.33455 0.16847,9.02285 0.10337,21.76122 -0.0596,11.66238 -0.10942,22.82509 -0.11071,24.80599 -0.002,3.29498 -0.0413,3.6406 -0.45972,4.059 -0.25154,0.25155 -0.58598,0.44283 -0.74319,0.42509 -0.15722,-0.0179 -1.72651,-0.16492 -3.48731,-0.32706 z"
     id="path11500" />
  <path
     inkscape:connector-curvature="0"
     style="fill:#ffdc08;fill-opacity:1;stroke-width:0.22867601"
     d="m 442.40562,393.77792 c -0.15464,-6.12668 -0.61364,-10.24492 -1.79047,-16.06448 -0.41263,-2.04049 -1.68576,-5.50716 -2.51945,-6.86028 -1.46993,-2.3858 -4.57319,-6.72161 -6.7991,-9.49959 -1.64599,-2.05423 -4.6105,-6.51817 -6.37195,-9.59486 -2.6297,-4.59323 -4.12363,-10.88964 -6.48375,-27.32678 -0.26185,-1.82369 -0.62407,-4.29339 -0.80491,-5.48822 -0.18085,-1.19484 -0.4249,-2.8413 -0.54234,-3.65882 -0.11744,-0.81752 -0.41979,-2.66979 -0.67189,-4.11617 -0.2521,-1.44637 -0.6138,-3.81317 -0.80378,-5.25955 -0.57089,-4.34649 -1.04719,-7.63988 -1.1575,-8.00366 -0.0573,-0.18865 -0.41766,-2.45255 -0.80099,-5.03087 -0.38333,-2.57833 -0.90893,-6.07707 -1.168,-7.77499 -0.25907,-1.69792 -0.60869,-4.21907 -0.77692,-5.60256 -0.16823,-1.38349 -0.57859,-4.31626 -0.9119,-6.51727 -0.71351,-4.71162 -0.89263,-5.93779 -1.33624,-9.14704 -0.50353,-3.64288 -1.04612,-7.09831 -1.27472,-8.11799 -0.11279,-0.50309 -0.3747,-2.45827 -0.58204,-4.34485 -0.20733,-1.88657 -0.46964,-3.73885 -0.58291,-4.11617 -0.11326,-0.37731 -0.36182,-2.18725 -0.55234,-4.0221 -0.19052,-1.83484 -0.40952,-3.50056 -0.48666,-3.70161 -0.19671,-0.5126 -0.78455,-0.23075 -1.69405,0.81227 -0.7436,0.85276 -0.75111,0.88413 -0.60194,2.51543 0.0831,0.90855 0.24997,2.16642 0.37087,2.79528 0.12091,0.62886 0.47493,3.15001 0.78673,5.60256 0.3118,2.45255 1.04134,7.90648 1.62122,12.11983 0.57988,4.21336 1.14005,8.43243 1.24483,9.37572 0.10478,0.94329 0.3009,2.38395 0.43582,3.20146 0.13492,0.81752 0.45664,3.08141 0.71495,5.03087 0.2583,1.94947 0.62084,4.57352 0.80565,5.83124 0.18479,1.25772 0.43491,3.2129 0.5558,4.34485 0.12089,1.13194 0.38101,3.13858 0.57804,4.45918 0.19703,1.32061 0.45397,3.17288 0.57099,4.11617 0.11701,0.94329 0.37769,2.94992 0.5793,4.45918 0.20161,1.50927 0.50896,3.82461 0.683,5.14521 0.17404,1.32061 0.42069,3.12143 0.54812,4.00183 0.12741,0.88041 0.43722,3.1443 0.68844,5.03088 0.25122,1.88657 0.66361,4.81934 0.91641,6.51726 0.2528,1.69792 0.46178,3.47092 0.4644,3.94002 0.003,0.46908 0.15246,1.65248 0.33299,2.62977 0.18053,0.97728 0.433,2.70302 0.56106,3.83497 0.12805,1.13195 0.49324,3.85891 0.81153,6.05991 0.82566,5.7096 0.9925,6.93262 1.27896,9.37572 0.38896,3.31714 2.07221,14.62293 2.87691,19.32312 0.63248,3.69425 2.75844,9.04511 5.17482,13.02457 4.58243,7.54662 8.53181,11.68574 13.70114,14.35938 1.15507,0.59742 2.19722,1.08621 2.31588,1.08621 0.13213,0 0.16934,-1.83899 0.096,-4.74503 z"
     id="path11498" />
  <path
     inkscape:connector-curvature="0"
     style="fill:#ffdc08;fill-opacity:1;stroke-width:0.22867601"
     d="m 451.33095,397.66542 c 0.6064,-0.34588 1.45989,-0.81178 1.89664,-1.03533 1.15506,-0.59125 3.68054,-2.66454 6.16798,-5.06361 3.16346,-3.05108 4.10999,-4.20094 5.85024,-7.1071 1.05516,-1.76206 3.22591,-7.09747 3.7615,-9.24524 0.26438,-1.06018 0.61597,-2.19213 0.78132,-2.51544 0.16535,-0.3233 0.37322,-1.05089 0.46193,-1.61687 0.0887,-0.56597 0.35425,-1.80272 0.59008,-2.74833 0.96557,-3.87165 2.97426,-15.1035 3.43451,-19.20456 0.11998,-1.06906 0.3638,-2.66408 0.54181,-3.54448 0.17801,-0.8804 0.38953,-2.21816 0.47004,-2.97279 0.15091,-1.4144 0.45493,-3.20313 0.81621,-4.80219 0.11365,-0.50309 0.26716,-1.58359 0.34112,-2.4011 0.074,-0.81752 0.28622,-2.30963 0.4717,-3.3158 0.18548,-1.00618 0.43427,-2.60119 0.55286,-3.54448 0.11859,-0.94329 0.31871,-2.28105 0.44472,-2.97279 0.34442,-1.89074 1.31981,-8.1729 1.49123,-9.60439 0.0828,-0.69175 0.35568,-2.44112 0.60634,-3.88749 0.25065,-1.44638 0.60261,-3.60737 0.78213,-4.8022 0.17954,-1.19483 0.48159,-3.04711 0.67123,-4.11617 0.18965,-1.06906 0.60429,-3.89892 0.92142,-6.28859 0.59886,-4.51256 1.02564,-7.53716 1.61334,-11.4338 0.41403,-2.7451 0.7399,-5.01147 0.8549,-5.94558 0.0464,-0.37732 0.34867,-2.28104 0.6716,-4.23051 0.32293,-1.94946 0.6934,-4.2648 0.82327,-5.14521 0.12987,-0.8804 0.542,-3.29865 0.91584,-5.37388 0.62371,-3.46235 1.02395,-5.96148 2.34383,-14.63527 0.25837,-1.69791 0.61504,-3.98758 0.7926,-5.08814 0.17756,-1.10056 0.32284,-2.21396 0.32284,-2.47423 0,-0.71186 -1.31622,-2.49937 -1.8404,-2.49937 -0.24549,0 -0.44696,0.0772 -0.44769,0.17151 -6.8e-4,0.0943 -0.10607,0.78893 -0.2341,1.54356 -0.12803,0.75463 -0.32611,2.04093 -0.44019,2.85845 -0.27202,1.94937 -0.79784,5.19843 -1.3693,8.46101 -0.25334,1.44638 -0.50718,2.98994 -0.56409,3.43014 -0.0569,0.4402 -0.21551,1.29622 -0.35244,1.90226 -0.13694,0.60604 -0.35639,1.89234 -0.48767,2.85845 -0.13129,0.96611 -0.5475,3.60883 -0.92493,5.87273 -0.37742,2.26389 -0.7786,4.83649 -0.8915,5.7169 -0.1129,0.8804 -0.35824,2.32106 -0.5452,3.20146 -0.18697,0.8804 -0.6577,3.65882 -1.04608,6.17425 -0.38837,2.51544 -1.06608,6.83741 -1.506,9.60439 -0.43991,2.76699 -1.05785,6.67735 -1.37319,8.6897 -0.31534,2.01235 -0.72845,4.6364 -0.91802,5.83124 -0.18957,1.19483 -0.43899,2.78984 -0.55425,3.54447 -0.54712,3.58211 -1.62722,10.4222 -1.82351,11.54814 -0.1206,0.69175 -0.28249,1.97805 -0.35977,2.85845 -0.15098,1.7202 -2.16137,12.0616 -2.71176,13.94924 -0.18336,0.62886 -0.60498,2.06952 -0.93692,3.20146 -0.33195,1.13195 -0.68437,2.3668 -0.78315,2.74411 -0.33868,1.29366 -1.6878,4.56411 -2.33691,5.66502 -0.35706,0.60558 -0.6492,1.14973 -0.6492,1.20922 0,0.58288 -3.96279,6.27731 -6.53881,9.3961 -2.53539,3.06962 -4.89499,6.22268 -4.89499,6.54104 0,0.0495 -0.70067,1.26584 -1.55704,2.70291 -1.59502,2.67659 -2.04857,3.64748 -2.82299,6.043 -1.32499,4.09867 -1.76465,6.351 -2.49129,12.76293 -0.27053,2.3871 -0.34502,9.14187 -0.10509,9.53007 0.24339,0.39383 0.96362,0.25846 2.11325,-0.39727 z"
     id="path11496" />
  <path
     inkscape:connector-curvature="0"
     style="fill:#ffdc08;fill-opacity:1;stroke-width:0.22867601"
     d="m 451.16324,364.30906 c 1.06906,-1.33005 2.2826,-2.83504 2.69677,-3.34439 0.41416,-0.50935 0.86816,-1.14259 1.00886,-1.40721 0.14072,-0.26462 0.49728,-0.73838 0.79237,-1.05281 0.2951,-0.31443 0.94432,-1.18911 1.44273,-1.94374 0.49842,-0.75463 1.20486,-1.78368 1.56987,-2.28676 0.365,-0.50309 0.79562,-1.17197 0.95692,-1.4864 0.16129,-0.31443 0.62641,-0.9833 1.0336,-1.48639 0.94592,-1.16872 3.54771,-6.20081 4.46781,-8.64115 0.38944,-1.03287 0.96154,-2.54682 1.27136,-3.36434 1.57501,-4.15613 2.92818,-11.34577 3.85202,-20.4665 0.26492,-2.6156 1.26633,-10.99304 1.7221,-14.40659 0.25189,-1.88658 0.8667,-6.67162 1.36624,-10.63344 0.49954,-3.96181 1.01227,-7.92362 1.13941,-8.80403 0.5078,-3.51638 1.83437,-14.79175 1.83557,-15.60159 6.8e-4,-0.47469 0.10036,-1.22324 0.22146,-1.66344 0.22634,-0.82274 0.81295,-5.23699 2.75018,-20.69518 0.1261,-1.00618 0.37857,-2.96136 0.56106,-4.34485 0.18248,-1.38348 0.4951,-4.1619 0.6947,-6.17425 0.19959,-2.01235 0.40073,-3.91497 0.44696,-4.22807 0.10044,-0.68018 -0.18617,-1.26505 -1.03679,-2.11567 -0.64488,-0.64487 -1.00625,-0.77676 -1.21278,-0.4426 -0.064,0.10354 -0.23178,1.36411 -0.37288,2.80128 -0.14108,1.43716 -0.4093,3.6935 -0.59602,5.0141 -0.18673,1.32061 -0.48369,3.53305 -0.65991,4.91654 -0.17622,1.38349 -0.42451,3.28722 -0.55175,4.2305 -0.31203,2.31314 -0.41753,3.17 -0.70386,5.7169 -0.13433,1.19484 -0.34749,2.8413 -0.47369,3.65882 -0.47383,3.06945 -2.10412,14.61337 -3.08337,21.83299 -0.30612,2.25691 -0.78826,6.50225 -1.48098,13.0401 -0.13326,1.25772 -0.33601,2.80128 -0.45056,3.43015 -0.11455,0.62886 -0.32049,2.17242 -0.45764,3.43014 -0.39493,3.62171 -1.12165,8.76718 -1.4971,10.60016 -0.3579,1.74723 -1.98298,5.56623 -3.12799,7.3509 -2.45698,3.82956 -4.56041,6.88643 -6.37274,9.26138 -2.48465,3.25597 -3.70292,5.09264 -4.96509,7.4854 -1.6024,3.03775 -3.46146,7.37026 -3.6982,8.61861 -0.1248,0.65802 -0.27284,1.27073 -0.329,1.3616 -0.14641,0.23689 -1.18798,6.37993 -1.5169,8.94647 -0.19083,1.48905 -0.23656,4.0427 -0.14536,8.11799 0.13609,6.08151 0.24549,7.20692 0.69968,7.19848 0.14255,-0.003 1.13387,-1.09304 2.20294,-2.42311 z"
     id="path11494" />
  <path
     inkscape:connector-curvature="0"
     style="fill:#ffdc08;fill-opacity:1;stroke-width:0.22867601"
     d="m 443.09805,364.96475 c 0.0967,-0.34587 0.17586,-3.81889 0.17586,-7.71782 0,-6.9251 -0.0151,-7.16015 -0.65291,-10.16891 -1.1725,-5.53106 -2.40013,-9.04397 -5.16084,-14.76794 -1.48307,-3.07496 -3.12792,-5.91358 -4.12272,-7.11484 -0.98318,-1.18723 -4.20896,-6.42389 -5.31334,-8.62556 -2.6269,-5.23694 -3.10229,-6.99066 -3.96977,-14.64457 -0.31471,-2.77675 -0.61476,-5.35735 -0.66677,-5.73467 -0.12315,-0.89346 -0.73172,-5.83668 -1.04164,-8.46101 -0.13368,-1.13195 -0.34155,-3.08713 -0.46194,-4.34485 -0.12039,-1.25772 -0.41917,-4.08758 -0.66396,-6.28859 -0.24479,-2.201 -0.60539,-5.59684 -0.80131,-7.54631 -0.19593,-1.94946 -0.45299,-4.31626 -0.57124,-5.25954 -0.11826,-0.94329 -0.37864,-3.05283 -0.57863,-4.68786 -0.19999,-1.63503 -0.56516,-4.5678 -0.81148,-6.51727 -0.50254,-3.97725 -1.02461,-8.78719 -1.48925,-13.72056 -0.43582,-4.62752 -0.9907,-9.61993 -1.13823,-10.24107 -0.14918,-0.6281 -0.39925,-0.52092 -1.73261,0.74257 l -0.9401,0.89083 0.10693,1.6169 c 0.0588,0.88929 0.27416,2.90319 0.47855,4.47534 0.75448,5.80322 0.83305,6.54546 0.83512,7.88932 0.001,0.75463 0.19983,3.43014 0.44148,5.94557 0.41413,4.31085 0.8065,8.54124 1.00746,10.86211 0.049,0.56598 0.30662,2.82987 0.57246,5.03088 0.26585,2.201 0.58953,5.33958 0.71929,6.97461 0.29072,3.66296 0.4391,5.22171 1.46937,15.43563 1.17898,11.6884 1.24787,12.39276 1.52072,15.54998 0.13587,1.57215 0.55194,5.2767 0.92459,8.23233 0.37267,2.95564 0.77394,6.30003 0.89173,7.43197 0.11779,1.13195 0.31935,2.88132 0.44791,3.8875 0.12856,1.00617 0.33812,2.70409 0.46569,3.77315 0.12757,1.06906 0.27733,2.20101 0.3328,2.51544 0.0555,0.31443 0.15518,1.03475 0.22157,1.60073 0.10727,0.91455 0.73514,4.43513 1.18269,6.6316 0.0897,0.4402 0.36285,1.26344 0.60699,1.82941 0.24415,0.56597 0.59694,1.53499 0.78399,2.15338 0.91424,3.02257 4.47959,9.45079 6.92296,12.48188 0.45623,0.56598 1.02101,1.33776 1.25508,1.71507 0.70058,1.12936 4.65865,5.74579 5.44988,6.35638 0.40445,0.31212 1.18984,0.99053 1.74529,1.50757 0.55546,0.51704 1.09374,0.94008 1.19619,0.94008 0.10245,0 0.26542,-0.28299 0.36214,-0.62886 z"
     id="path11492" />
  <path
     inkscape:connector-curvature="0"
     style="fill:#ffdc08;fill-opacity:1;stroke-width:0.22867601"
     d="m 451.1619,324.94789 c 0.27032,-0.34667 1.19084,-1.35063 2.04559,-2.23103 2.79722,-2.88113 5.63259,-6.61726 7.20205,-9.49005 0.30919,-0.56598 0.8772,-1.49211 1.26222,-2.05809 0.73008,-1.07321 2.51861,-5.3751 2.53604,-6.09985 0.006,-0.22958 0.16416,-0.82903 0.35251,-1.33212 0.49349,-1.31807 1.13589,-4.01062 1.55805,-6.53043 0.41438,-2.47333 0.49281,-10.64252 0.12832,-13.36439 -0.66116,-4.93724 -0.68697,-5.57182 -0.44663,-10.97644 0.13424,-3.01853 0.40105,-8.00938 0.59291,-11.09079 0.19186,-3.08141 0.4475,-7.24903 0.56808,-9.26138 0.12058,-2.01235 0.31228,-5.20238 0.42601,-7.08895 0.11372,-1.88658 0.36858,-6.1571 0.56635,-9.49006 0.42926,-7.23425 0.76982,-12.68726 0.95311,-15.26138 0.11715,-1.64533 0.0746,-1.98019 -0.33618,-2.64482 -0.7011,-1.13442 -1.35537,-1.66713 -1.66601,-1.35649 -0.14688,0.14688 -0.38342,2.13197 -0.55659,4.67102 -0.16563,2.42858 -0.35748,4.87866 -0.42634,5.44463 -0.0689,0.56598 -0.17524,1.64647 -0.2364,2.4011 -0.0612,0.75463 -0.1635,1.78367 -0.22741,2.28676 -0.0639,0.50309 -0.16749,2.04665 -0.2302,3.43014 -0.23572,5.20075 -0.95969,14.85719 -1.50014,20.00915 -0.24408,2.32678 -0.60157,6.53536 -0.79442,9.35239 -0.19285,2.81704 -0.39011,5.18577 -0.43836,5.26384 -0.0482,0.0781 -0.20632,1.22052 -0.35127,2.53876 -0.42764,3.88943 -1.33399,5.954 -5.14872,11.72837 -2.51542,3.8076 -3.38814,5.22392 -3.91451,6.35271 -0.83681,1.79455 -2.82355,8.18059 -3.17879,10.21769 -0.91143,5.22652 -1.0805,24.0505 -0.22839,25.42923 0.20089,0.32504 0.87161,-0.0576 1.48912,-0.84952 z"
     id="path11490" />
  <path
     inkscape:connector-curvature="0"
     style="fill:#ffdc08;fill-opacity:1;stroke-width:0.22867601"
     d="m 443.71923,318.69745 c 0.19527,-2.21067 0.35504,-6.34351 0.35504,-9.18409 0,-6.16232 -0.13695,-7.07369 -1.95586,-13.01512 -0.65566,-2.14166 -4.69307,-10.27803 -7.83016,-15.77967 -1.45915,-2.55898 -2.11391,-4.65263 -2.34196,-7.48861 -0.11725,-1.45818 -0.31871,-3.73173 -0.4477,-5.05233 -0.12898,-1.32061 -0.33674,-4.61354 -0.46169,-7.31763 -0.12494,-2.7041 -0.32287,-6.04848 -0.43982,-7.43197 -0.11697,-1.38349 -0.27884,-3.80174 -0.35973,-5.37389 -0.0809,-1.57215 -0.23106,-3.52733 -0.33371,-4.34484 -0.10264,-0.81752 -0.20162,-2.6698 -0.21997,-4.11617 -0.0184,-1.44638 -0.13669,-3.76172 -0.26301,-5.14521 -0.12632,-1.38349 -0.26905,-3.23577 -0.31717,-4.11617 -0.39539,-7.23322 -0.86912,-13.5256 -1.03061,-13.68921 -0.30619,-0.31021 -2.00865,0.76932 -2.29199,1.45337 -0.19002,0.45875 -0.16406,2.47092 0.10207,7.91192 0.60046,12.276 0.81277,16.57984 0.92964,18.84485 0.45442,8.80646 0.57949,11.5716 0.68267,15.09261 0.0645,2.20101 0.22926,6.77058 0.36611,10.15461 0.18351,4.5373 0.18048,7.08906 -0.0115,9.71873 -0.14321,1.96128 -0.35875,4.89855 -0.47899,6.52728 -0.4964,6.72414 -0.19306,13.3667 0.82548,18.07687 1.22653,5.67194 4.80586,11.41471 11.41874,18.3205 0.37732,0.39402 1.30346,1.21045 2.05809,1.81426 l 1.37205,1.09786 0.15948,-1.46927 c 0.0877,-0.8081 0.31923,-3.278 0.51452,-5.48868 z"
     id="path11488" />
  <path
     inkscape:connector-curvature="0"
     style="fill:#ffdc08;fill-opacity:1;stroke-width:0.22867601"
     d="m 447.65015,290.64504 c 0.4411,-0.97473 1.20619,-2.61908 1.70019,-3.65411 0.494,-1.03503 0.89819,-1.97521 0.89819,-2.08929 0,-0.11407 0.46765,-1.20149 1.03923,-2.41645 1.96139,-4.1692 2.92144,-7.39214 3.43487,-11.531 0.38335,-3.09031 0.4172,-5.40863 0.10425,-7.14044 -0.12311,-0.68127 -0.4374,-2.52499 -0.69842,-4.09713 -0.55253,-3.32798 -1.03482,-5.27426 -2.43666,-9.83307 -1.9129,-6.22081 -2.08114,-7.07516 -2.27406,-11.54814 -0.0976,-2.26389 -0.18219,-13.5319 -0.18789,-25.04002 -0.006,-13.6727 -0.0896,-20.98207 -0.23904,-21.09186 -0.31582,-0.23203 -1.98953,-0.21144 -2.36924,0.0292 -0.25053,0.15873 -0.34804,2.26309 -0.50047,10.80144 -0.10413,5.83236 -0.2469,12.35366 -0.31728,14.49178 -0.6875,20.88815 -0.8501,24.8771 -1.06268,26.06906 -0.25401,1.42435 -1.96747,6.64178 -2.56133,7.79918 -0.34049,0.66361 -1.30311,3.30222 -2.36208,6.47468 -0.31149,0.93317 -0.82843,3.24851 -1.14875,5.14521 -0.50241,2.97486 -0.56715,3.91969 -0.47138,6.87867 0.0611,1.88658 0.21208,3.73885 0.33559,4.11617 0.12351,0.37732 0.3547,1.252 0.51378,1.94375 0.42236,1.83663 1.3085,4.52015 1.92559,5.83123 0.29597,0.62886 0.9456,2.01807 1.4436,3.08713 0.498,1.06906 1.46069,2.88667 2.13932,4.03913 0.67863,1.15244 1.40917,2.41302 1.62341,2.80128 0.21426,0.38825 0.45249,0.7059 0.5294,0.7059 0.0769,0 0.50076,-0.79751 0.94186,-1.77224 z"
     id="path11486" />
</svg>
